<svg xmlns="http://www.w3.org/2000/svg"  viewBox="0 0 48 48" width="48px" height="48px"><path fill="#f5bc00" d="M33,9c-1.657,0-3,1.343-3,3V7c0-1.657-1.343-3-3-3s-3,1.343-3,3v2c0-1.657-1.343-3-3-3s-3,1.343-3,3	v3c0-1.657-1.343-3-3-3s-3,1.343-3,3v26h24V12C36,10.343,34.657,9,33,9z"/><rect width="7" height="28" x="20.5" y="26.5" fill="#6c19ff" transform="rotate(-90 24 40.5)"/><rect width="24" height="3" x="12" y="37" fill="#2100c4"/><rect width="38" height="20" x="5" y="12" fill="#3ddab4"/><rect width="32" height="14" x="8" y="15" fill="#7decd6"/><circle cx="24" cy="22" r="5" fill="#3ddab4"/><rect width="7" height="4" x="10" y="20" fill="#3ddab4"/><rect width="5" height="4" x="33" y="20" fill="#3ddab4"/><path fill="#f5bc00" d="M36,22v13h-6V22c0-1.657,1.343-3,3-3h0C34.657,19,36,20.343,36,22z"/></svg>