<svg xmlns="http://www.w3.org/2000/svg" xmlns:xlink="http://www.w3.org/1999/xlink" width="620" height="450" fill="none" xmlns:v="https://vecta.io/nano"><style><![CDATA[.B{stroke-linejoin:round}.C{stroke-width:1.232}.D{fill:#fff}.E{fill:#263238}.F{stroke:#050d2c}.G{fill:#00635d}.H{stroke-linecap:round}.I{opacity:.5}.J{fill:#050d2c}.K{stroke:#263238}.L{fill:#f6ae2d}.M{stroke-miterlimit:10}.N{fill:#f26419}]]></style><g fill="#4474ff"><path opacity=".15" fill-rule="evenodd" d="M158.945 449.036h301.917c4.833-31.424 26.937-62.201 50.373-94.835 27.336-38.063 56.486-78.651 62.158-125.736 16.895 26.117 30.154 57.166 40.292 96.379 7.852 29.851 3.756 85.043 1.457 116.032l-.597 8.161H158.944z"/><path opacity=".05" d="M572.11 187.006C556.054 98.953 393.769-24.667 241.52 4.302c-6.594 1.147-13.189 2.868-19.784 4.589C119.09 37.573 41.389 110.139 14.724 201.348.101 250.967-4.2 301.735 4.402 348.773c4.874 26.675 22.364 61.953 48.743 99.814h407.718c12.043-78.302 131.319-152.589 111.248-261.581z"/></g><path d="M497.795 418.058l-.003-.021-.005-.021h0v-.002l-.002-.007-.007-.029-.026-.118-.099-.464-.338-1.758-.86-6.193c-.515-5.078-.721-11.693.496-17.899.608-3.103 1.414-4.828 2.325-5.838.895-.991 1.942-1.352 3.206-1.602.311-.061.64-.116.983-.174 1.027-.172 2.182-.365 3.366-.817 1.613-.617 3.302-1.712 5.02-3.863 1.725-2.16 2.789-4.787 3.541-7.583.679-2.529 1.111-5.227 1.534-7.872l.133-.829c.47-2.922.961-5.75 1.794-8.26s1.993-4.657 3.779-6.245c1.827-1.625 3.867-2.8 5.962-3.848.775-.388 1.567-.762 2.36-1.136 1.322-.625 2.645-1.25 3.888-1.937 2.01-1.111 3.894-2.424 5.435-4.276s2.724-4.227 3.363-7.428l.41-2.058c1.078-5.434 2.028-10.222 3.219-13.612.672-1.911 1.398-3.306 2.214-4.122.401-.401.811-.649 1.236-.76s.896-.095 1.443.088c.473.158.77.46.948.92.188.485.245 1.155.17 2.014-.151 1.72-.809 3.986-1.645 6.545l-.76 2.284-1.851 5.798c-.785 2.734-1.374 5.448-1.374 7.815 0 3.637.776 6.775 1.507 9.733l.589 2.465c.824 3.706 1.223 7.348-.396 11.811-1.45 3.997-5.053 5.487-8.768 7.023l-.959.399c-1.979.832-3.938 1.747-5.395 3.175-1.482 1.452-2.418 3.406-2.418 6.244 0 4 .789 8.021 1.535 11.823l.766 4.102c.832 4.997 1.002 9.407-1.387 12.987-2.414 3.619-6.864 5.862-11.045 7.744l-1.311.585c-1.592.707-3.102 1.377-4.348 2.063-1.563.86-2.858 1.818-3.344 3.041-.819 2.055-2.26 4.933-4 7.286-.871 1.177-1.803 2.205-2.756 2.935s-1.891 1.134-2.78 1.134c-.785 0-1.54-.552-2.254-1.605-.703-1.036-1.286-2.442-1.75-3.884-.462-1.435-.798-2.874-1.018-3.958l-.245-1.306-.059-.363-.015-.095-.003-.024-.001-.005v-.002h0zm-3.689.062l-.01.03-.006.032-1.64 8.309c-.197.983-.529 1.626-.928 2.033-.391.4-.882.609-1.478.66-1.236.104-2.868-.48-4.683-1.466-1.792-.973-3.672-2.286-5.377-3.524l-1.099-.802-3.198-2.232c-.995-.597-1.533-1.158-1.815-1.742s-.342-1.257-.244-2.149c.083-.752.271-1.61.499-2.653l.142-.656.818-4.815c.23-2.055-.525-3.569-1.851-4.697-1.295-1.1-3.127-1.828-5.068-2.406l-3.79-.982-2.208-.546c-1.942-.508-3.64-1.062-4.813-1.842-1.11-.736-1.895-2.063-2.427-3.86s-.787-3.985-.89-6.366l.027-7.388.058-1.716.125-5.253c0-1.118-.252-2.027-.733-2.748s-1.164-1.217-1.955-1.551c-1.556-.658-3.61-.728-5.638-.676l-2.062.082-3.801.062c-.859-.044-1.595-.154-2.179-.364s-.977-.5-1.213-.893c-.126-.209-.149-.341-.145-.414.003-.06.024-.122.105-.2.196-.191.652-.382 1.436-.511 1.524-.249 3.87-.202 6.474.006 5.188.416 11.215 1.455 13.283 1.867.972.194 1.672.527 2.25 1.012.584.491 1.071 1.16 1.58 2.075.428.768.855 1.68 1.368 2.773l.311.662c.652 1.385 1.437 3.011 2.482 4.9 2.169 3.92 5.447 5.431 9.04 6.486.944.278 1.902.523 2.869.771 2.746.702 5.56 1.423 8.285 2.938 1.733.963 3.187 2.98 4.371 5.606 1.177 2.611 2.054 5.75 2.674 8.856a66.76 66.76 0 0 1 1.137 8.585c.077 1.214.102 2.267.082 3.089-.02.845-.087 1.386-.165 1.618z" class="F G"/><path d="M503.86 436.659s-3.88-12.13 6.8-34.47l23.31-48.07" class="C F M"/><path d="M495.121 438.61s-1.45-5.83-6.31-21.85-10.68-20.4-18.94-25.74-8.74-14.08-10.19-16.51" class="G"/><g class="F"><path d="M495.121 438.61s-1.45-5.83-6.31-21.85-10.68-20.4-18.94-25.74-8.74-14.08-10.19-16.51" class="C M"/><path d="M516.024 429.874c.001-.01.003-.021.005-.033l.042-.266.212-.988a16.29 16.29 0 0 1 1.154-3.172c1.18-2.412 3.277-5.078 6.973-6.239 1.906-.598 3.791-.989 5.582-1.322l1.276-.233 3.721-.745c3.011-.737 5.457-1.893 6.264-4.845l.904-4.002.074-.376.721-3.338c.598-2.337 1.413-4.279 2.994-5.637 1.657-1.422 3.545-2.481 5.059-3.004.762-.263 1.392-.377 1.834-.357.456.02.544.162.568.231h0c.006.02.016.048-.03.128-.056.099-.172.23-.375.405s-.448.356-.741.572l-.036.027-.905.689c-1.323 1.069-2.799 2.652-2.799 5.3 0 1.275.465 2.986.963 4.819l.025.09c.517 1.903 1.082 3.992 1.32 6.074s.141 4.108-.631 5.895c-.764 1.772-2.214 3.357-4.785 4.527-5.236 2.383-9.999 2.505-13.985 2.443l-1.094-.021c-1.56-.032-3.01-.061-4.284.058-1.576.148-2.974.528-4.059 1.479-1.945 1.705-3.53 3.166-4.628 4.202l-.977.931-.362-3.292z" class="G"/></g><path d="M514.55 438.61S518 426 526.2 423.07s17.48 3.4 21.36-2.43 1-11.65.49-15.54" class="G"/><g class="F"><path d="M514.55 438.61S518 426 526.2 423.07s17.48 3.4 21.36-2.43 1-11.65.49-15.54" class="C M"/><g class="E"><path d="M489.9 437.16h0H520a1.93 1.93 0 0 1 1.93 1.93 1.93 1.93 0 0 1-1.93 1.93h-.23-.344l-.123.322-2.35 6.15c-.145.381-.404.709-.74.941a2.02 2.02 0 0 1-1.143.357h-20.229a2.02 2.02 0 0 1-1.143-.357c-.336-.232-.595-.56-.74-.941l-2.34-6.15-.123-.322h-.345-.25a1.92 1.92 0 0 1-.736-.147 1.91 1.91 0 0 1-.624-.418c-.178-.179-.32-.392-.416-.626s-.145-.484-.143-.737l-.001-.004a1.92 1.92 0 0 1 .144-.737c.096-.234.238-.447.416-.626a1.91 1.91 0 0 1 .624-.418 1.92 1.92 0 0 1 .736-.147z"/><path d="M343.75 443.94c0-1.058.314-2.093.902-2.972a5.35 5.35 0 0 1 2.401-1.971c.977-.405 2.053-.511 3.091-.304s1.991.716 2.739 1.464 1.258 1.701 1.464 2.739.101 2.114-.304 3.091a5.35 5.35 0 0 1-1.971 2.401c-.879.588-1.914.902-2.972.902-.703.001-1.399-.136-2.049-.405a5.33 5.33 0 0 1-1.737-1.159 5.34 5.34 0 0 1-1.159-1.737c-.269-.65-.406-1.346-.405-2.049z" class="B C"/></g><path d="M346.42 443.94c-.002-.53.153-1.05.447-1.492s.711-.787 1.2-.991a2.68 2.68 0 0 1 1.55-.157c.52.103.999.357 1.374.731a2.69 2.69 0 0 1 .737 1.372c.104.521.051 1.06-.151 1.55a2.68 2.68 0 0 1-2.477 1.657c-.709 0-1.389-.281-1.892-.781s-.785-1.18-.788-1.889z" class="B C D"/><path d="M286.44 443.94c0-1.058.314-2.093.902-2.972a5.35 5.35 0 0 1 2.401-1.971c.978-.405 2.053-.511 3.091-.304s1.991.716 2.739 1.464 1.258 1.701 1.465 2.739a5.35 5.35 0 0 1-.305 3.091c-.405.978-1.09 1.813-1.97 2.401a5.35 5.35 0 0 1-2.973.902c-.702 0-1.398-.139-2.047-.407s-1.239-.663-1.736-1.16-.89-1.087-1.159-1.736a5.35 5.35 0 0 1-.408-2.047z" class="B C E"/><path d="M289.12 443.94a2.68 2.68 0 0 1 .448-1.493c.293-.442.712-.787 1.202-.991s1.03-.258 1.551-.155a2.68 2.68 0 0 1 1.374.734c.376.375.631.854.734 1.375a2.68 2.68 0 0 1-.155 1.55c-.204.49-.549.909-.991 1.202a2.68 2.68 0 0 1-3.378-.337 2.68 2.68 0 0 1-.785-1.885z" class="B C D"/><path d="M267.721 443.94c0-1.058.313-2.093.901-2.972s1.424-1.566 2.401-1.971 2.054-.511 3.091-.304a5.35 5.35 0 0 1 2.74 1.464c.748.748 1.257 1.701 1.464 2.739a5.35 5.35 0 0 1-.305 3.091 5.34 5.34 0 0 1-1.97 2.401 5.35 5.35 0 0 1-2.972.902c-.703.001-1.4-.136-2.049-.405a5.33 5.33 0 0 1-1.737-1.159 5.36 5.36 0 0 1-1.16-1.737c-.268-.65-.406-1.346-.404-2.049z" class="B C E"/><path d="M270.391 443.94c-.002-.53.153-1.05.446-1.492s.712-.787 1.201-.991 1.029-.259 1.549-.157a2.69 2.69 0 0 1 1.375.731 2.68 2.68 0 0 1 .736 1.372c.105.521.052 1.06-.15 1.55a2.68 2.68 0 0 1-2.477 1.657 2.68 2.68 0 0 1-2.68-2.67z" class="B C D"/><g class="E B C"><path d="M311.4 437.82h-11.31v-57.9h11.28v57.9h.03z"/><path d="M297.08 437.82h17.34v-40.91h-17.34v40.91zm34.741-67.609h-14.48v-31.14h14.51v31.09l-.03.05z"/></g><path d="M295.921 339h56.66c1.324-.001 2.635-.267 3.855-.782s2.325-1.269 3.25-2.218 1.649-2.072 2.133-3.305.715-2.551.682-3.875l-1.36-55.31c-.066-2.59-1.141-5.052-2.996-6.86s-4.344-2.821-6.934-2.82h-46.78c-2.373-.001-4.668.847-6.47 2.392s-2.99 3.683-3.35 6.028l-8.5 55.31c-.218 1.415-.127 2.86.266 4.236s1.078 2.652 2.01 3.738a9.92 9.92 0 0 0 3.388 2.557c1.3.598 2.714.908 4.146.909z" class="B C G"/><path d="M314.44 381.91l24.85 16.37" class="B C H"/><path d="M340.23 395.8l4.24 2.85c.34.232.625.536.834.891a2.8 2.8 0 0 1 .216 2.372 2.8 2.8 0 0 1-.66 1.027l-.3.28a2.77 2.77 0 0 1-1.819.789c-.683.03-1.353-.194-1.881-.629l-3.86-3.21a2.73 2.73 0 0 1-.701-.871c-.171-.335-.271-.703-.293-1.079s.036-.752.167-1.105.335-.675.597-.945c.443-.456 1.031-.743 1.663-.811s1.268.089 1.797.441z" class="B C E"/><g class="G B C"><path d="M259.67 384.741h92.15a8.89 8.89 0 0 0 6.286-2.604c1.668-1.667 2.604-3.928 2.604-6.286s-.936-4.619-2.604-6.286a8.89 8.89 0 0 0-6.286-2.604h-92.15a8.89 8.89 0 0 0-8.89 8.89 8.89 8.89 0 0 0 8.89 8.89z"/><path d="M250.84 374.771c.331-2.183 1.441-4.172 3.124-5.601s3.828-2.198 6.036-2.169h47.8a9.14 9.14 0 0 1 9.2 7.81 8.89 8.89 0 0 1-2.16 6.991 8.9 8.9 0 0 1-3.012 2.222c-1.15.519-2.397.787-3.658.787h-48.5c-1.265.001-2.516-.269-3.669-.79a8.89 8.89 0 0 1-4.846-5.51c-.37-1.21-.477-2.485-.315-3.74z"/></g><g class="E B C"><path d="M266 441.051h88.48a4.85 4.85 0 0 0-4.85-4.84h-78.79c-1.284 0-2.515.51-3.422 1.418S266 439.767 266 441.051z"/><path d="M281.75 441.051h28.8v-4.84h-24c-1.284 0-2.516.51-3.426 1.417a4.85 4.85 0 0 0-1.424 3.423h.05zm-6.179-111.269l-6.38 10.51s-22.31 2.24-35.06 5.1-15.3 16.9-15.94 19.77c-.71 3.2-4.66 70.09-3.39 70.41s10.84 1.27 10.84 1.27 16.14-65 20.92-65.95 75.54.64 86.06-5.1 13.07-22.31 7-33.78-64.05-2.23-64.05-2.23z"/></g></g><use xlink:href="#C" class="E"/><g class="F"><g class="B C"><use xlink:href="#C" class="H"/><path d="M388.72 240.211c-1-.64-4.14 7.65-4.14 7.65-2.019-.108-4.042-.108-6.06 0-3.5.32-6.37 5.1-6.37 8.29s-14.67 28.68-14.67 28.68-12.75-21-17.21-24.54-21-6.69-21-6.69c-6.769-1.06-13.661-1.06-20.43 0 0 0-16.57 3.18-21 6.69s-17.22 24.54-17.22 24.54-14.66-25.5-14.66-28.68-2.87-8-6.37-8.29c-2.019-.108-4.042-.108-6.06 0 0 0-3.19-8.29-4.14-7.65s.63 10.84 1.59 13.07 8.93 3.82 8.93 3.82 9.88 37.61 13.06 42.71 6.7 11.48 15.3 7.65 19.45-16.25 19.45-16.25l18.19.28h1.37 1.15l22-.28s10.84 12.43 19.44 16.25 12.12-2.55 15.3-7.65 13.03-42.71 13.03-42.71 8-1.59 8.93-3.82 2.55-12.43 1.59-13.07z" class="D"/></g><path d="M287.721 291.21l18.19.28m-18.19-.28s-10.85 12.42-19.45 16.25c-8.257 3.677-11.822-2.057-14.916-7.034l-.384-.616c-1.39-2.22-4.06-10.65-6.62-19.44m41.37 10.84l-.377-.329.153-.175.231.004 18.183.28v.5m-18.19-.28l-.377-.329h0l-.002.002-.005.006-.023.026-.091.103-.356.398-1.34 1.452a115.34 115.34 0 0 1-4.65 4.668c-3.784 3.58-8.594 7.59-12.81 9.467-2.091.932-3.838 1.227-5.323 1.097s-2.74-.687-3.853-1.517c-2.084-1.554-3.625-4.032-5.121-6.436l-.376-.602h0c-.32-.512-.734-1.417-1.219-2.655-.481-1.229-1.022-2.757-1.601-4.494-1.126-3.378-2.391-7.534-3.636-11.798m58.973 10.892h1.37 1.15m-2.52 0l.007-.5h-.004 1.367 1.147-.004l.007.5m0 0l22-.28m-22 .28v-.5l21.993-.28.231-.003.152.174-.376.329m0 0s10.84 12.43 19.44 16.25c8.275 3.676 11.846-2.083 14.937-7.067l.363-.583c1.4-2.23 4.08-10.69 6.65-19.51m-41.39 10.91l.376-.329.001.001.001.001.006.007.022.026.092.103.355.398 1.339 1.453c1.146 1.219 2.763 2.885 4.646 4.669 3.782 3.582 8.589 7.592 12.805 9.464 2.091.929 3.838 1.223 5.324 1.092s2.742-.686 3.856-1.516c2.095-1.56 3.642-4.052 5.14-6.467l.352-.567.001-.001c.323-.514.739-1.423 1.226-2.666.484-1.233 1.028-2.766 1.61-4.51 1.128-3.382 2.394-7.541 3.641-11.809m.597-.259l-9.18-4.64m9.18 4.64l-.48-.14-.117.399m.597-.259l-.226.446-.371-.187m-8.583-4.899l-4.876 8.676.106.174.028.045.007.012.001.002.001.001-.427.26m5.16-9.17l-.226.446.43.218m-.204-.664l.438.241-.234.423m-5.364 8.506l-.433-.25h0v-.001l.001-.002.005-.009.02-.035.08-.137c.009-.017.019-.034.03-.052-1.941-3.168-12.857-20.834-16.913-24.054-4.46-3.54-21-6.69-21-6.69m38.21 31.23l-.428.259h0l-.002-.003-.007-.011-.027-.045-.107-.176-.412-.671-1.503-2.425-4.865-7.596c-1.87-2.843-3.876-5.791-5.691-8.247-1.828-2.474-3.424-4.396-4.479-5.233-1.047-.832-2.851-1.67-5.023-2.461-2.158-.786-4.627-1.507-6.966-2.12a148.88 148.88 0 0 0-6.152-1.465l-1.928-.404-.53-.105-.138-.027-.035-.007h-.003m38.296 30.737l-.428.259.438.722.423-.731-.433-.25zm0 0l.433.25h0v-.001l.001-.002.006-.009.02-.035.079-.139.306-.531 1.116-1.959 3.403-6.08M319.271 253.6c-6.769-1.06-13.662-1.06-20.43 0m20.43 0l-.094.491h.001l.002.001.005.001m.086-.493l-.078.494m-20.352-.494s-16.57 3.18-21 6.69c-4.03 3.193-14.978 20.884-16.923 24.054a1.22 1.22 0 0 0 .021.037l.086.149.022.038.005.009.001.003h.001 0l-.433.25m38.22-31.23l.077.494m-.077-.494l.094.491h-.001l-.002.001-.005.001m-38.306 30.737l-.427-.26v-.001l.002-.003.007-.011.028-.046.106-.174-4.975-8.866-.428.26m5.687 9.101l-.434.249h0 0l-.002-.003-.005-.009-.022-.039-.086-.149-.329-.574-1.198-2.108-3.611-6.468m5.687 9.101l-.434.25.422.731.439-.721-.427-.26zm0 0l.427.26v-.001l.002-.003.007-.011.027-.045.108-.176.413-.672 1.507-2.428 4.875-7.603c1.873-2.845 3.882-5.794 5.696-8.249 1.828-2.473 3.421-4.39 4.468-5.22 1.04-.824 2.839-1.658 5.011-2.448 2.156-.785 4.626-1.507 6.967-2.122a152.01 152.01 0 0 1 6.16-1.472l1.93-.407.531-.106.138-.027.035-.007h.004m-43.993 21.636l-.241-.439-8.342 5.08m8.583-4.641l-7.996 4.869m-.587-.228l.26.427.327-.199m-.587-.228l.48-.14.107.368m51.989-26.505c6.712-1.051 13.546-1.051 20.258 0m43.66 22.231l8.379 4.235" class="N"/></g><g class="D"><use xlink:href="#D"/><use xlink:href="#E"/><use xlink:href="#F"/><use xlink:href="#G"/><g class="I"><use xlink:href="#D" class="I"/><use xlink:href="#E" class="I"/><use xlink:href="#F" class="I"/><use xlink:href="#G" class="I"/></g></g><path d="M362.641 275.66l-5.16 9.17s-12.75-21-17.21-24.54-21-6.69-21-6.69c-6.769-1.06-13.662-1.06-20.43 0 0 0-16.57 3.18-21 6.69s-17.22 24.54-17.22 24.54l-5.5-9.8-8.77 5.34c2.56 8.79 5.23 17.22 6.62 19.44 3.19 5.1 6.7 11.48 15.3 7.65s19.45-16.25 19.45-16.25l18.19.28h1.37 1.15l22-.28s10.84 12.43 19.44 16.25 12.12-2.55 15.3-7.65c1.4-2.23 4.08-10.69 6.65-19.51l-9.18-4.64z" class="B C F"/><mask id="A" class="D"><path d="M281.62 275.911s-4.14 8.92-3.18 14.66a60.46 60.46 0 0 1 .95 7s-6 16.58-7 22.63a13.7 13.7 0 0 0 .801 7.469c.957 2.366 2.558 4.417 4.619 5.921 3.51 2.55 51.32 3.19 58.65 1.28s6.69-8.93 6.37-15.3-2.83-20.07-2.83-20.07 1-19.45-3.18-24.23"/></mask><use xlink:href="#H" class="N"/><path d="M278.44 290.571l-.986.165.002.014.003.013.981-.192zm.95 7l.941.341.073-.203-.017-.214-.997.076zm-7 22.63l.986.171.001-.007-.987-.164zm5.42 13.39l-.589.808.002.002.587-.81zm62.19-34.09l-.998-.051-.006.117.021.115.983-.181zm-58.38-23.59l-.907-.42-.014.03-.036.081-.135.304-.467 1.115-1.346 3.772c-.92 2.965-1.782 6.825-1.261 9.943l1.973-.329c-.439-2.622.289-6.092 1.198-9.022a47.53 47.53 0 0 1 1.291-3.616l.445-1.063.125-.282.032-.071c.008-.018.009-.019.009-.02s0-.001-.907-.422zm-4.161 14.852a59.56 59.56 0 0 1 .934 6.885l1.994-.153c-.183-2.389-.505-4.764-.965-7.115l-1.963.383zm1.931 6.808l-.94-.34-.017.049-.051.141-.193.539-.695 1.966-2.178 6.377c-1.618 4.882-3.397 10.618-3.912 13.735l1.973.327c.485-2.933 2.206-8.512 3.838-13.433l2.166-6.344.691-1.956.192-.535.05-.138c.005-.016.01-.028.013-.036s.004-.011-.937-.352zm-7.985 22.46c-.466 2.699-.169 5.475.859 8.014l1.854-.751c-.888-2.193-1.145-4.591-.742-6.922l-1.971-.341zm.859 8.014c1.027 2.539 2.744 4.74 4.957 6.354l1.179-1.615c-1.911-1.395-3.395-3.296-4.282-5.49l-1.854.751zm4.959 6.356c.381.277.932.466 1.488.613.592.156 1.327.299 2.173.431 1.695.264 3.908.493 6.464.688 5.117.391 11.672.651 18.337.771s13.456.101 19.043-.069c2.793-.084 5.293-.207 7.331-.369 2.017-.16 3.644-.364 4.654-.627l-.505-1.935c-.822.214-2.293.408-4.308.569-1.993.158-4.458.279-7.233.363-5.548.168-12.305.188-18.946.068s-13.156-.378-18.22-.765c-2.535-.194-4.689-.418-6.31-.67-.811-.126-1.47-.257-1.968-.389-.534-.141-.768-.256-.825-.298l-1.175 1.619zm59.49 1.438c1.987-.518 3.495-1.4 4.608-2.583 1.109-1.178 1.773-2.599 2.162-4.113.763-2.973.503-6.503.346-9.622l-1.997.101c.163 3.251.383 6.416-.286 9.023-.328 1.276-.859 2.367-1.681 3.241-.819.869-1.979 1.581-3.657 2.018l.505 1.935zm7.116-16.318c-.163-3.245-.879-8.313-1.546-12.529l-.9-5.421-.29-1.645-.08-.447-.022-.117c-.002-.014-.004-.024-.005-.03s-.002-.011-.986.169l-.983.181c.003.016.004.025.007.038l.021.115.08.444.287 1.634.896 5.391c.668 4.226 1.367 9.193 1.524 12.318l1.997-.101zM340 299.501l.999.051.003-.059.008-.167.025-.634.056-2.289c.029-1.912.023-4.516-.114-7.274s-.408-5.686-.915-8.249c-.498-2.514-1.256-4.858-2.489-6.267l-1.505 1.317c.857.981 1.541 2.86 2.032 5.338.481 2.428.744 5.254.879 7.961s.141 5.26.112 7.144l-.055 2.248-.024.617-.008.16c-.001.018-.001.031-.002.04s0 .012.998.063z" mask="url(#A)" class="J"/><g class="F"><g class="B C"><use xlink:href="#H" class="H"/><g class="D"><path d="M298.81 253.601l-1.36.27a9 9 0 0 0-.21 1.8c0 6.07 6.5 11 14.51 11s14.5-4.93 14.5-11v-.52c-3.87-1-7-1.55-7-1.55-6.772-1.062-13.668-1.062-20.44 0z"/><path d="M302 247.54s-1 7.65 0 10.2 7 7.33 13.07 5.42a10 10 0 0 0 7-9.24V245l-19.76.64-.31 1.9z"/></g><path d="M312.221 244.351c12.498 0 22.63-9.917 22.63-22.15s-10.132-22.15-22.63-22.15-22.63 9.917-22.63 22.15 10.132 22.15 22.63 22.15z" class="E"/><g class="D"><path d="M297.88 229.69s-1.91-4.46-3.19-.32 1.6 9.25 3.51 9.56-.32-9.24-.32-9.24zm27.55 0s1.91-4.46 3.19-.32-1.6 9.25-3.51 9.56.32-9.24.32-9.24z"/><path d="M321.641 214.8a7.79 7.79 0 0 0-6.07-1.47 24.28 24.28 0 0 1-5.9.42c-3.18-.31-5.73-1.59-8.28 1s-3.83 14.34-3.83 20.4 4.44 14.62 7.65 16.85 12.11 1.92 14.34 0 5.74-8.92 6.38-14.66-.64-16.89-1.91-19.76c-.562-1.102-1.378-2.055-2.38-2.78z"/></g></g><path d="M308.15 228.69c0 .462-.115.856-.275 1.119-.165.271-.326.331-.414.331s-.25-.06-.415-.331c-.16-.263-.275-.657-.275-1.119s.115-.856.275-1.118c.165-.271.326-.332.415-.332s.249.061.414.332c.16.262.275.656.275 1.118zm9.4 0c0 .464-.115.858-.274 1.12-.165.269-.326.33-.416.33s-.251-.061-.416-.33c-.159-.262-.274-.656-.274-1.12s.117-.856.277-1.118c.167-.272.329-.332.413-.332s.244.06.412.335c.162.264.278.659.278 1.115zm-4.43 11.031c0 .459-.114.85-.274 1.111-.164.268-.325.329-.416.329s-.252-.061-.416-.329c-.159-.261-.274-.652-.274-1.111s.115-.853.275-1.116c.166-.273.327-.334.415-.334s.252.062.416.331c.159.261.274.655.274 1.119z" class="E"/></g><path d="M310.05 231.07c-2 3.13 1.8 5.14 4.33 3.24 1.73-1.3 0-3.24 0-3.24" class="D"/><g class="B C F"><path d="M310.05 231.07c-2 3.13 1.8 5.14 4.33 3.24 1.73-1.3 0-3.24 0-3.24m-11.029-6.698s3.24-3 6.49-1.52m5.399.219s3-1.95 5.84 1.73" class="H"/><path d="M214.8 435.57s-19.15 3.75-19.15 5.7 24.4 7.49 27 7.81 3-12.24 3-12.24l-10.85-1.27z" class="D"/><path d="M224.25 447.211l-27.32-7c-.8.37-1.28.73-1.28 1 0 2 24.4 7.49 27 7.81.67.14 1.19-.63 1.6-1.81z" class="G"/><path d="M264.53 437.8s-19.43 8.35-18.13 10.31 26.68 1 29.28.65 0-11.92 0-11.92l-11.15.96z" class="D"/><path d="M247 446.881c-.57.51-.83.94-.64 1.23 1.3 1.95 26.68 1 29.28.65.63-.08.95-.82 1.08-1.88H247z" class="G"/></g><g class="D K B C"><path d="M185.079 309.711h73.33v-2.96h-73.33v2.96z"/><path d="M164.399 309.711h73.33v-2.96h-73.33v2.96zm8.17-8.22h61.15l-6.59-46.68h-61.15l6.59 46.68z"/></g><path d="M170.039 301.491h61.15l-6.59-46.68h-61.15l6.59 46.68z" class="B C E K"/><path d="M188.78 279.791l-6.14 29.92h15.78l6.14-29.92h-15.78zm10.7 8.88a.56.56 0 0 1-.54.43l-8.94-.1a.55.55 0 0 1-.243-.058.56.56 0 0 1-.194-.157c-.052-.066-.088-.143-.106-.226a.55.55 0 0 1 .003-.249l.81-3.35a.56.56 0 0 1 .199-.311c.1-.078.224-.12.351-.119l8.94.09c.083.001.164.02.239.057a.55.55 0 0 1 .19.155.54.54 0 0 1 .104.222c.017.082.016.165-.003.246l-.81 3.37z" class="B C D K"/><path d="M175.805 254.027c1.429-6.053-2.32-12.117-8.372-13.546s-12.117 2.32-13.546 8.373 2.32 12.117 8.373 13.545a11.26 11.26 0 0 0 13.545-8.372z" class="B C K N"/><path d="M164.69 253.74l-3.32 3.78a2.18 2.18 0 0 1-.52.49 1.74 1.74 0 0 1-.778.333c-.282.045-.572.02-.842-.073a1.39 1.39 0 0 1-.561-.322 1.4 1.4 0 0 1-.359-.538c-.112-.338-.123-.701-.033-1.046a1.84 1.84 0 0 1 .543-.894l3.85-4.08-3.67-4.26a2 2 0 0 1-.46-1.2c-.015-.181.007-.363.065-.536s.152-.33.275-.464c.238-.249.533-.438.86-.55a1.64 1.64 0 0 1 1.11 0 2.41 2.41 0 0 1 1.08.82l3.19 3.8 3-3.49a2.57 2.57 0 0 1 .56-.58c.225-.21.505-.352.808-.409s.616-.026.902.089a1.54 1.54 0 0 1 .91.88 1.29 1.29 0 0 1-.23 1.42l-4 4.37 4 4.69a2.19 2.19 0 0 1 .31.52 1.42 1.42 0 0 1-.25 1.46 1.71 1.71 0 0 1-.568.467c-.221.112-.464.175-.712.183a2.14 2.14 0 0 1-1.056-.257 2.13 2.13 0 0 1-.794-.743l-3.31-3.86z" class="E"/><g class="F B"><g class="C"><g class="D"><path d="M308.999 326.73l-3.18 119.71a2.92 2.92 0 0 1-.879 2.02c-.546.533-1.278.831-2.041.83-.765-.007-1.496-.314-2.038-.854s-.851-1.271-.862-2.036l-1.56-119.67h10.56zm-38.659 0l-3.17 119.71a2.92 2.92 0 0 1-.883 2.024c-.548.532-1.283.829-2.047.826s-1.507-.303-2.054-.844a2.92 2.92 0 0 1-.866-2.046l-1.57-119.67h10.59zm-95.62 0l-3.17 119.71c-.018.764-.336 1.491-.883 2.024s-1.283.829-2.047.826-1.508-.303-2.054-.844a2.92 2.92 0 0 1-.866-2.046l-1.57-119.67h10.59zm-38.72 0l-3.13 119.71a2.92 2.92 0 0 1-.862 2.003c-.535.531-1.254.835-2.008.847a2.93 2.93 0 0 1-1.134-.198c-.361-.141-.69-.352-.969-.621s-.502-.59-.656-.945A2.93 2.93 0 0 1 127 446.4l-1.54-119.67H136z"/><path d="M121.929 327.99h190.85v-14.33h-190.85v14.33z"/><path d="M259.469 327.99h53.31v-14.33h-53.31v14.33z"/></g><path d="M121.929 320.82h190.85v-7.16h-190.85v7.16z" class="E"/><g class="G"><path d="M118.969 316.621h196.77v-7.89h-196.77v7.89z"/><path d="M118.97 316.621h136.96v-7.89H118.97v7.89z"/></g></g><path d="M465.11 196.589s5 18.95 10.05 27.32 8 11.45 8 11.45c-12.747-1.539-24.952-6.065-35.62-13.21-16.93-11.68-28.09-34.32-28.09-34.32l29.68-11.45 15.98 20.21z" stroke-width="1.324" class="L"/><path d="M473.69 195.059c-.668 1.941-1.101 3.955-1.29 6-.22 3 0 6.86-1.29 6s-4.71-8.15-4.71-8.15l7.29-3.85z" class="E"/><path d="M461.891 180.699l11.79 14.36-10.07 7.93-7.72-13.93 6-8.36z" class="D"/></g><use xlink:href="#I" class="D"/><use xlink:href="#J" class="L"/><use xlink:href="#J" class="D I"/><g class="B F"><use xlink:href="#I"/><path d="M452.46 168.26c.73 5.12 2.558 10.022 5.36 14.37a110.97 110.97 0 0 0 8.15 10.72l-12.36 14.81c-.542-5.549-1.942-10.98-4.15-16.1-2.121-4.63-3.566-9.54-4.29-14.58l7.29-9.22z" class="D"/></g><use xlink:href="#K" class="D"/><use xlink:href="#L" class="L"/><use xlink:href="#L" class="D I"/><path d="M485.87 155.668s6.32-14.38 5.79-9.16-1.21 14.5-3.08 14.3-2.71-5.14-2.71-5.14z" class="L"/><path d="M485.87 155.668s6.32-14.38 5.79-9.16-1.21 14.5-3.08 14.3-2.71-5.14-2.71-5.14z" class="D I"/><g class="F"><g class="B"><use xlink:href="#K"/><path d="M497.91 146.18s-2.36 10.29-2.79 15-.43 5.57-4.93 3.86-5.79-7.08-5.79-7.08m-6.43-1.271c-.85 0-6 1.28-6 1.28m3.22-.209s.85 7.93 6.64 9.65" class="H"/></g><path d="M488.393 146.117c-.147.64-.396 1.167-.656 1.503-.291.375-.463.364-.471.362s-.172-.075-.267-.535c-.086-.415-.079-.995.069-1.636s.394-1.166.653-1.5c.286-.369.463-.368.483-.364.01.002.168.065.262.524.085.414.075.998-.073 1.646zm14.18 4.668c-.147.636-.396 1.163-.657 1.501-.292.378-.464.367-.47.366s-.171-.076-.267-.539c-.087-.416-.079-.997.068-1.632s.395-1.165.655-1.502c.288-.375.461-.367.474-.364s.176.076.269.533c.085.414.076.995-.072 1.637z" class="E"/><g class="B"><path d="M484.4 139.748s2.79-4.29 7.51-.86m8.361 4.721s4.29-3.22 6.86 3" class="H"/><path d="M470.901 138.249c-.608.379-1.132.879-1.538 1.469s-.686 1.258-.822 1.961c-.43 2.36.43 6.86-3.22 7.29s-7.71-3.22-9.21-3.86-3.43 2.79-6.22-6.43 2.36-24.65 7.93-26.8 12.86-1.71 12.86-1.71 4.93-5.79 21.87-5.79 29.58 8.15 26.58 10.29-4.71 2.36-4.71 2.36 9.43 7.29 9 15.86-7.93 9.86-14.15 7.29-11.57-12.43-11.57-12.43 3.64 10.29-.86 8.79-9.43-9.22-16.29-11.58-8.15-1.29-8.15-1.29 10.5 3.86 6.22 8.58-7.72 6-7.72 6z" class="J"/></g></g><path d="M454.82 138.889s4.72-28.72 11.58-31.51 8.57-.86 8.57-.86-12 14.79-15.86 31.3l-4.29 1.07z" class="B D K"/><g class="F"><path d="M482.901 173.698h.001c.433-.002.857.12 1.224.351a2.29 2.29 0 0 1 .845.952 2.28 2.28 0 0 1 .202 1.257 2.27 2.27 0 0 1-.503 1.17c-.275.334-.64.583-1.052.717a2.28 2.28 0 0 1-2.369-.606c-.297-.316-.497-.709-.578-1.135l-.056-.293-.284-.09c-10.291-3.255-15.614-8.497-18.371-12.963-2.766-4.481-2.97-8.217-2.97-8.46v-.012l-.001-.012a.74.74 0 0 1 .045-.295.75.75 0 0 1 .154-.255c.068-.075.15-.134.241-.177s.19-.065.29-.069h0l.013-.001c.099-.007.198.007.292.04s.178.085.251.152a.74.74 0 0 1 .172.239c.04.09.061.188.063.287v.009.01c.018.345.255 3.832 2.909 8 2.661 4.177 7.725 8.997 17.33 12.031l.3.095.216-.23c.209-.224.463-.403.744-.525s.585-.186.892-.187z" class="J"/><path d="M457.291 157.119c5.031 0 9.11-4.607 9.11-10.29s-4.079-10.29-9.11-10.29-9.11 4.607-9.11 10.29 4.078 10.29 9.11 10.29z" class="B L"/></g><g class="K"><path d="M482.26 237.079l9.71-25.25c.305-.8.816-1.506 1.482-2.045s1.462-.893 2.308-1.025l54.21-8.65a1.84 1.84 0 0 1 .981.112 1.83 1.83 0 0 1 .782.604c.201.268.325.587.358.921s-.027.67-.171.973l-10.31 21.5-59.35 12.86z" class="B E"/><path d="M574.36 173.081v-18.42l-10.29-2.34c-.875-6.206-2.476-12.288-4.77-18.12l7.8-7.23-9.21-16-10.09 3.12c-3.866-4.918-8.293-9.368-13.19-13.26l3.15-10.19-16-9.21-7.15 7.75a78.99 78.99 0 0 0-18-4.93l-2.36-10.37h-18.47l-2.34 10.28c-6.206.875-12.288 2.476-18.12 4.77l-7.23-7.8-16 9.21 3.12 10.09a80.87 80.87 0 0 0-13.29 13.18l-10.18-3.15-9.22 16 7.74 7.16a80 80 0 0 0-4.93 18.09l-10.33 2.32v18.42l10.29 2.38a79.04 79.04 0 0 0 4.77 18.12l-7.81 7.23 9.21 16 10.09-3.12c3.867 4.923 8.289 9.382 13.18 13.29l-3.12 10.11 16 9.21 7.17-7.74a79.36 79.36 0 0 0 18.01 4.9l2.36 10.37h18.46l2.34-10.29c6.207-.867 12.289-2.465 18.12-4.76l7.23 7.8 16-9.21-3.12-10.09c4.928-3.861 9.388-8.285 13.29-13.18l10.14 3.18 9.21-16-7.74-7.17a78.77 78.77 0 0 0 4.93-18.08l10.35-2.32zm-22.75-9.53c.002 13.234-3.921 26.172-11.272 37.177s-17.801 19.582-30.028 24.648a66.92 66.92 0 0 1-38.661 3.81c-12.98-2.582-24.903-8.954-34.262-18.313s-15.73-21.281-18.312-34.261-1.255-26.435 3.81-38.661a66.91 66.91 0 0 1 24.648-30.028c11.005-7.351 23.943-11.274 37.177-11.272 17.742.003 34.757 7.052 47.303 19.597s19.594 29.561 19.597 47.303z" stroke-width="1.051" class="J M"/></g><g class="F"><path d="M574.36 169.2v-18.37l-10.29-2.34c-.875-6.206-2.476-12.288-4.77-18.12l7.8-7.23-9.21-16-10.09 3.12c-3.864-4.932-8.29-9.395-13.19-13.3l3.15-10.19-16-9.21-7.15 7.74a79.52 79.52 0 0 0-18-4.93L494.25 70h-18.47l-2.34 10.29a79.48 79.48 0 0 0-18.12 4.76l-7.23-7.8-16 9.21 3.12 10.09c-4.911 3.866-9.358 8.289-13.25 13.18l-10.18-3.15-9.22 16 7.74 7.16c-2.347 5.816-4.001 11.888-4.93 18.09L395 150.19v18.42l10.29 2.34c.866 6.208 2.467 12.291 4.77 18.12l-7.81 7.23 9.21 16 10.09-3.12c3.867 4.923 8.289 9.383 13.18 13.29l-3.12 10.11 16 9.21 7.17-7.74a79.32 79.32 0 0 0 18.08 4.93l2.36 10.37h18.39l2.34-10.29c6.207-.867 12.289-2.465 18.12-4.76l7.23 7.8 16-9.21-3.2-10.06c4.928-3.861 9.388-8.284 13.29-13.18l10.22 3.12 9.21-16-7.74-7.16c2.356-5.813 4.011-11.886 4.93-18.09l10.35-2.32zm-22.75-9.53c.002 13.234-3.921 26.172-11.272 37.177s-17.801 19.582-30.028 24.648a66.92 66.92 0 0 1-72.923-14.502 66.92 66.92 0 0 1-14.502-72.923c5.066-12.227 13.643-22.676 24.648-30.028s23.943-11.274 37.177-11.272c17.742.003 34.757 7.052 47.303 19.597s19.594 29.561 19.597 47.303z" class="B L"/><path d="M179.307 31.5h0 .005 120c.828 0 1.621.329 2.207.914a3.12 3.12 0 0 1 .913 2.206v73.5h-126.28v-73.5h0a3.12 3.12 0 0 1 .241-1.202c.159-.381.392-.726.685-1.017s.642-.519 1.024-.674.792-.232 1.205-.227z" fill-opacity=".75" class="J"/><path d="M177.562 102.9v-68h123.5v68h-123.5z" class="D"/><path opacity=".2" d="M177.562 102.9v-68h123.5v68h-123.5z" fill="#0e49b5"/><g class="B"><path d="M302.973 115.07h-127.32c-4.3 0-17.1-1.82-17.1-1.82h161.52s-12.76 1.82-17.1 1.82z" fill="#999"/><path d="M320.073 113.241H158.552a.5.5 0 0 1-.368-.112c-.103-.084-.168-.206-.182-.338s.027-.266.112-.369a.5.5 0 0 1 .338-.181l17.2-3.68h127.321l17.199 3.68a.5.5 0 0 1 .45.55.5.5 0 0 1-.549.45z" fill="#bfbfbf"/></g><path d="M242.063 105.891h-5.5a.13.13 0 0 1-.13-.13c0-.035.013-.068.038-.092a.13.13 0 0 1 .092-.038h5.5c.034 0 .067.014.092.038a.13.13 0 0 1 .038.092c0 .034-.014.067-.038.092s-.058.038-.092.038zm-2.341-73.27a.41.41 0 1 1-.82 0 .41.41 0 1 1 .82 0z" class="D"/><path d="M310.052 110.92h-141.48l7.43-1.75h126.62l7.43 1.75z" class="B"/><path opacity=".7" d="M178.543 36.8v-1.38h121.54v1.38h-121.54z" class="D"/><path d="M178.043 37.291h122.54" class="B H"/></g><path opacity=".7" d="M256.512 65.64c0 9.499-7.7 17.2-17.2 17.2s-17.2-7.701-17.2-17.2 7.701-17.2 17.2-17.2 17.2 7.701 17.2 17.2z" stroke="#0e49b5" class="D"/><g class="B F"><path d="M241.232 85.24a19.74 19.74 0 0 1-13.582-3.734c-3.914-2.873-6.632-7.088-7.635-11.838a19.74 19.74 0 0 1 2.201-13.914 19.75 19.75 0 0 1 10.916-8.904m4.261-.86a19.74 19.74 0 0 1 13.582 3.734c3.914 2.873 6.632 7.088 7.635 11.838a19.74 19.74 0 0 1-2.201 13.914 19.75 19.75 0 0 1-10.916 8.904m-6.181-36.191l-2.29-2.29 2.29-2.29m0 39.481l2.29 2.29-2.29 2.29" class="H"/><path d="M273.902 95.39h-69.18c-.233 0-.465-.046-.681-.136s-.412-.221-.577-.386a1.76 1.76 0 0 1-.386-.577 1.77 1.77 0 0 1 0-1.362 1.76 1.76 0 0 1 .386-.578c.165-.165.361-.296.577-.386a1.78 1.78 0 0 1 .681-.135h69.18a1.78 1.78 0 0 1 1.78 1.78 1.78 1.78 0 0 1-1.78 1.78z" class="D"/><path d="M253.902 95.39h-49.18c-.233 0-.465-.046-.681-.136s-.412-.221-.577-.386a1.76 1.76 0 0 1-.386-.577 1.77 1.77 0 0 1 0-1.362 1.76 1.76 0 0 1 .386-.578c.165-.165.361-.296.577-.386a1.78 1.78 0 0 1 .681-.135h49.18a1.78 1.78 0 0 1 1.78 1.78 1.78 1.78 0 0 1-1.78 1.78z" class="J"/><g class="H"><path d="M234.5 234.011v-3.38"/><path d="M234.5 224.332v-85.01" stroke-dasharray="5.59 5.59"/><path d="M234.5 136.179v-3.38"/><path d="M255.086 234.012v-36.246c0-2.795.55-5.563 1.62-8.145a21.29 21.29 0 0 1 4.614-6.905c1.976-1.976 4.322-3.544 6.905-4.613a21.27 21.27 0 0 1 8.144-1.621h97.539" stroke-dasharray="6 6"/></g><path d="M237.655 127.155c0 .624-.185 1.234-.531 1.752s-.84.924-1.416 1.162a3.15 3.15 0 0 1-1.823.18c-.612-.122-1.174-.422-1.615-.863a3.16 3.16 0 0 1-.684-3.439 3.15 3.15 0 0 1 1.162-1.415c.519-.347 1.129-.532 1.752-.532a3.15 3.15 0 0 1 2.231.924c.592.592.924 1.394.924 2.231h0zm145.346 49.328c0 .624-.185 1.234-.532 1.753s-.839.923-1.416 1.162a3.15 3.15 0 0 1-1.822.179c-.612-.122-1.174-.422-1.616-.863a3.15 3.15 0 0 1-.683-3.438c.238-.577.643-1.07 1.161-1.416a3.16 3.16 0 0 1 3.984.392c.592.592.924 1.394.924 2.231z"/></g><path d="M232.759 57.755v.261h-1.491V62h-.306v-3.984h-1.5v-.261h3.297zM234.417 62h-.309v-4.245h.309V62zm4.957-.714c.02 0 .037.007.051.021l.12.129c-.088.094-.184.179-.288.255a1.89 1.89 0 0 1-.342.192 1.96 1.96 0 0 1-.405.12c-.146.03-.307.045-.483.045-.294 0-.564-.051-.81-.153a1.84 1.84 0 0 1-.63-.438 2.04 2.04 0 0 1-.408-.687c-.098-.268-.147-.566-.147-.894a2.49 2.49 0 0 1 .15-.882c.102-.266.244-.494.426-.684a1.89 1.89 0 0 1 .657-.444 2.19 2.19 0 0 1 .846-.159 2.3 2.3 0 0 1 .423.036c.128.022.247.055.357.099a1.79 1.79 0 0 1 .315.159c.098.064.194.138.288.222l-.093.135c-.016.024-.041.036-.075.036-.018 0-.041-.01-.069-.03l-.108-.078c-.042-.032-.094-.066-.156-.102s-.132-.072-.216-.102a1.65 1.65 0 0 0-.291-.078c-.11-.022-.235-.033-.375-.033a1.83 1.83 0 0 0-.711.135c-.216.088-.402.215-.558.381a1.74 1.74 0 0 0-.366.6c-.086.234-.129.497-.129.789 0 .3.043.568.129.804s.205.436.357.6a1.58 1.58 0 0 0 .537.375 1.75 1.75 0 0 0 .675.129c.152 0 .287-.01.405-.03a1.59 1.59 0 0 0 .33-.09 1.48 1.48 0 0 0 .279-.147 2.11 2.11 0 0 0 .255-.204c.01-.008.019-.014.027-.018a.08.08 0 0 1 .033-.009zm2.031-1.572h.252l.099-.003c.028-.004.053-.01.075-.018s.046-.022.066-.036a.48.48 0 0 0 .063-.054l1.713-1.761a.32.32 0 0 1 .087-.066c.028-.014.062-.021.102-.021h.249l-1.854 1.905c-.038.04-.072.071-.102.093a.41.41 0 0 1-.096.054c.042.012.079.031.111.057a.56.56 0 0 1 .102.096l1.956 2.04h-.249c-.052 0-.089-.007-.111-.021a.59.59 0 0 1-.069-.06l-1.797-1.836-.06-.057c-.018-.016-.039-.029-.063-.039s-.049-.02-.081-.024-.072-.009-.12-.009h-.273V62h-.306v-4.251h.306v1.965zM245.89 62h-.309v-4.245h.309V62zm4.645-4.245v.261h-1.491V62h-.306v-3.984h-1.5v-.261h3.297zm-22.657 10.516c-.018.034-.044.051-.078.051-.026 0-.06-.018-.102-.054s-.095-.079-.165-.123a1.36 1.36 0 0 0-.264-.126c-.106-.038-.233-.057-.387-.057s-.29.022-.408.066a.85.85 0 0 0-.294.18c-.08.076-.138.164-.18.264a.84.84 0 0 0-.06.315c0 .144.03.263.09.357a.82.82 0 0 0 .243.24c.1.066.213.122.339.168l.393.132.39.147c.128.052.242.118.342.198s.18.179.24.297.093.261.093.435-.031.346-.093.504a1.16 1.16 0 0 1-.264.408c-.116.116-.258.208-.426.276s-.36.099-.576.099c-.28 0-.521-.049-.723-.147s-.379-.236-.531-.408l.084-.132c.024-.03.052-.045.084-.045.018 0 .041.012.069.036l.102.09.144.114c.056.04.121.078.195.114a1.46 1.46 0 0 0 .255.087c.096.024.205.036.327.036.168 0 .318-.025.45-.075s.243-.122.333-.21.162-.192.21-.312a1.05 1.05 0 0 0 .072-.39c0-.15-.031-.273-.093-.369s-.14-.179-.24-.243-.214-.121-.342-.165l-.39-.129-.393-.141c-.126-.052-.239-.118-.339-.198a.95.95 0 0 1-.243-.303 1.03 1.03 0 0 1-.09-.456c0-.142.027-.279.081-.411s.133-.248.237-.348.232-.183.384-.243a1.43 1.43 0 0 1 .525-.093c.22 0 .417.035.591.105s.336.177.48.321l-.072.138zm3.152 3.51a1.35 1.35 0 0 0 .546-.105c.162-.072.299-.171.411-.297s.197-.274.255-.444.09-.357.09-.555v-2.625h.306v2.625a1.91 1.91 0 0 1-.111.657c-.074.202-.181.379-.321.531s-.307.268-.507.354a1.67 1.67 0 0 1-.669.129c-.248 0-.472-.043-.672-.129s-.367-.204-.507-.354a1.6 1.6 0 0 1-.318-.531 1.91 1.91 0 0 1-.111-.657v-2.625h.309v2.622c0 .198.029.383.087.555a1.35 1.35 0 0 0 .255.444c.112.126.248.225.408.297a1.33 1.33 0 0 0 .549.108zm3.727-1.491V72h-.306v-4.245h1.095c.498 0 .873.109 1.125.327s.381.529.381.933a1.24 1.24 0 0 1-.105.513c-.068.156-.167.291-.297.405a1.43 1.43 0 0 1-.474.264c-.186.062-.396.093-.63.093h-.789zm0-.246h.789c.188 0 .356-.026.504-.078s.273-.124.375-.216a.92.92 0 0 0 .237-.324 1 1 0 0 0 .084-.411c0-.326-.101-.577-.303-.753s-.499-.264-.897-.264h-.789v2.046zm4.063.246V72h-.306v-4.245h1.095c.498 0 .873.109 1.125.327s.381.529.381.933a1.24 1.24 0 0 1-.105.513c-.068.156-.167.291-.297.405a1.43 1.43 0 0 1-.474.264c-.186.062-.396.093-.63.093h-.789zm0-.246h.789c.188 0 .356-.026.504-.078s.273-.124.375-.216a.92.92 0 0 0 .237-.324 1 1 0 0 0 .084-.411c0-.326-.101-.577-.303-.753s-.499-.264-.897-.264h-.789v2.046zm7.452-.168c0 .328-.049.626-.147.894s-.236.494-.414.684a1.86 1.86 0 0 1-.639.438 2.15 2.15 0 0 1-.825.153c-.298 0-.571-.051-.819-.153a1.86 1.86 0 0 1-.639-.438c-.178-.19-.317-.418-.417-.684s-.147-.566-.147-.894.049-.622.147-.888.239-.496.417-.684a1.84 1.84 0 0 1 .639-.441c.248-.104.521-.156.819-.156s.577.052.825.156a1.83 1.83 0 0 1 .639.438 1.99 1.99 0 0 1 .414.687c.098.266.147.562.147.888zm-.318 0c0-.296-.041-.562-.123-.798s-.198-.436-.348-.6-.327-.289-.537-.375a1.79 1.79 0 0 0-.699-.132c-.252 0-.483.044-.693.132a1.52 1.52 0 0 0-.54.375 1.74 1.74 0 0 0-.351.6c-.082.236-.123.502-.123.798a2.44 2.44 0 0 0 .123.801c.082.236.201.433.351.597a1.52 1.52 0 0 0 .54.375 1.81 1.81 0 0 0 .693.129c.256 0 .489-.043.699-.129s.389-.211.537-.375a1.71 1.71 0 0 0 .348-.597c.082-.236.123-.503.123-.801zm2.216.204V72h-.306v-4.245h1.083c.49 0 .856.095 1.098.285s.363.465.363.831a1.14 1.14 0 0 1-.084.444c-.056.134-.137.252-.243.354s-.23.183-.378.249a1.72 1.72 0 0 1-.501.126c.048.03.091.07.129.12L250.792 72h-.267c-.032 0-.06-.006-.084-.018s-.044-.032-.066-.06l-1.359-1.722c-.034-.044-.071-.075-.111-.093s-.098-.027-.18-.027h-.555zm0-.228h.738a1.77 1.77 0 0 0 .504-.066 1.09 1.09 0 0 0 .378-.195.83.83 0 0 0 .237-.303.95.95 0 0 0 .081-.399c0-.302-.099-.526-.297-.672s-.486-.219-.864-.219h-.777v1.854zm6.526-2.097v.261h-1.491V72h-.306v-3.984h-1.5v-.261h3.297zM40 448h580v2H40z" class="J"/><defs ><path id="C" d="M318.92 342.531s-29.65 0-44 1.27-23.27 12.11-22.63 21.68 12.23 72.32 12.23 72.32l11.15-1 6-67.24s10 6.48 48.79-3.48"/><path id="D" d="M355 290.729c-.17-2.09-.33-4.07.52-5.34a16.61 16.61 0 0 1 1.3-1.7l-1.26-2a17.21 17.21 0 0 0-2 2.45c-1.29 1.94-1.1 4.41-.9 6.81.16 2.09.32 4.06-.53 5.34-.73 1.09-1.44 1-3.39.6-1.849-.532-3.811-.532-5.66 0-.806.295-1.529.783-2.104 1.421s-.986 1.407-1.196 2.239l1.94 1.63c.27-1.43.87-2.7 2.09-3.1a8.15 8.15 0 0 1 4.47.05c1.94.4 4.15.86 5.77-1.58 1.31-1.95 1.11-4.42.95-6.82z"/><path id="E" d="M330.39 291.21l.76.85c.686-.283 1.339-.638 1.95-1.06a5 5 0 0 1 2.13 0c2.378.316 4.794.156 7.11-.47 3.87-1.11 4-5.31 4.14-9 .07-2.06.14-4.2.85-5.49a3.09 3.09 0 0 1 3.62-1.52l-1.57-2.37c-.863.071-1.692.364-2.407.852a5 5 0 0 0-1.673 1.928c-1 1.77-1.05 4.19-1.13 6.52-.13 3.87-.37 6.27-2.46 6.86a15.79 15.79 0 0 1-6.27.4c-1.51-.13-2.81-.25-3.79.53a26.64 26.64 0 0 1-4.73 2l3.47-.03z"/><path id="F" d="M275.57 296.881c-1.849-.533-3.811-.533-5.66 0-1.95.4-2.66.49-3.39-.6-.85-1.28-.69-3.25-.52-5.34.19-2.4.38-4.87-.91-6.81-.665-1.03-1.447-1.98-2.33-2.83l-1.26 2a14.43 14.43 0 0 1 1.67 2.09c.85 1.27.69 3.25.52 5.34-.19 2.4-.39 4.87.91 6.81 1.62 2.44 3.83 2 5.77 1.58a8.15 8.15 0 0 1 4.47-.05c.537.235 1.004.605 1.355 1.075s.573 1.023.645 1.605l1.9-1.62a5.14 5.14 0 0 0-1.208-1.993 5.13 5.13 0 0 0-1.962-1.257z"/><path id="G" d="M283.23 288.68a15.84 15.84 0 0 1-6.28-.4c-2.09-.59-2.33-3-2.46-6.86-.08-2.33-.16-4.75-1.13-6.52-.431-.866-1.101-1.591-1.93-2.089s-1.783-.748-2.75-.721l-1.71 2.6c1.17-.4 3.25-.73 4.36 1.32.71 1.29.78 3.43.85 5.49.13 3.7.28 7.9 4.14 9 2.315.626 4.732.786 7.11.47a5 5 0 0 1 2.13 0 8.24 8.24 0 0 0 1.51.85l.59-.65 4.14.06c-1.659-.532-3.263-1.222-4.79-2.06-1.01-.74-2.28-.62-3.78-.49z"/><path id="H" d="M281.62 275.911s-4.14 8.92-3.18 14.66a60.46 60.46 0 0 1 .95 7s-6 16.58-7 22.63a13.7 13.7 0 0 0 .801 7.469c.957 2.366 2.558 4.417 4.619 5.921 3.51 2.55 51.32 3.19 58.65 1.28s6.69-8.93 6.37-15.3-2.83-20.07-2.83-20.07 1-19.45-3.18-24.23"/><path id="I" d="M461.891 149.398s-3.21 10.72-5.78 16.51a73.91 73.91 0 0 0-3.43 8.78 33.41 33.41 0 0 0 3.21 9.44c2.79 5.79 5.15 9.64 5.36 9s-1.28-4.93 4.93-12.65l9.22-11.14-13.51-19.94z"/><path id="J" d="M472.43 172.828l1.21-2-3.64-8-.66-2.41-6.12-9-2 .16c-1.07 3.42-3.27 10.19-5.13 14.39-1.329 2.851-2.475 5.783-3.43 8.78.095.674.232 1.342.41 2l15.06 1.36 4.3-5.28z"/><path id="K" d="M511.84 138.678s-6 22.29-13.93 34.3-14.36 13.29-19.94 10.93-11.79-15-13.72-19.93l-3-7.72s-3.64 6.22-7.93-1.29-3.43-14.58-.64-17.58c1.58-1.758 3.684-2.961 6-3.43 0 0 9.22-1.28 7.72-6.21s14.36-16.94 32.58-13.08 12.86 24.01 12.86 24.01z"/><path id="L" d="M498.98 114.668c-18.22-3.86-34.08 8.15-32.58 13.08s-7.72 6.21-7.72 6.21c-2.316.469-4.42 1.672-6 3.43-2.79 3-3.65 10.08.64 17.58s7.93 1.29 7.93 1.29l3 7.72c1.93 4.93 8.15 17.57 13.72 19.93 3.95 1.67 8.33 1.51 13.36-3a25.32 25.32 0 0 1-11.23.86c-8.89-1.62-13.33-15.35-11.71-24.24s4-14.54 8.07-19.79c1.177-1.457 2.037-3.143 2.524-4.951s.592-3.698.306-5.549c0 0 12.62 11.64 16.16 12.12s5.65-3.64 5.65-3.64 5.25 8.89 8.89 8.89h.1c1.12-3.58 1.75-5.93 1.75-5.93s5.36-20.15-12.86-24.01z"/></defs></svg>