<svg id="Layer_1" data-name="Layer 1" xmlns="http://www.w3.org/2000/svg" viewBox="0 0 256 256"><defs><style>.cls-1{fill:#fcb856;}.cls-2{fill:#616363;}.cls-3{fill:#84d1da;}</style></defs><title>-</title><rect class="cls-1" x="67.59436" y="57.43164" width="19.59137" height="141.13672"/><rect class="cls-1" x="167.65027" y="57.43164" width="19.59143" height="141.13672"/><path class="cls-2" d="M65.5943,55.43164V200.56836H89.18555V55.43164ZM85.18555,196.56836H69.5943V59.43164H85.18555Z"/><path class="cls-2" d="M165.65045,55.43164V200.56836H189.2417V55.43164ZM185.2417,196.56836H169.65045V59.43164H185.2417Z"/><rect class="cls-2" x="86.38086" y="111.31152" width="81.26959" height="4"/><rect class="cls-2" x="86.38086" y="142.11035" width="81.26959" height="4"/><rect class="cls-2" x="86.38086" y="172.91016" width="81.26959" height="4"/><rect class="cls-2" x="55.54346" y="196.56836" width="46.02148" height="4"/><rect class="cls-2" x="154.43506" y="196.56836" width="46.02148" height="4"/><path class="cls-3" d="M103.37427,104.27588h1.346a5.72107,5.72107,0,0,1,5.72107,5.72107v6.62817a5.72107,5.72107,0,0,1-5.72107,5.72107h-1.346a5.72119,5.72119,0,0,1-5.72119-5.72119v-6.62793a5.72119,5.72119,0,0,1,5.72119-5.72119Z"/><path class="cls-2" d="M104.72028,102.27637H103.374a7.73007,7.73007,0,0,0-7.72119,7.7207V116.625a7.73028,7.73028,0,0,0,7.72119,7.72168h1.34626a7.73028,7.73028,0,0,0,7.72119-7.72168v-6.62793A7.73007,7.73007,0,0,0,104.72028,102.27637Zm3.72119,14.34863a3.726,3.726,0,0,1-3.72119,3.72168H103.374a3.726,3.726,0,0,1-3.72119-3.72168v-6.62793a3.72517,3.72517,0,0,1,3.72119-3.7207h1.34626a3.72513,3.72513,0,0,1,3.72119,3.7207Z"/><path class="cls-3" d="M134.62427,104.27588h1.346a5.72107,5.72107,0,0,1,5.72107,5.72107V116.625a5.72119,5.72119,0,0,1-5.72119,5.72119h-1.34589a5.72119,5.72119,0,0,1-5.72119-5.72119v-6.62793a5.72119,5.72119,0,0,1,5.72119-5.72119Z"/><path class="cls-2" d="M135.97028,102.27637H134.624a7.73007,7.73007,0,0,0-7.72119,7.7207V116.625a7.73028,7.73028,0,0,0,7.72119,7.72168h1.34626a7.73028,7.73028,0,0,0,7.72119-7.72168v-6.62793A7.73007,7.73007,0,0,0,135.97028,102.27637Zm3.72119,14.34863a3.726,3.726,0,0,1-3.72119,3.72168H134.624a3.726,3.726,0,0,1-3.72119-3.72168v-6.62793a3.72517,3.72517,0,0,1,3.72119-3.7207h1.34626a3.72513,3.72513,0,0,1,3.72119,3.7207Z"/><rect class="cls-3" x="146.65308" y="104.27588" width="12.78827" height="18.07031" rx="5.72119" ry="5.72119"/><path class="cls-2" d="M153.72028,102.27637H152.374a7.73007,7.73007,0,0,0-7.72119,7.7207V116.625a7.73028,7.73028,0,0,0,7.72119,7.72168h1.34626a7.73028,7.73028,0,0,0,7.72119-7.72168v-6.62793A7.73007,7.73007,0,0,0,153.72028,102.27637Zm3.72119,14.34863a3.726,3.726,0,0,1-3.72119,3.72168H152.374a3.726,3.726,0,0,1-3.72119-3.72168v-6.62793a3.72517,3.72517,0,0,1,3.72119-3.7207h1.34626a3.72513,3.72513,0,0,1,3.72119,3.7207Z"/><path class="cls-3" d="M118.83582,135.07544h1.34607a5.72119,5.72119,0,0,1,5.72119,5.72119v6.62811a5.72125,5.72125,0,0,1-5.72125,5.72125h-1.34595a5.72125,5.72125,0,0,1-5.72125-5.72125v-6.62811a5.72119,5.72119,0,0,1,5.72119-5.72119Z"/><path class="cls-2" d="M120.18164,133.0752h-1.3457a7.73027,7.73027,0,0,0-7.72119,7.72168v6.62792a7.73007,7.73007,0,0,0,7.72119,7.72071h1.3457a7.73,7.73,0,0,0,7.72119-7.72071v-6.62792A7.73019,7.73019,0,0,0,120.18164,133.0752Zm3.72119,14.3496a3.7251,3.7251,0,0,1-3.72119,3.72071h-1.3457a3.72518,3.72518,0,0,1-3.72119-3.72071v-6.62792a3.726,3.726,0,0,1,3.72119-3.72168h1.3457a3.72593,3.72593,0,0,1,3.72119,3.72168Z"/><path class="cls-3" d="M139.58582,135.07544h1.34607a5.72119,5.72119,0,0,1,5.72119,5.72119v6.62817a5.72119,5.72119,0,0,1-5.72119,5.72119h-1.346a5.72125,5.72125,0,0,1-5.72125-5.72125v-6.62811a5.72119,5.72119,0,0,1,5.72119-5.72119Z"/><path class="cls-2" d="M140.93164,133.0752h-1.3457a7.73027,7.73027,0,0,0-7.72119,7.72168v6.62792a7.73007,7.73007,0,0,0,7.72119,7.72071h1.3457a7.73,7.73,0,0,0,7.72119-7.72071v-6.62792A7.73019,7.73019,0,0,0,140.93164,133.0752Zm3.72119,14.3496a3.7251,3.7251,0,0,1-3.72119,3.72071h-1.3457a3.72518,3.72518,0,0,1-3.72119-3.72071v-6.62792a3.726,3.726,0,0,1,3.72119-3.72168h1.3457a3.72593,3.72593,0,0,1,3.72119,3.72168Z"/><rect class="cls-2" x="86.38086" y="80.49805" width="81.26959" height="4"/><path class="cls-3" d="M105.37427,73.46289h1.34589a5.72119,5.72119,0,0,1,5.72119,5.72119v6.62805a5.72107,5.72107,0,0,1-5.72107,5.72107H105.374a5.72095,5.72095,0,0,1-5.72095-5.72095V79.18408a5.72119,5.72119,0,0,1,5.72119-5.72119Z"/><path class="cls-2" d="M106.72028,71.46289H105.374a7.73028,7.73028,0,0,0-7.72119,7.72168V85.8125a7.73007,7.73007,0,0,0,7.72119,7.7207h1.34626a7.73007,7.73007,0,0,0,7.72119-7.7207V79.18457A7.73028,7.73028,0,0,0,106.72028,71.46289Zm3.72119,14.34961a3.72513,3.72513,0,0,1-3.72119,3.7207H105.374a3.72517,3.72517,0,0,1-3.72119-3.7207V79.18457a3.726,3.726,0,0,1,3.72119-3.72168h1.34626a3.726,3.726,0,0,1,3.72119,3.72168Z"/><path class="cls-3" d="M139.58582,73.46289h1.346a5.72125,5.72125,0,0,1,5.72125,5.72125v6.62811a5.72095,5.72095,0,0,1-5.72095,5.72095h-1.34625a5.72125,5.72125,0,0,1-5.72125-5.72125V79.18408a5.72119,5.72119,0,0,1,5.72119-5.72119Z"/><path class="cls-2" d="M140.93164,71.46289h-1.3457a7.73027,7.73027,0,0,0-7.72119,7.72168V85.8125a7.73006,7.73006,0,0,0,7.72119,7.7207h1.3457a7.73,7.73,0,0,0,7.72119-7.7207V79.18457A7.7302,7.7302,0,0,0,140.93164,71.46289Zm3.72119,14.34961a3.72509,3.72509,0,0,1-3.72119,3.7207h-1.3457a3.72517,3.72517,0,0,1-3.72119-3.7207V79.18457a3.726,3.726,0,0,1,3.72119-3.72168h1.3457a3.72593,3.72593,0,0,1,3.72119,3.72168Z"/><path class="cls-3" d="M103.37415,165.875h1.346a5.72119,5.72119,0,0,1,5.72119,5.72119v6.62817a5.72095,5.72095,0,0,1-5.72095,5.72095h-1.3465a5.72095,5.72095,0,0,1-5.72095-5.72095v-6.62817a5.72119,5.72119,0,0,1,5.72119-5.72119Z"/><path class="cls-2" d="M104.72028,163.875H103.374a7.73028,7.73028,0,0,0-7.72119,7.72168v6.62793a7.73007,7.73007,0,0,0,7.72119,7.7207h1.34626a7.73007,7.73007,0,0,0,7.72119-7.7207v-6.62793A7.73028,7.73028,0,0,0,104.72028,163.875Zm3.72119,14.34961a3.72513,3.72513,0,0,1-3.72119,3.7207H103.374a3.72517,3.72517,0,0,1-3.72119-3.7207v-6.62793A3.726,3.726,0,0,1,103.374,167.875h1.34626a3.726,3.726,0,0,1,3.72119,3.72168Z"/><path class="cls-3" d="M121.83582,165.875h1.34607a5.72119,5.72119,0,0,1,5.72119,5.72119v6.62817a5.72095,5.72095,0,0,1-5.72095,5.72095h-1.34625a5.72125,5.72125,0,0,1-5.72125-5.72125v-6.62787a5.72119,5.72119,0,0,1,5.72119-5.72119Z"/><path class="cls-2" d="M123.18164,163.875h-1.3457a7.73027,7.73027,0,0,0-7.72119,7.72168v6.62793a7.73006,7.73006,0,0,0,7.72119,7.7207h1.3457a7.73,7.73,0,0,0,7.72119-7.7207v-6.62793A7.7302,7.7302,0,0,0,123.18164,163.875Zm3.72119,14.34961a3.72509,3.72509,0,0,1-3.72119,3.7207h-1.3457a3.72517,3.72517,0,0,1-3.72119-3.7207v-6.62793a3.726,3.726,0,0,1,3.72119-3.72168h1.3457a3.72593,3.72593,0,0,1,3.72119,3.72168Z"/><path class="cls-3" d="M152.37427,165.875h1.346a5.72107,5.72107,0,0,1,5.72107,5.72107v6.6283a5.72095,5.72095,0,0,1-5.72095,5.72095h-1.34613a5.72119,5.72119,0,0,1-5.72119-5.72119v-6.62793A5.72119,5.72119,0,0,1,152.37427,165.875Z"/><path class="cls-2" d="M153.72028,163.875H152.374a7.73028,7.73028,0,0,0-7.72119,7.72168v6.62793a7.73007,7.73007,0,0,0,7.72119,7.7207h1.34626a7.73007,7.73007,0,0,0,7.72119-7.7207v-6.62793A7.73028,7.73028,0,0,0,153.72028,163.875Zm3.72119,14.34961a3.72513,3.72513,0,0,1-3.72119,3.7207H152.374a3.72517,3.72517,0,0,1-3.72119-3.7207v-6.62793A3.726,3.726,0,0,1,152.374,167.875h1.34626a3.726,3.726,0,0,1,3.72119,3.72168Z"/></svg>