<svg id="Layer_1" data-name="Layer 1" xmlns="http://www.w3.org/2000/svg" viewBox="0 0 256 256"><defs><style>.cls-1{fill:#fff;}.cls-2{fill:#85d1d8;}.cls-3{fill:#616363;}.cls-4{fill:#fcb856;}</style></defs><title>-</title><rect class="cls-1" x="40.92853" y="46.10156" width="115.37616" height="147.87573"/><rect class="cls-2" x="40.92853" y="46.10156" width="115.37616" height="32.81177"/><path class="cls-3" d="M38.92871,44.10156V195.97705h119.376V44.10156Zm115.376,147.87549H42.92871V48.10156h111.376Z"/><rect class="cls-3" x="59.31641" y="116.19189" width="80.16699" height="4"/><rect class="cls-3" x="59.31641" y="96.38916" width="80.16699" height="4"/><rect class="cls-3" x="59.31641" y="135.69385" width="40.0835" height="4"/><rect class="cls-3" x="59.06012" y="155.1958" width="27.24408" height="4"/><rect class="cls-3" x="59.06012" y="174.69775" width="21.25287" height="4"/><path class="cls-4" d="M161.73932,183.523l10.49017-2.70947-.24719-9.198-.24451-9.188-10.61847-2.15332a28.58731,28.58731,0,0,0-2.95959-4.95435l3.12237-10.36377-15.97-9.11914-7.33923,7.95581a28.78483,28.78483,0,0,0-6.442.03565l-7.426-7.88062-7.93707,4.65039-7.93982,4.64014,3.23626,10.33179a28.88586,28.88586,0,0,0-3.39648,6.12182L97.58148,164.396l.24719,9.19775.24091,9.19434,10.61572,2.14355a29.10072,29.10072,0,0,0,2.9621,4.96338l-3.11859,10.3584,15.97,9.11914,7.33557-7.95068a29.149,29.149,0,0,0,6.44519-.04126l7.42652,7.88085,7.93347-4.64379,7.93713-4.65039-3.23065-10.32837a28.79333,28.79333,0,0,0,3.39325-6.116Zm-12.67725-2.83032a16.30418,16.30418,0,1,1-6.07354-22.24317A16.3053,16.3053,0,0,1,149.06207,180.69263Z"/><path class="cls-3" d="M161.80231,187.96729c.499-.87452.96478-1.79737,1.39056-2.75391l11.07861-2.86182-.57659-21.56787-11.212-2.27344a30.66543,30.66543,0,0,0-2.124-3.55713l3.29742-10.94433-18.73492-10.69824-7.75049,8.40185a30.88821,30.88821,0,0,0-4.86029.02735l-7.84229-8.32227-18.625,10.89795,3.4184,10.91455c-.44531.65918-.86664,1.335-1.25684,2.01807a30.51379,30.51379,0,0,0-1.39056,2.75341l-11.07471,2.85547.57221,21.57618,11.21051,2.26367a31.17418,31.17418,0,0,0,2.12689,3.5625l-3.29437,10.94189,18.73486,10.69727,7.74847-8.39795a31.26163,31.26163,0,0,0,4.86182-.03076l7.84229,8.32226,18.61822-10.90332L160.5484,189.98C160.99371,189.32178,161.41357,188.648,161.80231,187.96729Zm-1.91461-5.2002a26.82417,26.82417,0,0,1-3.16163,5.69922l-.58789.8125,3.05469,9.76709-13.123,7.68555-7.02448-7.45459-.999.11767a27.23729,27.23729,0,0,1-6.00287.03809l-.99854-.1045-6.93658,7.51856-13.20551-7.541,2.94873-9.79443-.59674-.80615a27.1259,27.1259,0,0,1-2.75879-4.62207l-.42767-.9126-10.0415-2.02734-.40332-15.208,9.916-2.55713.37988-.92969a27.03481,27.03481,0,0,1,1.559-3.21631,27.60357,27.60357,0,0,1,1.60595-2.48877l.58844-.813-3.06012-9.769L123.7417,138.479l7.0235,7.45362.99951-.11768a26.95531,26.95531,0,0,1,5.99414-.03369l1.001.10791,6.94287-7.52588,13.2055,7.54-2.9541,9.80371.60163.80762a26.62881,26.62881,0,0,1,2.75238,4.60791l.42681.91162,10.0459,2.0376.40668,15.20361-9.92041,2.562ZM143.98,156.71289a18.30655,18.30655,0,1,0,8.57959,11.07129A18.31172,18.31172,0,0,0,143.98,156.71289Zm3.34522,22.98828a14.30636,14.30636,0,1,1,1.376-10.8623A14.34285,14.34285,0,0,1,147.3252,179.70117Z"/><path class="cls-4" d="M207.74121,135.98389l7.28833-1.88257-.17163-6.39038-.16992-6.38355-7.37744-1.49609a19.85674,19.85674,0,0,0-2.05628-3.44214l2.16944-7.20044L196.32837,102.853l-5.09912,5.52759a20.00734,20.00734,0,0,0-4.47583.02465l-5.15918-5.47509-5.51441,3.231-5.51635,3.22388,2.24853,7.178a20.51781,20.51781,0,0,0-1.19671,1.85473,20.31146,20.31146,0,0,0-1.16309,2.39869l-7.28552,1.87866.17169,6.39038.16742,6.38794,7.37543,1.489a20.21766,20.21766,0,0,0,2.058,3.44849l-2.16669,7.19653,11.0954,6.3357,5.09644-5.52369a20.25906,20.25906,0,0,0,4.478-.02881l5.15967,5.47535,5.51184-3.22632,5.51441-3.231-2.24451-7.17578a20.48162,20.48162,0,0,0,1.19458-1.85059A20.27743,20.27743,0,0,0,207.74121,135.98389Zm-8.80762-1.96656a11.32757,11.32757,0,1,1-4.21972-15.45385A11.32812,11.32812,0,0,1,198.93359,134.01733Z"/><path class="cls-3" d="M208.31494,139.374c.30957-.5415.60108-1.10986.87158-1.69775l7.88477-2.03662-.42627-15.95606-7.97949-1.61816a22.05236,22.05236,0,0,0-1.21436-2.03418l2.34668-7.78955-13.86035-7.915-5.51611,5.98a21.92691,21.92691,0,0,0-2.88233.01611l-5.58154-5.92334-13.77881,8.063,2.43311,7.76807c-.25782.39258-.50293.79248-.7334,1.1958-.31391.5498-.60254,1.11084-.872,1.69775l-7.8819,2.03272.42389,15.96142,7.97852,1.61133a22.27139,22.27139,0,0,0,1.21631,2.03711l-2.34473,7.78858,13.8598,7.91406,5.51563-5.97754a22.27465,22.27465,0,0,0,2.88281-.01856l5.58154,5.92334,13.77393-8.0664-2.42871-7.76416C207.84131,140.17432,208.08594,139.77588,208.31494,139.374Zm-2.42529-4.146a18.06266,18.06266,0,0,1-2.12549,3.83154l-.58887.8125,2.06934,6.61523-8.27881,4.84864-4.75781-5.04932-.99951.11768a18.31385,18.31385,0,0,1-4.03565.02588l-.99805-.1045-4.69775,5.0918-8.33057-4.75732,1.99665-6.6333-.59674-.80616a18.25529,18.25529,0,0,1-1.854-3.10644l-.42718-.9126-6.80182-1.37354-.25488-9.59423,6.71539-1.73145.37982-.92969a18.1567,18.1567,0,0,1,1.0484-2.16308,18.53345,18.53345,0,0,1,1.08008-1.67383l.58832-.813-2.07221-6.61474,8.28266-4.84717,4.75683,5.04834.99951-.11768a18.0979,18.0979,0,0,1,4.02784-.02246l1.001.10791,4.70264-5.09766,8.33105,4.75684-2.001,6.64014.60156.80761a17.90629,17.90629,0,0,1,1.84912,3.0962l.42676.91162,6.80469,1.37988.25634,9.5918-6.71826,1.73486Zm-10.18408-18.40137a13.32554,13.32554,0,1,0,4.96484,18.18262A13.333,13.333,0,0,0,195.70557,116.82666Zm1.49121,16.19922a9.33149,9.33149,0,1,1-3.47461-12.72559A9.35318,9.35318,0,0,1,197.19678,133.02588Z"/></svg>