<svg id="Layer_1" data-name="Layer 1" xmlns="http://www.w3.org/2000/svg" viewBox="0 0 256 256"><defs><style>.cls-1{fill:#84d1da;}.cls-2{fill:#616363;}.cls-3{fill:#fff;}.cls-4{fill:#fcb856;}</style></defs><title>-</title><rect class="cls-1" x="112.78467" y="48.43066" width="100.29785" height="131.98712"/><path class="cls-2" d="M110.78442,46.43066V182.418H215.08276V46.43066ZM211.08276,178.418H114.78442V50.43066h96.29834Z"/><rect class="cls-3" x="106.32764" y="43.13177" width="113.21204" height="12.62561"/><path class="cls-2" d="M104.32727,41.13177v16.626h117.2124v-16.626Zm113.2124,12.626H108.32727v-8.626h109.2124Z"/><rect class="cls-3" x="130.42603" y="72.00488" width="67.05542" height="15.86133"/><path class="cls-2" d="M128.426,70.00488V89.86621h71.05505V70.00488Zm67.05505,15.86133H132.426V74.00488h63.05505Z"/><rect class="cls-2" x="145.04956" y="72.00488" width="4" height="15.86133"/><rect class="cls-2" x="162.02612" y="72.00488" width="4" height="15.86133"/><rect class="cls-2" x="179.00269" y="72.00488" width="4" height="15.86133"/><rect class="cls-3" x="130.42603" y="104.37708" width="67.05542" height="15.86139"/><path class="cls-2" d="M128.426,102.377v19.86127h71.05505V102.377Zm67.05505,15.86127H132.426V106.377h63.05505Z"/><rect class="cls-2" x="145.04956" y="104.37701" width="4" height="15.86127"/><rect class="cls-2" x="162.02612" y="104.37701" width="4" height="15.86127"/><rect class="cls-2" x="179.00269" y="104.37701" width="4" height="15.86127"/><path class="cls-4" d="M75.73706,73.40887c-4.84936-1.5885-8.36633-2.92181-8.36633-6.55206,0-3.40375,2.83606-5.30365,6.89123-5.30365a18.03689,18.03689,0,0,1,9.7854,3.43134l2.91993-3.60181a23.76072,23.76072,0,0,0-9.89771-4.22552V49.5556H73.18481v7.34626c-7.09106.34094-11.03295,4.62365-11.03295,10.26721,0,6.92059,5.78564,8.90619,12.13867,10.94812,5.36084,1.67328,8.70556,3.0628,8.70556,7.23132,0,3.65888-3.17517,5.78626-7.45788,5.78626a16.5,16.5,0,0,1-11.20349-4.8216l-3.03418,3.63031a20.2508,20.2508,0,0,0,11.88354,5.70069v7.09112h3.8855v-7.034c7.06165-.56671,11.231-4.736,11.231-10.66351V85.037C88.30054,77.57819,82.88354,75.67816,75.73706,73.40887Z"/><path class="cls-4" d="M42.1814,104.55377c-2.59351-.84961-4.47461-1.56256-4.47461-3.50421,0-1.82037,1.51684-2.83655,3.68579-2.83655a9.64687,9.64687,0,0,1,5.2334,1.83515l1.56176-1.92627a12.708,12.708,0,0,0-5.2937-2.26V91.79639H40.81641v3.929c-3.79248.18231-5.90064,2.47278-5.90064,5.49121,0,3.70136,3.09412,4.76325,6.49194,5.85535,2.86707.8949,4.656,1.638,4.656,3.86755,0,1.95685-1.69824,3.09467-3.98877,3.09467a8.82412,8.82412,0,0,1-5.99182-2.5788l-1.6228,1.94159a10.82941,10.82941,0,0,0,6.35559,3.04889v3.7926H42.894v-3.762c3.77674-.3031,6.00659-2.533,6.00659-5.70325v-.00036C48.90063,106.78369,46.00366,105.76746,42.1814,104.55377Z"/><path class="cls-3" d="M178.51807,116.18646a18.28111,18.28111,0,0,0-16.61744-10.6615l-.52331-.0813a189.23112,189.23112,0,0,0-58.58252.08124v.00006a18.28079,18.28079,0,0,0-16.61731,10.6615L72.79,145.383H191.90527Z"/><path class="cls-4" d="M62.9978,170.89178H77.99695a7.00037,7.00037,0,0,1,7.00037,7.00037v27.97516a7.00049,7.00049,0,0,1-7.00049,7.00049H62.9978a7.00049,7.00049,0,0,1-7.00049-7.00049v-27.975A7.00049,7.00049,0,0,1,62.9978,170.89178Z"/><path class="cls-4" d="M186.69861,170.89178h14.999a7.00049,7.00049,0,0,1,7.00049,7.00049v27.975a7.00049,7.00049,0,0,1-7.00049,7.00049H186.69849a7.00037,7.00037,0,0,1-7.00037-7.00037V177.89227A7.00049,7.00049,0,0,1,186.69861,170.89178Z"/><path class="cls-2" d="M77.99683,168.8916H62.99768a9.0111,9.0111,0,0,0-9.00049,9.001v27.97461a9.01109,9.01109,0,0,0,9.00049,9.001H77.99683a9.01106,9.01106,0,0,0,9.00036-9.001V177.89258A9.01107,9.01107,0,0,0,77.99683,168.8916Zm5.00036,36.97559a5.00609,5.00609,0,0,1-5.00036,5.001H62.99768a5.00627,5.00627,0,0,1-5.00049-5.001V177.89258a5.00628,5.00628,0,0,1,5.00049-5.001H77.99683a5.00609,5.00609,0,0,1,5.00036,5.001Z"/><path class="cls-2" d="M201.69788,168.8916H186.699a9.01161,9.01161,0,0,0-9.00109,9.001v27.97461a9.0116,9.0116,0,0,0,9.00109,9.001h14.99891a9.01059,9.01059,0,0,0,9-9.001V177.89258A9.0106,9.0106,0,0,0,201.69788,168.8916Zm5,36.97559a5.006,5.006,0,0,1-5,5.001H186.699a5.00639,5.00639,0,0,1-5.00109-5.001V177.89258a5.0064,5.0064,0,0,1,5.00109-5.001h14.99891a5.006,5.006,0,0,1,5,5.001Z"/><path class="cls-2" d="M180.33667,115.35248a20.33834,20.33834,0,0,0-18.27539-11.82611l-.377-.05957a192.12231,192.12231,0,0,0-59.0503.05957A20.33426,20.33426,0,0,0,84.3595,115.35248L69.673,147.38281H195.02209Zm-92.34131,1.668a16.32177,16.32177,0,0,1,14.79932-9.49512l.3125-.02441a188.18546,188.18546,0,0,1,57.96081-.0821l.52356.0821.30957.02441A16.32239,16.32239,0,0,1,176.7,117.02051l12.08789,26.3623H75.90747Z"/><path class="cls-4" d="M67.79993,129.50537H58.21069a7.93882,7.93882,0,0,0,0,15.87763h9.58924a7.93882,7.93882,0,1,0,0-15.87763Z"/><path class="cls-4" d="M206.77649,129.50537h-9.58923a7.93882,7.93882,0,0,0,0,15.87763h9.58923a7.93882,7.93882,0,1,0,0-15.87763Z"/><path class="cls-2" d="M67.80005,127.50586H58.21057a9.93848,9.93848,0,1,0,0,19.877h9.58948a9.93848,9.93848,0,1,0,0-19.877Zm0,15.877H58.21057a5.93848,5.93848,0,1,1,0-11.87695h9.58948a5.93848,5.93848,0,1,1,0,11.87695Z"/><path class="cls-2" d="M206.77612,127.50586h-9.58886a9.93847,9.93847,0,1,0,0,19.877h9.58886a9.93848,9.93848,0,1,0,0-19.877Zm0,15.877h-9.58886a5.93847,5.93847,0,1,1,0-11.87695h9.58886a5.93848,5.93848,0,1,1,0,11.87695Z"/><path class="cls-1" d="M189.16406,145.383H75.53137a24.16612,24.16612,0,0,0-24.16614,24.16607v10.86872a17.90112,17.90112,0,0,0,17.90113,17.901H195.42908a17.901,17.901,0,0,0,17.90112-17.901V169.54907A24.16612,24.16612,0,0,0,189.16406,145.383Z"/><path class="cls-2" d="M189.1637,143.38281H75.53137a26.19562,26.19562,0,0,0-26.16589,26.166V180.418a19.92358,19.92358,0,0,0,19.90088,19.90039H195.42944A19.92363,19.92363,0,0,0,215.32983,180.418v-10.8692A26.196,26.196,0,0,0,189.1637,143.38281ZM211.32983,180.418a15.91834,15.91834,0,0,1-15.90039,15.90039H69.26636A15.91876,15.91876,0,0,1,53.36548,180.418v-10.8692a22.191,22.191,0,0,1,22.16589-22.166H189.1637a22.19078,22.19078,0,0,1,22.16613,22.166Z"/><path class="cls-2" d="M211.40308,173.623c-.14844.52056-3.8595,12.73931-23.2472,12.73931H76.53967c-19.38855,0-23.09948-12.21875-23.245-12.72753l-3.8584,1.05273c.17419.64056,4.5376,15.6748,27.10339,15.6748H188.15588c22.56556,0,26.92871-15.03424,27.10364-15.6748Z"/><circle class="cls-3" cx="74.83032" cy="168.50238" r="9.9978"/><path class="cls-2" d="M74.83032,156.50488A11.99756,11.99756,0,1,0,86.82837,168.502,12.01063,12.01063,0,0,0,74.83032,156.50488Zm0,19.99512a7.99756,7.99756,0,1,1,7.99805-7.998A8.007,8.007,0,0,1,74.83032,176.5Z"/><circle class="cls-3" cx="189.79785" cy="168.50238" r="9.9978"/><path class="cls-2" d="M189.79749,156.50488A11.99756,11.99756,0,1,0,201.79565,168.502,12.01057,12.01057,0,0,0,189.79749,156.50488Zm0,19.99512a7.99756,7.99756,0,1,1,7.99816-7.998A8.00684,8.00684,0,0,1,189.79749,176.5Z"/><rect class="cls-2" x="84.99719" y="169.90039" width="95.40784" height="4"/><path class="cls-2" d="M184.38452,143.5625l-1.65832,3.64056a16.16782,16.16782,0,0,1,9.47949,12.5069l3.98547-.3418A20.18159,20.18159,0,0,0,184.38452,143.5625Z"/><path class="cls-2" d="M81.571,143.5625a20.18171,20.18171,0,0,0-11.80627,15.80566l3.98547.3418a16.168,16.168,0,0,1,9.48-12.5069Z"/></svg>