<svg id="Layer_1" data-name="Layer 1" xmlns="http://www.w3.org/2000/svg" viewBox="0 0 256 256"><defs><style>.cls-1{fill:#fff;}.cls-2{fill:#616363;}.cls-3{fill:#84d1da;}</style></defs><title>-</title><rect class="cls-1" x="41.49066" y="45.46411" width="115.3761" height="147.87573"/><path class="cls-2" d="M39.49054,43.46436v151.876h119.3764V43.46436Zm115.3764,147.876H43.49054V47.46436h111.3764Z"/><rect class="cls-2" x="59.87823" y="106.71045" width="80.16699" height="4"/><rect class="cls-2" x="59.87823" y="86.17627" width="80.16699" height="4"/><rect class="cls-2" x="59.87823" y="65.64307" width="80.16699" height="4"/><rect class="cls-2" x="59.87823" y="127.24463" width="80.16699" height="4"/><rect class="cls-2" x="59.62183" y="147.77881" width="40.3399" height="4"/><rect class="cls-2" x="59.62183" y="168.31299" width="21.25293" height="4"/><path class="cls-3" d="M170.85193,143.81641a21.6047,21.6047,0,0,0-19.66791,12.6831H117.30243L104.11768,164.459v5.76807l12.23968,7.58008,6.54968-6.063h4.57563l6.1792,6.063,4.56781-4.415,3.058,2.78125h10.82056a21.611,21.611,0,1,0,18.74365-32.35693Z"/><path class="cls-2" d="M170.85187,141.81689a23.67276,23.67276,0,0,0-20.91553,12.68262h-33.191l-14.62793,8.83106v8.01074l14.481,8.96777,7.09228-6.56445h2.97461l6.98633,6.85449,4.61957-4.46582,2.24323,2.0398h10.46972a23.61037,23.61037,0,1,0,19.86768-36.35621Zm0,43.23438a19.67616,19.67616,0,0,1-17.00934-9.874l-.5766-1.00415H142.06134l-3.87311-3.52222-4.51605,4.36426-5.37213-5.27051h-6.1767l-6.00732,5.56055-9.9986-6.19239v-3.52441l11.74225-7.08887h34.61127l.5332-1.17187a19.61081,19.61081,0,1,1,17.84772,27.72363Z"/><path class="cls-2" d="M177.23865,160.55518a4.87878,4.87878,0,1,0,4.87878,4.87866A4.87863,4.87863,0,0,0,177.23865,160.55518Z"/><rect class="cls-2" x="104.11743" y="162.45947" width="46.78815" height="4"/><rect class="cls-2" x="204.49756" y="164.29492" width="12.01172" height="4"/><rect class="cls-2" x="196.63006" y="134.8591" width="12.63539" height="3.99957" transform="translate(-37.33183 183.59077) rotate(-45)"/><rect class="cls-2" x="170.35986" y="119.40234" width="4" height="12.03125"/><rect class="cls-2" x="200.94797" y="188.76092" width="3.99957" height="12.63539" transform="translate(-78.49939 200.64294) rotate(-45)"/><rect class="cls-2" x="170.35986" y="200.50488" width="4" height="12.03125"/></svg>