<svg id="Layer_1" data-name="Layer 1" xmlns="http://www.w3.org/2000/svg" viewBox="0 0 256 256"><defs><style>.cls-1{fill:#ceecf3;}.cls-2{fill:#616363;}.cls-3{fill:#85d1d8;}.cls-4{fill:#fff;}.cls-5{fill:#fcb856;}</style></defs><title>-</title><rect class="cls-1" x="60.48425" y="52.28809" width="135.03186" height="135.03174"/><path class="cls-2" d="M58.48438,50.28809V189.31982H197.51562V50.28809ZM193.51562,185.31982H62.48438V54.28809H193.51562Z"/><rect class="cls-3" x="68.99426" y="60.7981" width="118.0116" height="118.01172"/><path class="cls-2" d="M66.99414,58.79785V180.80957H189.00586V58.79785ZM185.00586,176.80957H70.99414V62.79785H185.00586Z"/><rect class="cls-4" x="98.0415" y="82.70605" width="60.06677" height="46.0769"/><path class="cls-2" d="M96.041,80.70605V130.7832H160.1084V80.70605ZM156.1084,126.7832H100.041V84.70605H156.1084Z"/><polygon class="cls-5" points="77.385 112.318 77.385 124.229 89.296 122.965 89.296 113.583 77.385 112.318"/><polygon class="cls-5" points="77.385 88.042 77.385 99.953 89.296 98.689 89.296 89.306 77.385 88.042"/><path class="cls-2" d="M75.38574,110.09473v16.35791l15.91016-1.689v-12.98ZM87.2959,121.166l-7.91016.83935V114.542l7.91016.83936Z"/><path class="cls-2" d="M75.38574,85.81836v16.3584l15.91016-1.689V87.50732ZM87.2959,96.89014l-7.91016.83935V90.26562l7.91016.83936Z"/><polygon class="cls-5" points="166.463 113.583 166.463 122.965 178.374 124.229 178.374 112.318 166.463 113.583"/><polygon class="cls-5" points="166.463 89.306 166.463 98.689 178.374 99.953 178.374 88.042 166.463 89.306"/><path class="cls-2" d="M164.46289,111.78369v12.98l15.91113,1.689V110.09473ZM176.374,122.00537l-7.91113-.83935v-5.78467l7.91113-.83936Z"/><path class="cls-2" d="M164.46289,87.50732v12.98047l15.91113,1.689V85.81836ZM176.374,97.72949l-7.91113-.83935V91.105l7.91113-.83936Z"/><path class="cls-2" d="M88.98926,148.81934V162.5h77.68262V148.81934ZM162.67188,158.5H92.98926v-5.68066h69.68262Z"/><rect class="cls-1" x="109.16895" y="163.51904" width="37.323" height="40.17627"/><path class="cls-5" d="M137.416,203.71167h9.07592v-7.407C141.47949,196.30469,137.416,199.62085,137.416,203.71167Z"/><path class="cls-5" d="M109.34229,196.30444v7.40723h9.07592C118.41821,199.62085,114.35486,196.30444,109.34229,196.30444Z"/><path class="cls-2" d="M146.49219,194.30469c-6.10742,0-11.07617,4.22021-11.07617,9.40722v2h13.07617V194.30469Zm-2,7.40722H139.918a6.73506,6.73506,0,0,1,4.57422-3.1875Z"/><path class="cls-2" d="M109.3418,194.30469h-2v11.40674l13.07617.00048v-2C120.418,198.5249,115.44922,194.30469,109.3418,194.30469Zm2,7.40674v-3.187a6.7373,6.7373,0,0,1,4.57422,3.1875Z"/><path class="cls-2" d="M107.169,161.519v44.17627h41.32324V161.519Zm37.32324,40.17627H111.169V165.519h33.32324Z"/><path class="cls-5" d="M127.83044,164.37769c-5.99353,0-10.85241,3.96557-10.85241,8.85717s4.85888,8.85694,10.85241,8.85694c5.99378,0,10.85242-3.96534,10.85242-8.85694S133.82422,164.37769,127.83044,164.37769Z"/><path class="cls-2" d="M127.83008,162.37793c-7.08692,0-12.85254,4.87061-12.85254,10.85693s5.76562,10.85694,12.85254,10.85694,12.85254-4.87061,12.85254-10.85694S134.917,162.37793,127.83008,162.37793Zm0,17.71387c-4.88086,0-8.85254-3.07618-8.85254-6.85694s3.97168-6.85693,8.85254-6.85693,8.85254,3.07617,8.85254,6.85693S132.71094,180.0918,127.83008,180.0918Z"/><rect class="cls-1" x="109.16895" y="150.83008" width="37.323" height="40.17627"/><path class="cls-5" d="M137.416,191.02271h9.07592v-7.40723C141.47949,183.61548,137.416,186.93188,137.416,191.02271Z"/><path class="cls-5" d="M109.34229,183.61548v7.40723h9.07592C118.41821,186.93164,114.35486,183.61548,109.34229,183.61548Z"/><path class="cls-2" d="M146.49219,181.61572c-6.10742,0-11.07617,4.21973-11.07617,9.40674v2h13.07617V181.61572Zm-2,7.40674H139.918a6.73666,6.73666,0,0,1,4.57422-3.187Z"/><path class="cls-2" d="M109.3418,181.61523h-2v11.40723H120.418v-2C120.418,185.83545,115.44922,181.61523,109.3418,181.61523Zm2,7.40723V185.835a6.735,6.735,0,0,1,4.57422,3.1875Z"/><path class="cls-2" d="M107.169,148.83008v44.17627h41.32324V148.83008Zm37.32324,40.17627H111.169V152.83008h33.32324Z"/><path class="cls-5" d="M127.83044,151.68872c-5.99353,0-10.85241,3.96533-10.85241,8.85693s4.85888,8.85718,10.85241,8.85718c5.99378,0,10.85242-3.96533,10.85242-8.85693S133.82422,151.68872,127.83044,151.68872Z"/><path class="cls-2" d="M127.83008,149.68848c-7.08692,0-12.85254,4.8706-12.85254,10.85742,0,5.98633,5.76562,10.85693,12.85254,10.85693s12.85254-4.8706,12.85254-10.85693C140.68262,154.55908,134.917,149.68848,127.83008,149.68848Zm0,17.71435c-4.88086,0-8.85254-3.07617-8.85254-6.85693,0-3.78125,3.97168-6.85742,8.85254-6.85742s8.85254,3.07617,8.85254,6.85742C136.68262,164.32666,132.71094,167.40283,127.83008,167.40283Z"/></svg>