<svg id="Layer_1" data-name="Layer 1" xmlns="http://www.w3.org/2000/svg" viewBox="0 0 256 256"><defs><style>.cls-1{fill:#fff;}.cls-2{fill:#84d1da;}.cls-3{fill:#616363;}</style></defs><title>-</title><rect class="cls-1" x="116.46265" y="187.11182" width="86.73376" height="16.61938"/><path class="cls-1" d="M52.452,89.9021a10.84772,10.84772,0,0,0-10.84778,10.84766v.00012A10.84775,10.84775,0,0,0,52.452,111.59766l86.701.00012.00012-21.69568Z"/><rect class="cls-1" x="139.15454" y="72.49121" width="40.97668" height="56.51733"/><path class="cls-2" d="M181.57568,129.00854H136.0752a10.11121,10.11121,0,0,0,0,20.22242h45.50048a10.11121,10.11121,0,0,0,0-20.22242Z"/><path class="cls-2" d="M181.57568,52.2688H136.0752a10.11121,10.11121,0,1,0,0,20.22241h45.50048a10.11121,10.11121,0,1,0,0-20.22241Z"/><path class="cls-3" d="M52.45215,87.90234a12.84766,12.84766,0,0,0,0,25.69532h88.70117V87.90234Zm84.70117,21.69532H52.45215a8.84766,8.84766,0,0,1,0-17.69532h84.70117Z"/><rect class="cls-3" x="178.13086" y="72.49121" width="4" height="56.51758"/><rect class="cls-3" x="137.1543" y="72.49121" width="4" height="56.51758"/><path class="cls-3" d="M181.57617,127.00879h-45.501a12.11084,12.11084,0,1,0,0,24.22168h45.501a12.11084,12.11084,0,0,0,0-24.22168Zm0,20.22168h-45.501a8.11084,8.11084,0,1,1,0-16.22168h45.501a8.11084,8.11084,0,0,1,0,16.22168Z"/><path class="cls-3" d="M181.57617,50.26855h-45.501a12.11133,12.11133,0,1,0,0,24.22266h45.501a12.11133,12.11133,0,0,0,0-24.22266Zm0,20.22266h-45.501a8.11133,8.11133,0,1,1,0-16.22266h45.501a8.11133,8.11133,0,0,1,0,16.22266Z"/><path class="cls-3" d="M114.46289,185.11133v20.62012h90.7334V185.11133Zm86.7334,16.62012h-82.7334V189.11133h82.7334Z"/><rect class="cls-3" x="139.15332" y="137.12012" width="51.63281" height="4"/><rect class="cls-3" x="139.15332" y="60.37988" width="51.63281" height="4"/><rect class="cls-3" x="189.51756" y="166.13541" width="29.91409" height="3.99969" transform="translate(-58.79888 195.81915) rotate(-45.4325)"/><rect class="cls-3" x="114.46256" y="153.17786" width="3.99969" height="29.91478" transform="translate(-85.05029 133.1268) rotate(-45.43525)"/><rect class="cls-3" x="158.46875" y="164.13477" width="4" height="14.65625"/><rect class="cls-3" x="44.74414" y="201.73132" width="71.71875" height="4"/></svg>