<svg id="Layer_1" data-name="Layer 1" xmlns="http://www.w3.org/2000/svg" viewBox="0 0 256 256"><defs><style>.cls-1{fill:#fcb856;}.cls-2{fill:#84d1da;}.cls-3{fill:#fff;}.cls-4{fill:#616363;}</style></defs><title>-</title><circle class="cls-1" cx="124.98247" cy="127.62332" r="74.53148" transform="translate(-53.6368 125.75596) rotate(-45)"/><path class="cls-2" d="M89.76288,83.31689H56.26v.00574A21.06742,21.06742,0,0,0,35.30389,104.3877v46.55542a8.464,8.464,0,0,0,8.46381,8.46374l.01453-.00061.01446.00061a8.458,8.458,0,0,0,8.43494-7.89062v7.89062H93.906v-7.89062a8.458,8.458,0,0,0,8.43487,7.89062l.01453-.00061.01446.00061a8.464,8.464,0,0,0,8.46381-8.46374V104.3877A21.071,21.071,0,0,0,89.76288,83.31689Z"/><path class="cls-3" d="M72.27,41.71045A16.87376,16.87376,0,0,0,55.3963,58.58411v.00012a16.87366,16.87366,0,0,0,33.74732,0v-.00012A16.87373,16.87373,0,0,0,72.27,41.71045Z"/><path class="cls-4" d="M72.26978,39.71045a18.87354,18.87354,0,1,0,18.874,18.874A18.89519,18.89519,0,0,0,72.26978,39.71045Zm0,33.74707a14.87354,14.87354,0,1,1,14.874-14.873A14.89012,14.89012,0,0,1,72.26978,73.45752Z"/><polygon class="cls-4" points="91.891 112.449 91.891 157.407 54.246 157.407 54.246 112.449 50.246 112.449 50.246 161.407 95.891 161.407 95.891 112.449 91.891 112.449"/><path class="cls-4" d="M89.77759,81.31689H56.36011a23.09715,23.09715,0,0,0-23.0708,23.07129v44.34864h4V104.38818a19.09288,19.09288,0,0,1,19.0708-19.07129H89.77759a19.09289,19.09289,0,0,1,19.0708,19.07129v44.34864h4V104.38818A23.09715,23.09715,0,0,0,89.77759,81.31689Z"/><path class="cls-4" d="M50.24579,113.855v37.08789a6.4636,6.4636,0,1,1-12.92719,0V113.855h-4v37.08789a10.4636,10.4636,0,1,0,20.92719,0V113.855Z"/><path class="cls-4" d="M108.81909,113.855v37.08789a6.4639,6.4639,0,0,1-12.92779,0V113.855h-4v37.08789a10.4639,10.4639,0,0,0,20.92779,0V113.855Z"/><polygon class="cls-1" points="62.692 83.317 69.709 91.552 74.282 91.552 81.848 83.317 62.692 83.317"/><polygon class="cls-1" points="74.282 91.552 71.996 91.552 69.709 91.552 66.284 121.362 71.996 125.973 77.708 121.362 74.282 91.552"/><path class="cls-4" d="M58.3606,81.31689,68.78589,93.55225H75.1604L86.40112,81.31689Zm15.0429,8.23536h-2.771l-3.60883-4.23536h10.271Z"/><path class="cls-4" d="M76.06525,89.55127H67.926l-3.75495,32.67578,7.82471,6.31543,7.82471-6.31543Zm-4.06946,33.85059-3.59906-2.90528,3.0957-26.94531h1.00635L75.595,120.49658Z"/><path class="cls-3" d="M35.32562,142.31763l-.01452,8.60363a8.47111,8.47111,0,1,0,16.9422.01429v-8.61792Z"/><path class="cls-4" d="M33.3288,140.31787l-.01752,10.59961a10.471,10.471,0,1,0,20.942.01856V140.31787ZM50.25323,150.936a6.47791,6.47791,0,0,1-6.4707,6.4707H43.782a6.47085,6.47085,0,0,1-6.4707-6.48242l.01074-6.60645H50.25323Z"/><path class="cls-3" d="M93.8988,142.31763l-.01458,8.60363a8.47114,8.47114,0,1,0,16.94226.01429v-8.61792Z"/><path class="cls-4" d="M91.9021,140.31787,91.884,150.91846a10.47123,10.47123,0,1,0,20.94245.01758V140.31787ZM108.82642,150.936a6.47123,6.47123,0,1,1-12.94245-.01172l.01123-6.60645h12.93122Z"/><path class="cls-2" d="M199.62549,138.2H166.12262v.00586a21.06743,21.06743,0,0,0-20.95612,21.06494v46.55542a8.46384,8.46384,0,0,0,8.46387,8.46375l.01441-.00049.01452.00049a8.45791,8.45791,0,0,0,8.43494-7.89051v7.89051h41.67431v-7.89051a8.458,8.458,0,0,0,8.43494,7.89051l.01453-.00049.0144.00049a8.4638,8.4638,0,0,0,8.46387-8.46375V159.27075A21.07112,21.07112,0,0,0,199.62549,138.2Z"/><path class="cls-3" d="M182.13257,96.59375a16.87363,16.87363,0,0,0-16.8736,16.87354v.00012a16.87369,16.87369,0,0,0,33.74738,0v-.00012A16.8737,16.8737,0,0,0,182.13257,96.59375Z"/><path class="cls-4" d="M182.13257,94.59326a18.874,18.874,0,1,0,18.87353,18.874A18.89524,18.89524,0,0,0,182.13257,94.59326Zm0,33.748a14.874,14.874,0,1,1,14.87353-14.874A14.891,14.891,0,0,1,182.13257,128.34131Z"/><polygon class="cls-4" points="201.754 167.332 201.754 212.29 164.109 212.29 164.109 167.332 160.109 167.332 160.109 216.29 205.754 216.29 205.754 167.332 201.754 167.332"/><path class="cls-4" d="M199.63989,136.20068h-33.417A23.097,23.097,0,0,0,143.1521,159.271v44.34961h4V159.271a19.09205,19.09205,0,0,1,19.0708-19.07032h33.417a19.092,19.092,0,0,1,19.0708,19.07032v44.34961h4V159.271A23.097,23.097,0,0,0,199.63989,136.20068Z"/><path class="cls-4" d="M160.10858,168.73779v37.08789a6.46384,6.46384,0,1,1-12.92767,0V168.73779h-4v37.08789a10.46384,10.46384,0,1,0,20.92767,0V168.73779Z"/><path class="cls-4" d="M218.68188,168.73779v37.08789a6.46387,6.46387,0,1,1-12.92773,0V168.73779h-4v37.08789a10.46387,10.46387,0,1,0,20.92773,0V168.73779Z"/><polygon class="cls-1" points="172.555 138.2 179.572 146.435 184.145 146.435 191.711 138.2 172.555 138.2"/><polygon class="cls-1" points="184.145 146.435 181.858 146.435 179.572 146.435 176.146 176.245 181.858 180.856 187.57 176.245 184.145 146.435"/><path class="cls-4" d="M168.2229,136.20068l10.42578,12.23438h6.37451l11.24121-12.23438Zm15.04346,8.23438h-2.771l-3.60846-4.23438H187.157Z"/><path class="cls-4" d="M185.928,144.43506h-8.13916l-3.75543,32.6748,7.82525,6.31641,7.82471-6.31641Zm-4.06934,33.85058-3.59961-2.90625,3.09619-26.94433h1.00635l3.09619,26.94433Z"/><path class="cls-3" d="M145.18829,197.20081l-.01458,8.60363a8.47117,8.47117,0,1,0,16.94232.01429v-8.61792Z"/><path class="cls-4" d="M143.19159,195.20068l-.018,10.60059a10.47117,10.47117,0,1,0,20.94233.01758V195.20068Zm16.92432,10.61817a6.47117,6.47117,0,1,1-12.94233-.01172l.01123-6.60645h12.9311Z"/><path class="cls-3" d="M203.76147,197.20081l-.01464,8.60363a8.4712,8.4712,0,1,0,16.94238.01429v-8.61792Z"/><path class="cls-4" d="M201.76489,195.20068l-.01806,10.60059a10.4712,10.4712,0,1,0,20.94238.01758V195.20068Zm16.92432,10.61817a6.47119,6.47119,0,1,1-12.94238-.01172l.01123-6.60645h12.93115Z"/><path class="cls-4" d="M155.571,41.94873H113.37622v4H155.571A24.67133,24.67133,0,0,1,180.2146,70.59229V85.03564h4V70.59229A28.67622,28.67622,0,0,0,155.571,41.94873Z"/><polygon class="cls-4" points="193.395 71.165 182.352 82.207 171.035 70.884 168.206 73.712 182.351 87.865 196.223 73.993 193.395 71.165"/><path class="cls-4" d="M99.71259,210.05713a24.67141,24.67141,0,0,1-24.644-24.64356V170.97021h-4v14.44336a28.6763,28.6763,0,0,0,28.644,28.64356h25.97369v-4Z"/><polygon class="cls-4" points="72.932 168.141 59.06 182.013 61.888 184.841 72.931 173.799 84.249 185.122 87.078 182.293 72.932 168.141"/></svg>