<svg id="Layer_1" data-name="Layer 1" xmlns="http://www.w3.org/2000/svg" viewBox="0 0 256 256"><defs><style>.cls-1{fill:#fcb856;}.cls-2{fill:#84d1da;}.cls-3{fill:#fff;}.cls-4{fill:#616363;}</style></defs><title>-</title><circle class="cls-1" cx="132.68527" cy="127.62332" r="74.53148" transform="translate(-51.3807 131.20266) rotate(-45)"/><path class="cls-2" d="M89.76282,83.31689H56.25989v.00574A21.06751,21.06751,0,0,0,35.30371,104.3877v46.55542a8.46413,8.46413,0,0,0,8.464,8.46374l.0144-.00061.01453.00061a8.458,8.458,0,0,0,8.43482-7.89062v7.89062H93.90588v-7.89062a8.45806,8.45806,0,0,0,8.43494,7.89062l.0144-.00061.01465.00061a8.464,8.464,0,0,0,8.46375-8.46374V104.3877A21.071,21.071,0,0,0,89.76282,83.31689Z"/><path class="cls-3" d="M72.2699,41.71045A16.8737,16.8737,0,0,0,55.39624,58.58411v.00012a16.87366,16.87366,0,0,0,33.74731,0v-.00012A16.8737,16.8737,0,0,0,72.2699,41.71045Z"/><path class="cls-4" d="M72.26978,39.71045a18.87354,18.87354,0,1,0,18.87353,18.874A18.89523,18.89523,0,0,0,72.26978,39.71045Zm0,33.74707a14.87354,14.87354,0,1,1,14.87353-14.873A14.89012,14.89012,0,0,1,72.26978,73.45752Z"/><polygon class="cls-4" points="91.891 112.449 91.891 157.407 54.246 157.407 54.246 112.449 50.246 112.449 50.246 161.407 95.891 161.407 95.891 112.449 91.891 112.449"/><path class="cls-4" d="M89.7771,81.31689h-33.417a23.09715,23.09715,0,0,0-23.0708,23.07129v44.34864h4V104.38818a19.09288,19.09288,0,0,1,19.0708-19.07129h33.417a19.09289,19.09289,0,0,1,19.0708,19.07129v44.34864h4V104.38818A23.09715,23.09715,0,0,0,89.7771,81.31689Z"/><path class="cls-4" d="M50.24585,113.855v37.08789a6.46387,6.46387,0,1,1-12.92773,0V113.855h-4v37.08789a10.46387,10.46387,0,1,0,20.92773,0V113.855Z"/><path class="cls-4" d="M108.81909,113.855v37.08789a6.46387,6.46387,0,1,1-12.92773,0V113.855h-4v37.08789a10.46387,10.46387,0,1,0,20.92773,0V113.855Z"/><polygon class="cls-1" points="62.692 83.317 69.709 91.552 74.282 91.552 81.848 83.317 62.692 83.317"/><polygon class="cls-1" points="74.282 91.552 71.996 91.552 69.709 91.552 66.284 121.362 71.996 125.973 77.708 121.362 74.282 91.552"/><path class="cls-4" d="M58.3606,81.31689,68.78589,93.55225H75.1604L86.40112,81.31689Zm15.043,8.23536h-2.771l-3.60889-4.23536h10.271Z"/><path class="cls-4" d="M76.06519,89.55127H67.926l-3.75538,32.67578,7.8252,6.31543,7.82471-6.31543Zm-4.06934,33.85059-3.59961-2.90528,3.09619-26.94531h1.00635L75.595,120.49658Z"/><path class="cls-3" d="M35.32568,142.31763l-.01464,8.60363a8.47114,8.47114,0,1,0,16.94226.01429v-8.61792Z"/><path class="cls-4" d="M33.32886,140.31787l-.01807,10.60059a10.4712,10.4712,0,1,0,20.94238.01758V140.31787ZM50.25317,150.936a6.47119,6.47119,0,1,1-12.94238-.01172l.01123-6.60645H50.25317Z"/><path class="cls-3" d="M93.89868,142.31763l-.0144,8.60363a8.47108,8.47108,0,1,0,16.94214.01429v-8.61792Z"/><path class="cls-4" d="M91.9021,140.31787,91.884,150.91846a10.4712,10.4712,0,1,0,20.94239.01758V140.31787ZM108.82642,150.936a6.4712,6.4712,0,1,1-12.94239-.01172l.01123-6.60645h12.93116Z"/><path class="cls-2" d="M199.62549,138.2H166.12256v.00586a21.06748,21.06748,0,0,0-20.95618,21.06494v46.55542a8.4639,8.4639,0,0,0,8.464,8.46375l.01441-.00049.0144.00049a8.45778,8.45778,0,0,0,8.43494-7.89051v7.89051h41.67443v-7.89051a8.45788,8.45788,0,0,0,8.43494,7.89051l.01441-.00049.01452.00049a8.4638,8.4638,0,0,0,8.46387-8.46375V159.27075A21.07112,21.07112,0,0,0,199.62549,138.2Z"/><path class="cls-3" d="M182.13257,96.59375a16.8736,16.8736,0,0,0-16.87366,16.87354v.00012a16.87366,16.87366,0,0,0,33.74732,0v-.00012A16.8736,16.8736,0,0,0,182.13257,96.59375Z"/><path class="cls-4" d="M182.13257,94.59326a18.874,18.874,0,1,0,18.874,18.874A18.89534,18.89534,0,0,0,182.13257,94.59326Zm0,33.748a14.874,14.874,0,1,1,14.874-14.874A14.89138,14.89138,0,0,1,182.13257,128.34131Z"/><polygon class="cls-4" points="201.754 167.332 201.754 212.29 164.108 212.29 164.108 167.332 160.108 167.332 160.108 216.29 205.754 216.29 205.754 167.332 201.754 167.332"/><path class="cls-4" d="M199.64038,136.20068h-33.418A23.09684,23.09684,0,0,0,143.1521,159.271v44.34961h4V159.271a19.09163,19.09163,0,0,1,19.07031-19.07032h33.418A19.09163,19.09163,0,0,1,218.71069,159.271v44.34961h4V159.271A23.09684,23.09684,0,0,0,199.64038,136.20068Z"/><path class="cls-4" d="M160.10815,168.73779v37.08789a6.46338,6.46338,0,1,1-12.92675,0V168.73779h-4v37.08789a10.46338,10.46338,0,1,0,20.92675,0V168.73779Z"/><path class="cls-4" d="M218.6814,168.73779v37.08789a6.46387,6.46387,0,1,1-12.92774,0V168.73779h-4v37.08789a10.46387,10.46387,0,1,0,20.92774,0V168.73779Z"/><path class="cls-3" d="M145.18823,197.20081l-.01465,8.60363a8.4712,8.4712,0,1,0,16.94239.01429v-8.61792Z"/><path class="cls-4" d="M143.19116,195.20068l-.01758,10.60059a10.4712,10.4712,0,1,0,20.94239.01758V195.20068ZM160.116,205.81885a6.4712,6.4712,0,1,1-12.94239-.01172l.01172-6.60645H160.116Z"/><path class="cls-3" d="M203.76147,197.20081l-.01464,8.60363a8.47114,8.47114,0,1,0,16.94226.01429v-8.61792Z"/><path class="cls-4" d="M201.7644,195.20068l-.01757,10.60059a10.4712,10.4712,0,1,0,20.94238.01758V195.20068Zm16.92481,10.61817a6.47119,6.47119,0,1,1-12.94238-.01172l.01171-6.60645h12.93067Z"/><path class="cls-4" d="M155.571,41.94873H113.37622v4H155.571A24.671,24.671,0,0,1,180.2146,70.59229V85.03564h4V70.59229A28.67621,28.67621,0,0,0,155.571,41.94873Z"/><polygon class="cls-4" points="193.395 71.165 182.351 82.207 171.036 70.884 168.206 73.712 182.351 87.865 196.223 73.993 193.395 71.165"/><path class="cls-4" d="M99.71265,210.05713a24.67142,24.67142,0,0,1-24.644-24.64356V170.97021h-4v14.44336a28.67631,28.67631,0,0,0,28.644,28.64356h25.97363v-4Z"/><polygon class="cls-4" points="72.932 168.141 59.06 182.013 61.888 184.841 72.931 173.799 84.248 185.122 87.077 182.293 72.932 168.141"/><path class="cls-3" d="M172.26611,138.14075a11.15686,11.15686,0,0,0,22.31372,0Z"/><path class="cls-4" d="M170.26636,136.14111v2a13.15674,13.15674,0,0,0,26.31347,0v-2Zm13.15625,11.15625a9.173,9.173,0,0,1-8.93653-7.15625h17.874A9.17406,9.17406,0,0,1,183.42261,147.29736Z"/><circle class="cls-4" cx="183.42297" cy="162.68652" r="2.37048"/><circle class="cls-4" cx="183.42297" cy="178.41956" r="2.37048"/><path class="cls-4" d="M183.423,191.782a2.37049,2.37049,0,1,0,2.37049,2.37061A2.37048,2.37048,0,0,0,183.423,191.782Z"/></svg>