<svg id="Layer_1" data-name="Layer 1" xmlns="http://www.w3.org/2000/svg" viewBox="0 0 256 256"><defs><style>.cls-1{fill:#fff;}.cls-2{fill:#fcb856;}.cls-3{fill:#616363;}.cls-4{fill:#84d1da;}</style></defs><title>-</title><rect class="cls-1" x="70.12573" y="190.52246" width="115.74854" height="16.87329"/><path class="cls-2" d="M27.24023,144.74414a24.50562,24.50562,0,1,0,49.01123,0Z"/><rect class="cls-1" x="118.43433" y="48.60437" width="18.19507" height="141.91809"/><polygon class="cls-3" points="116.435 46.604 116.435 91.703 120.435 91.703 120.435 50.604 134.629 50.604 134.629 91.703 138.629 91.703 138.629 46.604 116.435 46.604"/><polygon class="cls-3" points="134.629 91.703 134.629 188.523 120.435 188.523 120.435 91.703 116.435 91.703 116.435 192.523 138.629 192.523 138.629 91.703 134.629 91.703"/><path class="cls-4" d="M205.75415,100.51465c-10.85254-16.88623-35.44873-33.4624-78.22241-33.4624-42.77344,0-67.36987,16.57617-78.22229,33.4624a3.60928,3.60928,0,0,0-.5409,1.94385c0,2.60473,2.437,4.11291,4.19166,2.59375C65.23486,94.42407,89.01294,81.6925,127.53174,81.6925c38.519,0,62.29687,12.73157,74.57153,23.35975,1.75464,1.51916,4.19165.011,4.19165-2.59375A3.61031,3.61031,0,0,0,205.75415,100.51465Z"/><path class="cls-3" d="M207.43652,99.43311C200.793,89.09521,179.707,65.05225,127.53223,65.05225c-52.17578,0-73.26172,24.043-79.9043,34.37988a5.56867,5.56867,0,0,0-.85938,3.02637,4.95578,4.95578,0,0,0,4.6543,5.20019,4.30778,4.30778,0,0,0,2.84668-1.09473c9.86524-8.541,32.50195-22.87109,73.2627-22.87109,40.76172,0,63.39746,14.33008,73.26172,22.87109a4.30775,4.30775,0,0,0,2.84667,1.09473,4.95578,4.95578,0,0,0,4.6543-5.20019A5.57043,5.57043,0,0,0,207.43652,99.43311Zm-3.7959,4.22558a.43065.43065,0,0,1-.22753-.11816c-10.28614-8.90625-33.82227-23.84766-75.88086-23.84766-42.05762,0-65.59473,14.94141-75.88184,23.84766a.43068.43068,0,0,1-.22754.11816c-.18652,0-.6543-.35644-.6543-1.20019a1.63779,1.63779,0,0,1,.22364-.86329c6.28906-9.78417,26.33593-32.543,76.54-32.543,50.20312,0,70.25,22.75879,76.54,32.54394a1.64054,1.64054,0,0,1,.22265.86231C204.29492,103.30225,203.82715,103.65869,203.64062,103.65869Z"/><path class="cls-3" d="M76.25195,142.74365H31.88477L53.76855,104.9292l-3.46191-2.00293-23.043,39.81738-2.02344,2.03906a26.50587,26.50587,0,0,0,53.01172-.03906ZM51.74609,167.24951A22.59234,22.59234,0,0,1,32.251,155.99658l-.07422-.11816a21.35458,21.35458,0,0,1-2.81836-9.13477H74.16406A22.53767,22.53767,0,0,1,51.74609,167.24951Z"/><rect class="cls-3" x="61.76468" y="102.62185" width="4.00091" height="45.15865" transform="translate(-54.13392 48.77384) rotate(-30.05712)"/><path class="cls-2" d="M179.74866,144.74414a24.50568,24.50568,0,0,0,49.01135,0Z"/><path class="cls-3" d="M228.75977,142.74365H184.39355l21.88379-37.81445-3.46191-2.00293-23.04395,39.81738-2.02246,2a26.50538,26.50538,0,1,0,53.01075,0Zm-24.50586,24.50586a22.46469,22.46469,0,0,1-22.41114-20.50586h44.82911A22.53769,22.53769,0,0,1,204.25391,167.24951Z"/><rect class="cls-3" x="214.27298" y="102.62209" width="4.00091" height="45.15816" transform="translate(-33.62561 125.15961) rotate(-30.05712)"/><path class="cls-1" d="M127.53174,63.49109A11.6286,11.6286,0,1,0,139.1604,75.11963,11.62855,11.62855,0,0,0,127.53174,63.49109Z"/><path class="cls-3" d="M127.53223,61.49072a13.62891,13.62891,0,1,0,13.62793,13.62891A13.6448,13.6448,0,0,0,127.53223,61.49072Zm0,23.25782a9.62891,9.62891,0,1,1,9.62793-9.62891A9.6396,9.6396,0,0,1,127.53223,84.74854Z"/><polygon class="cls-3" points="136.629 188.523 136.629 192.523 183.874 192.523 183.874 205.396 72.126 205.396 72.126 192.523 118.435 192.523 118.435 188.523 68.126 188.523 68.126 209.396 187.874 209.396 187.874 188.523 136.629 188.523"/></svg>