<svg id="Layer_1" data-name="Layer 1" xmlns="http://www.w3.org/2000/svg" viewBox="0 0 256 256"><defs><style>.cls-1{fill:#ceecf3;}.cls-2{fill:#616363;}.cls-3{fill:#84d1da;}.cls-4{fill:#fcb856;}.cls-5{fill:#fff;}</style></defs><title>-</title><path class="cls-1" d="M81.42706,184.7793h-.81573V146.68945h.81573a9.67554,9.67554,0,1,0,0-19.35107H58.79047a9.67554,9.67554,0,1,0,0,19.35107h1.00891V184.7793H58.79047a9.67578,9.67578,0,0,0,0,19.35156H81.42706a9.67578,9.67578,0,0,0,0-19.35156Z"/><path class="cls-2" d="M58.79022,144.68945a7.67578,7.67578,0,0,1,0-15.35156v-4a11.67578,11.67578,0,0,0,0,23.35156h7.77252v-4Z"/><path class="cls-2" d="M81.427,125.33789v4a7.67578,7.67578,0,0,1,0,15.35156H73.655v4h7.772a11.67578,11.67578,0,0,0,0-23.35156Z"/><path class="cls-2" d="M81.427,182.7793H73.655v4h7.772a7.67578,7.67578,0,0,1,0,15.35156H58.79077a7.67578,7.67578,0,0,1,0-15.35156h7.772v-4h-7.772a11.67578,11.67578,0,0,0,0,23.35156H81.427a11.67578,11.67578,0,0,0,0-23.35156Z"/><rect class="cls-2" x="57.79956" y="146.68945" width="4" height="38.08984"/><rect class="cls-2" x="78.61157" y="146.68945" width="4" height="38.08984"/><path class="cls-1" d="M139.75867,184.7793h-.81562V146.68945h.81568a9.67554,9.67554,0,1,0,0-19.35107h-22.6366a9.67554,9.67554,0,1,0,0,19.35107H118.131V184.7793h-1.00891a9.67578,9.67578,0,0,0,0,19.35156h22.63654a9.67578,9.67578,0,0,0,0-19.35156Z"/><path class="cls-2" d="M117.12238,144.68945a7.67578,7.67578,0,1,1,0-15.35156v-4a11.67578,11.67578,0,1,0,0,23.35156h7.77185v-4Z"/><path class="cls-2" d="M139.75854,125.33789v4a7.67578,7.67578,0,1,1,0,15.35156h-7.772v4h7.772a11.67578,11.67578,0,1,0,0-23.35156Z"/><path class="cls-2" d="M139.75854,182.7793h-7.772v4h7.772a7.67578,7.67578,0,1,1,0,15.35156H117.12238a7.67578,7.67578,0,1,1,0-15.35156h7.77185v-4h-7.77185a11.67578,11.67578,0,1,0,0,23.35156h22.63616a11.67578,11.67578,0,1,0,0-23.35156Z"/><rect class="cls-2" x="116.13104" y="146.68945" width="4" height="38.08984"/><rect class="cls-2" x="136.94318" y="146.68945" width="4" height="38.08984"/><path class="cls-1" d="M198.09033,184.7793h-.81567V146.68945h.81579a9.67554,9.67554,0,1,0,0-19.35107H175.45386a9.67554,9.67554,0,1,0,0,19.35107h1.00879V184.7793h-1.00879a9.67578,9.67578,0,0,0,0,19.35156h22.63647a9.67578,9.67578,0,0,0,0-19.35156Z"/><path class="cls-2" d="M175.45386,144.68945a7.67578,7.67578,0,0,1,0-15.35156v-4a11.67578,11.67578,0,0,0,0,23.35156h7.772v-4Z"/><path class="cls-2" d="M198.09058,125.33789v4a7.67578,7.67578,0,0,1,0,15.35156h-7.77246v4h7.77246a11.67578,11.67578,0,1,0,0-23.35156Z"/><path class="cls-2" d="M198.09058,182.7793h-7.77246v4h7.77246a7.67578,7.67578,0,0,1,0,15.35156H175.45386a7.67578,7.67578,0,0,1,0-15.35156h7.772v-4h-7.772a11.67578,11.67578,0,0,0,0,23.35156h22.63672a11.67578,11.67578,0,0,0,0-23.35156Z"/><rect class="cls-2" x="174.46265" y="146.68945" width="4" height="38.08984"/><rect class="cls-2" x="195.27466" y="146.68945" width="4" height="38.08984"/><polygon class="cls-3" points="128 52.171 48.954 97.191 48.954 120.078 207.046 120.078 207.046 97.191 128 52.171"/><path class="cls-2" d="M127.99976,49.86914l-80.03559,45.584-1.01031.57618v26.04882H209.04614V96.0293Zm77.04638,68.209H50.95386V98.35352l77.0459-43.88086,77.04638,43.88086Z"/><circle class="cls-4" cx="128" cy="95.36011" r="13.62573"/><path class="cls-2" d="M127.99976,79.73438a15.626,15.626,0,1,0,15.626,15.626A15.64354,15.64354,0,0,0,127.99976,79.73438Zm0,27.25195a11.626,11.626,0,1,1,11.626-11.626A11.63924,11.63924,0,0,1,127.99976,106.98633Z"/><rect class="cls-5" x="40.13654" y="120.07813" width="175.72699" height="12.6499"/><path class="cls-2" d="M38.13647,118.07812v16.64942H217.86353V118.07812Zm175.72706,12.64942H42.13647v-8.64942H213.86353Z"/><rect class="cls-2" x="40.13647" y="202.13086" width="175.72705" height="4"/><polygon class="cls-2" points="127.999 61.78 56.839 102.262 56.839 120.078 60.839 120.078 60.839 104.588 128.001 66.382 195.275 104.589 195.275 120.078 199.275 120.078 199.275 102.261 127.999 61.78"/></svg>