<svg id="Layer_1" data-name="Layer 1" xmlns="http://www.w3.org/2000/svg" viewBox="0 0 256 256"><defs><style>.cls-1{fill:#fff;}.cls-2{fill:#616363;}.cls-3{fill:#fcb856;}.cls-4{fill:#84d1da;}</style></defs><title>-</title><rect class="cls-1" x="46.76196" y="172.95996" width="85.96387" height="32.58862"/><path class="cls-2" d="M44.76221,170.96021v36.58837h89.96386V170.96021Zm85.96386,32.58837H48.76221V174.96021h81.96386Z"/><path class="cls-3" d="M75.6272,185.08984a4.16456,4.16456,0,1,0,4.16467,4.16455A4.16449,4.16449,0,0,0,75.6272,185.08984Z"/><path class="cls-4" d="M89.7439,185.08984a4.16456,4.16456,0,1,0,4.16443,4.16455A4.16463,4.16463,0,0,0,89.7439,185.08984Z"/><path class="cls-4" d="M103.86047,185.08984a4.16456,4.16456,0,1,0,4.16443,4.16455A4.16462,4.16462,0,0,0,103.86047,185.08984Z"/><rect class="cls-1" x="46.76196" y="140.37158" width="85.96387" height="32.58838"/><path class="cls-2" d="M44.76221,138.37183v36.58838h89.96386V138.37183Zm85.96386,32.58838H48.76221V142.37183h81.96386Z"/><path class="cls-3" d="M75.6272,152.50146a4.16456,4.16456,0,1,0,4.16467,4.16456A4.16449,4.16449,0,0,0,75.6272,152.50146Z"/><path class="cls-4" d="M89.7439,152.50146a4.16456,4.16456,0,1,0,4.16443,4.16456A4.16463,4.16463,0,0,0,89.7439,152.50146Z"/><path class="cls-4" d="M103.86047,152.50146a4.16456,4.16456,0,1,0,4.16443,4.16456A4.16462,4.16462,0,0,0,103.86047,152.50146Z"/><rect class="cls-1" x="46.76196" y="107.7832" width="85.96387" height="32.58838"/><path class="cls-2" d="M44.76221,105.78345v36.58838h89.96386V105.78345Zm85.96386,32.58838H48.76221V109.78345h81.96386Z"/><path class="cls-3" d="M75.6272,119.91309a4.16455,4.16455,0,1,0,4.16467,4.16455A4.16448,4.16448,0,0,0,75.6272,119.91309Z"/><path class="cls-4" d="M89.7439,119.91309a4.16455,4.16455,0,1,0,4.16443,4.16455A4.16462,4.16462,0,0,0,89.7439,119.91309Z"/><path class="cls-4" d="M103.86047,119.91309a4.16455,4.16455,0,1,0,4.16443,4.16455A4.16461,4.16461,0,0,0,103.86047,119.91309Z"/><rect class="cls-4" x="120.66333" y="50.45117" width="88.57471" height="146.2146"/><rect class="cls-4" x="128.5" y="196.66577" width="72.90137" height="8.88281"/><path class="cls-2" d="M126.49951,194.66577v12.88281h76.90137V194.66577Zm72.90137,8.88281H130.49951v-4.88281h68.90137Z"/><path class="cls-1" d="M190.73706,84.68311H138.37354a2.72,2.72,0,1,0,0,5.43994h52.36352a2.72,2.72,0,0,0,0-5.43994Z"/><path class="cls-1" d="M190.73706,64.30273H138.37354a2.72,2.72,0,1,0,0,5.43995h52.36352a2.72,2.72,0,0,0,0-5.43995Z"/><path class="cls-1" d="M190.73706,105.06348H138.37354a2.72,2.72,0,1,0,0,5.43994h52.36352a2.72,2.72,0,1,0,0-5.43994Z"/><path class="cls-1" d="M190.73706,125.44385H138.37354a2.71985,2.71985,0,1,0,0,5.43969h52.36352a2.71985,2.71985,0,1,0,0-5.43969Z"/><path class="cls-1" d="M190.73706,145.82422H138.37354a2.71985,2.71985,0,1,0,0,5.4397h52.36352a2.71985,2.71985,0,1,0,0-5.4397Z"/><path class="cls-2" d="M118.66357,48.45142V198.66577h92.57422V48.45142Zm88.57422,146.21435H122.66357V52.45142h84.57422Z"/><path class="cls-1" d="M164.95068,165.00342a9.18128,9.18128,0,1,0,9.18128,9.18115A9.18126,9.18126,0,0,0,164.95068,165.00342Z"/><path class="cls-3" d="M164.95068,165.00342a9.18128,9.18128,0,1,0,9.18128,9.18115A9.18126,9.18126,0,0,0,164.95068,165.00342Z"/><path class="cls-2" d="M164.95068,163.00366a11.18116,11.18116,0,1,0,11.18164,11.18115A11.19364,11.19364,0,0,0,164.95068,163.00366Zm0,18.36231a7.18116,7.18116,0,1,1,7.18164-7.18116A7.18968,7.18968,0,0,1,164.95068,181.366Z"/></svg>