<svg id="Layer_1" data-name="Layer 1" xmlns="http://www.w3.org/2000/svg" viewBox="0 0 256 256"><defs><style>.cls-1{fill:#84d1da;}.cls-2{fill:#616363;}.cls-3{fill:#fff;}.cls-4{fill:#fcb856;}</style></defs><title>-</title><path class="cls-1" d="M170.00952,69.91309a7.197,7.197,0,0,1-14.394,0h-15.6543a7.197,7.197,0,0,1-14.394,0H109.90332a7.197,7.197,0,0,1-14.394,0H79.855a7.197,7.197,0,0,1-14.394,0H52.511V208.00928H65.46094a7.197,7.197,0,0,1,14.394,0h15.6543a7.197,7.197,0,0,1,14.394,0h15.66382a7.197,7.197,0,0,1,14.394,0h15.6543a7.197,7.197,0,0,1,14.394,0h12.95972V69.91309Z"/><path class="cls-2" d="M168.00977,67.91309v2a5.19727,5.19727,0,0,1-10.39454,0v-2H137.96094v2a5.19678,5.19678,0,0,1-10.39356,0v-2H107.90332v2a5.19727,5.19727,0,0,1-10.39453,0v-2H77.85449v2a5.19678,5.19678,0,0,1-10.39355,0v-2H50.51074V210.00983h16.9502v-2a5.19678,5.19678,0,0,1,10.39355,0v2h19.6543v-2a5.19727,5.19727,0,0,1,10.39453,0v2h19.66406v-2a5.19678,5.19678,0,0,1,10.39356,0v2h19.65429v-2a5.19727,5.19727,0,0,1,10.39454,0v2h16.96V67.91309Zm12.96,138.09674H171.791a9.19967,9.19967,0,0,0-17.95606,0H141.74121a9.19906,9.19906,0,0,0-17.95508,0H111.68457a9.19967,9.19967,0,0,0-17.956,0H81.63477a9.19906,9.19906,0,0,0-17.95508,0h-9.169V71.91309h9.169a9.19906,9.19906,0,0,0,17.95508,0H93.72852a9.19967,9.19967,0,0,0,17.956,0h12.10156a9.19906,9.19906,0,0,0,17.95508,0H153.835a9.19967,9.19967,0,0,0,17.95606,0h9.17871Z"/><path class="cls-3" d="M190.53,47.9903a7.19709,7.19709,0,0,1-14.39417,0H160.48169a7.19709,7.19709,0,0,1-14.39417,0H130.42358a7.197,7.197,0,0,1-14.39392,0H100.37537a7.197,7.197,0,0,1-14.39405,0h-12.95V186.08655h12.95a7.197,7.197,0,0,1,14.39405,0h15.65429a7.197,7.197,0,0,1,14.39392,0h15.66394a7.19709,7.19709,0,0,1,14.39417,0h15.65417a7.19709,7.19709,0,0,1,14.39417,0h12.95959V47.9903Z"/><path class="cls-2" d="M188.53027,45.99017v2a5.19727,5.19727,0,0,1-10.39453,0v-2H158.48145v2a5.19678,5.19678,0,0,1-10.39356,0v-2H128.42383v2a5.19727,5.19727,0,0,1-10.39453,0v-2H98.375v2a5.19678,5.19678,0,0,1-10.39355,0v-2H71.03125V188.08691h16.9502v-2a5.19678,5.19678,0,0,1,10.39355,0v2h19.6543v-2a5.19727,5.19727,0,0,1,10.39453,0v2h19.66406v-2a5.19678,5.19678,0,0,1,10.39356,0v2h19.65429v-2a5.19727,5.19727,0,0,1,10.39453,0v2h16.959V45.99017Zm12.959,138.09674h-9.17774a9.19968,9.19968,0,0,0-17.95605,0H162.26172a9.19908,9.19908,0,0,0-17.95508,0H132.20508a9.19969,9.19969,0,0,0-17.95606,0H102.15527a9.19907,9.19907,0,0,0-17.95507,0H75.03125V49.99017H84.2002a9.19905,9.19905,0,0,0,17.95507,0H114.249a9.19967,9.19967,0,0,0,17.95606,0h12.10156a9.19906,9.19906,0,0,0,17.95508,0h12.09375a9.19967,9.19967,0,0,0,17.95605,0h9.17774Z"/><path class="cls-4" d="M102.54028,142.9231c-3.09057-1.01239-5.33215-1.86213-5.33215-4.17579,0-2.16919,1.80749-3.38012,4.392-3.38012a11.49556,11.49556,0,0,1,6.23645,2.18689l1.861-2.29547a15.14106,15.14106,0,0,0-6.30811-2.69312v-4.84466h-2.47583v4.68194c-4.51928.21723-7.03149,2.94672-7.03149,6.54364,0,4.41071,3.68726,5.67621,7.73633,6.97748,3.4165,1.06641,5.54822,1.952,5.54822,4.6087,0,2.33191-2.02369,3.68781-4.75318,3.68781a10.5161,10.5161,0,0,1-7.14026-3.073l-1.93371,2.31372a12.90642,12.90642,0,0,0,7.57361,3.6333v4.51929h2.47631v-4.483c4.50074-.36109,7.158-3.01838,7.158-6.79609v-.00048C110.54736,145.58038,107.095,144.36951,102.54028,142.9231Z"/><rect class="cls-2" x="93.33984" y="73.71002" width="89.35645" height="4"/><rect class="cls-2" x="93.33984" y="91.88959" width="89.35645" height="4"/><rect class="cls-2" x="93.33984" y="110.07031" width="89.35645" height="4"/><rect class="cls-2" x="123.00195" y="142.66699" width="59.69434" height="4"/></svg>