<svg id="Layer_1" data-name="Layer 1" xmlns="http://www.w3.org/2000/svg" viewBox="0 0 256 256"><defs><style>.cls-1{fill:#ceecf3;}.cls-2{fill:#fcb856;}.cls-3{fill:#616363;}.cls-4{fill:#fff;}.cls-5{fill:#84d1da;}</style></defs><title>-</title><rect class="cls-1" x="11.13818" y="53.21509" width="173.96045" height="86.98022"/><path class="cls-2" d="M11.13818,53.21509v21.1513a21.15132,21.15132,0,0,0,21.15125-21.1513Z"/><path class="cls-2" d="M163.99438,53.21509a21.15127,21.15127,0,0,0,21.15137,21.1513V53.21509Z"/><path class="cls-2" d="M163.99438,139.7915h21.15137V118.64008A21.15133,21.15133,0,0,0,163.99438,139.7915Z"/><path class="cls-2" d="M11.13818,118.64008v21.1513H32.28943A21.15136,21.15136,0,0,0,11.13818,118.64008Z"/><path class="cls-3" d="M9.13818,51.21527V76.3667h2A23.17774,23.17774,0,0,0,34.28955,53.21527v-2Zm4,21.04791V55.21527H30.186A19.189,19.189,0,0,1,13.13818,72.26318Z"/><path class="cls-3" d="M161.99463,51.21527v2A23.17774,23.17774,0,0,0,185.146,76.3667h2V51.21527ZM183.146,72.26318a19.18853,19.18853,0,0,1-17.04786-17.04791H183.146Z"/><path class="cls-3" d="M185.146,116.64008a23.17774,23.17774,0,0,0-23.15137,23.15142v2H187.146V116.64008Zm-2,21.15142H166.09814A19.18853,19.18853,0,0,1,183.146,120.74359Z"/><path class="cls-3" d="M11.13818,116.64008h-2V141.7915H34.28955v-2A23.17774,23.17774,0,0,0,11.13818,116.64008Zm2,21.15142V120.74359A19.189,19.189,0,0,1,30.186,137.7915Z"/><path class="cls-3" d="M9.13818,51.21527V142.1958H187.09912V51.21527ZM183.09912,138.1958H13.13818V55.21527H183.09912Z"/><circle class="cls-2" cx="98.11838" cy="96.70522" r="25.29138" transform="matrix(0.52573, -0.85065, 0.85065, 0.52573, -35.72787, 129.32877)"/><path class="cls-3" d="M98.11816,69.41357a27.29151,27.29151,0,1,0,27.29151,27.292A27.32238,27.32238,0,0,0,98.11816,69.41357Zm0,50.583a23.29151,23.29151,0,1,1,23.29151-23.291A23.31735,23.31735,0,0,1,98.11816,119.99658Z"/><rect class="cls-1" x="27.31348" y="69.16711" width="173.96045" height="86.98035"/><path class="cls-2" d="M27.31348,69.16711V90.31848A21.15138,21.15138,0,0,0,48.46472,69.16711Z"/><path class="cls-2" d="M180.16968,69.16711A21.15132,21.15132,0,0,0,201.321,90.31848V69.16711Z"/><path class="cls-2" d="M180.16968,155.74341h21.15124V134.59216A21.15123,21.15123,0,0,0,180.16968,155.74341Z"/><path class="cls-2" d="M27.31348,134.5921v21.15131H48.46472A21.15137,21.15137,0,0,0,27.31348,134.5921Z"/><path class="cls-3" d="M25.31348,67.16748V92.31879h2A23.17764,23.17764,0,0,0,50.46484,69.16748v-2Zm4,21.04779V71.16748H46.36133A19.18886,19.18886,0,0,1,29.31348,88.21527Z"/><path class="cls-3" d="M178.16943,67.16748v2A23.17765,23.17765,0,0,0,201.3208,92.31879h2V67.16748ZM199.3208,88.21527A19.1884,19.1884,0,0,1,182.273,71.16748H199.3208Z"/><path class="cls-3" d="M201.3208,132.59229a23.1777,23.1777,0,0,0-23.15137,23.15136v2H203.3208V132.59229Zm-2,21.15136H182.273A19.18846,19.18846,0,0,1,199.3208,136.6958Z"/><path class="cls-3" d="M27.31348,132.59229h-2v25.15136H50.46484v-2A23.17769,23.17769,0,0,0,27.31348,132.59229Zm2,21.15136V136.6958a19.18892,19.18892,0,0,1,17.04785,17.04785Z"/><path class="cls-3" d="M25.31348,67.16748V158.147H203.27393V67.16748ZM199.27393,154.147H29.31348V71.16748H199.27393Z"/><circle class="cls-2" cx="114.29367" cy="112.65727" r="25.29136" transform="translate(-42.15779 76.91311) rotate(-31.71751)"/><path class="cls-3" d="M114.29346,85.36566a27.29154,27.29154,0,1,0,27.292,27.292A27.32247,27.32247,0,0,0,114.29346,85.36566Zm0,50.583a23.29151,23.29151,0,1,1,23.292-23.291A23.31726,23.31726,0,0,1,114.29346,135.94867Z"/><rect class="cls-1" x="43.22925" y="85.13879" width="173.96057" height="86.98035"/><path class="cls-2" d="M43.22925,85.13879v21.15137A21.15138,21.15138,0,0,0,64.38049,85.13879Z"/><path class="cls-2" d="M196.08545,85.13879a21.15133,21.15133,0,0,0,21.15137,21.15137V85.13879Z"/><path class="cls-2" d="M196.08545,171.71521h21.15137V150.564A21.15119,21.15119,0,0,0,196.08545,171.71521Z"/><path class="cls-2" d="M43.22925,150.56372v21.15149H64.38049A21.15144,21.15144,0,0,0,43.22925,150.56372Z"/><path class="cls-3" d="M41.229,83.1391v25.15137h2A23.17765,23.17765,0,0,0,66.38037,85.1391v-2Zm4,21.04791V87.1391H62.27686A19.189,19.189,0,0,1,45.229,104.187Z"/><path class="cls-3" d="M194.08545,83.1391v2a23.17765,23.17765,0,0,0,23.15137,23.15137h2V83.1391ZM215.23682,104.187A19.18854,19.18854,0,0,1,198.189,87.1391h17.04786Z"/><path class="cls-3" d="M217.23682,148.564a23.1777,23.1777,0,0,0-23.15137,23.15137v2h25.15137V148.564Zm-2,21.15137H198.189a19.18848,19.18848,0,0,1,17.04786-17.04785Z"/><path class="cls-3" d="M43.229,148.564h-2v25.15137H66.38037v-2A23.1777,23.1777,0,0,0,43.229,148.564Zm2,21.15137V152.66748a19.18893,19.18893,0,0,1,17.04786,17.04785Z"/><path class="cls-3" d="M41.229,83.1391v90.97955H219.18994V83.1391Zm173.96094,86.97955H45.229V87.1391H215.18994Z"/><circle class="cls-2" cx="130.20944" cy="128.62895" r="25.29136" transform="translate(-48.17759 87.66588) rotate(-31.71751)"/><path class="cls-3" d="M130.20947,101.3374a27.29151,27.29151,0,1,0,27.291,27.292A27.32252,27.32252,0,0,0,130.20947,101.3374Zm0,50.583a23.29151,23.29151,0,1,1,23.291-23.291A23.31773,23.31773,0,0,1,130.20947,151.92041Z"/><path class="cls-4" d="M140.28027,126.81091a5.73207,5.73207,0,0,0,1.59986-3.97174V122.42a5.76263,5.76263,0,0,0-5.75611-5.7561V117.02l-.00024-.00025V116.665h-1.95386l-.01953-.0011v.0011h-.30395v-4.53839l-2.16993.0003V116.665h-4.03808v-4.53839l-2.1698.0003V116.665h-8.48548v2.16882a3.55561,3.55561,0,0,1,3.55567,3.5556v12.82666a3.55566,3.55566,0,0,1-3.55567,3.55567v2.1687h8.48548v4.53845l2.1698-.00012v-4.53833h4.03808v4.53845l2.16993-.00012v-4.53833h.10278v.00122h4.05786a6.99372,6.99372,0,0,0,6.99365-6.99377v-.53009A7.00028,7.00028,0,0,0,140.28027,126.81091Zm-15.06152-7.97711h8.93164v.00128a3.58906,3.58906,0,0,1,3.585,3.5849v.41919a3.58906,3.58906,0,0,1-3.585,3.58509h-3.24158v.001h-5.69006Zm15.75818,15.114a4.82808,4.82808,0,0,1-4.82263,4.82258h-2.20508v.00134h-8.73047V128.59406h5.69006v.00115h5.24549a4.82808,4.82808,0,0,1,4.82263,4.82258Z"/><circle class="cls-5" cx="212.5159" cy="170.43799" r="32.34622" transform="translate(-24.55704 36.24209) rotate(-9.21748)"/><path class="cls-3" d="M212.51611,136.09131A34.34668,34.34668,0,1,0,246.86182,170.438,34.386,34.386,0,0,0,212.51611,136.09131Zm0,64.69336A30.34668,30.34668,0,1,1,242.86182,170.438,30.38081,30.38081,0,0,1,212.51611,200.78467Z"/><path class="cls-4" d="M224.4187,167.38232a6.84081,6.84081,0,0,0,1.90942-4.74035v-.50037a6.87746,6.87746,0,0,0-6.86987-6.86987v.4248l-.00024-.00024V155.273H217.1261l-.02356-.00122v.00122H216.74V149.8562l-3.58984.00025v5.4165h-2.81958V149.8562l-3.58985.00025v5.4165H196.61328v2.58862a4.24364,4.24364,0,0,1,4.24365,4.24353v15.30908a4.24364,4.24364,0,0,1-4.24365,4.24353v2.58863h10.12744V189.663l3.58985-.00012v-5.4165h2.81958V189.663l3.58984-.00012v-5.4165h.12256v.00122h4.84326a8.34718,8.34718,0,0,0,8.34717-8.347v-.63269A8.35506,8.35506,0,0,0,224.4187,167.38232Zm-17.97632-9.52075h10.66016v.00147a4.28356,4.28356,0,0,1,4.27881,4.27856v.50037a4.28355,4.28355,0,0,1-4.27881,4.27881h-3.86865v.00134h-6.79151Zm18.80786,18.03882a5.76233,5.76233,0,0,1-5.75586,5.75586h-2.63183v.00146H206.44238v-12.147h6.79151v.00122h6.26049a5.76233,5.76233,0,0,1,5.75586,5.75586Z"/></svg>