<svg id="Layer_1" data-name="Layer 1" xmlns="http://www.w3.org/2000/svg" viewBox="0 0 256 256"><defs><style>.cls-1{fill:#ceecf3;}.cls-2{fill:#85d1d8;}.cls-3{fill:#fff;}.cls-4{fill:none;}.cls-5{fill:#616363;}</style></defs><title>-</title><polygon class="cls-1" points="111.648 123.369 88.249 112.716 84.644 111.075 72.214 105.415 32.781 123.369 30.969 124.198 30.969 176.422 70.412 194.377 72.214 195.197 74.017 194.377 113.45 176.422 113.45 124.19 111.648 123.369"/><polygon class="cls-2" points="223.233 123.369 199.834 112.716 196.229 111.075 183.799 105.415 144.366 123.369 142.554 124.198 142.554 176.422 181.997 194.377 183.799 195.197 185.602 194.377 225.035 176.422 225.035 124.19 223.233 123.369"/><polygon class="cls-3" points="167.443 78.478 144.044 67.825 140.439 66.184 128.009 60.524 88.576 78.478 86.764 79.307 86.764 131.531 126.207 149.486 128.009 150.306 129.812 149.486 169.245 131.531 169.245 79.299 167.443 78.478"/><polygon class="cls-4" points="93.122 189.808 52.125 171.142 52.125 119.256 93.122 137.922 93.122 189.808"/><polygon class="cls-4" points="93.122 189.808 134.118 171.142 134.118 119.256 93.122 137.922 93.122 189.808"/><polygon class="cls-4" points="93.122 100.59 52.125 119.256 52.125 119.256 93.122 137.922 134.118 119.256 134.119 119.256 93.122 100.59"/><path class="cls-5" d="M72.2146,140.96826,35.73645,124.3645,31.22,122.30273l-1.88342.86206v54.29078l41.0039,18.666,1.87415.8523,1.874-.8523V141.821Zm-1.87415,51.03955-37.256-16.96V127.27832l37.256,16.96045Z"/><path class="cls-5" d="M113.20923,122.30273l-4.52588,2.06177L72.2146,140.96826l-1.87415.85278v54.30054l1.87415.8523,1.874-.8523,40.99451-18.666V123.15576ZM111.335,175.04785l-37.24634,16.96v-47.769L111.335,127.27832Z"/><path class="cls-5" d="M113.20923,122.30273,88.88416,111.22754,85.136,109.52173l-12.92139-5.884L31.22,122.30273l-1.88342.86206v2.39893l3.74792,1.7146,37.256,16.96045,1.87415.85254,1.874-.85254L111.335,127.27832l3.74817-1.70508v-2.41748ZM72.2146,140.96826,35.73645,124.3645,72.2146,107.76025,85.136,113.645l3.74817,1.70508,19.79919,9.0144Z"/><path class="cls-5" d="M183.79492,140.96826,147.32605,124.3645h-.00928l-4.51648-2.06177-1.874.853v54.29981l40.99451,18.666,1.87414.8523,1.8739-.8523V141.821Zm-1.87414,51.03955-37.24646-16.96V127.27832l37.24646,16.96045Z"/><path class="cls-5" d="M224.78943,122.30273,220.273,124.3645h-.0094l-36.46863,16.60376-1.87414.85278v54.30054l1.87414.8523,1.8739-.8523,40.99463-18.666V123.15576Zm-1.87415,52.74512-37.24646,16.96v-47.769l37.24646-16.96045Z"/><path class="cls-5" d="M224.78943,122.30273l-40.99451-18.665-12.92163,5.884-3.74805,1.70581-24.32495,11.07519-1.874.853v2.41748l3.74805,1.70508,37.24646,16.96045,1.87414.85254,1.8739-.85254,37.24646-16.96045,3.74817-1.70508v-2.41748Zm-40.99451,18.66553L147.32605,124.3645l19.79919-9.0144,3.74805-1.70508,12.92163-5.88477,36.46863,16.60425Z"/><polygon class="cls-5" points="128.005 96.366 91.527 79.753 87.01 77.691 85.136 78.544 85.136 129.64 88.884 129.64 88.884 82.667 126.131 99.627 126.131 147.396 115.083 142.365 111.335 140.659 99.042 135.065 97.486 138.476 111.335 144.782 115.083 146.487 126.131 151.519 128.005 152.372 129.879 151.519 129.879 97.219 128.005 96.366"/><polygon class="cls-5" points="168.999 77.691 164.474 79.753 128.005 96.366 126.131 97.219 126.131 151.519 128.005 152.372 129.879 151.519 140.926 146.487 144.674 144.782 157.689 138.851 156.143 135.44 144.674 140.659 140.926 142.365 129.879 147.396 129.879 99.627 167.125 82.667 167.125 129.64 170.873 129.64 170.873 78.544 168.999 77.691"/><path class="cls-5" d="M168.99927,77.69141,128.00464,59.02612,87.01,77.69141l-1.874.85254v2.41748l3.74817,1.70581,37.24646,16.95971,1.874.85279,1.874-.85279,37.24658-16.95971,3.74805-1.70581V78.544ZM128.00464,96.36646l-36.478-16.61377,36.478-16.60376,36.469,16.60376Z"/></svg>