<svg id="Layer_1" data-name="Layer 1" xmlns="http://www.w3.org/2000/svg" viewBox="0 0 256 256"><defs><style>.cls-1{fill:#ceecf3;}.cls-2{fill:#fcb856;}.cls-3{fill:#616363;}.cls-4{fill:#fff;}</style></defs><title>-</title><rect class="cls-1" x="10.6842" y="53.55804" width="173.96057" height="86.98029"/><path class="cls-2" d="M10.6842,53.558V74.70941A21.1513,21.1513,0,0,0,31.83545,53.558Z"/><path class="cls-2" d="M163.54041,53.558a21.1514,21.1514,0,0,0,21.15136,21.15137V53.558Z"/><path class="cls-2" d="M163.54041,140.13446h21.15124V118.98315A21.15128,21.15128,0,0,0,163.54041,140.13446Z"/><path class="cls-2" d="M10.6842,118.983v21.15143H31.83545A21.15132,21.15132,0,0,0,10.6842,118.983Z"/><path class="cls-3" d="M8.68408,51.55811v25.1513h2a23.17764,23.17764,0,0,0,23.15137-23.1513v-2Zm4,21.04785V55.55811H29.73193A19.189,19.189,0,0,1,12.68408,72.606Z"/><path class="cls-3" d="M161.54053,51.55811v2a23.17764,23.17764,0,0,0,23.15136,23.1513h2V51.55811ZM182.69189,72.606A19.18852,19.18852,0,0,1,165.644,55.55811h17.04785Z"/><path class="cls-3" d="M184.69189,116.98291a23.17768,23.17768,0,0,0-23.15136,23.15131v2h25.15136V116.98291Zm-2,21.15131H165.644a19.1884,19.1884,0,0,1,17.04785-17.04779Z"/><path class="cls-3" d="M10.68408,116.98291h-2v25.15131H33.83545v-2A23.17768,23.17768,0,0,0,10.68408,116.98291Zm2,21.15131V121.08643a19.18885,19.18885,0,0,1,17.04785,17.04779Z"/><path class="cls-3" d="M8.68408,51.55811v90.9804H186.645V51.55811ZM182.645,138.53851H12.68408V55.55811H182.645Z"/><circle class="cls-2" cx="97.66443" cy="97.0482" r="25.29136"/><path class="cls-3" d="M97.66455,69.75732a27.291,27.291,0,1,0,27.291,27.291A27.32227,27.32227,0,0,0,97.66455,69.75732Zm0,50.582a23.291,23.291,0,1,1,23.291-23.291A23.31773,23.31773,0,0,1,97.66455,120.33936Z"/><rect class="cls-1" x="28.24561" y="69.01691" width="173.96045" height="86.98035"/><path class="cls-2" d="M28.24561,69.01691v21.1513A21.15138,21.15138,0,0,0,49.397,69.01691Z"/><path class="cls-2" d="M181.10181,69.01691a21.1513,21.1513,0,0,0,21.15136,21.1513V69.01691Z"/><path class="cls-2" d="M181.10181,155.59326l21.15136.00006V134.442A21.1513,21.1513,0,0,0,181.10181,155.59326Z"/><path class="cls-2" d="M28.24561,134.442v21.1513H49.397A21.15138,21.15138,0,0,0,28.24561,134.442Z"/><path class="cls-3" d="M26.24561,67.017V92.16846h2A23.17771,23.17771,0,0,0,51.397,69.017v-2Zm4,21.04791V71.017H47.29346A19.189,19.189,0,0,1,30.24561,88.06494Z"/><path class="cls-3" d="M179.10205,67.017v2a23.17771,23.17771,0,0,0,23.15137,23.15143h2V67.017Zm21.15137,21.04791A19.18852,19.18852,0,0,1,183.20557,71.017h17.04785Z"/><path class="cls-3" d="M202.25342,132.44183a23.17775,23.17775,0,0,0-23.15137,23.15143v2h25.15137V132.44183Zm-2,21.15143H183.20557a19.1884,19.1884,0,0,1,17.04785-17.04785Z"/><path class="cls-3" d="M28.24561,132.44183h-2v25.15143H51.397v-2A23.17775,23.17775,0,0,0,28.24561,132.44183Zm2,21.15143V136.54541a19.18886,19.18886,0,0,1,17.04785,17.04785Z"/><path class="cls-3" d="M26.24561,67.017v90.98053H204.20654V67.017Zm173.96093,86.98053H30.24561V71.017H200.20654Z"/><circle class="cls-2" cx="115.22586" cy="112.50706" r="25.29129" transform="translate(-14.49119 17.06951) rotate(-7.97274)"/><path class="cls-3" d="M115.22607,85.21533a27.29151,27.29151,0,1,0,27.291,27.292A27.32249,27.32249,0,0,0,115.22607,85.21533Zm0,50.583a23.29151,23.29151,0,1,1,23.291-23.291A23.31777,23.31777,0,0,1,115.22607,135.79834Z"/><rect class="cls-1" x="45.80701" y="84.47571" width="173.96057" height="86.98035"/><path class="cls-2" d="M45.807,84.47571v21.15143A21.15131,21.15131,0,0,0,66.95825,84.47571Z"/><path class="cls-2" d="M198.66321,84.47571a21.15142,21.15142,0,0,0,21.15137,21.15143V84.47571Z"/><path class="cls-2" d="M198.66321,171.05212h21.15124v-21.1513A21.15132,21.15132,0,0,0,198.66321,171.05212Z"/><path class="cls-2" d="M45.807,149.90076v21.15136H66.95825A21.15129,21.15129,0,0,0,45.807,149.90076Z"/><path class="cls-3" d="M43.80713,82.476v25.15143h2A23.17775,23.17775,0,0,0,68.9585,84.476v-2Zm4,21.04792V86.476H64.855A19.189,19.189,0,0,1,47.80713,103.52393Z"/><path class="cls-3" d="M196.66357,82.476v2a23.17775,23.17775,0,0,0,23.15137,23.15143h2V82.476Zm21.15137,21.04792A19.18853,19.18853,0,0,1,200.76709,86.476h17.04785Z"/><path class="cls-3" d="M219.81494,147.90082a23.17775,23.17775,0,0,0-23.15137,23.15143v2h25.15137V147.90082Zm-2,21.15143H200.76709a19.18859,19.18859,0,0,1,17.04785-17.04792Z"/><path class="cls-3" d="M45.80713,147.90082h-2v25.15143H68.9585v-2A23.17775,23.17775,0,0,0,45.80713,147.90082Zm2,21.15143V152.00433A19.189,19.189,0,0,1,64.855,169.05225Z"/><path class="cls-3" d="M43.80713,82.476v90.98053h177.96V82.476Zm173.96,86.98053h-169.96V86.476h169.96Z"/><circle class="cls-2" cx="132.78717" cy="127.96593" r="25.2913" transform="translate(-50.62816 108.82105) rotate(-37.98179)"/><path class="cls-3" d="M132.78711,100.67432a27.2915,27.2915,0,1,0,27.2915,27.292A27.32238,27.32238,0,0,0,132.78711,100.67432Zm0,50.583a23.2915,23.2915,0,1,1,23.2915-23.291A23.31735,23.31735,0,0,1,132.78711,151.25732Z"/><circle class="cls-4" cx="212.64874" cy="169.77496" r="32.66682" transform="translate(-48.78318 94.30062) rotate(-22.50003)"/><path class="cls-3" d="M212.64893,135.10791a34.667,34.667,0,1,0,34.667,34.66693A34.70648,34.70648,0,0,0,212.64893,135.10791Zm0,65.33392a30.667,30.667,0,1,1,30.667-30.667A30.70128,30.70128,0,0,1,212.64893,200.44183Z"/><path class="cls-4" d="M129.64661,137.47443a8.21485,8.21485,0,0,0,2.161-7.958,16.0012,16.0012,0,0,0-2.52735-4.501l-.27929-.3916c-.9292-1.30072-1.98243-2.77631-1.83252-4.1084a4.09147,4.09147,0,0,1,1.92871-2.97851,7.91781,7.91781,0,0,1,6.89648-.44922,4.60263,4.60263,0,0,1,2.897,3.25781l.3169,1.46582,2.93262-.63373-.3169-1.46679a7.52959,7.52959,0,0,0-4.67041-5.38971,10.92644,10.92644,0,0,0-9.66052.68072,7.07587,7.07587,0,0,0-3.3053,5.17767c-.2782,2.47565,1.19141,4.53425,2.37219,6.1875l.28211.39454a13.59452,13.59452,0,0,1,2.103,3.65039,5.368,5.368,0,0,1-1.6836,5.22662l-2.47741,2.21869,1.00048,2.61719h17.28846v-3Z"/><rect class="cls-4" x="124.74805" y="127.24695" width="11.87207" height="3"/><path class="cls-2" d="M207.38171,182.53326c2.79065-3.0653,3.82825-6.84655,2.77442-10.21643a20.54549,20.54549,0,0,0-3.24463-5.77838l-.35852-.50274c-1.19287-1.66987-2.54492-3.56427-2.35254-5.2743a5.25168,5.25168,0,0,1,2.47607-3.82379,10.16466,10.16466,0,0,1,8.85352-.57678,5.90885,5.90885,0,0,1,3.71924,4.18237l.40686,1.88184,3.76477-.8136-.40674-1.88312a9.66629,9.66629,0,0,0-5.99585-6.91919,14.02773,14.02773,0,0,0-12.40234.87378,9.08375,9.08375,0,0,0-4.24317,6.64722c-.3573,3.1781,1.52954,5.82092,3.04529,7.94348l.36231.50653a17.447,17.447,0,0,1,2.69982,4.68628c.67078,2.14642-.16918,4.68512-2.16137,6.70978l-3.18067,2.84851,1.28443,3.35992h22.19507v-3.85138Z"/><rect class="cls-2" x="201.09302" y="169.40314" width="15.24146" height="3.85138"/></svg>