<svg id="Layer_1" data-name="Layer 1" xmlns="http://www.w3.org/2000/svg" viewBox="0 0 256 256"><defs><style>.cls-1{fill:#fff;}.cls-2{fill:#616363;}.cls-3{fill:#fcb856;}.cls-4{fill:#84d1da;}.cls-5{fill:#ceecf3;}</style></defs><title>-</title><rect class="cls-1" x="49.85913" y="46.90216" width="126.54865" height="162.1955"/><path class="cls-2" d="M47.85889,44.90186V211.09814H178.40771V44.90186ZM174.40778,207.09814H51.85889V48.90186H174.40778Z"/><path class="cls-3" d="M86.9281,83.58948c-2.38739-.78211-4.1189-1.43842-4.1189-3.22571,0-1.67572,1.39631-2.61115,3.3927-2.61115A8.8802,8.8802,0,0,1,91.01941,79.442l1.43762-1.7732a11.69708,11.69708,0,0,0-4.87292-2.08038V71.846H85.67163v3.61682c-3.49115.16778-5.43182,2.27618-5.43182,5.05469,0,3.40716,2.84839,4.38476,5.97607,5.39,2.63922.82379,4.286,1.50787,4.286,3.56006,0,1.80139-1.56329,2.84882-3.67169,2.84882a8.12358,8.12358,0,0,1-5.51569-2.37378l-1.49383,1.78717a9.96965,9.96965,0,0,0,5.85052,2.80664v3.49109h1.91291v-3.463c3.47662-.279,5.52929-2.3316,5.52929-5.24981v-.00037C93.1134,85.642,90.44647,84.70667,86.9281,83.58948Z"/><path class="cls-2" d="M68.084,63.79736v42.16309l91.8736.05859V63.856Zm87.8736,38.21967-83.8736-.05469V67.79926l83.8736.05468Z"/><path class="cls-4" d="M108.361,159.25824l-3.2301,4.34582s-6.34644,12.96467-4.04968,21.91492c9.23224-.3811,19.817-10.19568,19.817-10.19568l3.23011-4.34582Z"/><rect class="cls-5" x="93.18634" y="109.42664" width="114.30142" height="19.64559" transform="matrix(0.59653, -0.80259, 0.80259, 0.59653, -35.05229, 168.77164)"/><path class="cls-2" d="M176.13379,64.72314l-70.57131,94.94721,18.97811,14.10449,70.57074-94.94629Zm-52.41748,103.456-12.55707-9.333L176.958,70.31885l12.55664,9.33392Z"/><polygon class="cls-2" points="191.216 64.249 188.83 67.46 202.544 77.654 174.197 115.792 177.407 118.179 208.141 76.83 191.216 64.249"/><path class="cls-2" d="M107.94879,156.46045l-4.42291,5.95019-.19141.3144c-.27246.55572-6.64258,13.73632-4.19037,23.291l.40229,1.56836,1.61718-.06738c9.856-.40625,20.64014-10.30567,21.09424-10.72656l4.669-6.22553Zm11.46045,17.51361c-1.11621,1.00195-9.24023,8.09668-16.706,9.36328-.93415-7.501,3.51355-17.33887,4.14984-18.6972l1.91992-2.584,12.55707,9.333Z"/><rect class="cls-2" x="96.48028" y="185.83154" width="5.76363" height="4.00087" transform="translate(-110.66391 155.54027) rotate(-53.38057)"/><rect class="cls-2" x="100.79303" y="82.93695" width="47.22119" height="4"/><rect class="cls-2" x="70.0274" y="123.97406" width="63.43158" height="4"/><rect class="cls-2" x="70.0274" y="145.36377" width="47.17432" height="4"/><rect class="cls-2" x="69.74609" y="166.75433" width="33.29401" height="4"/><rect class="cls-2" x="69.74609" y="188.14496" width="27.61578" height="4"/><rect class="cls-2" x="125.78082" y="166.75433" width="32.17676" height="4"/><rect class="cls-2" x="141.6792" y="145.36377" width="16.27838" height="4"/></svg>