<svg id="Layer_1" data-name="Layer 1" xmlns="http://www.w3.org/2000/svg" viewBox="0 0 256 256"><defs><style>.cls-1{fill:#fcb856;}.cls-2{fill:#84d1da;}.cls-3{fill:#616363;}.cls-4{fill:#fff;}</style></defs><title>-</title><path class="cls-1" d="M86.33179,56.17139H169.668a16.45886,16.45886,0,0,1,16.45886,16.45886V183.36963a16.45874,16.45874,0,0,1-16.45874,16.45874H86.33167A16.45886,16.45886,0,0,1,69.8728,183.36951V72.63037A16.459,16.459,0,0,1,86.33179,56.17139Z"/><path class="cls-2" d="M97.15527,126.14844A9.95569,9.95569,0,1,0,107.111,136.104,9.95558,9.95558,0,0,0,97.15527,126.14844Z"/><path class="cls-2" d="M128.85815,126.14844a9.95569,9.95569,0,1,0,9.95569,9.95556A9.95558,9.95558,0,0,0,128.85815,126.14844Z"/><path class="cls-2" d="M97.15527,159.374a9.95569,9.95569,0,1,0,9.95569,9.95581A9.95564,9.95564,0,0,0,97.15527,159.374Z"/><path class="cls-2" d="M128.85815,159.374a9.95569,9.95569,0,1,0,9.95569,9.95581A9.95564,9.95564,0,0,0,128.85815,159.374Z"/><path class="cls-2" d="M160.561,126.14844a9.95569,9.95569,0,1,0,9.95556,9.95556A9.95561,9.95561,0,0,0,160.561,126.14844Z"/><path class="cls-2" d="M160.561,159.374a9.95569,9.95569,0,1,0,9.95556,9.95581A9.95567,9.95567,0,0,0,160.561,159.374Z"/><path class="cls-3" d="M169.668,54.17163H86.33154a18.47917,18.47917,0,0,0-18.45849,18.4585V183.36938a18.47959,18.47959,0,0,0,18.45849,18.459H169.668a18.4797,18.4797,0,0,0,18.459-18.459V72.63013A18.47928,18.47928,0,0,0,169.668,54.17163Zm14.459,129.19775a14.47543,14.47543,0,0,1-14.459,14.459H86.33154a14.475,14.475,0,0,1-14.45849-14.459V72.63013a14.4746,14.4746,0,0,1,14.45849-14.4585H169.668a14.475,14.475,0,0,1,14.459,14.4585Z"/><path class="cls-3" d="M97.15527,124.14868a11.95557,11.95557,0,1,0,11.95557,11.95557A11.96915,11.96915,0,0,0,97.15527,124.14868Zm0,19.91113a7.95557,7.95557,0,1,1,7.95557-7.95556A7.96456,7.96456,0,0,1,97.15527,144.05981Z"/><path class="cls-3" d="M128.8584,124.14868a11.95557,11.95557,0,1,0,11.95508,11.95557A11.96926,11.96926,0,0,0,128.8584,124.14868Zm0,19.91113a7.95557,7.95557,0,1,1,7.95508-7.95556A7.965,7.965,0,0,1,128.8584,144.05981Z"/><path class="cls-3" d="M97.15527,157.37427a11.95557,11.95557,0,1,0,11.95557,11.95556A11.96915,11.96915,0,0,0,97.15527,157.37427Zm0,19.91113a7.95557,7.95557,0,1,1,7.95557-7.95557A7.96457,7.96457,0,0,1,97.15527,177.2854Z"/><path class="cls-3" d="M128.8584,157.37427a11.95557,11.95557,0,1,0,11.95508,11.95556A11.96926,11.96926,0,0,0,128.8584,157.37427Zm0,19.91113a7.95557,7.95557,0,1,1,7.95508-7.95557A7.965,7.965,0,0,1,128.8584,177.2854Z"/><path class="cls-3" d="M160.56055,124.14868a11.95557,11.95557,0,1,0,11.95605,11.95557A11.969,11.969,0,0,0,160.56055,124.14868Zm0,19.91113a7.95557,7.95557,0,1,1,7.95605-7.95556A7.96415,7.96415,0,0,1,160.56055,144.05981Z"/><path class="cls-3" d="M160.56055,157.37427a11.95557,11.95557,0,1,0,11.95605,11.95556A11.969,11.969,0,0,0,160.56055,157.37427Zm0,19.91113a7.95557,7.95557,0,1,1,7.95605-7.95557A7.96416,7.96416,0,0,1,160.56055,177.2854Z"/><rect class="cls-4" x="87.19971" y="75.33936" width="83.31689" height="28.54785"/><path class="cls-3" d="M85.19971,73.3396V105.887H172.5166V73.3396ZM168.5166,101.887H89.19971V77.3396H168.5166Z"/></svg>