<svg id="Layer_1" data-name="Layer 1" xmlns="http://www.w3.org/2000/svg" viewBox="0 0 256 256"><defs><style>.cls-1{fill:#fcb856;}.cls-2{fill:#616363;}.cls-3{fill:#fff;}.cls-4{fill:#84d1da;}</style></defs><title>-</title><path class="cls-1" d="M86.64026,68.71069H197.449a17.52985,17.52985,0,0,1,17.52985,17.52985v57.95813A17.52985,17.52985,0,0,1,197.449,161.72852H86.64014a17.52991,17.52991,0,0,1-17.52991-17.52991V86.24072A17.53,17.53,0,0,1,86.64026,68.71069Z"/><path class="cls-2" d="M198.59521,66.71094H85.49408A18.40482,18.40482,0,0,0,67.11029,85.09473v9.17675h4V85.09473A14.40024,14.40024,0,0,1,85.49408,70.71094H198.59521A14.40019,14.40019,0,0,1,212.979,85.09473v60.25a14.4002,14.4002,0,0,1-14.38379,14.38379H186.88965v4h11.70556A18.40479,18.40479,0,0,0,216.979,145.34473v-60.25A18.40479,18.40479,0,0,0,198.59521,66.71094Z"/><path class="cls-3" d="M58.55078,94.27148h110.809a17.53,17.53,0,0,1,17.53,17.53v57.95776A17.52979,17.52979,0,0,1,169.36,187.28906H58.551a17.53,17.53,0,0,1-17.53-17.53V111.80127A17.52979,17.52979,0,0,1,58.55078,94.27148Z"/><rect class="cls-2" x="60.23389" y="170.74805" width="10.2041" height="4"/><rect class="cls-2" x="74.72461" y="170.74805" width="10.20459" height="4"/><path class="cls-2" d="M168.71869,153.96729H154.98633a7.26377,7.26377,0,0,0-7.25543,7.25537v6.2705a7.26336,7.26336,0,0,0,7.25543,7.25489h13.73236a7.2634,7.2634,0,0,0,7.25543-7.25489v-6.2705A7.26381,7.26381,0,0,0,168.71869,153.96729Zm3.25543,13.52587a3.25882,3.25882,0,0,1-3.25543,3.25489H154.98633a3.25882,3.25882,0,0,1-3.25543-3.25489v-6.2705a3.25923,3.25923,0,0,1,3.25543-3.25537h13.73236a3.25923,3.25923,0,0,1,3.25543,3.25537Z"/><rect class="cls-4" x="41.021" y="113.50415" width="145.86877" height="20.86328"/><path class="cls-2" d="M169.3598,92.27148H58.55121A19.55226,19.55226,0,0,0,39.021,111.80127v57.958a19.55226,19.55226,0,0,0,19.53021,19.52978H169.3598a19.55218,19.55218,0,0,0,19.52985-19.52978v-57.958A19.55218,19.55218,0,0,0,169.3598,92.27148Zm15.52985,77.4878a15.54763,15.54763,0,0,1-15.52985,15.52978H58.55121A15.54767,15.54767,0,0,1,43.021,169.75928v-57.958A15.54767,15.54767,0,0,1,58.55121,96.27148H169.3598a15.54764,15.54764,0,0,1,15.52985,15.52979Z"/></svg>