<svg id="Layer_1" data-name="Layer 1" xmlns="http://www.w3.org/2000/svg" viewBox="0 0 256 256"><defs><style>.cls-1{fill:#fcb856;}.cls-2{fill:#616363;}.cls-3{fill:#fff;}</style></defs><title>-</title><circle class="cls-1" cx="128" cy="128.02692" r="36.3475"/><path class="cls-2" d="M128,89.6792a38.34766,38.34766,0,1,0,38.34766,38.34766A38.39118,38.39118,0,0,0,128,89.6792Zm0,72.69531a34.34766,34.34766,0,1,1,34.34766-34.34765A34.38644,34.38644,0,0,1,128,162.37451Z"/><path class="cls-3" d="M128.83472,125.58789c-4.32227-1.416-7.457-2.60425-7.457-5.83984,0-3.03394,2.52783-4.7273,6.14221-4.7273a16.07649,16.07649,0,0,1,8.72168,3.05835l2.60266-3.2102a21.17976,21.17976,0,0,0-8.822-3.76636v-6.77515h-3.46241V110.875c-6.32031.304-9.83361,4.12109-9.83361,9.15137,0,6.16845,5.15661,7.938,10.81921,9.75781,4.77808,1.49145,7.75928,2.73,7.75928,6.44531,0,3.26123-2.8302,5.15747-6.64722,5.15747a14.70483,14.70483,0,0,1-9.98559-4.2976l-2.70447,3.23584a18.0512,18.0512,0,0,0,10.59167,5.08105v6.32031h3.46314V145.457c6.29419-.50488,10.01037-4.22119,10.01037-9.50439v-.00049C140.03259,129.304,135.20435,127.61035,128.83472,125.58789Z"/><path class="cls-2" d="M127.30762,68.5498a59.54465,59.54465,0,0,0-59.47754,59.47706h4A55.469,55.469,0,1,1,83.04785,161.481L79.8584,163.895A59.47841,59.47841,0,1,0,127.30762,68.5498Z"/><polygon class="cls-2" points="77.92 117.213 69.934 125.198 61.741 117.001 58.912 119.829 69.933 130.855 80.748 120.041 77.92 117.213"/><path class="cls-2" d="M183.544,72.48291l-2.82813,2.82837a74.541,74.541,0,1,1-42.44824-21.1294l.54687-3.96215A78.55607,78.55607,0,1,0,183.544,72.48291Z"/><polygon class="cls-2" points="180.032 71.994 180.032 91.7 184.032 91.7 184.032 75.995 200.132 75.999 200.132 71.999 180.032 71.994"/></svg>