<svg id="Layer_1" data-name="Layer 1" xmlns="http://www.w3.org/2000/svg" viewBox="0 0 256 256"><defs><style>.cls-1{fill:#84d1da;}.cls-2{fill:#fffcfd;}.cls-3{fill:#616363;}.cls-4{fill:#ceecf3;}.cls-5{fill:#fcb856;}</style></defs><title>-</title><path class="cls-1" d="M205.27991,178.26318V184.031s2.8125,15.11645,10.46325,21.30883c7.65076-6.19238,10.46326-21.30883,10.46326-21.30883v-5.76783Z"/><rect class="cls-2" x="19.92407" y="64.34863" width="192.96558" height="113.91455"/><rect class="cls-1" x="38.74902" y="82.21143" width="150.56299" height="18.1167"/><polygon class="cls-3" points="205.28 66.348 205.28 62.348 17.924 62.348 17.924 180.263 205.28 180.263 205.28 176.263 21.924 176.263 21.924 66.348 205.28 66.348"/><rect class="cls-4" x="205.27991" y="56.50928" width="20.92651" height="121.75391"/><path class="cls-3" d="M203.27979,54.50928v125.7539h24.92675V54.50928Zm20.92675,121.7539H207.27979V58.50928h16.92675Z"/><path class="cls-3" d="M36.74951,80.21143v22.11621H191.312V80.21143ZM187.312,98.32764H40.74951V84.21143H187.312Z"/><rect class="cls-3" x="127.22412" y="132.05518" width="62.08789" height="4"/><rect class="cls-3" x="127.22412" y="153.80811" width="62.08789" height="4"/><polygon class="cls-3" points="215.744 44.521 215.744 48.521 234.076 48.521 234.076 99.27 238.076 99.27 238.076 44.521 215.744 44.521"/><path class="cls-3" d="M203.27979,176.26318v7.76758l.03417.36621c.12012.64649,3.04,15.917,11.17188,22.498l1.25781,1.01855,1.25781-1.01855c8.13086-6.58106,11.05079-21.85156,11.1709-22.498l.03418-8.13379Zm20.92675,7.57227c-.3125,1.53516-2.792,12.96094-8.46289,18.7959-5.67187-5.835-8.15136-17.26074-8.46386-18.7959v-3.57227h16.92675Z"/><rect class="cls-3" x="213.74365" y="205.34033" width="4" height="6.13867"/><path class="cls-5" d="M55.40759,141.17529c-3.40954-1.11694-5.88244-2.0542-5.88244-4.60693,0-2.39307,1.99414-3.72876,4.84521-3.72876a12.6829,12.6829,0,0,1,6.88013,2.41235l2.053-2.53222a16.708,16.708,0,0,0-6.959-2.97119v-5.34449H53.613v5.16529c-4.98572.2395-7.75733,3.25073-7.75733,7.21875,0,4.866,4.06787,6.262,8.53479,7.69751,3.76917,1.17651,6.121,2.15356,6.121,5.08447,0,2.57251-2.23266,4.06836-5.24377,4.06836a11.60081,11.60081,0,0,1-7.87708-3.39014l-2.13342,2.55249a14.23789,14.23789,0,0,0,8.35535,4.0083v4.9856h2.73193v-4.94556c4.96509-.39844,7.89649-3.33008,7.89649-7.49756v-.00049C64.241,144.10693,60.43237,142.771,55.40759,141.17529Z"/></svg>