<svg id="Layer_1" data-name="Layer 1" xmlns="http://www.w3.org/2000/svg" viewBox="0 0 256 256"><defs><style>.cls-1{fill:#ceecf3;}.cls-2{fill:#fcb856;}.cls-3{fill:#616363;}.cls-4{fill:#fff;}</style></defs><title>-</title><rect class="cls-1" x="10.68457" y="53.55804" width="173.96045" height="86.98029"/><path class="cls-2" d="M10.68457,53.558V74.70941A21.15134,21.15134,0,0,0,31.83582,53.558Z"/><path class="cls-2" d="M163.54083,53.558a21.15132,21.15132,0,0,0,21.15131,21.15137V53.558Z"/><path class="cls-2" d="M163.54071,140.13446H184.692V118.98315A21.1513,21.1513,0,0,0,163.54071,140.13446Z"/><path class="cls-2" d="M10.68457,118.983v21.15143H31.83582A21.15136,21.15136,0,0,0,10.68457,118.983Z"/><path class="cls-3" d="M8.68439,51.55811v25.1513h2a23.17757,23.17757,0,0,0,23.15124-23.1513v-2Zm4,21.04785V55.55811H29.73212A19.18885,19.18885,0,0,1,12.68439,72.606Z"/><path class="cls-3" d="M161.54071,51.55811v2a23.17765,23.17765,0,0,0,23.15143,23.1513h2V51.55811ZM182.69214,72.606a19.18914,19.18914,0,0,1-17.04791-17.04785h17.04791Z"/><path class="cls-3" d="M184.69214,116.98291a23.17769,23.17769,0,0,0-23.15143,23.15131v2h25.15143V116.98291Zm-2,21.15131H165.64423a19.189,19.189,0,0,1,17.04791-17.04779Z"/><path class="cls-3" d="M10.68439,116.98291h-2v25.15131H33.83563v-2A23.17761,23.17761,0,0,0,10.68439,116.98291Zm2,21.15131V121.08643a19.18874,19.18874,0,0,1,17.04773,17.04779Z"/><path class="cls-3" d="M8.68439,51.55811v90.9804H186.64526V51.55811Zm173.96087,86.9804H12.68439V55.55811H182.64526Z"/><circle class="cls-2" cx="97.66481" cy="97.0482" r="25.2914" transform="translate(-25.6775 35.86452) rotate(-18.43495)"/><path class="cls-3" d="M97.66473,69.75732a27.291,27.291,0,1,0,27.29151,27.291A27.32232,27.32232,0,0,0,97.66473,69.75732Zm0,50.582a23.291,23.291,0,1,1,23.29151-23.291A23.31777,23.31777,0,0,1,97.66473,120.33936Z"/><rect class="cls-1" x="28.24597" y="69.01691" width="173.96057" height="86.98035"/><path class="cls-2" d="M28.246,69.01691v21.1513a21.15132,21.15132,0,0,0,21.15125-21.1513Z"/><path class="cls-2" d="M181.10229,69.01691a21.15128,21.15128,0,0,0,21.15125,21.1513V69.01691Z"/><path class="cls-2" d="M181.10205,155.59326l21.15137.00006V134.442A21.15146,21.15146,0,0,0,181.10205,155.59326Z"/><path class="cls-2" d="M28.246,134.442v21.1513H49.39722A21.15132,21.15132,0,0,0,28.246,134.442Z"/><path class="cls-3" d="M26.24585,67.017V92.16846h2A23.17776,23.17776,0,0,0,51.39722,69.017v-2Zm4,21.04791V71.017H47.29364A19.18886,19.18886,0,0,1,30.24585,88.06494Z"/><path class="cls-3" d="M179.10229,67.017v2a23.17772,23.17772,0,0,0,23.15137,23.15143h2V67.017Zm21.15137,21.04791A19.189,19.189,0,0,1,183.20581,71.017h17.04785Z"/><path class="cls-3" d="M202.25366,132.44183a23.17776,23.17776,0,0,0-23.15137,23.15143v2h25.15137V132.44183Zm-2,21.15143H183.20581a19.18886,19.18886,0,0,1,17.04785-17.04785Z"/><path class="cls-3" d="M28.24585,132.44183h-2v25.15143H51.39722v-2A23.17779,23.17779,0,0,0,28.24585,132.44183Zm2,21.15143V136.54541a19.18874,19.18874,0,0,1,17.04779,17.04785Z"/><path class="cls-3" d="M26.24585,67.017v90.98053H204.2063V67.017ZM200.2063,153.99756H30.24585V71.017H200.2063Z"/><circle class="cls-2" cx="115.22621" cy="112.50706" r="25.29142" transform="translate(-45.80553 114.42979) rotate(-45)"/><path class="cls-3" d="M115.22638,85.21533a27.29151,27.29151,0,1,0,27.29144,27.292A27.32251,27.32251,0,0,0,115.22638,85.21533Zm0,50.583a23.29151,23.29151,0,1,1,23.29144-23.291A23.31783,23.31783,0,0,1,115.22638,135.79834Z"/><rect class="cls-1" x="45.80737" y="84.47571" width="173.96057" height="86.98035"/><path class="cls-2" d="M45.80737,84.47571v21.15143A21.15136,21.15136,0,0,0,66.95862,84.47571Z"/><path class="cls-2" d="M198.66357,84.47571a21.15134,21.15134,0,0,0,21.15137,21.15143V84.47571Z"/><path class="cls-2" d="M198.66357,171.05212h21.15125v-21.1513A21.15125,21.15125,0,0,0,198.66357,171.05212Z"/><path class="cls-2" d="M45.80737,149.90076v21.15136H66.95862A21.15133,21.15133,0,0,0,45.80737,149.90076Z"/><path class="cls-3" d="M43.80737,82.476v25.15143h2A23.17778,23.17778,0,0,0,68.95874,84.476v-2Zm4,21.04792V86.476H64.85522A19.189,19.189,0,0,1,47.80737,103.52393Z"/><path class="cls-3" d="M196.66382,82.476v2a23.17774,23.17774,0,0,0,23.15137,23.15143h2V82.476Zm21.15137,21.04792A19.189,19.189,0,0,1,200.76733,86.476h17.04786Z"/><path class="cls-3" d="M219.8147,147.90082a23.17732,23.17732,0,0,0-23.15088,23.15143v2H221.8147V147.90082Zm-2,21.15143H200.76733a19.18856,19.18856,0,0,1,17.04737-17.04792Z"/><path class="cls-3" d="M45.80737,147.90082h-2v25.15143H68.95874v-2A23.17778,23.17778,0,0,0,45.80737,147.90082Zm2,21.15143V152.00433a19.18909,19.18909,0,0,1,17.04785,17.04792Z"/><path class="cls-3" d="M43.80737,82.476v90.98053H221.76782V82.476Zm173.96045,86.98053H47.80737V86.476H217.76782Z"/><circle class="cls-2" cx="132.78761" cy="127.96593" r="25.2914" transform="translate(-33.65216 48.55792) rotate(-18.43495)"/><path class="cls-3" d="M132.78784,100.67432a27.2915,27.2915,0,1,0,27.291,27.292A27.32244,27.32244,0,0,0,132.78784,100.67432Zm0,50.583a23.2915,23.2915,0,1,1,23.291-23.291A23.31776,23.31776,0,0,1,132.78784,151.25732Z"/><circle class="cls-4" cx="212.64917" cy="169.77496" r="32.66675"/><path class="cls-3" d="M212.64917,135.10791a34.667,34.667,0,1,0,34.6665,34.66693A34.70653,34.70653,0,0,0,212.64917,135.10791Zm0,65.33392a30.667,30.667,0,1,1,30.6665-30.667A30.70158,30.70158,0,0,1,212.64917,200.44183Z"/><polygon class="cls-2" points="199.379 153.193 196.633 156.102 211.218 169.869 211.218 188.286 215.218 188.286 215.218 168.144 199.379 153.193"/><polygon class="cls-2" points="227.057 153.193 211.218 168.144 211.218 188.286 215.218 188.286 215.218 169.869 229.803 156.102 227.057 153.193"/><rect class="cls-2" x="198.82263" y="166.67572" width="29.64648" height="4"/><polygon class="cls-4" points="122.499 116.335 120.43 118.527 131.422 128.903 131.422 142.782 134.436 142.782 134.436 127.603 122.499 116.335"/><polygon class="cls-4" points="143.358 116.335 131.422 127.603 131.422 142.782 134.436 142.782 134.436 128.903 145.428 118.527 143.358 116.335"/><rect class="cls-4" x="121.34076" y="126.49591" width="23.82098" height="3.01465"/></svg>