<svg id="Layer_1" data-name="Layer 1" xmlns="http://www.w3.org/2000/svg" viewBox="0 0 256 256"><defs><style>.cls-1{fill:#84d1da;}.cls-2{fill:#616363;}.cls-3{fill:#fcb856;}.cls-4{fill:#fff;}</style></defs><title>-</title><circle class="cls-1" cx="122.08548" cy="134.19565" r="50.51015" transform="translate(-59.13264 125.63247) rotate(-45)"/><path class="cls-2" d="M122.08594,81.68555a52.51025,52.51025,0,1,0,52.50976,52.5097A52.56986,52.56986,0,0,0,122.08594,81.68555Zm0,101.0205a48.51025,48.51025,0,1,1,48.50976-48.5108A48.56554,48.56554,0,0,1,122.08594,182.70605Z"/><path class="cls-3" d="M210.05652,91.577a10.78885,10.78885,0,1,0,10.78869,10.78881A10.78884,10.78884,0,0,0,210.05652,91.577Z"/><path class="cls-2" d="M210.05664,89.57715a12.789,12.789,0,1,0,12.78906,12.789A12.80373,12.80373,0,0,0,210.05664,89.57715Zm0,21.57806a8.789,8.789,0,1,1,8.78906-8.78906A8.79853,8.79853,0,0,1,210.05664,111.15521Z"/><path class="cls-3" d="M172.5957,47.45642a17.20105,17.20105,0,1,0,17.20093,17.201A17.2011,17.2011,0,0,0,172.5957,47.45642Z"/><path class="cls-2" d="M172.5957,45.45605a19.20115,19.20115,0,1,0,19.20118,19.20118A19.2225,19.2225,0,0,0,172.5957,45.45605Zm0,34.40229a15.20115,15.20115,0,1,1,15.20118-15.20111A15.21849,15.21849,0,0,1,172.5957,79.85834Z"/><circle class="cls-3" cx="46.54749" cy="95.89604" r="11.26182"/><path class="cls-2" d="M46.54785,82.63373A13.26221,13.26221,0,1,0,59.80957,95.89642,13.277,13.277,0,0,0,46.54785,82.63373Zm0,22.52441a9.26221,9.26221,0,1,1,9.26172-9.26172A9.27279,9.27279,0,0,1,46.54785,105.15814Z"/><path class="cls-4" d="M123.171,129.34314c-5.62085-1.84119-9.69714-3.38647-9.69714-7.5943,0-3.94513,3.28711-6.14728,7.9873-6.14728a20.905,20.905,0,0,1,11.3418,3.97718l3.38464-4.17469a27.53964,27.53964,0,0,0-11.47229-4.89782v-8.81067h-4.50268v8.51489c-8.219.39508-12.78785,5.359-12.78785,11.90039,0,8.02148,6.70582,10.32288,14.06958,12.68958,6.21338,1.93939,10.09034,3.55,10.09034,8.38159,0,4.24084-3.68042,6.70684-8.64429,6.70684a19.12443,19.12443,0,0,1-12.9856-5.58874l-3.51684,4.20782a23.47152,23.47152,0,0,0,13.77368,6.60749v8.21911h4.50366v-8.15289c8.18506-.65692,13.01758-5.48938,13.01758-12.35968v-.001C137.73291,134.17566,131.45435,131.97345,123.171,129.34314Z"/><rect class="cls-2" x="63.1607" y="171.95171" width="23.06434" height="3.99984" transform="matrix(0.76133, -0.64836, 0.64836, 0.76133, -94.95714, 89.94527)"/><rect class="cls-2" x="167.92357" y="107.91377" width="31.98293" height="3.99955" transform="translate(-23.41035 55.85882) rotate(-16.25083)"/><rect class="cls-2" x="148.16563" y="84.06957" width="18.24882" height="3.9995" transform="translate(-2.22407 167.94321) rotate(-55.85763)"/><rect class="cls-2" x="63.01594" y="95.91933" width="4.00035" height="24.54407" transform="translate(-61.19881 109.69447) rotate(-59.67913)"/><rect class="cls-2" x="164.42105" y="166.42477" width="4.00068" height="24.95313" transform="translate(-77.91802 178.76181) rotate(-47.03705)"/><circle class="cls-3" cx="179.3512" cy="192.21718" r="10.7889"/><path class="cls-2" d="M179.35156,179.42865a12.78861,12.78861,0,1,0,12.78809,12.78809A12.80295,12.80295,0,0,0,179.35156,179.42865Zm0,21.57721a8.78861,8.78861,0,1,1,8.78809-8.78912A8.79858,8.79858,0,0,1,179.35156,201.00586Z"/><circle class="cls-3" cx="54.27759" cy="189.42096" r="19.1228"/><path class="cls-2" d="M54.27734,168.29785a21.12305,21.12305,0,1,0,21.12305,21.123A21.14673,21.14673,0,0,0,54.27734,168.29785Zm0,38.2461a17.123,17.123,0,1,1,17.12305-17.12311A17.14285,17.14285,0,0,1,54.27734,206.544Z"/></svg>