<svg id="Layer_1" data-name="Layer 1" xmlns="http://www.w3.org/2000/svg" viewBox="0 0 256 256"><defs><style>.cls-1{fill:#fcb856;}.cls-2{fill:#616363;}.cls-3{fill:#fff;}</style></defs><title>-</title><circle class="cls-1" cx="128.00021" cy="127.99976" r="72.25229" transform="translate(-18.85047 22.15615) rotate(-9.21747)"/><path class="cls-2" d="M128.00024,53.74756a74.25244,74.25244,0,1,0,74.252,74.25195A74.33651,74.33651,0,0,0,128.00024,53.74756Zm0,144.50488a70.25244,70.25244,0,1,1,70.252-70.25293A70.33245,70.33245,0,0,1,128.00024,198.25244Z"/><path class="cls-3" d="M154.58765,121.17407a15.27913,15.27913,0,0,0,4.26526-10.58838v-1.11743a15.3629,15.3629,0,0,0-15.34571-15.3457v.94922l-.00049-.00074v-.94555H138.298c-.0177-.00073-.03479-.00293-.05249-.00293v.00293h-.80993V82.02612l-8.01868.00074V94.12549h-6.2981V82.02612L115.1,82.02686V94.12549H92.47827v5.782a9.479,9.479,0,0,1,9.479,9.479v34.196a9.479,9.479,0,0,1-9.479,9.479v5.78223H115.1v12.09912l8.01879-.00049V158.84375h6.2981v12.09912l8.01868-.00049V158.84375h.27392v.00293h10.81812a18.64523,18.64523,0,0,0,18.645-18.64526v-1.41333A18.663,18.663,0,0,0,154.58765,121.17407Zm-40.15393-21.2666h23.81176v.00342a9.56814,9.56814,0,0,1,9.5575,9.55737v1.11743a9.5684,9.5684,0,0,1-9.5575,9.55786h-8.64172v.00293h-15.17Zm42.01135,40.2937a12.87148,12.87148,0,0,1-12.85694,12.85694h-5.87866v.00341H114.43372v-27.1333h15.17v.00293h13.98437a12.87148,12.87148,0,0,1,12.85694,12.85694Z"/><path class="cls-2" d="M157.81274,120.36963a17.20632,17.20632,0,0,0,3.04-9.78418v-1.11719a17.37136,17.37136,0,0,0-15.3457-17.23144v-.11133h-1.67871c-.10645-.00195-.21387-.00293-.32129-.00293l-4.07129.00293V80.02588l-12.01855.001V92.12549H125.1189V80.02588l-12.019.001V92.12549H90.47827v9.78222h2a7.487,7.487,0,0,1,7.479,7.47852v34.19629a7.48779,7.48779,0,0,1-7.479,7.47949h-2v9.78125h22.62158v12.09961l12.019-.001V160.84326h2.29834v12.09961l12.01855-.001v-12.0957h9.0918a20.66829,20.66829,0,0,0,20.64551-20.64453v-1.41309A20.65058,20.65058,0,0,0,157.81274,120.36963Zm7.36036,19.832a16.66371,16.66371,0,0,1-16.64551,16.64453l-13.0918-.00293v12.09863l-4.01855.001V156.84326H121.1189v12.09863l-4.019.001V156.84326H94.47827v-1.956a11.4971,11.4971,0,0,0,9.479-11.30469V109.38623a11.49605,11.49605,0,0,0-9.479-11.30371v-1.957h22.62158V84.02686l4.019-.001V96.12549h10.29834V84.02686l4.01855-.001V96.12549h8.07129v-.00293a13.36139,13.36139,0,0,1,13.3457,13.3457v1.11719a13.27438,13.27438,0,0,1-3.71093,9.207l-2.1543,2.25488,2.94824,1.01758a16.65617,16.65617,0,0,1,11.23731,15.72363Zm-21.585-16.27051-31.15429-.00293V155.062h25.27539l5.8789-.0039a14.87387,14.87387,0,0,0,14.85645-14.85645v-1.41309A14.87408,14.87408,0,0,0,143.58813,123.93115Zm10.85645,16.27051a10.86866,10.86866,0,0,1-10.85645,10.85645l-27.15429.0039V127.92822l27.15429.00293a10.8695,10.8695,0,0,1,10.85645,10.85742Zm-16.19922-18.05859A11.57051,11.57051,0,0,0,149.803,110.58545v-1.11719a11.57707,11.57707,0,0,0-9.55762-11.38476v-.17579H112.43384V122.146h17.16992Zm-21.81152-20.23536,21.81152.00293a7.56656,7.56656,0,0,1,7.55762,7.55762v1.11719a7.56656,7.56656,0,0,1-7.55762,7.55762l-21.81152.00293Z"/></svg>