<svg id="Layer_1" data-name="Layer 1" xmlns="http://www.w3.org/2000/svg" viewBox="0 0 256 256"><defs><style>.cls-1{fill:#84d1da;}.cls-2{fill:#616363;}.cls-3{fill:#ceecf3;}.cls-4{fill:#fcb856;}</style></defs><title>-</title><path class="cls-1" d="M34.34186,90.727H153.715a17.52991,17.52991,0,0,1,17.52991,17.52991V171.676A17.52991,17.52991,0,0,1,153.715,189.20587H34.34192a17.53,17.53,0,0,1-17.53-17.53V108.257A17.53,17.53,0,0,1,34.34186,90.727Z"/><path class="cls-2" d="M153.7146,88.727H34.342a19.55273,19.55273,0,0,0-19.53027,19.53027v63.419A19.5519,19.5519,0,0,0,34.342,191.20557H153.7146a19.55221,19.55221,0,0,0,19.53027-19.5293v-63.419A19.553,19.553,0,0,0,153.7146,88.727Zm15.53027,82.94928a15.54758,15.54758,0,0,1-15.53027,15.5293H34.342a15.54758,15.54758,0,0,1-15.53027-15.5293v-63.419A15.54779,15.54779,0,0,1,34.342,92.727H153.7146a15.54779,15.54779,0,0,1,15.53027,15.53027Z"/><path class="cls-3" d="M61.739,66.79431h119.373a17.52991,17.52991,0,0,1,17.52991,17.52991v63.41907a17.53,17.53,0,0,1-17.53,17.53H61.739a17.53,17.53,0,0,1-17.53-17.53V84.32428A17.53,17.53,0,0,1,61.739,66.79431Z"/><rect class="cls-4" x="42.79089" y="84.99768" width="155.85095" height="19.75391"/><rect class="cls-2" x="57.60229" y="120.70459" width="31.66455" height="4"/><rect class="cls-2" x="101.11548" y="120.70459" width="33.97314" height="4"/><circle class="cls-4" cx="67.23862" cy="145.67952" r="9.63628" transform="translate(-88.52769 184.15566) rotate(-79.09924)"/><circle class="cls-4" cx="79.63062" cy="145.67952" r="9.63625"/><path class="cls-2" d="M181.11206,64.79437H61.739A19.5527,19.5527,0,0,0,42.20874,84.32471v63.41888A19.55181,19.55181,0,0,0,61.739,167.27289H181.11206a19.55129,19.55129,0,0,0,19.5293-19.5293V84.32471A19.55218,19.55218,0,0,0,181.11206,64.79437Zm15.5293,82.94922a15.54738,15.54738,0,0,1-15.5293,15.5293H61.739a15.54759,15.54759,0,0,1-15.53027-15.5293V84.32471A15.54781,15.54781,0,0,1,61.739,68.79437H181.11206a15.5476,15.5476,0,0,1,15.5293,15.53034Z"/><path class="cls-1" d="M197.92261,103.63647a31.3269,31.3269,0,1,0,0,44.30311A31.327,31.327,0,0,0,197.92261,103.63647Z"/><circle class="cls-3" cx="175.77103" cy="125.78795" r="23.01939" transform="translate(44.00771 297.1253) rotate(-88.02753)"/><path class="cls-2" d="M199.33667,102.22217a33.32661,33.32661,0,1,0,0,47.13183A33.10777,33.10777,0,0,0,199.33667,102.22217Zm-2.82813,44.30371a29.32673,29.32673,0,1,1,0-41.47559A29.1338,29.1338,0,0,1,196.50854,146.52588Z"/><path class="cls-4" d="M234.89172,168.64618,202.349,142.36188a31.08444,31.08444,0,0,1-10.00159,10.00171l26.2843,32.54278a11.56284,11.56284,0,1,0,16.26-16.26019Z"/><path class="cls-2" d="M236.14819,167.09027,201.8396,139.37939l-1.19238,1.93262a29.098,29.098,0,0,1-9.34961,9.34955L189.364,151.853,217.075,186.1626a13.56249,13.56249,0,1,0,19.07324-19.07233Zm-1.75781,17.31543a9.56468,9.56468,0,0,1-14.20312-.7558L195.27905,152.81a33.3652,33.3652,0,0,0,7.5166-7.5166l30.83789,24.90728a9.56962,9.56962,0,0,1,.75684,14.205Z"/><polygon class="cls-2" points="164.016 125.169 168.559 118.961 166.112 118.961 162.805 123.554 162.742 123.554 159.473 118.961 157.013 118.961 161.581 125.183 157.013 131.542 159.373 131.542 162.78 126.975 162.831 126.975 166.225 131.542 168.61 131.542 164.016 125.169"/><polygon class="cls-2" points="177.197 125.169 181.74 118.961 179.293 118.961 175.986 123.554 175.923 123.554 172.655 118.961 170.194 118.961 174.761 125.183 170.194 131.542 172.553 131.542 175.961 126.975 176.011 126.975 179.406 131.542 181.791 131.542 177.197 125.169"/><polygon class="cls-2" points="190.378 125.169 194.921 118.961 192.473 118.961 189.167 123.554 189.103 123.554 185.835 118.961 183.375 118.961 187.942 125.183 183.375 131.542 185.734 131.542 189.141 126.975 189.192 126.975 192.587 131.542 194.971 131.542 190.378 125.169"/></svg>