<svg id="Layer_1" data-name="Layer 1" xmlns="http://www.w3.org/2000/svg" viewBox="0 0 256 256"><defs><style>.cls-1{fill:#fff;}.cls-2{fill:#ceecf3;}.cls-3{fill:#84d1da;}.cls-4{fill:#616363;}.cls-5{fill:none;}.cls-6{fill:#fcb856;}</style></defs><title>-</title><path class="cls-1" d="M123.66211,58.21558v.00073l-.00037-.00049S74.642,56.096,39.45935,102.116c35.1825,46.02026,84.20239,43.90039,84.20239,43.90039l.00037-.001v.001s49.01977,2.11963,84.20276-43.90015C172.68188,56.096,123.66211,58.21558,123.66211,58.21558Z"/><circle class="cls-1" cx="122.311" cy="102.03857" r="43.92758" transform="translate(-14.76541 20.90961) rotate(-9.21747)"/><circle class="cls-2" cx="122.311" cy="102.03857" r="43.92758" transform="translate(-14.76541 20.90961) rotate(-9.21747)"/><circle class="cls-3" cx="122.311" cy="102.03857" r="13.60987" transform="translate(-18.7667 175.99082) rotate(-67.50003)"/><rect class="cls-3" x="148.07813" y="160.83496" width="85.02856" height="37.05957"/><path class="cls-4" d="M146.07861,158.835v41.05957h89.02832V158.835Zm85.02832,37.05957H150.07861V162.835h81.02832Z"/><path class="cls-2" d="M116.53125,58.50171c2.37012-.21069,4.22729-.27954,5.44946-.29614v-.08594A44.12338,44.12338,0,0,0,116.53125,58.50171Z"/><path class="cls-4" d="M121.96631,56.11963a46.32914,46.32914,0,0,0-5.69727.39941l.43848,3.9751c2.37695-.21143,4.19434-.27393,5.30078-.28857l1.97266-.1128v-3.9873Z"/><path class="cls-2" d="M116.53125,58.50171l-.01563.00171c2.37769-.21143,4.24-.28028,5.46509-.29737v-.00048C120.75854,58.22217,118.90137,58.291,116.53125,58.50171Z"/><path class="cls-4" d="M121.95361,56.20557c-1.1748.01611-3.10058.082-5.62207.30615l-.01562.002.37695,3.98194c2.04688-.18213,3.69043-.2544,4.82031-.28077.17774-.0039.34278-.00683.49414-.00879v-.00048h.002Z"/><polygon class="cls-5" points="123.662 146.016 123.662 146.016 123.662 146.015 123.662 146.016"/><path class="cls-2" d="M125.01733,58.20215a43.92357,43.92357,0,0,1-2.70629,87.76391c-.11084,0-.21973-.00781-.33033-.0083v.06861c1.093.01562,1.68116-.00977,1.68116-.00977l.00024-.00122v.00122s49.01977,2.11939,84.20276-43.90063C176.12427,60.59839,133.12817,58.26221,125.01733,58.20215Z"/><path class="cls-2" d="M122.311,58.11108c-.11084,0-.21973.00733-.33033.00855v.08594c1.093-.01514,1.68116.01,1.68116.01l.00024.001v-.001s.47546-.02,1.35522-.01343C124.12134,58.148,123.22046,58.11108,122.311,58.11108Z"/><path class="cls-4" d="M122.311,56.11133l-2.33008.1206V60.2334l2.60156-.03223.03809.05811,1.125-.0459c.02343-.00049.33886-.0127.9121-.0127l.34375.00147.13672-3.99658C124.07275,56.14111,123.17432,56.11133,122.311,56.11133Z"/><path class="cls-2" d="M123.66187,58.21558s-.58814-.02515-1.68116-.01v.00048c1.09326-.01513,1.6814.0105,1.6814.0105Z"/><path class="cls-4" d="M123.74658,56.21875v-.00146s-.60254-.02979-1.7334-.01172h-.05566v.00048l-.00781.00049.05859,3.98584v.01367l.63574-.00488c.58692,0,.90821.0127.93262.01367l.17383-3.99609Z"/><path class="cls-6" d="M125.01733,58.20215c-.87976-.00659-1.35522.01343-1.35522.01343v.001s-.58814-.02563-1.6814-.0105v30.239c.111-.0022.21875-.0166.33033-.0166a13.60974,13.60974,0,0,1,0,27.21948c-.11158,0-.21937-.01367-.33033-.0166v30.32641c.1106.00049.21949.0083.33033.0083a43.92357,43.92357,0,0,0,2.70629-87.76391Z"/><path class="cls-6" d="M122.311,88.42847c-.11158,0-.21937.0144-.33033.0166v27.18628c.111.00293.21875.0166.33033.0166a13.60974,13.60974,0,0,0,0-27.21948Z"/><path class="cls-4" d="M209.45361,100.90137c-32.52636-42.5459-76.331-44.70117-84.78222-44.70117-.26563,0-.58887,0-.92285.03222v-.01416s-.37891-.01709-1.09473-.01709c-8.45117,0-52.25684,2.15528-84.7832,44.69971l-.92872,1.21484.92872,1.21485c32.52636,42.54589,76.33105,44.70117,84.78222,44.70117.51856,0,.85938-.00879,1.00879-.01367.14942.00488.49121.01367,1.00781.01367,8.45118,0,52.25782-2.15528,84.78418-44.70069l.92871-1.21484Zm-84.78418,43.13037c-.58105,0-.89941-.01221-.92285-.01319l-.08691-.00341-.083.00341c-.02441.001-.3418.01319-.92383.01319-8.04,0-49.38574-2.0376-80.66406-41.916,31.27832-39.87744,72.625-41.91455,80.665-41.91455.50683,0,.81836.00928.91406.01221l.87988.02685.041-.03955c.05762-.00048.11816-.00048.18262-.00048,8.04,0,49.38574,2.0371,80.66406,41.916C174.05713,141.99463,132.71045,144.03174,124.66943,144.03174Z"/><path class="cls-4" d="M122.311,56.11133a45.92725,45.92725,0,1,0,45.92773,45.92724A45.97988,45.97988,0,0,0,122.311,56.11133Zm0,87.85449a41.92725,41.92725,0,1,1,41.92773-41.92725A41.975,41.975,0,0,1,122.311,143.96582Z"/><polygon class="cls-4" points="124.65 58.132 120.994 59.754 164.955 158.835 146.079 158.835 146.079 173.498 123.894 144.744 120.727 147.188 150.079 185.231 150.079 162.835 171.105 162.835 124.65 58.132"/><path class="cls-4" d="M122.311,86.42871a15.60987,15.60987,0,1,0,15.60937,15.60986A15.627,15.627,0,0,0,122.311,86.42871Zm0,27.21973a11.60987,11.60987,0,1,1,11.60937-11.60987A11.62271,11.62271,0,0,1,122.311,113.64844Z"/><circle class="cls-1" cx="52.24933" cy="168.53815" r="29.35626" transform="translate(-37.32454 16.51308) rotate(-13.28257)"/><path class="cls-4" d="M52.24951,137.18213a31.3562,31.3562,0,1,0,31.35645,31.356A31.39181,31.39181,0,0,0,52.24951,137.18213Zm0,58.7124A27.3562,27.3562,0,1,1,79.606,168.53809,27.38764,27.38764,0,0,1,52.24951,195.89453Z"/><rect class="cls-2" x="41.10498" y="162.57813" width="22.2887" height="19.30786"/><rect class="cls-6" x="41.10498" y="162.57813" width="22.2887" height="19.30786"/><path class="cls-4" d="M39.105,160.57812v23.30762H65.394V160.57812ZM61.394,179.88574H43.105V164.57812H61.394Z"/><path class="cls-4" d="M52.54736,148.09717a9.42344,9.42344,0,0,0-9.18554,7.21972,9.53574,9.53574,0,0,0-.26563,2.23145h4a5.51686,5.51686,0,0,1,.15332-1.29053,5.4521,5.4521,0,0,1,10.749,1.29053v4.84277h4v-4.84277A9.46215,9.46215,0,0,0,52.54736,148.09717Z"/><rect class="cls-4" x="148.49756" y="170.23193" width="84.60938" height="4"/></svg>