<svg id="Layer_1" data-name="Layer 1" xmlns="http://www.w3.org/2000/svg" viewBox="0 0 256 256"><defs><style>.cls-1{fill:#fff;}.cls-2{fill:#616363;}.cls-3{fill:#fcb856;}.cls-4{fill:#ceecf3;}.cls-5{fill:#84d1da;}</style></defs><title>-</title><rect class="cls-1" x="35.77881" y="54.06201" width="115.37622" height="147.87598"/><path class="cls-2" d="M33.77917,52.0625v151.875H153.155V52.0625ZM149.155,199.9375H37.77917V56.0625H149.155Z"/><rect class="cls-2" x="53.16687" y="140.55469" width="81.16687" height="4"/><rect class="cls-2" x="52.90991" y="158.7334" width="71.88867" height="4"/><rect class="cls-2" x="52.90991" y="176.91113" width="56.77051" height="4"/><rect class="cls-3" x="54.1665" y="91.29907" width="13.30029" height="31.60571"/><path class="cls-2" d="M52.16687,89.29883v35.60644h17.2998V89.29883Zm13.2998,31.60644h-9.2998V93.29883h9.2998Z"/><rect class="cls-4" x="76.45544" y="91.29907" width="13.30017" height="31.60571"/><path class="cls-2" d="M74.45581,89.29883v35.60644H91.75562V89.29883Zm13.29981,31.60644H78.45581V93.29883h9.29981Z"/><rect class="cls-1" x="98.74438" y="103.97925" width="13.30017" height="18.92554"/><path class="cls-2" d="M96.7439,101.97949v22.92578h17.3009V101.97949Zm13.3009,18.92578h-9.3009V105.97949h9.3009Z"/><rect class="cls-5" x="121.0332" y="74.78516" width="13.30029" height="48.11963"/><path class="cls-2" d="M119.03308,72.78516v52.12011h17.30066V72.78516Zm13.30066,48.12011h-9.30066V76.78516h9.30066Z"/><rect class="cls-3" x="105.34821" y="150.92894" width="117.08556" height="9.70217" transform="translate(-62.15052 161.51668) rotate(-45.00034)"/><path class="cls-2" d="M201.8562,108.125l-85.619,85.62109,9.68836,9.68848,85.61926-85.62012Zm-79.96289,85.62109,79.96289-79.96484,4.03223,4.0332-79.96289,79.96387Z"/><path class="cls-1" d="M152.27307,101.94727c18.37561,1.48437,31.474,16.7998,31.474,16.7998l7.8728-7.8728C171.78125,91.03564,152.27307,101.94727,152.27307,101.94727Z"/><path class="cls-1" d="M208.36426,127.61865l-7.87268,7.87281s15.3153,13.09814,16.80017,31.47387C217.29175,166.96533,228.203,147.457,208.36426,127.61865Z"/><rect class="cls-1" x="190.4888" y="111.34277" width="11.13378" height="23.68018" transform="translate(-29.68005 174.71174) rotate(-45)"/><path class="cls-2" d="M165.57507,96.95312a31.38955,31.38955,0,0,0-14.27844,3.249l.81555,3.73828c17.30469,1.39844,29.99011,15.96094,30.11621,16.10742l2.9325.11328,7.87305-7.873V109.46C184.85229,101.27832,175.3562,96.95312,165.57507,96.95312Zm18.22351,18.91407c-3.29089-3.3584-11.831-11.10352-23.43847-14.4502a29.71293,29.71293,0,0,1,5.215-.46387c8.26172,0,16.05457,3.34571,23.18933,9.94825Z"/><path class="cls-2" d="M209.7782,126.2041h-2.82813l-7.87207,7.873.11219,2.93262c.14758.126,14.7091,12.81152,16.10839,30.11718l3.73841.81543C219.15417,167.7334,230.448,146.874,209.7782,126.2041Zm8.07214,32.77637c-3.32995-11.66113-11.11035-20.24024-14.47851-23.541l4.965-4.96582C218.613,141.584,219.08081,152.27637,217.85034,158.98047Z"/><path class="cls-2" d="M193.03394,109.46h-2.82813l-7.87292,7.87305v2.82812L199.078,136.90527h2.828l7.87219-7.873V126.2041Zm7.458,23.20313-13.91687-13.916,5.04493-5.04492,13.91589,13.916Z"/></svg>