<svg id="Layer_1" data-name="Layer 1" xmlns="http://www.w3.org/2000/svg" viewBox="0 0 256 256"><defs><style>.cls-1{fill:#84d1da;}.cls-2{fill:#616363;}.cls-3{fill:#fcb856;}.cls-4{fill:#fff;}</style></defs><title>-</title><rect class="cls-1" x="44.90771" y="145.33844" width="130.93347" height="59.45013"/><polygon class="cls-2" points="127.799 143.339 127.799 147.339 173.841 147.339 173.841 202.788 46.908 202.788 46.908 147.339 93.773 147.339 93.773 143.339 42.908 143.339 42.908 206.788 177.841 206.788 177.841 143.339 127.799 143.339"/><rect class="cls-2" x="88.97316" y="178.41036" width="39.21531" height="3.9996" transform="translate(-95.93942 130.31931) rotate(-45.19623)"/><path class="cls-2" d="M100.207,163.27142a7.22427,7.22427,0,1,0,7.18848,7.22473A7.215,7.215,0,0,0,100.207,163.27142Zm0,10.44831a3.22435,3.22435,0,1,1,3.18848-3.22358A3.20983,3.20983,0,0,1,100.207,173.71973Z"/><path class="cls-2" d="M118.15869,181.87408a7.22418,7.22418,0,1,0,7.18848,7.22455A7.21481,7.21481,0,0,0,118.15869,181.87408Zm0,10.44819a3.22429,3.22429,0,1,1,3.18848-3.22364A3.21019,3.21019,0,0,1,118.15869,192.32227Z"/><circle class="cls-3" cx="110.37451" cy="134.54756" r="20.49685"/><path class="cls-2" d="M110.37451,112.05072a22.49662,22.49662,0,1,0,22.49707,22.49713A22.522,22.522,0,0,0,110.37451,112.05072Zm0,40.99323a18.49662,18.49662,0,1,1,18.49707-18.4961A18.51694,18.51694,0,0,1,110.37451,153.044Z"/><rect class="cls-2" x="87.2749" y="153.04395" width="45.16309" height="4"/><path class="cls-4" d="M110.79907,133.307c-2.19848-.72022-3.793-1.32459-3.793-2.97052,0-1.5431,1.28577-2.40436,3.12427-2.40436a8.17762,8.17762,0,0,1,4.43628,1.55554l1.32373-1.63287a10.77207,10.77207,0,0,0-4.48718-1.91571v-3.44617h-1.76111v3.3305c-3.21484.15448-5.00195,2.09607-5.00195,4.65467,0,3.13763,2.6228,4.03778,5.50317,4.9635,2.4303.7586,3.94678,1.38849,3.94678,3.27832,0,1.65881-1.43958,2.62329-3.38111,2.62329a7.48049,7.48049,0,0,1-5.07934-2.18591l-1.37549,1.64581a9.18036,9.18036,0,0,0,5.38745,2.58447v3.21485h1.7616v-3.18891c3.20141-.25689,5.09167-2.14709,5.09167-4.83441v-.00043C116.49487,135.19714,114.03906,134.33575,110.79907,133.307Z"/><path class="cls-4" d="M203.90271,71.10223a42.78283,42.78283,0,0,1-26.08044-8.86859,46.62248,46.62248,0,0,0-30.10425-11.022H93.41882A10.17178,10.17178,0,0,0,83.1543,60.49506,9.9461,9.9461,0,0,0,93.078,71.10223h20.30811s-3.21692,3.15339-6.23987,6.65351C102.562,83.06342,94.08984,97.819,94.08984,97.819a9.912,9.912,0,1,0,17.76783,8.79181l7.418-11.76068a53.00812,53.00812,0,0,1,15.332-15.76044l2.26635-1.51831a17.7634,17.7634,0,0,1,27.66077,14.57153q.00074.10008.00073.20081A21.24131,21.24131,0,0,1,143.29419,113.585H113.83276a9.39151,9.39151,0,0,0-9.47729,8.5716,9.18331,9.18331,0,0,0,9.16284,9.79357h48.04956a41.67377,41.67377,0,0,0,22.79956-7.06408,43.04167,43.04167,0,0,1,23.58862-7.03943h3.13624V71.10223Z"/><path class="cls-2" d="M203.90283,69.10254a40.94578,40.94578,0,0,1-24.78906-8.39649,48.68232,48.68232,0,0,0-31.39551-11.49414H93.07812a11.94532,11.94532,0,0,0,0,23.89063h15.4961a70.268,70.268,0,0,0-8.50391,11.15332l-7.68506,12.5166-.08593.15527a11.912,11.912,0,0,0,14.21,16.67969,12.08575,12.08575,0,0,0,1.5957-.62311,11.18147,11.18147,0,0,0,5.41309,20.96595H160.7417a44.92385,44.92385,0,0,0,24.7041-7.37995,40.93671,40.93671,0,0,1,22.50977-6.72369h5.13672V69.10254Zm-110.82471,0a7.94532,7.94532,0,0,1,0-15.89063h42.30616L121.729,62.06152a70.08826,70.08826,0,0,0-9.11035,7.041Zm116.01417,46.74408h-1.13672a44.92588,44.92588,0,0,0-24.70313,7.3789,40.93477,40.93477,0,0,1-22.51074,6.72474H113.51807a7.18265,7.18265,0,0,1,0-14.3653h29.77636a23.26734,23.26734,0,0,0,23.24121-23.24121l-.00195-.37891a19.33167,19.33167,0,0,0-10.50781-17.084,19.61231,19.61231,0,0,0-20.31934,1.06537l-2.21191,1.4815a54.66723,54.66723,0,0,0-15.91016,16.35553l-7.418,11.76069-.103.18457a7.91223,7.91223,0,0,1-14.22022-6.94239l7.63623-12.43652A66.65419,66.65419,0,0,1,123.90479,65.419l18.834-12.207h4.97949A44.752,44.752,0,0,1,176.603,63.81836a45.01186,45.01186,0,0,0,27.2998,9.28418h5.18946Zm-100.33106-3.19916a11.784,11.784,0,0,0,4.8418-5.05475l7.36426-11.6748a50.695,50.695,0,0,1,14.7539-15.166l2.21192-1.48242a15.67107,15.67107,0,0,1,16.23242-.84772,15.38227,15.38227,0,0,1,8.36816,13.585l.00195.33691A19.26334,19.26334,0,0,1,143.29443,111.585H113.51807A11.13063,11.13063,0,0,0,108.76123,112.64746Z"/></svg>