<svg id="Layer_1" data-name="Layer 1" xmlns="http://www.w3.org/2000/svg" viewBox="0 0 256 256"><defs><style>.cls-1{fill:#ceecf3;}.cls-2{fill:#fcb856;}.cls-3{fill:#616363;}.cls-4{fill:#fff;}</style></defs><title>-</title><rect class="cls-1" x="10.68457" y="53.55798" width="173.96045" height="86.98035"/><path class="cls-2" d="M10.68457,53.558V74.70941A21.15139,21.15139,0,0,0,31.83582,53.558Z"/><path class="cls-2" d="M163.54083,53.558a21.15137,21.15137,0,0,0,21.15131,21.15143V53.558Z"/><path class="cls-2" d="M163.54071,140.1344H184.692V118.98309A21.1513,21.1513,0,0,0,163.54071,140.1344Z"/><path class="cls-2" d="M10.68457,118.983v21.15131l21.15125.00012A21.15136,21.15136,0,0,0,10.68457,118.983Z"/><path class="cls-3" d="M8.68439,51.55811v25.1513h2a23.17761,23.17761,0,0,0,23.15124-23.1513v-2Zm4,21.04779V55.55811H29.73212A19.18874,19.18874,0,0,1,12.68439,72.6059Z"/><path class="cls-3" d="M161.54071,51.55811v2a23.17769,23.17769,0,0,0,23.15143,23.1513h2V51.55811ZM182.69214,72.6059a19.189,19.189,0,0,1-17.04791-17.04779h17.04791Z"/><path class="cls-3" d="M184.69214,116.98291a23.17764,23.17764,0,0,0-23.15143,23.15125v2h25.15143V116.98291Zm-2,21.15125H165.64423a19.18916,19.18916,0,0,1,17.04791-17.0478Z"/><path class="cls-3" d="M10.68439,116.98291h-2v25.15125H33.83563v-2A23.17756,23.17756,0,0,0,10.68439,116.98291Zm2,21.15125v-17.0478a19.18887,19.18887,0,0,1,17.04773,17.0478Z"/><path class="cls-3" d="M8.68439,51.55811v90.98046H186.64526V51.55811Zm173.96087,86.98046H12.68439V55.55811H182.64526Z"/><circle class="cls-2" cx="97.66481" cy="97.04814" r="25.2914" transform="translate(-25.67748 35.86451) rotate(-18.43495)"/><path class="cls-3" d="M97.66473,69.75726a27.291,27.291,0,1,0,27.29151,27.291A27.3224,27.3224,0,0,0,97.66473,69.75726Zm0,50.582a23.291,23.291,0,1,1,23.29151-23.291A23.31773,23.31773,0,0,1,97.66473,120.33929Z"/><rect class="cls-1" x="28.24597" y="69.01691" width="173.96057" height="86.98029"/><path class="cls-2" d="M28.246,69.01691v21.1513a21.15137,21.15137,0,0,0,21.15125-21.1513Z"/><path class="cls-2" d="M181.10229,69.01691a21.15133,21.15133,0,0,0,21.15125,21.1513V69.01691Z"/><path class="cls-2" d="M181.10205,155.59326h21.15137V134.44189A21.15145,21.15145,0,0,0,181.10205,155.59326Z"/><path class="cls-2" d="M28.246,134.44189v21.15137H49.39722A21.1513,21.1513,0,0,0,28.246,134.44189Z"/><path class="cls-3" d="M26.24585,67.01709V92.1684h2A23.17769,23.17769,0,0,0,51.39722,69.01709v-2Zm4,21.04779V71.01709H47.29364A19.18874,19.18874,0,0,1,30.24585,88.06488Z"/><path class="cls-3" d="M179.10229,67.01709v2A23.17765,23.17765,0,0,0,202.25366,92.1684h2V67.01709Zm21.15137,21.04779a19.18886,19.18886,0,0,1-17.04785-17.04779h17.04785Z"/><path class="cls-3" d="M202.25366,132.44189a23.1777,23.1777,0,0,0-23.15137,23.15137v2h25.15137V132.44189Zm-2,21.15137H183.20581a19.18892,19.18892,0,0,1,17.04785-17.04785Z"/><path class="cls-3" d="M28.24585,132.44189h-2v25.15137H51.39722v-2A23.17774,23.17774,0,0,0,28.24585,132.44189Zm2,21.15137V136.54541a19.1888,19.1888,0,0,1,17.04779,17.04785Z"/><path class="cls-3" d="M26.24585,67.01709v90.98047H204.2063V67.01709ZM200.2063,153.99756H30.24585V71.01709H200.2063Z"/><circle class="cls-2" cx="115.22621" cy="112.507" r="25.29142" transform="translate(-45.80549 114.42977) rotate(-45)"/><path class="cls-3" d="M115.22638,85.21527a27.29154,27.29154,0,1,0,27.29144,27.292A27.32259,27.32259,0,0,0,115.22638,85.21527Zm0,50.583a23.29151,23.29151,0,1,1,23.29144-23.291A23.31776,23.31776,0,0,1,115.22638,135.79828Z"/><rect class="cls-1" x="45.80737" y="84.47571" width="173.96057" height="86.98035"/><path class="cls-2" d="M45.80737,84.47571v21.15137A21.15134,21.15134,0,0,0,66.95862,84.47571Z"/><path class="cls-2" d="M198.66357,84.47571a21.15133,21.15133,0,0,0,21.15137,21.15137V84.47571Z"/><path class="cls-2" d="M198.66357,171.052h21.15125V149.90076A21.15123,21.15123,0,0,0,198.66357,171.052Z"/><path class="cls-2" d="M45.80737,149.90063V171.052H66.95862A21.15138,21.15138,0,0,0,45.80737,149.90063Z"/><path class="cls-3" d="M43.80737,82.476v25.15137h2A23.17769,23.17769,0,0,0,68.95874,84.476v-2Zm4,21.04785V86.476H64.85522A19.18891,19.18891,0,0,1,47.80737,103.52386Z"/><path class="cls-3" d="M196.66382,82.476v2a23.17765,23.17765,0,0,0,23.15137,23.15137h2V82.476Zm21.15137,21.04785A19.18887,19.18887,0,0,1,200.76733,86.476h17.04786Z"/><path class="cls-3" d="M219.8147,147.90076a23.17738,23.17738,0,0,0-23.15088,23.15149v2H221.8147V147.90076Zm-2,21.15149H200.76733a19.18844,19.18844,0,0,1,17.04737-17.04786Z"/><path class="cls-3" d="M45.80737,147.90076h-2v25.15149H68.95874v-2A23.17783,23.17783,0,0,0,45.80737,147.90076Zm2,21.15149V152.00439a19.189,19.189,0,0,1,17.04785,17.04786Z"/><path class="cls-3" d="M43.80737,82.476v90.97956H221.76782V82.476Zm173.96045,86.97956H47.80737V86.476H217.76782Z"/><circle class="cls-2" cx="132.78761" cy="127.96587" r="25.2914" transform="translate(-33.65214 48.55792) rotate(-18.43495)"/><path class="cls-3" d="M132.78784,100.67426a27.29153,27.29153,0,1,0,27.291,27.292A27.32252,27.32252,0,0,0,132.78784,100.67426Zm0,50.58306a23.29153,23.29153,0,1,1,23.291-23.291A23.31773,23.31773,0,0,1,132.78784,151.25732Z"/><circle class="cls-4" cx="212.64917" cy="169.77489" r="32.66676"/><path class="cls-3" d="M212.64917,135.10791a34.667,34.667,0,1,0,34.6665,34.667A34.70658,34.70658,0,0,0,212.64917,135.10791Zm0,65.334a30.667,30.667,0,1,1,30.6665-30.667A30.70162,30.70162,0,0,1,212.64917,200.44189Z"/><path class="cls-4" d="M133.42957,126.699c-3.324-1.08886-5.73475-2.00268-5.73475-4.49121,0-2.333,1.944-3.63525,4.72364-3.63525a12.363,12.363,0,0,1,6.70727,2.352l2.00153-2.46881a16.28625,16.28625,0,0,0-6.78443-2.89649v-5.21045h-2.66278v5.03553c-4.86053.23358-7.5625,3.16919-7.5625,7.0376,0,4.74383,3.9657,6.10479,8.32038,7.50439,3.6745,1.14691,5.96728,2.09943,5.96728,4.95673,0,2.50787-2.17645,3.96612-5.11206,3.96612a11.30925,11.30925,0,0,1-7.67932-3.30493l-2.07977,2.4884a13.8809,13.8809,0,0,0,8.14551,3.9076v4.86047h2.66326v-4.82141c4.8404-.38843,7.69831-3.24634,7.69831-7.30927v-.00049C142.04114,129.55676,138.32812,128.25446,133.42957,126.699Z"/><path class="cls-2" d="M213.4292,167.49536c-4.03955-1.32324-6.969-2.43384-6.969-5.45788,0-2.83521,2.3623-4.41785,5.74023-4.41785a15.0237,15.0237,0,0,1,8.15112,2.85828l2.43238-3.00025a19.79065,19.79065,0,0,0-8.24488-3.5199v-6.332h-3.23584v6.11939c-5.90686.28393-9.19043,3.85144-9.19043,8.55249,0,5.76489,4.81934,7.41894,10.11145,9.11963,4.46546,1.39392,7.25171,2.55127,7.25171,6.02368,0,3.04785-2.645,4.82007-6.2124,4.82007a13.74431,13.74431,0,0,1-9.3324-4.01648l-2.52734,3.024a16.8678,16.8678,0,0,0,9.89868,4.74866v5.90686h3.23657V186.0647c5.88233-.47193,9.35547-3.94507,9.35547-8.88257v-.00073C223.89453,170.96838,219.38232,169.38574,213.4292,167.49536Z"/></svg>