<svg id="Layer_1" data-name="Layer 1" xmlns="http://www.w3.org/2000/svg" viewBox="0 0 256 256"><defs><style>.cls-1{fill:#ceecf3;}.cls-2{fill:#84d1da;}.cls-3{fill:#616363;}.cls-4{fill:#fcb856;}.cls-5{fill:#fff;}</style></defs><title>-</title><path class="cls-1" d="M241.988,110.40479,128.00006,60.997,14.012,110.40479,73.31818,134.4339h.00207l-.00207,30.40918c0,10.46118,24.48187,18.94153,54.68188,18.94153s54.68207-8.48035,54.68207-18.94153l.00537-.00031-.00439-30.40936Z"/><path class="cls-2" d="M128.00006,145.90161c-30.2,0-54.68188,8.48041-54.68188,18.94141v.00006c0,10.46112,24.48187,18.94153,54.68188,18.9414s54.68207-8.48028,54.68207-18.9414C182.68188,154.382,158.20007,145.90161,128.00006,145.90161Z"/><rect class="cls-3" x="71.32086" y="119.44141" width="4" height="45.40137"/><rect class="cls-3" x="180.6875" y="119.44141" width="4" height="45.40137"/><path class="cls-3" d="M128.00006,98.498c-32.314,0-56.68213,9.003-56.68213,20.9414h4c0-8.01257,21.63574-16.9414,52.68213-16.9414s52.68207,8.92883,52.68207,16.9414h4C184.68213,107.501,160.314,98.498,128.00006,98.498Z"/><path class="cls-3" d="M128.00006,143.90143c-14.8233,0-28.7876,2.00964-39.3208,5.65814-11.19531,3.87794-17.36133,9.3056-17.3609,15.2832,0,11.93842,24.36768,20.94141,56.6817,20.94141s56.68207-9.003,56.68207-20.94141S160.314,143.90143,128.00006,143.90143Zm0,37.88275c-31.0459,0-52.6817-8.92871-52.68213-16.94141,0-8.01269,21.63574-16.94134,52.68213-16.94134s52.68207,8.92865,52.68207,16.94134S159.04645,181.78418,128.00006,181.78418Z"/><polygon class="cls-3" points="128 58.817 8.84 110.468 72.567 136.287 74.069 132.58 19.185 110.343 128 63.177 236.815 110.343 181.931 132.58 183.433 136.287 247.16 110.468 128 58.817"/><rect class="cls-3" x="41.28717" y="97.71582" width="4" height="67.12695"/><circle class="cls-3" cx="43.28723" cy="152.6107" r="6.34959"/><path class="cls-3" d="M33.28613,160.292v12.17383h4V160.292a5.68783,5.68783,0,0,1,5.68122-5.6817v-4A9.6921,9.6921,0,0,0,33.28613,160.292Z"/><path class="cls-3" d="M43.28717,150.61029v4a5.68777,5.68777,0,0,1,5.68109,5.6817v12.17383h4V160.292A9.692,9.692,0,0,0,43.28717,150.61029Z"/><circle class="cls-4" cx="190.27347" cy="169.32552" r="25.85721" transform="translate(-28.58755 39.03746) rotate(-10.90072)"/><path class="cls-3" d="M190.27344,141.46869a27.857,27.857,0,1,0,27.85742,27.85651A27.88818,27.88818,0,0,0,190.27344,141.46869Zm0,51.71393a23.857,23.857,0,1,1,23.85742-23.85742A23.88438,23.88438,0,0,1,190.27344,193.18262Z"/><path class="cls-5" d="M190.86084,167.60919c-3.04138-.99621-5.24719-1.8324-5.24719-4.10919,0-2.1347,1.77881-3.32629,4.322-3.32629a11.31249,11.31249,0,0,1,6.13708,2.152l1.8313-2.25891a14.90242,14.90242,0,0,0-6.20752-2.65014v-4.76746h-2.4364v4.60742c-4.44739.21381-6.91955,2.89972-6.91955,6.43921,0,4.34052,3.62866,5.58582,7.613,6.86639,3.36206,1.04938,5.45984,1.92078,5.45984,4.53522,0,2.29468-1.99133,3.629-4.67737,3.629a10.34772,10.34772,0,0,1-7.02636-3.024l-1.90308,2.27692a12.7016,12.7016,0,0,0,7.45288,3.57532v4.44726h2.437v-4.4115c4.42884-.3554,7.0437-2.97027,7.0437-6.6878V174.902C198.74023,170.22412,195.343,169.03247,190.86084,167.60919Z"/></svg>