<svg id="Layer_1" data-name="Layer 1" xmlns="http://www.w3.org/2000/svg" viewBox="0 0 256 256"><defs><style>.cls-1{fill:#84d1da;}.cls-2{fill:#616363;}.cls-3{fill:#fff;}.cls-4{fill:#fcb856;}.cls-5{fill:#ceecf3;}</style></defs><title>-</title><polygon class="cls-1" points="127.538 64.72 56.378 125.006 199.622 125.006 127.538 64.72"/><rect class="cls-1" x="56.37817" y="125.00629" width="143.24426" height="81.04523"/><polygon class="cls-2" points="197.623 125.006 197.623 204.051 58.378 204.051 58.378 125.006 54.378 125.006 54.378 208.051 201.623 208.051 201.623 125.006 197.623 125.006"/><polygon class="cls-2" points="128.822 63.186 126.246 63.194 53.56 124.773 56.145 127.825 127.547 67.334 199.874 127.824 202.44 124.755 128.822 63.186"/><rect class="cls-3" x="72.70215" y="49.94879" width="109.52002" height="140.37024"/><path class="cls-2" d="M70.70264,47.94867V192.31879H184.22217V47.94867ZM180.22217,188.31879H74.70264V51.94867H180.22217Z"/><rect class="cls-2" x="95.229" y="112.80316" width="65.54297" height="4"/><rect class="cls-2" x="95.229" y="130.65967" width="65.54297" height="4"/><rect class="cls-2" x="95.229" y="147.64209" width="65.54297" height="4"/><rect class="cls-2" x="95.229" y="167.31488" width="65.54297" height="4"/><path class="cls-4" d="M104.00269,83.19617c-2.79041-.914-4.81421-1.68116-4.81421-3.77027,0-1.95849,1.632-3.05182,3.96545-3.05182a10.37812,10.37812,0,0,1,5.63074,1.97449l1.68042-2.07257a13.67484,13.67484,0,0,0-5.69556-2.43164V69.47021h-2.23547v4.22736c-4.08045.19611-6.34876,2.66052-6.34876,5.90814,0,3.9823,3.32923,5.12488,6.98511,6.29987,3.08472.96283,5.00952,1.76239,5.00952,4.16113,0,2.10547-1.82727,3.32965-4.29175,3.32965a9.49432,9.49432,0,0,1-6.44677-2.77459l-1.746,2.08905a11.65345,11.65345,0,0,0,6.83814,3.28045v4.08045h2.236V96.02411c4.06348-.32611,6.46265-2.72534,6.46265-6.13611v-.00049C111.23218,85.5954,108.115,84.50208,104.00269,83.19617Z"/><path class="cls-4" d="M128.77466,83.19617c-2.79053-.914-4.81433-1.68116-4.81433-3.77027,0-1.95849,1.632-3.05182,3.96545-3.05182a10.37848,10.37848,0,0,1,5.63086,1.97449l1.6803-2.07257a13.67327,13.67327,0,0,0-5.69568-2.43164V69.47021h-2.23535v4.22736c-4.08032.19611-6.34863,2.66052-6.34863,5.90814,0,3.9823,3.3291,5.12488,6.985,6.29987,3.08484.96283,5.0094,1.76239,5.0094,4.16113,0,2.10547-1.82715,3.32965-4.2915,3.32965a9.4941,9.4941,0,0,1-6.44678-2.77459l-1.74609,2.08905a11.65407,11.65407,0,0,0,6.83825,3.28045v4.08045h2.23572V96.02411c4.06372-.32611,6.46289-2.72534,6.46289-6.13611v-.00049C136.00415,85.5954,132.887,84.50208,128.77466,83.19617Z"/><path class="cls-4" d="M153.54663,83.19617c-2.79053-.914-4.81445-1.68116-4.81445-3.77027,0-1.95849,1.63208-3.05182,3.96557-3.05182a10.37848,10.37848,0,0,1,5.63086,1.97449l1.68018-2.07257a13.67294,13.67294,0,0,0-5.69544-2.43164V69.47021h-2.23547v4.22736c-4.08044.19611-6.34863,2.66052-6.34863,5.90814,0,3.9823,3.32922,5.12488,6.98486,6.29987,3.08484.96283,5.00952,1.76239,5.00952,4.16113,0,2.10547-1.82715,3.32965-4.2915,3.32965a9.4941,9.4941,0,0,1-6.44678-2.77459l-1.746,2.08905a11.65314,11.65314,0,0,0,6.838,3.28045v4.08045h2.236V96.02411c4.06348-.32611,6.46277-2.72534,6.46277-6.13611v-.00049C160.77612,85.5954,157.65894,84.50208,153.54663,83.19617Z"/><polygon class="cls-5" points="156.15 167.251 199.622 206.052 199.622 125.006 156.15 167.251"/><polygon class="cls-5" points="128 142.227 56.378 206.052 199.622 206.052 128 142.227"/><polygon class="cls-5" points="56.378 125.006 56.378 206.052 99.851 167.251 56.378 125.006"/><path class="cls-2" d="M198.229,123.57178l-43.47265,42.24414.06152,2.92676,43.47266,38.80084,3.332-1.49219v-81.045Zm-.60644,78.01361L159.0835,167.188l38.53906-37.44922Z"/><path class="cls-2" d="M129.33154,140.73291h-2.66211l-71.62207,63.8252,1.33106,3.49322H199.62256l1.33105-3.49322ZM61.62939,204.05133l66.3711-59.14654,66.37109,59.14654Z"/><path class="cls-2" d="M57.772,123.57178l-3.39355,1.43451v81.045l3.332,1.49219,43.47266-38.80084.06152-2.92676Zm.60645,78.01361V129.73877L96.91748,167.188Z"/></svg>