<svg id="Layer_1" data-name="Layer 1" xmlns="http://www.w3.org/2000/svg" viewBox="0 0 256 256"><defs><style>.cls-1{fill:#84d1da;}.cls-2{fill:#fcb856;}.cls-3{fill:#616363;}.cls-4{fill:#fff;}.cls-5{fill:#ceecf3;}</style></defs><title>-</title><rect class="cls-1" x="58.27515" y="89.20355" width="145.6167" height="112.00256"/><polygon class="cls-2" points="140.101 144.1 140.101 128.46 122.067 128.46 122.067 144.1 106.426 144.1 106.426 162.134 122.067 162.134 122.067 177.775 140.101 177.775 140.101 162.134 155.741 162.135 155.741 144.101 140.101 144.1"/><path class="cls-3" d="M142.10107,142.10016V126.45941H120.06689v15.64075h-15.6416v22.0332l15.6416.00086V179.775h22.03418V164.13422H157.7417V142.101Zm11.64063,18.03406H138.10107V175.775H124.06689V160.13422l-15.6416-.00086v-14.0332h15.6416V130.45941h14.03418v15.64075l15.64063.00085Z"/><path class="cls-3" d="M56.2749,87.20361V203.20654H205.89209V87.20361ZM201.89209,199.20654H60.2749V91.20361H201.89209Z"/><path class="cls-4" d="M112.81244,54.793h36.54242a4.69153,4.69153,0,0,1,4.69153,4.69153V60.007a4.69153,4.69153,0,0,1-4.69153,4.69153H112.8125a4.69165,4.69165,0,0,1-4.69165-4.69165v-.52228A4.69159,4.69159,0,0,1,112.81244,54.793Z"/><path class="cls-3" d="M149.355,52.79346H112.812a6.69924,6.69924,0,0,0-6.6914,6.6914v.52246a6.69928,6.69928,0,0,0,6.6914,6.69141h36.543a6.69929,6.69929,0,0,0,6.69141-6.69141v-.52246A6.69924,6.69924,0,0,0,149.355,52.79346Zm2.69141,7.21386a2.694,2.694,0,0,1-2.69141,2.69141H112.812a2.694,2.694,0,0,1-2.6914-2.69141v-.52246a2.694,2.694,0,0,1,2.6914-2.6914h36.543a2.694,2.694,0,0,1,2.69141,2.6914Z"/><rect class="cls-3" x="108.70264" y="63.81396" width="4" height="12.7168"/><rect class="cls-3" x="149.46436" y="63.81396" width="4" height="12.7168"/><polygon class="cls-5" points="57.249 101.771 44.458 114.561 71.014 141.117 110.36 101.771 57.249 101.771"/><path class="cls-2" d="M50.91589,108.10364l-6.45764,6.45758,6.45764,6.45764A9.13228,9.13228,0,0,0,50.91589,108.10364Z"/><path class="cls-2" d="M64.43286,134.53583l6.45764,6.4577,6.45764-6.45758A9.13257,9.13257,0,0,0,64.43286,134.53583Z"/><path class="cls-3" d="M52.32959,106.68994l-1.41406-1.41412L41.63037,114.561l9.28516,9.28607,1.41406-1.414a11.13156,11.13156,0,0,0,0-15.74317Zm-1.61426,11.30078L47.28662,114.561l3.42871-3.42872a7.15716,7.15716,0,0,1,0,6.8584Z"/><path class="cls-3" d="M78.76221,133.12152a11.13171,11.13171,0,0,0-15.74317,0L61.605,134.53564l9.28516,9.28608,9.28613-9.28608Zm-7.87207,5.044-3.42871-3.42969a7.2896,7.2896,0,0,1,6.85839,0Z"/><path class="cls-3" d="M56.42041,99.77106l-14.79,14.79,29.38379,29.38378L115.188,99.77106Zm-9.13379,14.79,10.79-10.79h47.45508L71.01416,138.28851Z"/><path class="cls-2" d="M73.41138,101.77094a10.88943,10.88943,0,0,0,21.76074,0Z"/><path class="cls-3" d="M71.32471,99.77106l.08886,2.0849a12.88932,12.88932,0,0,0,25.75684.001l.08984-2.08587Zm19.27441,7.82025a8.89026,8.89026,0,0,1-14.85449-3.82025H92.83838A8.79148,8.79148,0,0,1,90.59912,107.59131Z"/><rect class="cls-5" x="168.88727" y="101.77094" width="37.55524" height="41.64178"/><path class="cls-2" d="M168.88708,134.28046v9.13238h9.13245A9.13232,9.13232,0,0,0,168.88708,134.28046Z"/><path class="cls-2" d="M197.1355,143.41284h9.13257v-9.13238A9.13251,9.13251,0,0,0,197.1355,143.41284Z"/><path class="cls-3" d="M168.88721,132.28076h-2v13.1319H180.02v-2A11.14524,11.14524,0,0,0,168.88721,132.28076Zm2,9.1319v-4.84674a7.16329,7.16329,0,0,1,4.84765,4.84674Z"/><path class="cls-3" d="M206.26807,132.28076a11.14524,11.14524,0,0,0-11.13282,11.1319v2h13.13282v-13.1319Zm-2,9.1319h-4.84766a7.16329,7.16329,0,0,1,4.84766-4.84674Z"/><path class="cls-3" d="M166.88721,99.77106v45.6416h41.55468l.001-45.6416Zm37.55468,41.6416H170.88721v-37.6416h33.55566Z"/><path class="cls-2" d="M197.7832,101.77094H177.54688a10.808,10.808,0,0,0-.80188,4.08679,10.92,10.92,0,1,0,21.84,0A10.81025,10.81025,0,0,0,197.7832,101.77094Z"/><path class="cls-3" d="M199.63525,101.017l-.50781-1.246H176.20166l-.50781,1.246a12.77775,12.77775,0,0,0-.94922,4.84088,12.91992,12.91992,0,0,0,25.83984,0A12.77775,12.77775,0,0,0,199.63525,101.017Zm-11.9707,13.7608a8.9294,8.9294,0,0,1-8.91992-8.91992,8.8027,8.8027,0,0,1,.25-2.08685h17.33984a8.8027,8.8027,0,0,1,.25,2.08685A8.92939,8.92939,0,0,1,187.66455,114.77783Z"/><rect class="cls-1" x="49.79785" y="76.53082" width="162.57153" height="25.33582"/><path class="cls-3" d="M47.79736,74.53076v29.336H214.36963v-29.336Zm162.57227,25.336H51.79736v-21.336H210.36963Z"/></svg>