<svg id="Layer_1" data-name="Layer 1" xmlns="http://www.w3.org/2000/svg" viewBox="0 0 256 256"><defs><style>.cls-1{fill:#ceecf3;}.cls-2{fill:#fcb856;}.cls-3{fill:#616363;}.cls-4{fill:#fff;}</style></defs><title>-</title><rect class="cls-1" x="10.68457" y="53.5578" width="173.96045" height="86.98029"/><path class="cls-2" d="M10.68457,53.5578V74.70911A21.15141,21.15141,0,0,0,31.83582,53.5578Z"/><path class="cls-2" d="M163.54077,53.5578a21.15136,21.15136,0,0,0,21.15137,21.15131V53.5578Z"/><path class="cls-2" d="M163.54077,140.134h21.15137V118.98279A21.1513,21.1513,0,0,0,163.54077,140.134Z"/><path class="cls-2" d="M10.68457,118.98279V140.134H31.83582A21.15135,21.15135,0,0,0,10.68457,118.98279Z"/><path class="cls-3" d="M8.68408,51.55811V76.70947h2A23.17773,23.17773,0,0,0,33.83545,53.55811v-2Zm4,21.04779V55.55811H29.73193A19.18841,19.18841,0,0,1,12.68408,72.6059Z"/><path class="cls-3" d="M161.54053,51.55811v2a23.17773,23.17773,0,0,0,23.15136,23.15136h2V51.55811ZM182.69189,72.6059A19.18841,19.18841,0,0,1,165.644,55.55811h17.04785Z"/><path class="cls-3" d="M184.69189,116.98291a23.17765,23.17765,0,0,0-23.15136,23.15137v2h25.15136V116.98291Zm-2,21.15137H165.644a19.18854,19.18854,0,0,1,17.04785-17.04792Z"/><path class="cls-3" d="M10.68408,116.98291h-2v25.15137H33.83545v-2A23.17765,23.17765,0,0,0,10.68408,116.98291Zm2,21.15137V121.08636a19.18854,19.18854,0,0,1,17.04785,17.04792Z"/><path class="cls-3" d="M8.68408,51.55811V142.5376H186.645V51.55811ZM182.645,138.5376H12.68408V55.55811H182.645Z"/><circle class="cls-2" cx="97.66476" cy="97.04793" r="25.29138" transform="translate(-36.23454 129.10543) rotate(-58.28253)"/><path class="cls-3" d="M97.66455,69.75629a27.2915,27.2915,0,1,0,27.292,27.292A27.32276,27.32276,0,0,0,97.66455,69.75629Zm0,50.583a23.2915,23.2915,0,1,1,23.292-23.291A23.31727,23.31727,0,0,1,97.66455,120.33929Z"/><rect class="cls-1" x="28.24585" y="69.0166" width="173.96069" height="86.98022"/><path class="cls-2" d="M28.24585,69.0166V90.168A21.15133,21.15133,0,0,0,49.39722,69.0166Z"/><path class="cls-2" d="M181.10217,69.0166A21.1513,21.1513,0,0,0,202.25342,90.168V69.0166Z"/><path class="cls-2" d="M181.10205,155.593h21.15137V134.44171A21.15132,21.15132,0,0,0,181.10205,155.593Z"/><path class="cls-2" d="M28.24585,134.44159V155.593H49.39722A21.15134,21.15134,0,0,0,28.24585,134.44159Z"/><path class="cls-3" d="M26.24561,67.01709V92.1684h2A23.17764,23.17764,0,0,0,51.397,69.01709v-2Zm4,21.04779V71.01709H47.29346A19.18834,19.18834,0,0,1,30.24561,88.06488Z"/><path class="cls-3" d="M179.10205,67.01709v2A23.17765,23.17765,0,0,0,202.25342,92.1684h2V67.01709Zm21.15137,21.04779a19.18834,19.18834,0,0,1-17.04785-17.04779h17.04785Z"/><path class="cls-3" d="M202.25342,132.44189a23.1777,23.1777,0,0,0-23.15137,23.15137v2h25.15137V132.44189Zm-2,21.15137H183.20557a19.18846,19.18846,0,0,1,17.04785-17.04785Z"/><path class="cls-3" d="M28.24561,132.44189h-2v25.15137H51.397v-2A23.1777,23.1777,0,0,0,28.24561,132.44189Zm2,21.15137V136.54541a19.18846,19.18846,0,0,1,17.04785,17.04785Z"/><path class="cls-3" d="M26.24561,67.01709v90.97949H204.20654V67.01709Zm173.96093,86.97949H30.24561V71.01709H200.20654Z"/><circle class="cls-2" cx="115.2262" cy="112.50676" r="25.29136"/><path class="cls-3" d="M115.22607,85.21527a27.29154,27.29154,0,1,0,27.291,27.291A27.32256,27.32256,0,0,0,115.22607,85.21527Zm0,50.583a23.29151,23.29151,0,1,1,23.291-23.292A23.31814,23.31814,0,0,1,115.22607,135.79828Z"/><rect class="cls-1" x="45.80737" y="84.47546" width="173.96045" height="86.98035"/><path class="cls-2" d="M45.80737,84.47546v21.15131A21.15129,21.15129,0,0,0,66.95862,84.47546Z"/><path class="cls-2" d="M198.66357,84.47546a21.15139,21.15139,0,0,0,21.15137,21.15131V84.47546Z"/><path class="cls-2" d="M198.66357,171.05188h21.15137V149.90051A21.15137,21.15137,0,0,0,198.66357,171.05188Z"/><path class="cls-2" d="M45.80737,149.90051v21.15125H66.95862A21.15139,21.15139,0,0,0,45.80737,149.90051Z"/><path class="cls-3" d="M43.80713,82.4751v25.15136h2A23.17773,23.17773,0,0,0,68.9585,84.4751v-2Zm4,21.04779V86.4751H64.855A19.1884,19.1884,0,0,1,47.80713,103.52289Z"/><path class="cls-3" d="M196.66357,82.4751v2a23.17773,23.17773,0,0,0,23.15137,23.15136h2V82.4751Zm21.15137,21.04779A19.1884,19.1884,0,0,1,200.76709,86.4751h17.04785Z"/><path class="cls-3" d="M219.81494,147.90088a23.1777,23.1777,0,0,0-23.15137,23.15137v2h25.15137V147.90088Zm-2,21.15137H200.76709a19.18847,19.18847,0,0,1,17.04785-17.04786Z"/><path class="cls-3" d="M45.80713,147.90088h-2v25.15137H68.9585v-2A23.1777,23.1777,0,0,0,45.80713,147.90088Zm2,21.15137V152.00439A19.18847,19.18847,0,0,1,64.855,169.05225Z"/><path class="cls-3" d="M43.80713,82.4751v90.98047H221.76807V82.4751Zm173.96094,86.98047H47.80713V86.4751H217.76807Z"/><circle class="cls-2" cx="132.78757" cy="127.96559" r="25.29138" transform="translate(-45.87702 173.64596) rotate(-58.28253)"/><path class="cls-3" d="M132.7876,100.67426a27.29153,27.29153,0,1,0,27.291,27.291A27.32256,27.32256,0,0,0,132.7876,100.67426Zm0,50.58306a23.29153,23.29153,0,1,1,23.291-23.292A23.31815,23.31815,0,0,1,132.7876,151.25732Z"/><circle class="cls-4" cx="212.64911" cy="169.77466" r="32.66682" transform="translate(-48.78303 94.30074) rotate(-22.50003)"/><path class="cls-3" d="M212.64893,135.10791a34.667,34.667,0,1,0,34.667,34.667A34.70653,34.70653,0,0,0,212.64893,135.10791Zm0,65.334a30.667,30.667,0,1,1,30.667-30.667A30.70131,30.70131,0,0,1,212.64893,200.44189Z"/><path class="cls-2" d="M223.57068,180.537a13.86284,13.86284,0,1,1-1.15979-22.37268l2.05566-3.14063a17.61794,17.61794,0,1,0,1.47266,28.4259Z"/><rect class="cls-2" x="192.505" y="167.89771" width="26.5802" height="3.75305"/><path class="cls-4" d="M142.50952,137.40948a12.16449,12.16449,0,1,1-1.0177-19.63171l1.80383-2.756a15.45955,15.45955,0,1,0,1.29224,24.94354Z"/><rect class="cls-4" x="115.24976" y="126.3186" width="23.32385" height="3.2934"/></svg>