<svg id="Layer_1" data-name="Layer 1" xmlns="http://www.w3.org/2000/svg" viewBox="0 0 256 256"><defs><style>.cls-1{fill:#84d1da;}.cls-2{fill:#fcb856;}.cls-3{fill:#fff;}.cls-4{fill:#616363;}</style></defs><title>-</title><circle class="cls-1" cx="128.00024" cy="128" r="82.10815"/><circle class="cls-2" cx="83.80472" cy="157.56512" r="37.68585" transform="translate(-85.14982 215.04871) rotate(-80.78257)"/><path class="cls-3" d="M84.67236,155.02954c-4.49292-1.47168-7.75134-2.70679-7.75134-6.07031,0-3.15344,2.62756-4.91382,6.38464-4.91382a16.71048,16.71048,0,0,1,9.06592,3.1792l2.70545-3.337a22.01129,22.01129,0,0,0-9.17017-3.91491v-7.04285H82.30774v6.80627c-6.56995.3158-10.2218,4.2837-10.2218,9.51246,0,6.412,5.3601,8.25158,11.24621,10.14331,4.96668,1.55029,8.06556,2.83764,8.06556,6.6997,0,3.3899-2.94178,5.36109-6.90967,5.36109a15.28665,15.28665,0,0,1-10.37976-4.46729l-2.81116,3.36353a18.76237,18.76237,0,0,0,11.00976,5.28161v6.56983h3.6v-6.517c6.5426-.525,10.40552-4.38794,10.40552-9.87964V165.803C96.31238,158.89258,91.29358,157.1322,84.67236,155.02954Z"/><circle class="cls-3" cx="172.19586" cy="98.435" r="37.68582" transform="translate(-19.16905 150.5918) rotate(-45)"/><path class="cls-4" d="M83.80469,117.87964a39.68555,39.68555,0,1,0,39.686,39.68555A39.73075,39.73075,0,0,0,83.80469,117.87964Zm0,75.37109a35.68555,35.68555,0,1,1,35.686-35.68554A35.72648,35.72648,0,0,1,83.80469,193.25073Z"/><path class="cls-4" d="M172.1958,58.74878a39.686,39.686,0,1,0,39.68555,39.68628A39.73112,39.73112,0,0,0,172.1958,58.74878Zm0,75.37207a35.686,35.686,0,1,1,35.68555-35.68579A35.72643,35.72643,0,0,1,172.1958,134.12085Z"/><path class="cls-4" d="M110.44824,64.13525a28.67626,28.67626,0,0,0-28.64355,28.6438v14.44239h4V92.77905a24.67152,24.67152,0,0,1,24.64355-24.6438h23.5503v-4Z"/><path class="cls-4" d="M170.1958,149.65588v14.44349a24.671,24.671,0,0,1-24.64355,24.64355H122.00244v4h23.54981a28.67628,28.67628,0,0,0,28.64355-28.64355V149.65588Z"/><polygon class="cls-4" points="172.337 146.828 158.187 160.976 161.015 163.804 172.337 152.484 183.376 163.524 186.205 160.696 172.337 146.828"/><polygon class="cls-4" points="94.984 93.07 83.667 104.392 72.625 93.351 69.796 96.179 83.668 110.051 97.813 95.898 94.984 93.07"/><path class="cls-2" d="M184.34619,111.54272a16.6211,16.6211,0,1,1-1.39062-26.82446l2.46484-3.76538a21.12347,21.12347,0,1,0,1.76563,34.08191Z"/><rect class="cls-2" x="147.09912" y="96.38843" width="31.86914" height="4.5"/></svg>