<svg id="Layer_1" data-name="Layer 1" xmlns="http://www.w3.org/2000/svg" viewBox="0 0 256 256"><defs><style>.cls-1{fill:#fcb856;}.cls-2{fill:#616363;}.cls-3{fill:#fff;}.cls-4{fill:#84d1da;}</style></defs><title>-</title><circle class="cls-1" cx="129.58159" cy="128.09702" r="30.88729" transform="translate(-4.18888 4.38083) rotate(-1.90604)"/><path class="cls-2" d="M155.8291,108.28125a32.66871,32.66871,0,0,0-21.69971-12.75488,32.8891,32.8891,0,1,0,28.02338,37.11816A32.67249,32.67249,0,0,0,155.8291,108.28125Zm2.36182,23.81055a28.99116,28.99116,0,0,1-28.57129,24.89648,29.29,29.29,0,0,1-4.03272-.28125,28.88946,28.88946,0,0,1,3.95557-57.501,29.31193,29.31193,0,0,1,4.03424.28125,28.88586,28.88586,0,0,1,24.6142,32.6045Z"/><path class="cls-3" d="M130.29132,126.01392c-3.68243-1.20618-6.353-2.21851-6.353-4.97535,0-2.58447,2.15363-4.0271,5.23279-4.0271a13.69644,13.69644,0,0,1,7.43054,2.60547l2.21729-2.735a18.04146,18.04146,0,0,0-7.51593-3.20862v-5.77222h-2.94977v5.57837c-5.38458.25879-8.37781,3.51087-8.37781,7.79639,0,5.25513,4.39319,6.76294,9.21741,8.31335,4.07068,1.27063,6.6106,2.32581,6.6106,5.49109,0,2.77832-2.4112,4.3938-5.66321,4.3938a12.5288,12.5288,0,0,1-8.5072-3.66125l-2.304,2.75659a15.37719,15.37719,0,0,0,9.02362,4.329V148.283H131.303v-5.34131c5.3623-.4303,8.52832-3.59631,8.52832-8.09717v-.00073C139.8313,129.17993,135.7179,127.7373,130.29132,126.01392Z"/><path class="cls-4" d="M197.20068,73.30054l-24.37921-30.1731V60.396H128.96283a52.82139,52.82139,0,0,0-52.82141,52.82129v13.71325l4.8327-10.84082A52.82138,52.82138,0,0,1,129.21887,84.775h43.6026v18.69861Z"/><path class="cls-2" d="M199.772,73.30078l-28.95019-35.832V58.39551H128.96289A54.88344,54.88344,0,0,0,74.1416,113.2168v23.1123l8.65918-19.4248a50.87332,50.87332,0,0,1,46.41791-30.12891h41.60309v22.35547Zm-70.55328,9.47461a54.87693,54.87693,0,0,0-50.07117,32.5l-1.00592,2.25684V113.2168a50.87913,50.87913,0,0,1,50.82129-50.82129h45.85889V48.78516l19.80761,24.51562L174.82178,97.81641v-15.041Z"/><path class="cls-4" d="M175.02582,139.91211A52.8215,52.8215,0,0,1,126.781,171.22656H83.17841V152.52808l-24.379,30.173,24.379,30.1731V195.60571h43.8587a52.82143,52.82143,0,0,0,52.82141-52.82129V129.07129Z"/><path class="cls-2" d="M173.19922,139.09766a50.87387,50.87387,0,0,1-46.418,30.1289h-41.603V146.87109L56.228,182.70117l28.95019,35.83008V197.60547h41.85889a54.88344,54.88344,0,0,0,54.82129-54.82129V119.67285Zm4.65918,3.68652a50.8785,50.8785,0,0,1-50.82129,50.82129H81.17822V207.2168L61.37061,182.70117l19.80761-24.51562v15.041h45.603a54.87752,54.87752,0,0,0,50.07123-32.5l1.00592-2.25683Z"/></svg>