<svg id="Layer_1" data-name="Layer 1" xmlns="http://www.w3.org/2000/svg" viewBox="0 0 256 256"><defs><style>.cls-1{fill:#fff;}.cls-2{fill:#fcb856;}.cls-3{fill:#616363;}</style></defs><title>-</title><polygon class="cls-1" points="111.354 104.083 111.354 146.268 154.056 146.268 224.359 121.364 224.359 104.083 111.354 104.083"/><polygon class="cls-2" points="117.709 79.238 69.42 79.238 31.154 54.393 63.989 92.419 104.513 92.419 125.318 104.083 169.728 104.083 117.709 79.238"/><path class="cls-3" d="M118.5708,77.43262l-.8623-.19532H70.01318L32.24268,52.71582l-2.60254,2.98535L62.47607,93.72656l1.51368.69239h40l20.35058,11.40722.97754.25586H169.728l.8623-3.80469Zm7.26953,24.64941L105.48975,90.6748l-.97754-.25585H64.90479L41.854,63.72559,68.33154,80.915l1.08887.32226h47.835L160.8999,102.082Z"/><path class="cls-1" d="M111.354,104.08252v42.18579c.96582,7.69873-1.28161,15.56494-5.77649,23.43091-7.86621,12.36133-18.96423,20.22729-36.38366,20.22729v11.35816h91.57177c-1.24877-5.7395-5.74389-10.23438-7.99121-14.72925-8.99-17.97974,0-37.08325,16.95362-45.83887L224.3595,121.364V104.08252Z"/><path class="cls-3" d="M109.354,102.083v44.18554l.01563.249c.85449,6.80957-1.00586,14.27441-5.47949,22.10742-8.37989,13.16895-19.4043,19.30176-34.69629,19.30176h-2v15.35742h96.05273l-.52734-2.4248c-.8877-4.08106-3.22852-7.53809-5.29492-10.5879a42.86287,42.86287,0,0,1-2.86133-4.61035c-7.87891-15.75976-1.0166-34.26758,15.96289-43.10547l55.834-19.77832V102.083Zm113.00586,17.86816L169.06006,138.832l-.25.10742c-19.06543,9.84571-26.72949,30.7002-17.8252,48.51075a45.64887,45.64887,0,0,0,3.12793,5.06445,37.85821,37.85821,0,0,1,3.9375,6.76953H71.19385v-7.3916c15.56738-.541,27.38281-7.4668,36.12011-21.20117,4.93458-8.63575,6.9668-16.89356,6.04-24.5459V106.083H222.35986Z"/><path class="cls-1" d="M111.99316,96.646a21.092,21.092,0,0,0,8.10816,28.70605l12.974,7.25879,10.29919-18.407Z"/><path class="cls-3" d="M142.398,115.94922l1.95312-3.49024L111.22412,93.9248l-.97656,1.74512a23.09143,23.09143,0,0,0,8.877,31.42676l12.97461,7.25879,1.95313-3.49024-12.97461-7.25878a19.09769,19.09769,0,0,1-8.22657-24.1875Z"/><rect class="cls-3" x="48.06017" y="70.66667" width="8.29176" height="3.99966" transform="translate(-32.59472 44.12319) rotate(-35.70241)"/><rect class="cls-3" x="56.68626" y="79.72143" width="12.07571" height="3.99951" transform="translate(-37.28638 57.01153) rotate(-38.61422)"/><rect class="cls-3" x="68.45964" y="83.82776" width="21.11198" height="4.00073" transform="translate(-36.29421 68.11997) rotate(-38.6358)"/><rect class="cls-3" x="105.47919" y="85.97276" width="19.68713" height="3.99979" transform="translate(-29.63714 92.98819) rotate(-39.3194)"/><rect class="cls-3" x="88.03569" y="83.82796" width="20.83096" height="4.00034" transform="translate(-32.09306 81.66847) rotate(-39.25633)"/><rect class="cls-3" x="118.66942" y="93.01569" width="20.76273" height="3.9989" transform="translate(-31.07201 101.54755) rotate(-38.69895)"/><rect class="cls-3" x="138.39664" y="97.64411" width="14.28973" height="3.99986" transform="translate(-30.41001 111.98622) rotate(-38.4097)"/><path class="cls-3" d="M160.56006,144.49512a10.75025,10.75025,0,0,1-17.79492-8.12012h-4a14.75,14.75,0,0,0,24.418,11.13965Z"/><polygon class="cls-3" points="216.056 165.282 196.779 184.313 186.168 171.938 168.334 189.254 171.122 192.123 185.901 177.771 196.535 190.174 218.867 168.128 216.056 165.282"/><polygon class="cls-3" points="204.733 164.705 204.733 168.705 216.507 168.705 216.507 180.021 220.507 180.021 220.507 164.705 204.733 164.705"/></svg>