<svg id="Layer_1" data-name="Layer 1" xmlns="http://www.w3.org/2000/svg" viewBox="0 0 256 256"><defs><style>.cls-1{fill:#fcb856;}.cls-2{fill:#616363;}</style></defs><title>-</title><polygon class="cls-1" points="73.988 169.615 33.356 169.615 16.508 202.849 90.836 202.849 73.988 169.615"/><polygon class="cls-1" points="112.357 136.382 71.725 136.382 54.877 169.615 129.205 169.615 112.357 136.382"/><polygon class="cls-1" points="148.316 169.615 107.684 169.615 90.836 202.849 165.164 202.849 148.316 169.615"/><polygon class="cls-1" points="186.685 136.382 146.053 136.382 129.205 169.615 203.533 169.615 186.685 136.382"/><polygon class="cls-1" points="150.93 103.148 110.298 103.148 93.45 136.382 167.778 136.382 150.93 103.148"/><polygon class="cls-1" points="222.644 169.615 182.012 169.615 165.164 202.849 239.492 202.849 222.644 169.615"/><path class="cls-2" d="M75.21674,167.61566H32.127l-18.87549,37.2334H94.09222Zm-40.63282,4H72.75977l14.81976,29.2334H19.76416Z"/><path class="cls-2" d="M113.58594,134.38141H70.49609L51.62054,171.61566h80.84082Zm-40.63288,4h38.17579l14.81982,29.23425H58.13324Z"/><path class="cls-2" d="M149.54486,167.61566H106.45508l-18.87555,37.2334h80.84082Zm-40.63281,4h38.17578l14.81982,29.2334H94.09222Z"/><path class="cls-2" d="M187.91406,134.38141h-43.0899l-18.87549,37.23425h80.84088Zm-40.63281,4H185.457l14.81983,29.23425h-67.8155Z"/><path class="cls-2" d="M152.15863,101.148H109.06934l-18.87549,37.2334h80.84027Zm-40.63226,4h38.17529l14.81976,29.2334H96.70654Z"/><path class="cls-2" d="M223.87305,167.61566H180.7832l-18.87555,37.2334h80.84089Zm-40.63282,4H221.416l14.81982,29.2334H168.42035Z"/><rect class="cls-2" x="128.61377" y="51.15088" width="4" height="20.3974"/><rect class="cls-2" x="168.52831" y="76.45213" width="20.39842" height="3.99998" transform="translate(10.52954 177.48596) rotate(-54.18827)"/><rect class="cls-2" x="195.8128" y="115.80752" width="20.39833" height="4.0002" transform="translate(-31.06528 107.13323) rotate(-27.18501)"/><rect class="cls-2" x="50.67178" y="107.60868" width="4.00016" height="20.39787" transform="translate(-76.18712 110.8562) rotate(-62.82267)"/><rect class="cls-2" x="81.4758" y="68.25307" width="3.99998" height="20.3981" transform="translate(-30.11991 63.65484) rotate(-35.80131)"/></svg>