<svg id="Layer_1" data-name="Layer 1" xmlns="http://www.w3.org/2000/svg" viewBox="0 0 256 256"><defs><style>.cls-1{fill:#84d1da;}.cls-2{fill:#fcb856;}.cls-3{fill:#616363;}.cls-4{fill:#fff;}</style></defs><title>-</title><polygon class="cls-1" points="89.893 164.867 101.225 209.253 153.681 209.253 166.108 164.867 89.893 164.867"/><path class="cls-2" d="M157.188,93.47705a32.47846,32.47846,0,1,0-58.37561,0,27.29864,27.29864,0,1,0,29.18786,36.80884A27.3003,27.3003,0,1,0,157.188,93.47705Z"/><path class="cls-3" d="M160.04541,91.96582A34.14861,34.14861,0,0,0,162.479,79.22461a34.47876,34.47876,0,0,0-68.95752,0,34.14862,34.14862,0,0,0,2.4336,12.74121,29.29883,29.29883,0,1,0,32.104,42.88086c3.26953,5.51953,10.98145,14.97656,25.43653,14.97656a29.29928,29.29928,0,0,0,6.5498-57.85742Zm-6.5498,53.85742c-17.46,0-23.37305-15.55957-23.61426-16.21875l-1.82813-5.04492-1.91992,5.01074A25.30042,25.30042,0,1,1,99.08057,95.46l2.74658-.37207-1.21826-2.48926a30.17792,30.17792,0,0,1-3.08741-13.374,30.47876,30.47876,0,0,1,60.95752,0,30.17838,30.17838,0,0,1-3.08789,13.374l-1.21777,2.48926,2.74707.37207a25.29789,25.29789,0,0,1-3.4248,50.36328Z"/><path class="cls-3" d="M87.31787,162.86719l12.35352,48.38672h55.52636l13.54688-48.38672Zm64.84668,44.38672H102.77881L92.46729,166.86719h71.0039Z"/><rect class="cls-3" x="126.00049" y="130.28613" width="4" height="26.14746"/><rect class="cls-3" x="95.40381" y="178.68945" width="66.27441" height="4"/><path class="cls-4" d="M128.77856,92.01941c-4.03-1.32019-6.95288-2.4281-6.95288-5.44519,0-2.82861,2.35694-4.40759,5.727-4.40759a14.98892,14.98892,0,0,1,8.13208,2.85168l2.42676-2.99329a19.74552,19.74552,0,0,0-8.22571-3.51171V72.19592h-3.22839v6.10535c-5.89307.2832-9.16894,3.84228-9.16894,8.53247,0,5.75159,4.8081,7.40161,10.08789,9.09863,4.45507,1.39051,7.23486,2.54541,7.23486,6.00965,0,3.04065-2.63892,4.80871-6.198,4.80871a13.71208,13.71208,0,0,1-9.31079-4.00708l-2.52148,3.01709a16.82915,16.82915,0,0,0,9.87573,4.73767v5.89307h3.22912v-5.8457c5.86878-.47095,9.33362-3.93592,9.33362-8.86194v-.00073C139.21948,95.48438,134.71777,93.9054,128.77856,92.01941Z"/></svg>