<svg id="Layer_1" data-name="Layer 1" xmlns="http://www.w3.org/2000/svg" viewBox="0 0 256 256"><defs><style>.cls-1{fill:none;}.cls-2{fill:#fff;}.cls-3{fill:#84d1da;}.cls-4{fill:#ceecf3;}.cls-5{fill:#616363;}.cls-6{fill:#fcb856;}</style></defs><title>-</title><rect class="cls-1" x="103.81282" y="72.83694" width="24.46838" height="110.52402"/><rect class="cls-2" x="60.40393" y="101.32416" width="24.46838" height="82.0368"/><rect class="cls-3" x="103.81281" y="72.83691" width="24.46838" height="110.52405"/><rect class="cls-4" x="149.32428" y="60.43591" width="24.46857" height="122.92505"/><rect class="cls-5" x="57.8811" y="193.56396" width="118.0899" height="4"/><path class="cls-5" d="M58.40411,99.32373v86.03711H86.87238V99.32373Zm24.46827,82.03711H62.40411V103.32373H82.87238Z"/><polygon class="cls-5" points="200.275 60.49 169.518 84.873 102.167 84.873 53.534 126.244 56.125 129.291 103.638 88.873 170.912 88.873 202.76 63.624 200.275 60.49"/><path class="cls-5" d="M101.81281,70.83734v114.5235H130.281V70.83734Zm24.4682,110.5235h-20.4682V74.83734H126.281Z"/><polygon class="cls-5" points="184.134 58.436 184.134 62.436 200.852 62.437 200.852 79.622 204.852 79.622 204.852 58.437 184.134 58.436"/><polygon class="cls-5" points="171.793 97.246 171.793 181.361 151.325 181.361 151.325 94.128 147.325 94.128 147.325 185.361 175.793 185.361 175.793 97.246 171.793 97.246"/><polygon class="cls-5" points="147.325 58.436 147.325 79.784 151.325 79.784 151.325 62.436 171.793 62.436 171.793 97.246 175.793 97.246 175.793 58.436 147.325 58.436"/><path class="cls-6" d="M102.9024,79.61633a7.256,7.256,0,1,0,7.25611,7.25611A7.25607,7.25607,0,0,0,102.9024,79.61633Z"/><path class="cls-5" d="M102.90259,77.61664a9.25586,9.25586,0,1,0,9.25592,9.25592A9.26668,9.26668,0,0,0,102.90259,77.61664Zm0,14.51172a5.25586,5.25586,0,1,1,5.25592-5.2558A5.26176,5.26176,0,0,1,102.90259,92.12836Z"/><path class="cls-6" d="M149.32428,79.61633a7.256,7.256,0,1,0,7.256,7.25611A7.25606,7.25606,0,0,0,149.32428,79.61633Z"/><path class="cls-5" d="M149.32452,77.61664a9.25586,9.25586,0,1,0,9.25586,9.25592A9.26673,9.26673,0,0,0,149.32452,77.61664Zm0,14.51172a5.25586,5.25586,0,1,1,5.25586-5.2558A5.26177,5.26177,0,0,1,149.32452,92.12836Z"/><path class="cls-6" d="M60.40393,115.86682a7.25608,7.25608,0,1,0,7.256,7.2561A7.25612,7.25612,0,0,0,60.40393,115.86682Z"/><path class="cls-5" d="M60.40411,113.86664A9.25635,9.25635,0,1,0,69.66,123.12256,9.26678,9.26678,0,0,0,60.40411,113.86664Zm0,14.51269A5.25635,5.25635,0,1,1,65.66,123.12256,5.26265,5.26265,0,0,1,60.40411,128.37933Z"/></svg>