<svg id="Layer_1" data-name="Layer 1" xmlns="http://www.w3.org/2000/svg" viewBox="0 0 256 256"><defs><style>.cls-1{fill:#fcb856;}.cls-2{fill:#616363;}.cls-3{fill:#fff;}.cls-4{fill:#ceecf3;}.cls-5{fill:#84d1da;}</style></defs><title>-</title><path class="cls-1" d="M180.11938,86.88037a14.04216,14.04216,0,0,1-11.16418-5.5249h-.00012a14.0421,14.0421,0,0,0-11.16406-5.5249H98.20428A14.04208,14.04208,0,0,0,87.045,81.34912l-.0097.0127a14.04213,14.04213,0,0,1-11.15936,5.51855H56.86023v48.85986H72.44269a17.20761,17.20761,0,0,1,10.59753,3.65039v10.50977h94.33167l.996-2.14233-5.41785-8.04761v-.31983l.01416-.011a17.20678,17.20678,0,0,1,10.58338-3.63941h15.59253V86.88037Z"/><path class="cls-2" d="M180.11938,84.87988a12.1146,12.1146,0,0,1-9.57415-4.7373,16.13427,16.13427,0,0,0-12.75446-6.3125H98.20441a16.13987,16.13987,0,0,0-12.7583,6.31836,12.11617,12.11617,0,0,1-9.57032,4.73242H54.86011v52.85937H72.44263a15.28972,15.28972,0,0,1,8.59765,2.66407v11.49609h97.60743l2.00976-4.32324-5.09668-7.56934a15.29311,15.29311,0,0,1,7.98682-2.26758h17.59228V84.88086Zm17.02051,48.86035H183.54761a19.28624,19.28624,0,0,0-11.80512,4.05665l-.79248.5996v1.92481l5.103,7.5791H85.04028V138.415l-.76849-.60059a19.3012,19.3012,0,0,0-11.82916-4.07422H58.86011V88.88086H75.87579A16.14215,16.14215,0,0,0,88.63452,82.5625a12.11381,12.11381,0,0,1,9.56989-4.73242h59.58636a12.11434,12.11434,0,0,1,9.57471,4.73828,16.13371,16.13371,0,0,0,12.7539,6.31152l17.02051.001Z"/><path class="cls-3" d="M180.11938,86.88037a14.04216,14.04216,0,0,1-11.16418-5.5249h-.00012a14.0421,14.0421,0,0,0-11.16406-5.5249H129.32013a16.31737,16.31737,0,0,0-15.08991,10.08984l-.14.3501a.28732.28732,0,0,0-.04.08008l-10.74975,26.51489h3.64a25.63648,25.63648,0,0,0,23.57013-15.54l.68945-1.71509h12.06l29.69,44.1001v-.31983l.01416-.011a17.20678,17.20678,0,0,1,10.58338-3.63941h15.59253V86.88037Z"/><path class="cls-2" d="M180.11938,84.87988a12.1146,12.1146,0,0,1-9.57415-4.7373,16.13427,16.13427,0,0,0-12.75446-6.3125H129.78009A18.94207,18.94207,0,0,0,112.305,85.35645l-11.9732,29.50878h6.60888A27.62235,27.62235,0,0,0,132.366,98.07129l.18548-.46094h9.64411L174.95,146.2627v-5.8584a15.29073,15.29073,0,0,1,8.5976-2.66407h17.59228V84.88086Zm17.02051,48.86035H183.54761a19.30663,19.30663,0,0,0-10.22211,2.94727l-29.001-43.07715H129.84839l-1.17627,2.92774a23.6127,23.6127,0,0,1-21.73145,14.32714h-.67138l9.57959-23.6289.08691-.19629a14.95456,14.95456,0,0,1,13.8443-9.21h28.01068a12.11434,12.11434,0,0,1,9.57471,4.73828,16.13371,16.13371,0,0,0,12.7539,6.31152l17.02051.001Z"/><path class="cls-1" d="M162.70709,155.907l-13.4591-19.9187-14.54487,9.83594,13.45917,19.9187a8.7792,8.7792,0,0,0,14.5448-9.83594Z"/><path class="cls-1" d="M178.25781,147.56445l-12.65759-18.73266-14.5448,9.83593L163.713,157.40015a8.77913,8.77913,0,0,0,14.5448-9.8357Z"/><path class="cls-2" d="M164.3645,154.78711l-13.45941-19.919-3.31451,2.24024,13.45953,19.91894a6.7832,6.7832,0,0,1-6.9082,10.44825,6.71386,6.71386,0,0,1-4.32233-2.85254l-13.459-19.91895-3.3144,2.24024,13.45893,19.91894a10.69337,10.69337,0,0,0,6.87988,4.54,10.92315,10.92315,0,0,0,2.06061.19727,10.78716,10.78716,0,0,0,8.91888-16.81348Z"/><path class="cls-3" d="M145.98969,162.5498l-12.27747-18.16992-14.5448,9.83594,12.2774,18.16992c2.473,3.65991,7.73371,4.425,11.75007,1.709C147.21149,171.37866,148.46271,166.21,145.98969,162.5498Z"/><path class="cls-2" d="M147.64679,161.42969l-12.27741-18.16992L132.055,145.5l12.27729,18.16992c1.852,2.74024.83941,6.67383-2.25727,8.76758a7.19592,7.19592,0,0,1-5.0459,1.21484,5.62793,5.62793,0,0,1-3.9273-2.38672L120.82452,153.0957,117.51,155.33594l12.2774,18.16992a9.57667,9.57667,0,0,0,6.666,4.10449,10.78435,10.78435,0,0,0,1.54437.11133,11.28474,11.28474,0,0,0,6.31745-1.96973C149.23853,172.42285,150.73322,165.99805,147.64679,161.42969Z"/><path class="cls-2" d="M179.91479,146.44434l-12.65716-18.73243-3.31451,2.24024,12.65728,18.73242a6.78378,6.78378,0,0,1-6.9082,10.44922,6.71508,6.71508,0,0,1-4.32178-2.85352l-12.65771-18.73242-3.31452,2.24024,12.65772,18.73144a10.6865,10.6865,0,0,0,6.87939,4.542,10.9215,10.9215,0,0,0,2.06012.19727,10.78848,10.78848,0,0,0,8.91937-16.81445Z"/><path class="cls-3" d="M94.02661,136.4502l-.0058-.00733a8.77554,8.77554,0,0,0-12.326-1.43115l-1.81329,1.43579a8.77543,8.77543,0,0,0-1.43146,12.32935l.0058.00732a8.77537,8.77537,0,0,0,12.326,1.43091l1.81336-1.43555A8.77555,8.77555,0,0,0,94.02661,136.4502Z"/><path class="cls-3" d="M117.26593,139.46387l-.00586-.00733a8.7755,8.7755,0,0,0-12.326-1.43091l-8.7016,6.88941a8.77551,8.77551,0,0,0-1.43127,12.32934l.0058.00733a8.77529,8.77529,0,0,0,12.326,1.43091l8.70159-6.88941A8.77557,8.77557,0,0,0,117.26593,139.46387Z"/><path class="cls-3" d="M148.90088,159.05518l-.0058-.00733A8.77568,8.77568,0,0,0,136.569,157.6167l-8.70148,6.88965a8.77564,8.77564,0,0,0-1.43139,12.32934l.00579.00733a8.7759,8.7759,0,0,0,12.32612,1.43091l8.70147-6.88941A8.77541,8.77541,0,0,0,148.90088,159.05518Z"/><path class="cls-3" d="M134.89728,147.76611l-.0058-.00732a8.77552,8.77552,0,0,0-12.326-1.43115l-11.07861,8.77148a8.77579,8.77579,0,0,0-1.4314,12.32959l.0058.00733a8.77558,8.77558,0,0,0,12.32605,1.4309l11.07867-8.77148A8.77552,8.77552,0,0,0,134.89728,147.76611Z"/><path class="cls-2" d="M95.58862,135.2002a10.77691,10.77691,0,0,0-15.13574-1.75684l-1.813,1.43555a10.7804,10.7804,0,0,0,13.3833,16.90429l1.814-1.43554a10.77667,10.77667,0,0,0,1.7514-15.14746Zm-1.71039,7.48046a6.729,6.729,0,0,1-2.52392,4.53028l-1.81354,1.43554a6.77992,6.77992,0,0,1-8.41748-10.63086l1.8125-1.43554a6.78243,6.78243,0,0,1,10.94244,6.10058Z"/><path class="cls-2" d="M118.82788,138.21484A10.77591,10.77591,0,0,0,103.6922,136.457l-8.70068,6.88965a10.78158,10.78158,0,0,0,6.6997,19.23144,10.81343,10.81343,0,0,0,6.6836-2.32714l8.7016-6.88965a10.77543,10.77543,0,0,0,1.75146-15.14649Zm-1.71039,7.4795a6.727,6.727,0,0,1-2.52447,4.53027l-8.70111,6.88965a6.77992,6.77992,0,0,1-8.41748-10.63086l8.70068-6.88965a6.78244,6.78244,0,0,1,10.94238,6.10059Z"/><path class="cls-2" d="M150.512,157.86914l-.04931-.06348a10.77582,10.77582,0,0,0-15.13483-1.75683l-8.70209,6.88965a10.78053,10.78053,0,0,0,13.38373,16.90429l8.70117-6.88965a10.77511,10.77511,0,0,0,1.80133-15.084Zm-1.75933,7.417a6.72973,6.72973,0,0,1-2.52491,4.53028l-8.70166,6.88964a6.78028,6.78028,0,0,1-8.41742-10.63183l8.70209-6.88867a6.77485,6.77485,0,0,1,9.47711,1.05468l.04541.05762A6.72929,6.72929,0,0,1,148.75269,165.28613Z"/><path class="cls-2" d="M136.45929,146.5166a10.77641,10.77641,0,0,0-15.13532-1.75683l-11.07806,8.77148a10.7804,10.7804,0,0,0,13.3833,16.9043l11.07861-8.77246a10.77546,10.77546,0,0,0,1.75147-15.14649Zm-1.71051,7.47949a6.72736,6.72736,0,0,1-2.52435,4.53125l-11.07813,8.77149a6.77992,6.77992,0,0,1-8.41748-10.63086l11.07855-8.77149a6.7814,6.7814,0,0,1,10.94141,6.09961Z"/><rect class="cls-4" x="34.65948" y="78.89697" width="22.20074" height="64.14697"/><path class="cls-2" d="M32.65942,76.89746V145.044H58.86011V76.89746ZM54.86011,141.044H36.65942V80.89746H54.86011Z"/><rect class="cls-5" x="199.14014" y="78.89697" width="22.20068" height="64.14697"/><path class="cls-2" d="M197.13989,76.89746V145.044h26.20069V76.89746ZM219.34058,141.044H201.13989V80.89746h18.20069Z"/></svg>