<svg id="Layer_1" data-name="Layer 1" xmlns="http://www.w3.org/2000/svg" viewBox="0 0 256 256"><defs><style>.cls-1{fill:#84d1da;}.cls-2{fill:#616363;}.cls-3{fill:#ceecf3;}.cls-4{fill:#fff;}.cls-5{fill:#fcb856;}</style></defs><title>-</title><polygon class="cls-1" points="128.525 52.269 39.512 119.571 68.042 119.571 68.042 204.012 189.006 204.012 189.006 119.571 217.537 119.571 128.525 52.269"/><path class="cls-2" d="M128.52515,49.76123l-94.9751,71.81055h32.4917v84.44049H191.00659V121.57178h32.49219Zm58.48144,67.81055v84.44049H70.04175V117.57178H45.4729l83.05225-62.7959,83.05175,62.7959Z"/><rect class="cls-3" x="112.37329" y="167.51691" width="34.02734" height="36.49487"/><path class="cls-2" d="M110.37329,165.517v40.49524h38.02686V165.517Zm34.02686,36.49524H114.37329V169.51709h30.02686Z"/><polygon class="cls-4" points="128.525 52.269 39.512 119.571 217.537 119.571 128.525 52.269"/><path class="cls-2" d="M128.52515,49.76123l-94.9751,71.81055H223.49878Zm0,5.01563,83.05175,62.79492H45.4729Z"/><circle class="cls-5" cx="61.60934" cy="177.13054" r="27.10826" transform="matrix(0.85065, -0.52573, 0.52573, 0.85065, -83.92179, 58.84433)"/><path class="cls-2" d="M61.60913,148.022a29.1084,29.1084,0,1,0,29.1084,29.1084A29.14077,29.14077,0,0,0,61.60913,148.022Zm0,54.2168a25.1084,25.1084,0,1,1,25.1084-25.1084A25.13657,25.13657,0,0,1,61.60913,202.23877Z"/><path class="cls-4" d="M62.22522,175.33118c-3.1886-1.04444-5.5011-1.92108-5.5011-4.308,0-2.238,1.86475-3.48724,4.531-3.48724a11.85913,11.85913,0,0,1,6.43408,2.25616l1.91992-2.36822a15.62331,15.62331,0,0,0-6.50793-2.77838v-4.99811H60.547v4.83032c-4.66248.22406-7.25428,3.04-7.25428,6.75079,0,4.55042,3.80408,5.856,7.98121,7.19855,3.52478,1.10016,5.72412,2.0138,5.72412,4.75464,0,2.40576-2.08777,3.80463-4.90381,3.80463a10.84822,10.84822,0,0,1-7.36621-3.17035l-1.99512,2.387a13.31522,13.31522,0,0,0,7.81348,3.74829v4.66254H63.1012v-4.625c4.64318-.37262,7.38464-3.114,7.38464-7.01135v-.00055C70.48584,178.07257,66.92407,176.8233,62.22522,175.33118Z"/><polygon class="cls-1" points="159.382 57.217 159.382 75.6 182.447 93.039 182.447 57.217 159.382 57.217"/><path class="cls-2" d="M157.38159,55.21722V76.59528L184.447,97.059V55.21722ZM180.447,89.02,161.38159,74.605V59.21722H180.447Z"/></svg>