<svg id="Layer_1" data-name="Layer 1" xmlns="http://www.w3.org/2000/svg" viewBox="0 0 256 256"><defs><style>.cls-1{fill:#84d1da;}.cls-2{fill:#616363;}.cls-3{fill:#fff;}.cls-4{fill:#fcb856;}</style></defs><title>-</title><path class="cls-1" d="M80.86755,97.33008h56.84619a9.53766,9.53766,0,0,1,9.53766,9.53766v78.84442a9.5376,9.5376,0,0,1-9.5376,9.5376H80.86761A9.53766,9.53766,0,0,1,71.33,185.7121V106.86768A9.5376,9.5376,0,0,1,80.86755,97.33008Z"/><path class="cls-2" d="M137.71393,95.33008H80.86774a11.55081,11.55081,0,0,0-11.5376,11.53808v78.84375A11.55082,11.55082,0,0,0,80.86774,197.25h56.84619a11.55082,11.55082,0,0,0,11.5376-11.53809V106.86816A11.55082,11.55082,0,0,0,137.71393,95.33008Zm7.5376,90.38183a7.54655,7.54655,0,0,1-7.5376,7.53809H80.86774a7.54651,7.54651,0,0,1-7.5376-7.53809V106.86816a7.5465,7.5465,0,0,1,7.5376-7.53808h56.84619a7.54654,7.54654,0,0,1,7.5376,7.53808Z"/><rect class="cls-2" x="89.09918" y="178.84961" width="39.03516" height="4"/><path class="cls-1" d="M128.31921,140.71265a12.564,12.564,0,0,0-8.88055-3.6565H102.34143c-1.04877,0-2.12018-.03125-3.1568.01465a12.47669,12.47669,0,0,0-11.92,12.76123v16.54834c0,.41358.51007.22754.86853.22754h43.56305c.0473,0,.27209.03125.27209-.02637V149.56543A12.55613,12.55613,0,0,0,128.31921,140.71265Z"/><path class="cls-3" d="M128.31921,140.71265a12.564,12.564,0,0,0-8.88055-3.6565H102.34143c-1.04877,0-2.12018-.03125-3.1568.01465a12.47669,12.47669,0,0,0-11.92,12.76123v16.77588h44.70367V149.56543A12.55613,12.55613,0,0,0,128.31921,140.71265Z"/><path class="cls-2" d="M130.82031,140.51953l-.04388-.17773-.41162-.41211-.23438-.23438-1.04742-1.04785-.02149.02149a14.68129,14.68129,0,0,0-9.623-3.61231H102.34131l-1.83295-.01074c-.47516,0-.94775.00586-1.44385.0293A14.47477,14.47477,0,0,0,85.26471,149.832v18.77539h48.70361v-19.042A14.64893,14.64893,0,0,0,130.82031,140.51953Zm-.852,24.08789H89.26471V149.832A10.47563,10.47563,0,0,1,99.275,139.06934c.4068-.01856.81885-.02344,1.2334-.02344l18.93018.01074a10.4706,10.4706,0,0,1,10.52978,10.50879Z"/><path class="cls-3" d="M109.14642,112.43213a9.98672,9.98672,0,0,0-9.98681,9.98657v.00025a9.98679,9.98679,0,0,0,19.97357,0v-.00025A9.98671,9.98671,0,0,0,109.14642,112.43213Z"/><path class="cls-2" d="M109.14655,110.43164A11.98682,11.98682,0,1,0,121.13336,122.419,12.001,12.001,0,0,0,109.14655,110.43164Zm0,19.97363a7.98682,7.98682,0,1,1,7.98681-7.98632A7.99593,7.99593,0,0,1,109.14655,130.40527Z"/><rect class="cls-2" x="95.29791" y="154.2998" width="4" height="12.30762"/><rect class="cls-2" x="119.94244" y="154.2998" width="4" height="12.30762"/><rect class="cls-2" x="95.29791" y="155.13379" width="4" height="11.47363"/><rect class="cls-2" x="119.94244" y="155.13379" width="4" height="11.47363"/><path class="cls-3" d="M214.06274,73.58252A52.50137,52.50137,0,0,1,189.53052,67.54c-6.3-3.32764-14.97217-6.79028-23.78339-6.79028a30.66992,30.66992,0,0,0-13.46649,3.375c-6.608,3.22338-12.5528,8.29589-17.57819,13.14428-8.29919,8.00782-10.05474,9.88672-19.896,20.08008,0,0,26.82525-.019,26.9245-.019.3161-.00025,4.87121-4.45166,6.43945-5.87818,5.58862-5.083,10.94434-9.18823,18.73444-9.70849A16.20435,16.20435,0,0,1,182.562,91.0415c2.65967,5.91114.99585,13.25806-3.20972,18.02784-4.21954,4.78515-10.66937,6.9956-16.93475,6.9956h-29.4613a9.39169,9.39169,0,0,0-9.4773,8.57129,9.18331,9.18331,0,0,0,9.16272,9.794h48.0506a41.67055,41.67055,0,0,0,22.79834-7.06372,43.03974,43.03974,0,0,1,23.58875-7.0398h.26074V73.58252Z"/><path class="cls-2" d="M214.0625,71.583a50.696,50.696,0,0,1-23.59814-5.81153C184.40088,62.56836,175.19092,58.75,165.74713,58.75a32.72619,32.72619,0,0,0-14.34332,3.57715c-7.42426,3.62207-13.87988,9.4414-18.08978,13.50293-7.5669,7.30176-9.6587,9.46875-17.44086,17.53515l-5.78082,5.98829,4.71582-.00391s26.78619-.01953,26.92285-.01953c.98681,0,1.14648-.125,5.707-4.44727.83447-.791,1.59766-1.51465,2.07812-1.95117,5.01654-4.5625,10.13135-8.69922,17.522-9.19336a14.20269,14.20269,0,0,1,13.70013,8.124c2.21192,4.917,1.0249,11.44825-2.88611,15.88477-3.54113,4.01563-9.16656,6.31836-15.43463,6.31836H132.95618a11.36886,11.36886,0,0,0-11.47272,10.44141,11.09275,11.09275,0,0,0,2.99805,8.38769,11.22633,11.22633,0,0,0,8.16015,3.53613h48.05072a43.65556,43.65556,0,0,0,23.89453-7.3916,40.93627,40.93627,0,0,1,22.49268-6.71191h2.26074V71.583Zm11.27783,46.77734a44.911,44.911,0,0,0-22.9458,7.333,39.67439,39.67439,0,0,1-21.70215,6.7373H132.64166a7.18448,7.18448,0,0,1-7.16705-7.666,7.36312,7.36312,0,0,1,7.48157-6.69922h29.46136c7.41547,0,14.13477-2.79688,18.43463-7.67383,4.9159-5.57422,6.369-13.86914,3.53357-20.16992a18.21406,18.21406,0,0,0-17.61419-10.47363c-8.66993.5791-14.60791,5.36816-19.94629,10.22461-.49408.44824-1.28034,1.19336-2.13874,2.00683-1.09521,1.03809-2.80951,2.66309-3.60589,3.35059-2.90241.00293-14.81592.01074-21.5611.01562,7.12262-7.38086,9.3111-9.63086,16.57178-16.63672,4.01471-3.873,10.15143-9.41308,17.0664-12.78613A28.76587,28.76587,0,0,1,165.74713,62.75c8.624,0,17.18549,3.56641,22.84906,6.55859A54.71428,54.71428,0,0,0,214.0625,75.583h11.27783Z"/><path class="cls-4" d="M110.77625,77.44189h-.00007A12.6276,12.6276,0,0,0,98.14862,90.06934v7.26074h25.25513V90.06934A12.62755,12.62755,0,0,0,110.77625,77.44189Z"/><path class="cls-2" d="M110.77594,75.44238a14.64376,14.64376,0,0,0-14.62738,14.627v9.26074h29.25525V90.06934A14.64386,14.64386,0,0,0,110.77594,75.44238Zm10.62787,19.8877H100.14856V90.06934a10.62763,10.62763,0,0,1,21.25525,0Z"/><path class="cls-2" d="M110.77618,84.35571a3.0304,3.0304,0,1,0,3.03028,3.03052A3.0304,3.0304,0,0,0,110.77618,84.35571Z"/><circle class="cls-1" cx="92.07687" cy="124.35327" r="31.32706" transform="translate(-49.19711 187.46863) rotate(-77.55516)"/><path class="cls-1" d="M114.22815,102.2a31.32821,31.32821,0,0,0-44.3,44.30957c.34.34033.69.67993,1.05,1,.54.5,1.09.97022,1.66,1.40991a21.10579,21.10579,0,0,0,1.75,1.28052,31.10015,31.10015,0,0,0,18.8,5.44971c.68-.01,1.36-.0603,2.03-.12988q1.02-.09009,2.04-.27.915-.15015,1.83-.36011.99006-.22485,1.95-.51c.65-.19019,1.3-.4104,1.94-.6499a31.17566,31.17566,0,0,0,14.96-11.71c.38995-.55054.75-1.10987,1.08-1.69a20.66973,20.66973,0,0,0,1.04-1.8999A31.32491,31.32491,0,0,0,114.22815,102.2Z"/><path class="cls-4" d="M69.92352,146.50439a30.54986,30.54986,0,0,1-4.42437-5.57739L32.95642,167.21143a11.56285,11.56285,0,1,0,16.26,16.26025l26.28418-32.543A30.56283,30.56283,0,0,1,69.92352,146.50439Z"/><path class="cls-2" d="M76.5498,149.22656a29.0757,29.0757,0,0,1-9.34808-9.34961l-1.19189-1.93359L31.69836,165.65625a13.57,13.57,0,0,0-1.06945,20.14258,13.467,13.467,0,0,0,9.58642,3.97168h.00049a13.50168,13.50168,0,0,0,10.55621-5.042L78.48346,150.418ZM47.65973,182.21582a9.51806,9.51806,0,0,1-7.44391,3.55469H40.2149a9.555,9.555,0,0,1-9.542-10.05762,9.59884,9.59884,0,0,1,3.54053-6.94629l30.83887-24.9082a33.31172,33.31172,0,0,0,7.5166,7.5166Z"/><circle class="cls-3" cx="92.0769" cy="124.35321" r="23.32211"/><path class="cls-1" d="M110.76813,137.88965h-20.56c-.42,0-.84,0-1.27-.01-.84-.00977-1.7-.00977-2.53.03027a15.37527,15.37527,0,0,0-11.15,5.73975,14.73018,14.73018,0,0,0-2.62,5.26977,21.10579,21.10579,0,0,0,1.75,1.28052,31.10015,31.10015,0,0,0,18.8,5.44971c.68-.01,1.36-.0603,2.03-.12988q1.02-.09009,2.04-.27.915-.15015,1.83-.36011.99006-.22485,1.95-.51c.65-.19019,1.3-.4104,1.94-.6499a31.17566,31.17566,0,0,0,14.96-11.71c.38995-.55054.75-1.10987,1.08-1.69A15.11644,15.11644,0,0,0,110.76813,137.88965Z"/><path class="cls-3" d="M110.76813,137.88965h-20.56c-.42,0-.84,0-1.27-.01-.84-.00977-1.7-.00977-2.53.03027a15.37527,15.37527,0,0,0-11.15,5.73975,14.73018,14.73018,0,0,0-2.62,5.26977,21.10579,21.10579,0,0,0,1.75,1.28052,31.10015,31.10015,0,0,0,18.8,5.44971c.68-.01,1.36-.0603,2.03-.12988q1.02-.09009,2.04-.27.915-.15015,1.83-.36011.99006-.22485,1.95-.51c.65-.19019,1.3-.4104,1.94-.6499a31.17566,31.17566,0,0,0,14.96-11.71c.38995-.55054.75-1.10987,1.08-1.69A15.11644,15.11644,0,0,0,110.76813,137.88965Z"/><path class="cls-2" d="M119.19818,137.72974l-.05.35009a17.23127,17.23127,0,0,0-8.38-2.19018h-20.56l-2.2-.01c-.26,0-.51,0-.77.01-.31,0-.63.01-.95.02026a17.33727,17.33727,0,0,0-12.61,6.52,16.67173,16.67173,0,0,0-2.7,5.07959c.54.5,1.09.97022,1.66,1.40991a21.10579,21.10579,0,0,0,1.75,1.28052,12.55016,12.55016,0,0,1,2.43-5.29,13.34511,13.34511,0,0,1,9.68-5c.5-.02026,1-.03027,1.51-.03027h5.26l7.38.01h10.12a13.23209,13.23209,0,0,1,7.17,2.13013c.38995-.55054.75-1.10987,1.08-1.69a20.66973,20.66973,0,0,0,1.04-1.8999Z"/><path class="cls-3" d="M98.38855,108.27954a12.00989,12.00989,0,1,0,12.00989,12.01A12.00984,12.00984,0,0,0,98.38855,108.27954Z"/><path class="cls-2" d="M98.38818,106.27954a14.01,14.01,0,1,0,14.00995,14.01A14.03234,14.03234,0,0,0,98.38818,106.27954Zm0,24.02a10.01,10.01,0,1,1,10.00995-10.01A10.02057,10.02057,0,0,1,98.38818,130.29956Z"/><path class="cls-2" d="M115.64264,100.78809a33.32642,33.32642,0,1,0-.00049,47.13086A33.10728,33.10728,0,0,0,115.64264,100.78809ZM112.814,145.09082a29.32691,29.32691,0,1,1,.00048-41.47461A29.13447,29.13447,0,0,1,112.814,145.09082Z"/><path class="cls-3" d="M90.20813,137.88965s.9184,7.05224,8.95148,7.05224c8.13635,0,9.288-7.05224,9.288-7.05224Z"/><path class="cls-2" d="M87.93073,135.88965l.29388,2.25781c.39654,3.042,3.19141,8.79492,10.93512,8.79492,7.78033,0,10.76849-5.71093,11.26172-8.73047l.37939-2.32226Zm11.229,7.05273c-3.48047,0-5.2403-1.60058-6.12012-3.05273h12.4707C104.55676,141.34473,102.70276,142.94238,99.15973,142.94238Z"/></svg>