<svg id="Layer_1" data-name="Layer 1" xmlns="http://www.w3.org/2000/svg" viewBox="0 0 256 256"><defs><style>.cls-1{fill:#cae9e7;}.cls-2{fill:#ceecf3;}.cls-3{fill:#fcb856;}.cls-4{fill:#616363;}.cls-5{fill:#fff;}</style></defs><title>-</title><circle class="cls-1" cx="124.19073" cy="128.00003" r="72.28712" transform="translate(-54.13507 125.30645) rotate(-45)"/><rect class="cls-2" x="70.89526" y="101.35223" width="106.59106" height="53.29553"/><path class="cls-3" d="M70.89526,101.35223v12.96015a12.96006,12.96006,0,0,0,12.96009-12.96015Z"/><path class="cls-3" d="M164.55505,101.35223a12.96006,12.96006,0,0,0,12.96009,12.96015V101.35223Z"/><path class="cls-3" d="M164.55505,154.40027h12.96009V141.44012A12.96015,12.96015,0,0,0,164.55505,154.40027Z"/><path class="cls-3" d="M70.89526,141.44012v12.96015H83.85535A12.96006,12.96006,0,0,0,70.89526,141.44012Z"/><path class="cls-4" d="M68.89551,99.35248v16.96h2a14.97677,14.97677,0,0,0,14.96-14.96v-2Zm4,12.77734v-8.77734h8.77685A10.98912,10.98912,0,0,1,72.89551,112.12982Z"/><path class="cls-4" d="M162.55469,99.35248v2a14.97677,14.97677,0,0,0,14.96,14.96h2v-16.96Zm12.96,12.77734a10.98971,10.98971,0,0,1-8.77735-8.77734h8.77735Z"/><path class="cls-4" d="M177.51465,139.44037a14.97685,14.97685,0,0,0-14.96,14.96v2h16.96v-16.96Zm-2,12.96H166.7373a10.98988,10.98988,0,0,1,8.77735-8.77741Z"/><path class="cls-4" d="M70.89551,139.44037h-2v16.96h16.96v-2A14.97685,14.97685,0,0,0,70.89551,139.44037Zm2,12.96v-8.77741a10.98929,10.98929,0,0,1,8.77685,8.77741Z"/><path class="cls-4" d="M68.89551,99.35248v57.295H179.48633v-57.295Zm106.59082,53.295H72.89551v-49.295H175.48633Z"/><circle class="cls-3" cx="124.1907" cy="128.00005" r="15.49673" transform="translate(-31.76358 41.48066) rotate(-16.84501)"/><path class="cls-4" d="M124.19092,110.50287a17.4971,17.4971,0,1,0,17.49658,17.49707A17.51716,17.51716,0,0,0,124.19092,110.50287Zm0,30.9942a13.4971,13.4971,0,1,1,13.49658-13.49713A13.51232,13.51232,0,0,1,124.19092,141.49707Z"/><path class="cls-5" d="M217.92273,77.51605a52.50271,52.50271,0,0,1-24.53211-6.04242c-6.30017-3.32788-14.97229-6.79046-23.78344-6.79046a30.67244,30.67244,0,0,0-13.46656,3.375c-6.60791,3.22357-12.55273,8.29589-17.57812,13.14447-8.29932,8.00781-10.05469,9.88672-19.896,20.08,0,0,26.8252-.019,26.92456-.0191.31592-.00018,4.8711-4.45178,6.43946-5.87817,5.58862-5.083,10.94421-9.18811,18.73437-9.7085A16.20436,16.20436,0,0,1,186.42212,94.975c2.65967,5.911.99585,13.258-3.20984,18.02758-4.21936,4.78534-10.66931,6.99585-16.93469,6.99585H136.81616a9.3916,9.3916,0,0,0-9.47729,8.571,9.18347,9.18347,0,0,0,9.16284,9.79419h48.05054a41.6703,41.6703,0,0,0,22.79834-7.06378,43.04153,43.04153,0,0,1,23.58886-7.03974h3.13623V77.51605Z"/><path class="cls-4" d="M217.92285,75.51556a50.68441,50.68441,0,0,1-23.59765-5.81048c-6.06348-3.20313-15.27442-7.02155-24.71778-7.02155a32.72774,32.72774,0,0,0-14.34375,3.57715c-7.4248,3.62305-13.87988,9.44135-18.08984,13.503-7.56836,7.30365-9.66113,9.47168-17.44727,17.54l-5.77441,5.98151,4.71582-.003s26.78808-.0185,26.92285-.0185c.9873,0,1.14746-.125,5.707-4.44732.835-.791,1.59766-1.51459,2.07813-1.95118,5.0166-4.5625,10.13183-8.69922,17.52148-9.19329a14.17994,14.17994,0,0,1,13.7002,8.125c2.21289,4.915,1.02636,11.4472-2.88575,15.88378-3.54,4.01459-9.166,6.31726-15.43457,6.31726H136.81641a11.371,11.371,0,0,0-11.47315,10.44245,11.089,11.089,0,0,0,2.99756,8.3858,11.22424,11.22424,0,0,0,8.16113,3.53705h48.04981a43.65557,43.65557,0,0,0,23.89453-7.39056,40.9402,40.9402,0,0,1,22.49316-6.71289h5.13672V75.51556Zm14.15332,46.74421h-1.13672a44.92627,44.92627,0,0,0-24.68457,7.36718,39.67017,39.67017,0,0,1-21.70312,6.73627H136.502a7.18343,7.18343,0,0,1-7.167-7.66406,7.36328,7.36328,0,0,1,7.48145-6.70124h29.46093c7.417,0,14.13575-2.79675,18.43457-7.67175,4.917-5.57623,6.37012-13.87012,3.53418-20.1709a18.23425,18.23425,0,0,0-17.61523-10.47369c-8.669.5791-14.60645,5.36816-19.94629,10.22467-.49316.44818-1.2793,1.1933-2.13769,2.00677-1.09571,1.03815-2.80958,2.66315-3.60645,3.35065-2.90039.00189-14.81445.01068-21.561.01557,7.12061-7.37891,9.312-9.63086,16.57178-16.63666,4.01465-3.87311,10.15137-9.41315,17.06641-12.78626a28.76922,28.76922,0,0,1,12.58984-3.17279c8.624,0,17.18555,3.56641,22.84863,6.5586a54.70886,54.70886,0,0,0,25.4668,6.27343h14.15332Z"/><path class="cls-3" d="M168.70532,161.69592l-.00024-.00006a9.935,9.935,0,0,0-12.39514-6.616l-9.23011,2.80591-11.33935,3.4469-17.09522,5.19672-12.82373,3.89819-.02575-.007a9.93616,9.93616,0,0,0,.03283-18.87408l-42.1184-14.0658a48.60519,48.60519,0,0,0-29.532-.40161l-12.25268,4.67572.047,46.3299,9.99085-2.60993c9.77441-2.97119,12.1167-.4021,21.82983,2.76325l11.54956,3.76379a131.68864,131.68864,0,0,0,16.72681,2.5885c.06421.00537.12842.011.19263.01618q.99737.0801,2.00049.13781c.06677.00379.13293.007.1997.01056,1.32031.07221,2.63684.11072,3.928.10633.07715-.00019.15369-.00092.23059-.00153,1.23523-.00916,2.44177-.05975,3.60071-.15967q.14154-.012.28186-.02521a28.77642,28.77642,0,0,0,3.13391-.45739q.17286-.03571.34229-.07343c.47229-.10559.93457-.21948,1.3717-.35236l44.17419-13.42834,11.33924-3.4469c.12951-.03937.25134-.092.37805-.13605l8.84619-2.68914A9.93542,9.93542,0,0,0,168.70532,161.69592Z"/><path class="cls-4" d="M150.06152,167.37292a11.95432,11.95432,0,0,0-14.90332-7.95306l-21.62011,6.57129a12.09931,12.09931,0,0,0,.48877-1.2392,11.94547,11.94547,0,0,0-7.56446-15.1026L64.34375,135.583a50.3385,50.3385,0,0,0-30.74707-.417l-13.67285,5.21192.05127,50.2959,12.56982-3.2851c7.12891-2.167,9.71582-1.20611,15.38477.89649,1.50732.55951,3.21631,1.19329,5.24414,1.85437l11.54931,3.76373.19288.05279c4.7915,1.0459,14.5747,2.916,23.23242,2.916a34.67648,34.67648,0,0,0,9.78467-1.167l44.17431-13.42871a11.94492,11.94492,0,0,0,7.9541-14.90345Zm-4.41894,7.21595a7.89694,7.89694,0,0,1-4.69922,3.86126L96.77,191.87885c-8.71631,2.64752-25.729-.68549-30.90332-1.80958l-11.45361-3.73242c-1.95118-.63568-3.62012-1.25488-5.09229-1.80169-5.9375-2.20221-9.52246-3.53131-17.86279-.99518l-7.4878,1.956-.04345-42.36432,10.89892-4.15905a46.34549,46.34549,0,0,1,28.251.40521l42.12109,14.0664a7.94523,7.94523,0,0,1-5.01269,15.07911l-27.68311-9.20215-1.26172,3.79492,27.68262,9.20221a11.84368,11.84368,0,0,0,7.48.0224l29.91944-9.09473a7.945,7.945,0,0,1,9.32031,11.34284Z"/><path class="cls-4" d="M161.40137,163.92767a11.94427,11.94427,0,0,0-14.90332-7.955l-11.33985,3.4472,1.16407,3.82617,11.33984-3.44726a7.94543,7.94543,0,0,1,4.62109,15.2041L96.77,191.87787c-9.90869,3.01471-30.76465-1.77539-30.97412-1.82422l-.90625,3.89648c.67041.15619,12.67627,2.91211,23.26611,2.91211a34.764,34.764,0,0,0,9.77735-1.15716l55.51318-16.875a11.94394,11.94394,0,0,0,7.95508-14.90241Z"/><path class="cls-4" d="M170.61816,161.11426a11.943,11.943,0,0,0-14.89062-7.94733L118.064,164.61615l1.16309,3.82617,37.66455-11.44916a7.9352,7.9352,0,1,1,4.61524,15.18451l-17.48145,5.31446,1.16406,3.82623,17.48145-5.31451a11.93373,11.93373,0,0,0,7.94726-14.88959Z"/></svg>