<svg id="Layer_1" data-name="Layer 1" xmlns="http://www.w3.org/2000/svg" viewBox="0 0 256 256"><defs><style>.cls-1{fill:#84d1da;}.cls-2{fill:#ceecf3;}.cls-3{fill:#616363;}.cls-4{fill:#fcb856;}.cls-5{fill:#fff;}</style></defs><title>-</title><circle class="cls-1" cx="135.47186" cy="128.00003" r="82.44038" transform="translate(-50.8309 133.28341) rotate(-45)"/><path class="cls-2" d="M169.57861,76.21094a64.90084,64.90084,0,0,0-89.5813,19.98913l-.66479,1.04676a21.63371,21.63371,0,1,1,36.52295,23.19793,21.63365,21.63365,0,1,1,36.52283,23.19788,21.63366,21.63366,0,1,1,36.52282,23.19794l.665-1.04682A64.90276,64.90276,0,0,0,169.57861,76.21094Z"/><path class="cls-3" d="M109.9325,88.89545a23.63478,23.63478,0,0,0-32.6211,7.27929l3.37683,2.14453a19.63358,19.63358,0,0,1,33.14649,21.0528l3.37707,2.14447A23.66179,23.66179,0,0,0,109.9325,88.89545Z"/><path class="cls-3" d="M156.85034,126.89642a23.63375,23.63375,0,0,0-43.01562-7.52435l3.37707,2.14447a19.63341,19.63341,0,1,1,33.14551,21.05371l3.37683,2.14447A23.47763,23.47763,0,0,0,156.85034,126.89642Z"/><path class="cls-3" d="M182.97839,135.291a23.665,23.665,0,0,0-32.62109,7.2793l3.37683,2.14447a19.63386,19.63386,0,1,1,33.14649,21.05383l3.37707,2.14447A23.66276,23.66276,0,0,0,182.97839,135.291Z"/><path class="cls-3" d="M170.31812,74.52246a66.90088,66.90088,0,0,0-92.3418,20.60541l3.37707,2.14459A62.90072,62.90072,0,1,1,187.5448,164.72162l3.37683,2.14453A66.979,66.979,0,0,0,170.31812,74.52246Z"/><rect class="cls-3" x="167.46303" y="70.96609" width="7.68783" height="4.00032" transform="translate(17.86576 178.44585) rotate(-57.57671)"/><path class="cls-3" d="M143.69031,112.71771,93.84363,191.957a5.42242,5.42242,0,1,1-9.15442-5.81439l3.59778-5.6651L84.90991,178.333l-3.59753,5.665a9.4272,9.4272,0,0,0,7.93554,14.4776,9.45415,9.45415,0,0,0,7.97742-4.38085l49.85169-79.247Z"/><path class="cls-3" d="M168.65808,74.20508c-30.40039,0-53.90735,43.43646-54.89929,45.29877l3.529,1.88177c.23255-.43445,23.36719-43.18054,51.378-43.18054.17871,0,.36133.00189.541.0058l.078-4C169.07507,74.207,168.86694,74.20508,168.65808,74.20508Z"/><path class="cls-3" d="M171.03882,75.32513,167.453,77.09668c12.51367,25.33588-16.71289,64.95117-17.00988,65.34857l3.2041,2.39447C154.9198,143.13867,184.63953,102.86127,171.03882,75.32513Z"/><circle class="cls-4" cx="148.23959" cy="179.40503" r="21.93113" transform="translate(-57.3713 70.3853) rotate(-22.50002)"/><path class="cls-3" d="M148.24011,155.47357a23.93116,23.93116,0,1,0,23.93067,23.9317A23.95832,23.95832,0,0,0,148.24011,155.47357Zm0,43.86231a19.93116,19.93116,0,1,1,19.93067-19.93061A19.95351,19.95351,0,0,1,148.24011,199.33588Z"/><path class="cls-5" d="M148.73779,177.94934c-2.57959-.84491-4.45044-1.5542-4.45044-3.48529,0-1.81049,1.50867-2.82123,3.66577-2.82123a9.59425,9.59425,0,0,1,5.20521,1.82532l1.55334-1.91589a12.63955,12.63955,0,0,0-5.26514-2.24781v-4.04358h-2.0664v3.90778c-3.772.18134-5.8689,2.45953-5.8689,5.46161,0,3.68127,3.07764,4.73749,6.457,5.82367,2.85156.89014,4.63086,1.62921,4.63086,3.84662,0,1.94629-1.689,3.078-3.967,3.078a8.77655,8.77655,0,0,1-5.95959-2.56482l-1.61414,1.93115a10.77253,10.77253,0,0,0,6.32129,3.03235v3.77216h2.06689v-3.7417c3.75647-.30152,5.97425-2.51935,5.97425-5.6723v-.00055C155.42078,180.16724,152.53931,179.15656,148.73779,177.94934Z"/><circle class="cls-4" cx="89.41306" cy="134.20445" r="17.74106" transform="matrix(0.98196, -0.18911, 0.18911, 0.98196, -23.76568, 19.33016)"/><path class="cls-3" d="M89.41284,114.46387A19.74069,19.74069,0,1,0,109.15417,134.204,19.76287,19.76287,0,0,0,89.41284,114.46387Zm0,35.48138A15.74069,15.74069,0,1,1,105.15417,134.204,15.75918,15.75918,0,0,1,89.41284,149.94525Z"/><path class="cls-5" d="M89.81616,133.02686c-2.08691-.68354-3.60034-1.25721-3.60034-2.8194,0-1.4646,1.22046-2.28223,2.96545-2.28223a7.76131,7.76131,0,0,1,4.21082,1.4765l1.25635-1.5498a10.22265,10.22265,0,0,0-4.259-1.81836v-3.271H88.71777v3.1612c-3.05139.14666-4.74756,1.98956-4.74756,4.41809,0,2.978,2.48951,3.8324,5.22339,4.71112,2.30689.72,3.7461,1.31787,3.7461,3.11169,0,1.5744-1.36646,2.48987-3.20923,2.48987a7.10019,7.10019,0,0,1-4.821-2.07483l-1.30554,1.56214a8.71363,8.71363,0,0,0,5.11353,2.45312v3.05139h1.672v-3.02679c3.0387-.2439,4.83289-2.038,4.83289-4.58863v-.00036C95.22229,134.82092,92.89136,134.00348,89.81616,133.02686Z"/><circle class="cls-4" cx="53.03149" cy="162.03577" r="12.94388"/><path class="cls-3" d="M53.03113,147.09174a14.94385,14.94385,0,1,0,14.94421,14.94433A14.96045,14.96045,0,0,0,53.03113,147.09174Zm0,25.88769a10.94385,10.94385,0,1,1,10.94421-10.94336A10.95559,10.95559,0,0,1,53.03113,172.97943Z"/><path class="cls-5" d="M53.32544,161.17664c-1.52246-.49878-2.62647-.9173-2.62647-2.05707,0-1.06861.89039-1.6651,2.16346-1.6651a5.66278,5.66278,0,0,1,3.07214,1.07727l.91675-1.1308a7.46021,7.46021,0,0,0-3.10742-1.32666v-2.38654H52.52417v2.3064c-2.22632.107-3.46375,1.4516-3.46375,3.22351,0,2.17267,1.81629,2.79608,3.81092,3.4372,1.6831.52533,2.73315.96148,2.73315,2.27032,0,1.14868-.99682,1.81659-2.34131,1.81659a5.18009,5.18009,0,0,1-3.51745-1.51379l-.95264,1.13977a6.35791,6.35791,0,0,0,3.73084,1.78979v2.22632h1.22v-2.20837c2.217-.17792,3.526-1.48694,3.526-3.3479v-.00025C57.2699,162.48553,55.56921,161.889,53.32544,161.17664Z"/></svg>