<svg id="Layer_1" data-name="Layer 1" xmlns="http://www.w3.org/2000/svg" viewBox="0 0 256 256"><defs><style>.cls-1{fill:#84d1da;}.cls-2{fill:#616363;}.cls-3{fill:#fff;}.cls-4{fill:#fcb856;}</style></defs><title>-</title><path class="cls-1" d="M21.69214,185.78564A20.18944,20.18944,0,0,0,41.88147,205.975H214.11853a20.18936,20.18936,0,0,0,20.18933-20.18934Z"/><path class="cls-1" d="M55.67865,63.38812H200.32129A13.25366,13.25366,0,0,1,213.575,76.64178v95.89014a13.25372,13.25372,0,0,1-13.25372,13.25372H55.67871A13.25366,13.25366,0,0,1,42.425,172.532V76.64172A13.2536,13.2536,0,0,1,55.67865,63.38812Z"/><path class="cls-2" d="M200.32129,61.38763H105.0918v4h95.22949a11.26717,11.26717,0,0,1,11.25391,11.254v95.89057a11.26623,11.26623,0,0,1-11.25391,11.25293H55.67871a11.26581,11.26581,0,0,1-11.25342-11.25293V76.64166a11.26675,11.26675,0,0,1,11.25342-11.254H68.31689v-4H55.67871a15.271,15.271,0,0,0-15.25342,15.254v95.89057a15.27079,15.27079,0,0,0,15.25342,15.25293H200.32129a15.27089,15.27089,0,0,0,15.25391-15.25293V76.64166A15.27113,15.27113,0,0,0,200.32129,61.38763Z"/><path class="cls-2" d="M203.24414,183.78516v4h28.9541a18.21648,18.21648,0,0,1-18.08008,16.18951H41.88135a18.21564,18.21564,0,0,1-18.07959-16.18951H52.29834v-4h-32.606v2a22.21443,22.21443,0,0,0,22.189,22.18951H214.11816a22.21454,22.21454,0,0,0,22.18946-22.18951v-2Z"/><rect class="cls-3" x="60.99854" y="80.44897" width="134.00293" height="87.92407"/><path class="cls-2" d="M128.041,88.77246a35.63871,35.63871,0,1,0,35.63867,35.63867A35.67928,35.67928,0,0,0,128.041,88.77246Zm0,67.27741a31.63871,31.63871,0,1,1,31.63867-31.63874A31.67505,31.67505,0,0,1,128.041,156.04987Z"/><path class="cls-2" d="M128.041,88.77246c-8.48291,0-12.92139,17.92865-12.92139,35.63867s4.43848,35.63874,12.92139,35.63874c8.48242,0,12.91992-17.92884,12.91992-35.63874S136.52344,88.77246,128.041,88.77246Zm0,67.27741c-3.6377,0-8.92139-12.3252-8.92139-31.63874s5.28369-31.63867,8.92139-31.63867c3.63671,0,8.91992,12.3252,8.91992,31.63867S131.67773,156.04987,128.041,156.04987Z"/><path class="cls-2" d="M151.15625,100.29688c-.30859.38085-7.72754,9.32617-23.15625,9.32617-15.42188,0-22.76074-8.9375-23.06592-9.31842l-1.56286,1.24353-1.57142,1.2409c.34913.44239,8.75733,10.834,26.2002,10.834,17.43555,0,25.9248-10.38379,26.27832-10.8252Z"/><path class="cls-2" d="M128.084,135.25787c-17.43652,0-25.92529,10.38275-26.27783,10.82416l3.126,2.49609c.07422-.09374,7.61963-9.32025,23.15185-9.32025,15.42188,0,22.76075,8.93647,23.06543,9.31726l3.13477-2.48529C153.93457,145.64844,145.52637,135.25787,128.084,135.25787Z"/><rect class="cls-2" x="94.40186" y="122.41113" width="67.27783" height="4"/><circle class="cls-4" cx="86.70453" cy="68.41278" r="18.38752" transform="translate(-19.58047 38.38809) rotate(-22.50005)"/><path class="cls-2" d="M86.70459,48.02533A20.38727,20.38727,0,1,0,107.0918,68.413,20.41062,20.41062,0,0,0,86.70459,48.02533Zm0,36.77454A16.38727,16.38727,0,1,1,103.0918,68.413,16.40555,16.40555,0,0,1,86.70459,84.79987Z"/><path class="cls-3" d="M87.12219,67.19226c-2.16272-.70843-3.73132-1.303-3.73132-2.92212,0-1.518,1.26489-2.36542,3.07349-2.36542a8.04383,8.04383,0,0,1,4.364,1.5304l1.30225-1.60638a10.59733,10.59733,0,0,0-4.41431-1.88459V56.554H85.98389v3.27636c-3.1626.152-4.92066,2.06214-4.92066,4.5791,0,3.08655,2.58032,3.97211,5.41382,4.88269,2.39075.74634,3.88257,1.366,3.88257,3.22516,0,1.63178-1.41614,2.58057-3.32617,2.58057a7.35857,7.35857,0,0,1-4.99658-2.15039l-1.35328,1.61908a9.03265,9.03265,0,0,0,5.29993,2.54254v3.16248h1.73279V77.13446c3.14941-.25269,5.009-2.11218,5.009-4.7558v-.0003C92.72534,69.05176,90.30933,68.20435,87.12219,67.19226Z"/><path class="cls-4" d="M109.57031,185.78564a10.0946,10.0946,0,0,0,10.09461,10.09461h16.67016a10.0946,10.0946,0,0,0,10.09461-10.09461Z"/><path class="cls-2" d="M107.57031,183.78516v2A12.10851,12.10851,0,0,0,119.665,197.87982H136.335a12.10851,12.10851,0,0,0,12.09473-12.09466v-2ZM136.335,193.87982H119.665a8.10967,8.10967,0,0,1-7.84473-6.09466h32.35938A8.10967,8.10967,0,0,1,136.335,193.87982Z"/></svg>