<svg id="Layer_1" data-name="Layer 1" xmlns="http://www.w3.org/2000/svg" viewBox="0 0 256 256"><defs><style>.cls-1{fill:#616363;}.cls-2{fill:#fcb856;}.cls-3{fill:#84d1da;}</style></defs><title>-</title><rect class="cls-1" x="100.25921" y="172.22685" width="45.42103" height="4.0004" transform="translate(-81.94516 233.27371) rotate(-70.85994)"/><path class="cls-2" d="M119.61505,183.811a12.55651,12.55651,0,1,0,7.76642,15.95263A12.55542,12.55542,0,0,0,119.61505,183.811Z"/><path class="cls-1" d="M128.59955,189.29883a14.56877,14.56877,0,1,0,.67242,11.1167A14.43039,14.43039,0,0,0,128.59955,189.29883Zm-3.10877,9.813a10.53779,10.53779,0,0,1-13.40869,6.55029,10.542,10.542,0,0,1-6.52643-13.40967,10.5378,10.5378,0,0,1,13.4087-6.55029,10.54276,10.54276,0,0,1,6.52642,13.40967Z"/><circle class="cls-3" cx="131.58418" cy="124.01196" r="45.06538" transform="translate(-18.16543 22.67877) rotate(-9.21748)"/><path class="cls-1" d="M131.584,76.94678a47.06543,47.06543,0,1,0,47.06543,47.06543A47.11854,47.11854,0,0,0,131.584,76.94678Zm0,90.13086a43.06543,43.06543,0,1,1,43.06537-43.06543A43.11388,43.11388,0,0,1,131.584,167.07764Z"/><path class="cls-1" d="M141.2334,110.70312c-10.26611-11.688-21.833-21.03466-32.57031-26.31787-11.28034-5.55175-20.4726-5.99218-25.88184-1.23877-6.95459,6.10791-6.09229,19.62793,2.3056,36.16651l3.56641-1.81153c-7.4057-14.584-8.64447-26.59667-3.23236-31.35009,4.05615-3.56153,11.88428-2.89746,21.47607,1.82275,10.27692,5.05713,21.40381,14.06641,31.33155,25.36865,19.77343,22.51319,29.00195,48.10059,20.15185,55.874-4.14313,3.63965-12.16852,2.87646-22.02-2.09326l-1.80176,3.57128c6.336,3.19629,12.02295,4.80274,16.77741,4.80225a14.22822,14.22822,0,0,0,9.684-3.2749C171.86084,162.7002,163.16949,135.67773,141.2334,110.70312Z"/><path class="cls-1" d="M152.72406,70.105c-4.3559-2.63867-13.48431-.95459-22.497,7.37256l2.7143,2.93848c7.857-7.25928,15.2124-8.40186,17.71051-6.89014,7.38909,4.47607,3.85943,28.88232-13.02,56.74805s-36.87165,42.29638-44.26422,37.82275c-4.54444-2.75293-4.95954-12.64941-1.083-25.82764l-3.83789-1.1289c-4.5459,15.45507-3.50727,26.52734,2.84857,30.37744a9.81564,9.81564,0,0,0,5.17584,1.35937c11.61231-.00049,29.80316-16.13232,44.58161-40.53076C158.27637,103.91309,163.40289,76.57324,152.72406,70.105Z"/><path class="cls-1" d="M186.99023,101.189c-2.56-6.13574-10.26416-9.58837-21.69335-9.72265l-.04694,4c9.59131.1123,16.16949,2.75976,18.04889,7.26269,4.2583,10.209-14.25434,28.05811-40.42578,38.97705-13.15375,5.4878-26.3692,8.53418-37.211,8.57764-.076.00049-.15076.00049-.227.00049-9.96137,0-16.773-2.644-18.70166-7.26709-1.54541-3.70508.2569-8.01416,2.04095-10.97656l-3.42669-2.06348c-3.2417,5.3833-4.03907,10.42481-2.30567,14.58008,2.61865,6.27685,10.56586,9.727,22.39105,9.727.08161,0,.16364,0,.24524-.00049,11.353-.04541,25.10932-3.20117,38.73481-8.88623C173.55719,133.23877,192.25928,113.81982,186.99023,101.189Z"/><path class="cls-1" d="M170.34375,121.69043c-10.815-3.93652-25.24316-6.37109-40.62695-6.854-15.38282-.48389-29.936,1.0415-40.9765,4.29248C76.83209,122.63574,70.438,127.666,70.24951,133.67578c-.22021,6.9961,8.13288,13.24561,23.52008,17.59717l1.08881-3.84863c-12.86334-3.63819-20.76074-8.85791-20.61084-13.62305.12353-3.94043,5.96393-7.99121,15.6225-10.835,10.64361-3.13379,24.7481-4.60352,39.72119-4.13184,14.9707.47022,28.95764,2.81934,39.38434,6.61475,9.46093,3.44433,15.03564,7.853,14.91162,11.79394-.126,4.02246-6.16065,8.1294-16.14215,10.98584l1.10058,3.84571c12.08893-3.46,18.85065-8.68262,19.03961-14.70606C188.07422,131.3584,182.0083,125.937,170.34375,121.69043Z"/><rect class="cls-1" x="154.34881" y="73.61679" width="38.84" height="3.99981" transform="translate(-7.15281 132.01574) rotate(-40.83052)"/><rect class="cls-1" x="176.64935" y="120.25586" width="31.34772" height="4"/><rect class="cls-1" x="102.98806" y="60.50159" width="3.99996" height="26.06664" transform="translate(-22.15442 57.26636) rotate(-27.71619)"/><rect class="cls-1" x="173.83408" y="148.51749" width="4.00031" height="26.01581" transform="translate(-62.75961 170.53134) rotate(-44.73296)"/><rect class="cls-1" x="46.41119" y="118.1084" width="40.10736" height="4"/><path class="cls-2" d="M207.99731,112.71729a9.53845,9.53845,0,1,0,9.53833,9.53833A9.53842,9.53842,0,0,0,207.99731,112.71729Z"/><path class="cls-1" d="M207.99707,110.71729a11.53833,11.53833,0,1,0,11.53857,11.53857A11.55134,11.55134,0,0,0,207.99707,110.71729Zm0,19.07666a7.53833,7.53833,0,1,1,7.53857-7.53809A7.54634,7.54634,0,0,1,207.99707,129.794Z"/><path class="cls-2" d="M199.67749,52.72266a15.15731,15.15731,0,1,0-1.01782,21.41259A15.15711,15.15711,0,0,0,199.67749,52.72266Z"/><path class="cls-1" d="M201.15723,51.37744a17.15759,17.15759,0,1,0,4.44384,12.35742A17.19575,17.19575,0,0,0,201.15723,51.37744Zm-3.84278,21.27783a13.158,13.158,0,1,1,4.291-9.11035A13.12462,13.12462,0,0,1,197.31445,72.65527Z"/><path class="cls-2" d="M100.64539,50.7a7.95541,7.95541,0,1,0,0,11.25073A7.9559,7.9559,0,0,0,100.64539,50.7Z"/><path class="cls-1" d="M102.06006,49.28613a9.95567,9.95567,0,1,0,2.91553,7.03955A9.891,9.891,0,0,0,102.06006,49.28613ZM99.23151,60.53662a5.95611,5.95611,0,1,1,1.74408-4.21094A5.9174,5.9174,0,0,1,99.23151,60.53662Z"/><path class="cls-2" d="M190.614,165.1416a7.95525,7.95525,0,1,0,0,11.25073A7.9556,7.9556,0,0,0,190.614,165.1416Z"/><path class="cls-1" d="M192.02832,163.72754a9.95484,9.95484,0,1,0,.00049,14.0791A9.88988,9.88988,0,0,0,192.02832,163.72754ZM189.2002,174.978a5.95605,5.95605,0,1,1-.00049-8.42237A5.91451,5.91451,0,0,1,189.2002,174.978Z"/><path class="cls-2" d="M46.52527,112.11377a7.99547,7.99547,0,1,0,7.83179,8.11426A7.96334,7.96334,0,0,0,46.52527,112.11377Z"/><path class="cls-1" d="M46.55566,110.11377l-.15136-.001a9.99589,9.99589,0,0,0-.13721,19.98975l.1524.001a9.99589,9.99589,0,0,0,.13617-19.98975Zm-.13617,15.98975-.09179-.001a5.99516,5.99516,0,0,1,.166-11.98877h.00141a5.99575,5.99575,0,0,1-.07557,11.98975Z"/></svg>