<svg id="Layer_1" data-name="Layer 1" xmlns="http://www.w3.org/2000/svg" viewBox="0 0 256 256"><defs><style>.cls-1{fill:#fff;}.cls-2{fill:#616363;}.cls-3{fill:#ceecf3;}.cls-4{fill:#84d1da;}</style></defs><title>-</title><polygon class="cls-1" points="195.53 83.48 127.343 172.271 143.137 172.271 210.153 83.48 195.53 83.48"/><polygon class="cls-2" points="107.729 135.219 89.305 154.291 75.514 142.375 49.288 169.265 52.151 172.058 75.749 147.863 89.553 159.791 110.606 137.998 107.729 135.219"/><polygon class="cls-2" points="97.392 133.608 97.392 137.608 109.167 137.608 109.167 148.926 113.167 148.926 113.167 133.608 97.392 133.608"/><path class="cls-1" d="M145.61816,83.48047a16.04529,16.04529,0,1,0,16.04541,16.04541A16.04538,16.04538,0,0,0,145.61816,83.48047Zm0,20.75854a4.71326,4.71326,0,1,1,4.71351-4.71313A4.71329,4.71329,0,0,1,145.61816,104.239Z"/><path class="cls-1" d="M194.10742,140.42847a16.04529,16.04529,0,1,0,16.04541,16.04541A16.04541,16.04541,0,0,0,194.10742,140.42847Zm0,20.65527a4.61,4.61,0,1,1,4.61011-4.60986A4.60984,4.60984,0,0,1,194.10742,161.08374Z"/><path class="cls-2" d="M194.54443,81.48047l-71.25976,92.79H144.1333l70.03516-92.79Zm-52.40332,88.79H131.3999l65.11524-84.79h9.62207Z"/><path class="cls-2" d="M145.61865,81.48047a18.04541,18.04541,0,1,0,18.04492,18.0459A18.06679,18.06679,0,0,0,145.61865,81.48047Zm0,32.09082a14.04541,14.04541,0,1,1,14.04492-14.04492A14.06137,14.06137,0,0,1,145.61865,113.57129Zm0-20.75879a6.71338,6.71338,0,1,0,6.71289,6.71387A6.72132,6.72132,0,0,0,145.61865,92.8125Zm0,9.42676a2.71338,2.71338,0,1,1,2.71289-2.71289A2.71654,2.71654,0,0,1,145.61865,102.23926Z"/><circle class="cls-3" cx="61.26831" cy="109.15887" r="17.43692"/><path class="cls-2" d="M61.26807,89.72168a19.437,19.437,0,1,0,19.4375,19.4375A19.45881,19.45881,0,0,0,61.26807,89.72168Zm0,34.874a15.437,15.437,0,1,1,15.4375-15.43652A15.454,15.454,0,0,1,61.26807,124.5957Z"/><circle class="cls-1" cx="92.69681" cy="105.03809" r="21.55762" transform="translate(-20.96419 186.9336) rotate(-84.34505)"/><circle class="cls-4" cx="92.69681" cy="105.03809" r="21.55762" transform="translate(-20.96419 186.9336) rotate(-84.34505)"/><path class="cls-2" d="M92.69678,81.48047a23.55762,23.55762,0,1,0,23.55761,23.55762A23.58489,23.58489,0,0,0,92.69678,81.48047Zm0,43.11523a19.55762,19.55762,0,1,1,19.55761-19.55761A19.57967,19.57967,0,0,1,92.69678,124.5957Z"/><path class="cls-2" d="M194.10693,138.42871a18.04541,18.04541,0,1,0,18.0459,18.04492A18.06512,18.06512,0,0,0,194.10693,138.42871Zm0,32.09082a14.04541,14.04541,0,1,1,14.0459-14.0459A14.06136,14.06136,0,0,1,194.10693,170.51953Zm0-20.65625a6.61035,6.61035,0,1,0,6.61036,6.61035A6.61755,6.61755,0,0,0,194.10693,149.86328Zm0,9.2207a2.61035,2.61035,0,1,1,2.61036-2.61035A2.613,2.613,0,0,1,194.10693,159.084Z"/><rect class="cls-2" x="90.69678" y="94.15137" width="4" height="21.77344"/><rect class="cls-2" x="81.81006" y="103.03809" width="21.77344" height="4"/><rect class="cls-2" x="52.4624" y="107.1582" width="17.61133" height="4"/></svg>