<svg id="Layer_1" data-name="Layer 1" xmlns="http://www.w3.org/2000/svg" viewBox="0 0 256 256"><defs><style>.cls-1{fill:#616363;}.cls-2{fill:#fcb856;}.cls-3{fill:#ceecf3;}.cls-4{fill:#84d1da;}</style></defs><title>-</title><polygon class="cls-1" points="198.75 94.911 198.75 98.911 217.238 98.912 217.237 116.947 221.237 116.947 221.238 94.912 198.75 94.911"/><path class="cls-2" d="M77.52539,134.41235l49.635-56.98413a66.66718,66.66718,0,1,0,.56885,113.6156Z"/><path class="cls-1" d="M80.1875,134.40112l50.03906-57.44751-2.02636-1.2334A68.6729,68.6729,0,0,0,53.89844,191.17749c.52734.37195,13.09277,9.15125,28.168,11.10535a81.30645,81.30645,0,0,0,10.47558.795,68.5146,68.5146,0,0,0,36.24414-10.33606l2.01172-1.25183ZM92.542,199.07788a77.64393,77.64393,0,0,1-9.96191-.76184c-14.06543-1.82312-26.25293-10.32117-26.40137-10.4248A64.67485,64.67485,0,0,1,124.06445,77.937L74.86328,134.42444l49.76856,56.13977A64.537,64.537,0,0,1,92.542,199.07788Z"/><path class="cls-3" d="M144.28186,92.38818,107.707,134.33276l36.98438,41.592a66.61889,66.61889,0,0,0-.40955-83.53662Z"/><path class="cls-2" d="M167.188,65.353c-4.2417-1.38941-7.31812-2.55567-7.31812-5.731,0-2.97729,2.48072-4.63916,6.02784-4.63916a15.775,15.775,0,0,1,8.55932,3.00147l2.5542-3.15064a20.781,20.781,0,0,0-8.65771-3.696V44.48853h-3.398v6.42578c-6.20264.29809-9.65064,4.04443-9.65064,8.98071,0,6.05371,5.06079,7.79053,10.61768,9.57666,4.68921,1.46338,7.615,2.679,7.615,6.3252,0,3.20043-2.77759,5.06127-6.52368,5.06127a14.43243,14.43243,0,0,1-9.79956-4.21753l-2.65406,3.1753a17.71417,17.71417,0,0,0,10.39453,4.98657v6.20264h3.39869V84.85254c6.177-.49585,9.82385-4.14258,9.82385-9.32764v-.00049C178.17737,69,173.43921,67.33813,167.188,65.353Z"/><polygon class="cls-1" points="216.084 95.665 176.651 145.156 106.735 145.156 73.854 187.006 76.999 189.476 108.679 149.156 178.579 149.156 219.213 98.157 216.084 95.665"/><path class="cls-1" d="M145.78125,91.06519l-1.50781-1.709L105.042,134.34534l39.71582,44.66418,1.48438-1.82239a60.59813,60.59813,0,0,0,10.18261-17.71081c4.1377-8.97669,4.71875-22.29,4.74122-22.85059C162.292,110.0896,146.45605,91.82861,145.78125,91.06519Zm11.38867,45.39453c-.00586.13086-.58008,13.19421-4.42187,21.4375l-.09278.2362a56.04993,56.04993,0,0,1-8.0625,14.6709L110.37207,134.32l33.834-38.80066C148.00488,100.63452,158.03125,116.1521,157.16992,136.45972Z"/><polygon class="cls-4" points="204.699 153.655 182.353 174.48 194.142 174.48 194.142 209.512 215.256 209.512 215.256 174.48 227.044 174.48 204.699 153.655"/><path class="cls-1" d="M204.69922,150.92053l-27.42481,25.55969H192.1416v35.03125h25.11426V176.48022h14.86719Zm8.55664,21.55969v35.03125H196.1416V172.48022h-8.709l17.2666-16.09082,17.26562,16.09082Z"/></svg>