<svg id="Layer_1" data-name="Layer 1" xmlns="http://www.w3.org/2000/svg" viewBox="0 0 256 256"><defs><style>.cls-1{fill:#ceecf3;}.cls-2{fill:#fcb856;}.cls-3{fill:#616363;}.cls-4{fill:#fff;}</style></defs><title>-</title><rect class="cls-1" x="10.68433" y="53.55804" width="173.96045" height="86.98029"/><path class="cls-2" d="M10.68433,53.558V74.70941A21.15141,21.15141,0,0,0,31.83569,53.558Z"/><path class="cls-2" d="M163.54053,53.558a21.15141,21.15141,0,0,0,21.15136,21.15137V53.558Z"/><path class="cls-2" d="M163.54053,140.13446h21.15136V118.98315A21.15132,21.15132,0,0,0,163.54053,140.13446Z"/><path class="cls-2" d="M10.68433,118.983v21.15143H31.83569A21.15142,21.15142,0,0,0,10.68433,118.983Z"/><path class="cls-3" d="M8.68457,51.55811v25.1513h2a23.17764,23.17764,0,0,0,23.15137-23.1513v-2Zm4,21.04785V55.55811H29.73242A19.18852,19.18852,0,0,1,12.68457,72.606Z"/><path class="cls-3" d="M161.541,51.55811v2a23.17764,23.17764,0,0,0,23.15136,23.1513h2V51.55811ZM182.69238,72.606a19.18852,19.18852,0,0,1-17.04785-17.04785h17.04785Z"/><path class="cls-3" d="M184.69141,116.98291A23.17684,23.17684,0,0,0,161.541,140.13422v2h25.15039V116.98291Zm-2,21.15131H165.64453a19.18743,19.18743,0,0,1,17.04688-17.04779Z"/><path class="cls-3" d="M10.68457,116.98291h-2v25.15131H33.83594v-2A23.17768,23.17768,0,0,0,10.68457,116.98291Zm2,21.15131V121.08643a19.1884,19.1884,0,0,1,17.04785,17.04779Z"/><path class="cls-3" d="M8.68457,51.55811v90.9804h177.96V51.55811Zm173.96,86.9804h-169.96V55.55811h169.96Z"/><circle class="cls-2" cx="97.66458" cy="97.0482" r="25.29129" transform="translate(-23.93243 32.46576) rotate(-16.84502)"/><path class="cls-3" d="M97.665,69.75732a27.291,27.291,0,1,0,27.291,27.291A27.32269,27.32269,0,0,0,97.665,69.75732Zm0,50.582a23.291,23.291,0,1,1,23.291-23.291A23.31815,23.31815,0,0,1,97.665,120.33936Z"/><rect class="cls-1" x="28.24573" y="69.01691" width="173.96057" height="86.98035"/><path class="cls-2" d="M28.24573,69.01691v21.1513A21.15127,21.15127,0,0,0,49.397,69.01691Z"/><path class="cls-2" d="M181.10193,69.01691a21.15141,21.15141,0,0,0,21.15149,21.1513V69.01691Z"/><path class="cls-2" d="M181.10193,155.59326l21.15124.00006V134.442A21.15136,21.15136,0,0,0,181.10193,155.59326Z"/><path class="cls-2" d="M28.24573,134.442v21.1513H49.397A21.15127,21.15127,0,0,0,28.24573,134.442Z"/><path class="cls-3" d="M26.24609,67.017V92.16846h2A23.17771,23.17771,0,0,0,51.39746,69.017v-2Zm4,21.04791V71.017H47.294A19.18853,19.18853,0,0,1,30.24609,88.06494Z"/><path class="cls-3" d="M179.10156,67.017v2a23.17771,23.17771,0,0,0,23.15137,23.15143h2V67.017Zm21.15137,21.04791A19.18852,19.18852,0,0,1,183.20508,71.017h17.04785Z"/><path class="cls-3" d="M202.25293,132.44183a23.17775,23.17775,0,0,0-23.15137,23.15143v2h25.15137V132.44183Zm-2,21.15143H183.20508a19.1884,19.1884,0,0,1,17.04785-17.04785Z"/><path class="cls-3" d="M28.24609,132.44183h-2v25.15143H51.39746v-2A23.17775,23.17775,0,0,0,28.24609,132.44183Zm2,21.15143V136.54541A19.18841,19.18841,0,0,1,47.294,153.59326Z"/><path class="cls-3" d="M26.24609,67.017v90.98053h177.96V67.017Zm173.96,86.98053h-169.96V71.017h169.96Z"/><circle class="cls-2" cx="115.22601" cy="112.50706" r="25.29146" transform="translate(-38.15 63.40848) rotate(-26.56511)"/><path class="cls-3" d="M115.22559,85.21533a27.29151,27.29151,0,1,0,27.292,27.292A27.32269,27.32269,0,0,0,115.22559,85.21533Zm0,50.583a23.29151,23.29151,0,1,1,23.292-23.291A23.31735,23.31735,0,0,1,115.22559,135.79834Z"/><rect class="cls-1" x="45.80713" y="84.47571" width="173.96045" height="86.98035"/><path class="cls-2" d="M45.80713,84.47571v21.15143A21.15142,21.15142,0,0,0,66.9585,84.47571Z"/><path class="cls-2" d="M198.66333,84.47571a21.15142,21.15142,0,0,0,21.15137,21.15143V84.47571Z"/><path class="cls-2" d="M198.66333,171.05212H219.8147v-21.1513A21.15135,21.15135,0,0,0,198.66333,171.05212Z"/><path class="cls-2" d="M45.80713,149.90076v21.15136H66.9585A21.1514,21.1514,0,0,0,45.80713,149.90076Z"/><path class="cls-3" d="M43.80762,82.476v25.15143h2A23.17691,23.17691,0,0,0,68.958,84.476v-2Zm4,21.04792V86.476H64.85449A19.18755,19.18755,0,0,1,47.80762,103.52393Z"/><path class="cls-3" d="M196.66309,82.476v2a23.17774,23.17774,0,0,0,23.15136,23.15143h2V82.476Zm21.15136,21.04792A19.18853,19.18853,0,0,1,200.7666,86.476h17.04785Z"/><path class="cls-3" d="M219.81445,147.90082a23.17774,23.17774,0,0,0-23.15136,23.15143v2h25.15136V147.90082Zm-2,21.15143H200.7666a19.18859,19.18859,0,0,1,17.04785-17.04792Z"/><path class="cls-3" d="M45.80762,147.90082h-2v25.15143H68.958v-2A23.17691,23.17691,0,0,0,45.80762,147.90082Zm2,21.15143V152.00433a19.18761,19.18761,0,0,1,17.04687,17.04792Z"/><path class="cls-3" d="M43.80762,82.476v90.98053h177.96V82.476Zm173.96,86.98053h-169.96V86.476h169.96Z"/><circle class="cls-2" cx="132.78745" cy="127.96593" r="25.29136" transform="translate(-47.444 88.92221) rotate(-31.71751)"/><path class="cls-3" d="M132.78711,100.67432a27.2915,27.2915,0,1,0,27.292,27.292A27.32269,27.32269,0,0,0,132.78711,100.67432Zm0,50.583a23.2915,23.2915,0,1,1,23.292-23.291A23.31735,23.31735,0,0,1,132.78711,151.25732Z"/><circle class="cls-4" cx="212.64893" cy="169.77496" r="32.66675"/><path class="cls-3" d="M212.64844,135.10791a34.667,34.667,0,1,0,34.667,34.66693A34.70564,34.70564,0,0,0,212.64844,135.10791Zm0,65.33392a30.667,30.667,0,1,1,30.667-30.667A30.70107,30.70107,0,0,1,212.64844,200.44183Z"/><polygon class="cls-2" points="199.238 153.193 196.492 156.102 211.077 169.869 211.077 188.286 215.077 188.286 215.077 168.144 199.238 153.193"/><polygon class="cls-2" points="226.916 153.193 211.077 168.144 211.077 188.286 215.077 188.286 215.077 169.869 229.662 156.102 226.916 153.193"/><rect class="cls-2" x="198.68115" y="166.67572" width="29.64648" height="4"/><rect class="cls-2" x="198.68115" y="176.65326" width="29.64648" height="4"/><polygon class="cls-4" points="122.358 116.335 120.288 118.527 131.28 128.903 131.28 142.782 134.295 142.782 134.295 127.603 122.358 116.335"/><polygon class="cls-4" points="143.217 116.335 131.28 127.603 131.28 142.782 134.295 142.782 134.295 128.903 145.287 118.527 143.217 116.335"/><rect class="cls-4" x="121.19922" y="126.49591" width="23.82104" height="3.01465"/><rect class="cls-4" x="121.19922" y="133.61414" width="23.82104" height="3.01459"/></svg>