<svg id="Layer_1" data-name="Layer 1" xmlns="http://www.w3.org/2000/svg" viewBox="0 0 256 256"><defs><style>.cls-1{fill:#fcb856;}.cls-2{fill:#616363;}.cls-3{fill:#84d1da;}.cls-4{fill:#fff;}</style></defs><title>-</title><path class="cls-1" d="M173.03918,155.88477l-.00012-.00025a9.93509,9.93509,0,0,0-12.39514-6.616l-9.23022,2.80591-11.33924,3.447L122.97925,160.718l-12.82385,3.89844-.02576-.00708a9.93625,9.93625,0,0,0,.033-18.87427L68.04419,131.66943a48.606,48.606,0,0,0-29.53223-.40161L26.2594,135.9436l.04712,46.32984,9.99084-2.60987c9.77417-2.97119,12.1167-.4021,21.82984,2.76319l11.54956,3.76367a131.65907,131.65907,0,0,0,16.7268,2.58862l.19263.01636q.99738.07983,2.00049.1377c.06665.00366.13293.00683.19971.01049,1.32031.07227,2.63684.1106,3.928.1062.077,0,.15356-.00073.23046-.00146,1.23536-.009,2.4419-.05957,3.60059-.15967q.14172-.01207.2821-.02514a28.76842,28.76842,0,0,0,3.13392-.45752q.17248-.03554.34216-.07325c.47241-.10571.93469-.21948,1.3717-.35254L145.8595,174.552l11.33923-3.447c.12964-.03931.25134-.0918.37817-.136l8.84607-2.6892A9.93505,9.93505,0,0,0,173.03918,155.88477Z"/><path class="cls-2" d="M154.396,161.563a11.94439,11.94439,0,0,0-14.90332-7.95508l-21.62207,6.57324a11.958,11.958,0,0,0-7.07422-16.34375L68.67822,129.772a50.31912,50.31912,0,0,0-30.748-.417L24.2583,134.56689l.05078,50.29493,12.57031-3.28516c7.125-2.166,9.71192-1.209,15.38282.89746,1.50781.55957,3.21679,1.19336,5.24511,1.85449l11.54981,3.76368.19336.05273c4.791,1.0459,14.57226,2.916,23.22949,2.916a34.65451,34.65451,0,0,0,9.78711-1.168l44.1748-13.42774A11.95852,11.95852,0,0,0,154.396,161.563Zm-9.11817,11.07617L101.103,186.06689c-8.7168,2.64747-25.72754-.68457-30.90235-1.80859l-11.45312-3.73242c-1.95215-.63672-3.62207-1.25586-5.09473-1.80176-5.93652-2.20215-9.51953-3.53223-17.86133-.99609l-7.48828,1.95605-.043-42.36328,10.89942-4.15918a46.3456,46.3456,0,0,1,28.251.40527l42.1211,14.06543a7.94569,7.94569,0,0,1-5.0127,15.08008l-27.68261-9.20215-1.26172,3.79493,27.68261,9.20214a11.84737,11.84737,0,0,0,7.47754.01465l.00293.00782,29.918-9.09473a7.94557,7.94557,0,1,1,4.62207,15.2041Z"/><path class="cls-2" d="M165.73486,158.11572a11.94279,11.94279,0,0,0-14.90332-7.9541l-11.33886,3.44629,1.16406,3.82617,11.33887-3.44629a7.94543,7.94543,0,1,1,4.62109,15.2041l-55.51367,16.875c-9.90528,3.00977-30.76367-1.77636-30.97266-1.82421l-.90625,3.89648c.66992.15527,12.67481,2.91211,23.26367,2.91211a34.74088,34.74088,0,0,0,9.7793-1.1582l55.51367-16.875A11.95774,11.95774,0,0,0,165.73486,158.11572Z"/><path class="cls-2" d="M174.95264,155.30225A11.94914,11.94914,0,0,0,160.062,147.356l-37.665,11.44922,1.16407,3.82617,37.665-11.44922a7.93523,7.93523,0,1,1,4.61524,15.18457l-17.48145,5.31445,1.16407,3.82617,17.48144-5.31445A11.94886,11.94886,0,0,0,174.95264,155.30225Z"/><path class="cls-3" d="M133.1405,92.57617a21.60454,21.60454,0,0,0-19.66784,12.68311H79.59106l-13.18481,7.95923v5.76831l12.23962,7.58007,6.54969-6.063h4.57568l6.1792,6.063,4.56775-4.41528,3.0581,2.7815h10.82044A21.611,21.611,0,1,0,133.1405,92.57617Z"/><path class="cls-4" d="M135.35205,122.25879a9.3969,9.3969,0,0,0-9.48,8.57031,9.17668,9.17668,0,0,0,.6001,3.92969,21.63893,21.63893,0,0,0,26.73-12.5Z"/><path class="cls-2" d="M133.14014,90.57568a23.67568,23.67568,0,0,0-20.916,12.6836H79.03467l-14.62891,8.83008v8.01171l14.48145,8.96778,7.09179-6.56543h2.97461l6.98633,6.85547,4.62012-4.46582,2.24316,2.04H113.273a23.61049,23.61049,0,1,0,19.86719-36.35743Zm0,43.23536a19.677,19.677,0,0,1-17.00879-9.874l-.57715-1.0039H104.3501l-3.874-3.52247-4.51464,4.36426-5.373-5.27148H84.4126l-6.00781,5.56152-9.999-6.19238v-3.52539L80.148,107.25928h34.61133l.5332-1.17188A19.61082,19.61082,0,1,1,133.14014,133.811Z"/><path class="cls-4" d="M216.46216,79.7688a52.49444,52.49444,0,0,1-24.53-6.0398c-6.3-3.33007-14.98-6.79028-23.79-6.79028a30.74029,30.74029,0,0,0-13.46,3.37036c-6.60986,3.22974-12.56006,8.29981-17.58008,13.1499-4.5498,4.38965-7.13989,6.93995-10.15991,10.02955a21.60278,21.60278,0,0,1,21.86011,5.8103c.70983-.67993,1.34973-1.28,1.77-1.66016,5.57971-5.07959,10.93981-9.18994,18.73-9.71A16.21837,16.21837,0,0,1,184.96216,97.229c2.65991,5.90967.99,13.25953-3.21008,18.02979-4.22,4.78-10.67005,7-16.93982,7H135.35205a9.3969,9.3969,0,0,0-9.48,8.57031,9.17751,9.17751,0,0,0,9.17017,9.7898H183.092a41.67851,41.67851,0,0,0,22.80005-7.05982,42.96417,42.96417,0,0,1,23.59009-7.04028h.26v-46.75Z"/><path class="cls-2" d="M216.4624,77.769a50.6766,50.6766,0,0,1-23.5957-5.80859c-6.05957-3.20313-15.26856-7.02149-24.72461-7.02149a32.75292,32.75292,0,0,0-14.33789,3.57325c-7.4502,3.63965-13.89356,9.45215-18.09082,13.50683-4.68359,4.51953-7.25781,7.06055-10.20117,10.07129l-5.42578,5.54981,7.43164-2.23633a19.60051,19.60051,0,0,1,19.834,5.27148l1.38281,1.457,1.4502-1.38964c.69433-.66407,1.31933-1.251,1.7334-1.625,5.01269-4.56348,10.124-8.7002,17.51562-9.19336a14.21848,14.21848,0,0,1,13.70508,8.126c2.21094,4.91114,1.02344,11.44434-2.88574,15.88379-3.54883,4.01953-9.17676,6.32422-15.44141,6.32422h-29.46a11.37655,11.37655,0,0,0-11.47559,10.43945,11.17675,11.17675,0,0,0,11.166,11.9209h48.04981a43.67472,43.67472,0,0,0,23.89746-7.38769,40.882,40.882,0,0,1,22.49218-6.71192h2.25977V77.769Zm11.2793,46.78321a44.84739,44.84739,0,0,0-22.94531,7.334,39.68537,39.68537,0,0,1-21.7041,6.73242H135.04248a7.17494,7.17494,0,0,1-7.17383-7.65918,7.3678,7.3678,0,0,1,7.4834-6.70117h29.46c7.41113,0,14.13281-2.79785,18.44141-7.67871,4.91406-5.581,6.36719-13.876,3.5332-20.1709a18.24452,18.24452,0,0,0-17.61816-10.47558c-8.67188.5791-14.60742,5.36914-19.94043,10.22363-.12012.10937-.25879.23633-.41114.377a23.86916,23.86916,0,0,0-16.165-5.95019c1.61523-1.59571,3.45019-3.38184,5.83984-5.68653,4.00293-3.86718,10.12793-9.40039,17.06641-12.79a28.79464,28.79464,0,0,1,12.584-3.168c8.63574,0,17.19531,3.56641,22.85547,6.5586A54.6972,54.6972,0,0,0,216.4624,81.769h11.2793Z"/><path class="cls-2" d="M139.52722,109.3147a4.87879,4.87879,0,1,0,4.87879,4.87866A4.87877,4.87877,0,0,0,139.52722,109.3147Z"/><rect class="cls-2" x="66.40576" y="111.21826" width="46.78809" height="4"/></svg>