<svg id="Layer_1" data-name="Layer 1" xmlns="http://www.w3.org/2000/svg" viewBox="0 0 256 256"><defs><style>.cls-1{fill:#84d1da;}.cls-2{fill:#fffcfd;}.cls-3{fill:#fcb856;}.cls-4{fill:#616363;}</style></defs><title>-</title><circle class="cls-1" cx="127.99994" cy="127.99994" r="80.25727" transform="translate(-25.9842 32.83244) rotate(-13.28251)"/><circle class="cls-2" cx="127.99994" cy="127.99988" r="64.57686" transform="translate(-39.23997 58.72675) rotate(-22.49996)"/><path class="cls-3" d="M129.3064,125.00879c-6.76514-2.21607-11.67163-4.07593-11.67163-9.14038,0-4.74829,3.95654-7.39893,9.61377-7.39893a25.1623,25.1623,0,0,1,13.651,4.78687l4.0736-5.02442a33.14238,33.14238,0,0,0-13.80786-5.895V91.73218h-5.41943v10.24853c-9.89258.47559-15.39148,6.4502-15.39148,14.32349,0,9.65454,8.07117,12.42456,16.934,15.27295,7.47852,2.33447,12.14478,4.273,12.14478,10.08813,0,5.1045-4.42969,8.07227-10.4043,8.07227a23.018,23.018,0,0,1-15.62915-6.72632l-4.233,5.06445a28.25175,28.25175,0,0,0,16.578,7.95264v9.89258h5.42065v-9.81275c9.85132-.79077,15.66785-6.60717,15.66785-14.87622v-.00122C146.83313,130.8252,139.27625,128.1748,129.3064,125.00879Z"/><path class="cls-4" d="M128,121.39429A6.60559,6.60559,0,1,0,134.60547,128,6.6056,6.6056,0,0,0,128,121.39429Z"/><rect class="cls-4" x="142.26633" y="122.0885" width="3.99957" height="46.00855" transform="translate(-60.34152 144.50824) rotate(-45)"/><rect class="cls-4" x="89.80811" y="125.99976" width="38.19141" height="4"/><rect class="cls-4" x="125.99951" y="69.82886" width="4" height="6.78711"/><rect class="cls-4" x="125.99951" y="180.17847" width="4" height="6.78711"/><rect class="cls-4" x="179.78076" y="126.39722" width="6.78711" height="4"/><rect class="cls-4" x="69.43115" y="126.39722" width="6.78711" height="4"/><path class="cls-4" d="M127.99951,45.74292a82.25708,82.25708,0,1,0,82.25781,82.25684A82.35016,82.35016,0,0,0,127.99951,45.74292Zm0,160.51416a78.25708,78.25708,0,1,1,78.25781-78.25732A78.34536,78.34536,0,0,1,127.99951,206.25708Z"/></svg>