<svg id="Layer_1" data-name="Layer 1" xmlns="http://www.w3.org/2000/svg" viewBox="0 0 256 256"><defs><style>.cls-1{fill:#84d1da;}.cls-2{fill:#616363;}.cls-3{fill:#fff;}.cls-4{fill:#fcb856;}</style></defs><title>-</title><path class="cls-1" d="M193.87134,149.8877l-15.50427-29.65625-.01331.01464a29.80833,29.80833,0,0,0-26.74243-16.64257H104.20142v.01025A29.81934,29.81934,0,0,0,77.48193,120.52L62.12866,149.8877l-28.28259.03076.15759,23.94092H78.45044l17.947-32.13575-.00928-.01074,2.09314-3.73926v73.29h58.99012v-73.29l2.02172,3.61231-.12182.13769,18.17846,32.13575h44.44654l.15771-23.94092Z"/><path class="cls-2" d="M195.08325,147.88867l-14.94336-28.584-1.32129-2.48731-.042.04492a31.59913,31.59913,0,0,0-27.165-15.25878H104.20142l-2,.01074v.07129a31.55983,31.55983,0,0,0-26.4917,17.9082l-14.793,28.29492-29.084.03223.18409,27.93848H79.62427l16.85693-30.1836v54.36231c-.00342.07812-.00293.15332,0,.22949v12.99609h62.98975V145.96191L176.384,175.85938h47.59961l.18457-27.93848ZM220.009,171.85938h-41.293l-16.90039-29.87793.11719-.13184-6.46191-11.542v78.95605H100.4812v-8.8623c.00391-.08106.00342-.16114,0-.23926V130.30469l-3.74512,6.69238-2.769,4.97461.001.001L77.27661,171.85938H35.99048L35.85913,151.917l27.48145-.03027,15.94384-30.499a27.64185,27.64185,0,0,1,24.92774-15.77344l47.39941-.01074a27.65674,27.65674,0,0,1,24.94824,15.52734l1.29493,2.58105.04785-.05175,14.75683,28.22656,27.48145.03027Z"/><path class="cls-3" d="M126.85669,44.73657h-.00012a23.87464,23.87464,0,1,0,0,47.74927h.00012a23.87464,23.87464,0,0,0,0-47.74927Z"/><path class="cls-2" d="M126.85669,42.73633a25.875,25.875,0,1,0,25.875,25.875A25.90423,25.90423,0,0,0,126.85669,42.73633Zm0,47.75a21.875,21.875,0,1,1,21.875-21.875A21.9,21.9,0,0,1,126.85669,90.48633Z"/><polygon class="cls-4" points="115.091 103.606 125.02 115.258 131.49 115.258 142.195 103.606 115.091 103.606"/><polygon class="cls-4" points="131.49 115.257 125.02 115.257 120.173 157.436 128.255 163.96 136.337 157.436 131.49 115.257"/><path class="cls-2" d="M110.759,101.60645l13.33741,15.65136h8.27294l14.37891-15.65136Zm19.85254,11.65136h-4.66845l-6.52-7.65136h18.21777Z"/><path class="cls-2" d="M133.27368,113.25781H123.23657l-5.17627,45.04395,10.19483,8.22851,10.19433-8.22851Zm-10.98779,43.31348,4.51709-39.31348h2.9043l4.51757,39.31348-5.96972,4.81836Z"/><path class="cls-3" d="M224.34741,149.88818l-12.19385-.00024-.00012,23.95068,12.17346.021a11.98573,11.98573,0,1,0,.02051-23.97144Z"/><path class="cls-2" d="M224.34692,147.88867l-14.19336-.001v27.94824l14.19434.02344a13.98536,13.98536,0,1,0-.001-27.97071Zm.001,23.97071v2l-.01855-2-10.17579-.01758V151.8877l10.19336.001a9.98536,9.98536,0,1,1,.001,19.97071Z"/><path class="cls-3" d="M43.84656,149.88794l-12.19373.00024a11.98573,11.98573,0,1,0,.02051,23.97144l12.17334-.021Z"/><path class="cls-2" d="M31.65308,147.88867a13.98536,13.98536,0,1,0-.00147,27.97071l14.19483-.02344V147.8877ZM41.84644,171.8418l-10.17676.01758-.01807,2v-2a9.98536,9.98536,0,1,1,.00147-19.97071l10.19336-.001Z"/><path class="cls-4" d="M40.54419,112.978c-4.03906-1.32276-6.96826-2.43311-6.96826-5.45655,0-2.835,2.36206-4.41748,5.73962-4.41772a15.01909,15.01909,0,0,1,8.1499,2.85718l2.432-3a19.78559,19.78559,0,0,0-8.24365-3.5188v-6.3313l-3.23548.00024v6.11866c-5.906.28418-9.189,3.85156-9.189,8.552,0,5.76416,4.8186,7.41772,10.11,9.11792,4.46484,1.39331,7.25073,2.55054,7.25073,6.02222,0,3.0476-2.64478,4.81982-6.21167,4.81982a13.74026,13.74026,0,0,1-9.33106-4.01514l-2.5271,3.02393a16.8655,16.8655,0,0,0,9.89746,4.74731v5.906l3.23609-.00025v-5.85839c5.88159-.47242,9.35412-3.94532,9.35412-8.88208v-.00074C51.00793,116.45,46.49634,114.86768,40.54419,112.978Z"/><path class="cls-4" d="M213.77954,112.978c-4.03906-1.32276-6.96826-2.43311-6.96826-5.45655,0-2.835,2.36218-4.41748,5.73975-4.41772a15.01978,15.01978,0,0,1,8.1499,2.85718l2.432-3a19.78537,19.78537,0,0,0-8.24377-3.5188v-6.3313l-3.23535.00024v6.11866c-5.906.28418-9.18909,3.85156-9.18909,8.552,0,5.76416,4.81861,7.41772,10.11,9.11792,4.46484,1.39331,7.25073,2.55054,7.25073,6.02222,0,3.0476-2.64478,4.81982-6.21167,4.81982a13.74073,13.74073,0,0,1-9.33106-4.01514l-2.52709,3.02393a16.86583,16.86583,0,0,0,9.89746,4.74731v5.906l3.23608-.00025v-5.85839c5.88171-.47242,9.35425-3.94532,9.35425-8.88208v-.00074C224.24341,116.45,219.73169,114.86768,213.77954,112.978Z"/></svg>