<svg id="Layer_1" data-name="Layer 1" xmlns="http://www.w3.org/2000/svg" viewBox="0 0 256 256"><defs><style>.cls-1{fill:#fcb856;}.cls-2{fill:#616363;}.cls-3{fill:#ceecf3;}.cls-4{fill:#84d1da;}</style></defs><title>-</title><rect class="cls-1" x="90.09583" y="38.52783" width="104.59802" height="178.94495" rx="12.71997" ry="12.71997"/><path class="cls-2" d="M181.97412,36.52734H102.816A14.73707,14.73707,0,0,0,88.09576,51.24805V152.252h4V51.24805A10.73276,10.73276,0,0,1,102.816,40.52734h79.15814a10.73269,10.73269,0,0,1,10.71973,10.72071V204.75293a10.73186,10.73186,0,0,1-10.71973,10.71973H107.03564v4h74.93848a14.73644,14.73644,0,0,0,14.71973-14.71973V51.24805A14.73665,14.73665,0,0,0,181.97412,36.52734Z"/><rect class="cls-3" x="104.22815" y="58.55493" width="76.33337" height="128.04797"/><path class="cls-4" d="M143.19476,120.2417c-4.14172-1.35669-7.1455-2.49536-7.1455-5.59595,0-2.907,2.42218-4.52954,5.88562-4.52954a15.4045,15.4045,0,0,1,8.3573,2.93042l2.49389-3.076a20.29258,20.29258,0,0,0-8.45343-3.60889V99.86951h-3.31781v6.27417c-6.05615.29113-9.42279,3.94885-9.42279,8.7688,0,5.91076,4.94122,7.60656,10.36719,9.35046,4.57843,1.429,7.43512,2.61572,7.43512,6.176,0,3.12476-2.71192,4.9419-6.36957,4.9419a14.09163,14.09163,0,0,1-9.56836-4.11816l-2.59149,3.10058a17.29507,17.29507,0,0,0,10.14923,4.86878v6.05627h3.31848v-6.00745c6.03119-.484,9.592-4.04492,9.592-9.1073v-.00073C153.92462,123.80249,149.29828,122.17993,143.19476,120.2417Z"/><rect class="cls-3" x="61.30597" y="177.85889" width="45.72949" height="39.61389"/><path class="cls-2" d="M59.30615,175.8584v43.61426h49.72949V175.8584Zm45.72949,39.61426H63.30615V179.8584h41.72949Z"/><rect class="cls-2" x="134.59277" y="47.79785" width="15.604" height="4"/><path class="cls-2" d="M84.78278,150.252A17.30776,17.30776,0,0,0,67.49518,167.54v11.93457h34.57519V167.54A17.30787,17.30787,0,0,0,84.78278,150.252Zm13.28759,25.22266H71.49518V167.54a13.2876,13.2876,0,1,1,26.57519,0Z"/><path class="cls-2" d="M148.77979,193.66309h-12.77a7.75,7.75,0,0,0,0,15.5h12.77a7.75,7.75,0,0,0,0-15.5Zm0,11.5h-12.77a3.75,3.75,0,0,1,0-7.5h12.77a3.75,3.75,0,0,1,0,7.5Z"/><polygon class="cls-2" points="92.485 189.768 80.624 201.282 75.917 196.294 73.008 199.038 80.499 206.978 95.271 192.637 92.485 189.768"/></svg>