<svg id="Layer_1" data-name="Layer 1" xmlns="http://www.w3.org/2000/svg" viewBox="0 0 256 256"><defs><style>.cls-1{fill:#84d1da;}.cls-2{fill:#fcb856;}.cls-3{fill:#616363;}.cls-4{fill:#ceecf3;}.cls-5{fill:#fff;}</style></defs><title>-</title><circle class="cls-1" cx="139.18069" cy="142.83838" r="58.56656" transform="matrix(0.98709, -0.16018, 0.16018, 0.98709, -21.08301, 24.1387)"/><path class="cls-2" d="M126.21,163.47229a34.6702,34.6702,0,0,0-.10376-8.41931l5.44544-7.87708-5.23816-8.62658-5.23-8.61841-9.50367,1.18786a34.41152,34.41152,0,0,0-6.05127-3.41235l-3.90673-8.73022H81.45068l-3.90649,8.73022a34.62575,34.62575,0,0,0-6.71314,3.88269l-9.51953-.97265-5.03076,8.74609-5.03882,8.73816,5.62085,7.7417a34.74991,34.74991,0,0,0,.10352,8.42712L51.521,172.13867l5.238,8.62647,5.23023,8.62646,9.49548-1.19592a35.03613,35.03613,0,0,0,6.05945,3.42041l3.90649,8.72229h20.17115l3.90673-8.72229a35.08737,35.08737,0,0,0,6.71314-3.8905l9.51929.97253,5.031-8.73816,5.03076-8.74609ZM91.53638,177.53613a17.87891,17.87891,0,1,1,17.88281-17.87475A17.87888,17.87888,0,0,1,91.53638,177.53613Z"/><path class="cls-3" d="M91.5365,139.52832a20.12891,20.12891,0,1,0,20.13281,20.13281A20.15553,20.15553,0,0,0,91.5365,139.52832Zm0,35.75781a15.62891,15.62891,0,1,1,15.63281-15.625A15.64643,15.64643,0,0,1,91.5365,175.28613Zm36.99512-12.4458c.09-1.06592.13586-2.13183.13586-3.1792a37.15568,37.15568,0,0,0-.22559-4.03027l5.78992-8.37549-11.98132-19.73779-10.10169,1.26269a36.875,36.875,0,0,0-4.91491-2.77295l-4.1543-9.28125H79.99268l-4.15332,9.28125a36.95439,36.95439,0,0,0-5.62891,3.25684L60.08936,128.23,48.563,148.24121l5.97851,8.2334c-.08984,1.06152-.13574,2.12976-.13574,3.18652a36.51174,36.51174,0,0,0,.22461,4.03028l-5.79016,8.36718,11.98254,19.74756,10.09473-1.271a37.40438,37.40438,0,0,0,4.9209,2.77734l4.1543,9.27588h23.08593l4.15528-9.27588a37.39448,37.39448,0,0,0,5.6289-3.26172l10.1211,1.03418,11.51562-20.01221Zm-7.99207,23.47119-8.93457-.91259-.70019.5166a32.88921,32.88921,0,0,1-6.28223,3.64111l-.793.34912-3.666,8.18262H82.90869l-3.665-8.18213-.792-.34912a32.84958,32.84958,0,0,1-5.6709-3.20068l-.712-.50208-8.91211,1.12268-8.955-14.7583,5.1084-7.38232-.11328-.86036a32.89479,32.89479,0,0,1-.291-4.31494,33.24707,33.24707,0,0,1,.19434-3.57617l.09277-.86279L53.92041,147.96l8.61426-14.95654,8.93359.9126.7002-.51709a32.41769,32.41769,0,0,1,6.27624-3.63038l.798-.34863,3.666-8.19385h17.25488l3.667,8.19434.79773.34814a32.25882,32.25882,0,0,1,5.65539,3.18946l.71192.501,8.92089-1.11425,8.95411,14.75146-5.1095,7.39148.11438.86047a32.38905,32.38905,0,0,1,.09753,7.88331l-.09265.86035L129.146,171.355Z"/><path class="cls-4" d="M166.33594,100.49121a20.95612,20.95612,0,0,0-.06372-5.262L169.6687,90.318l-3.26086-5.38159-3.26892-5.38159-5.92383.74133a21.48459,21.48459,0,0,0-3.787-2.12866l-2.43176-5.44556H138.40747l-2.4397,5.44556a21.91,21.91,0,0,0-4.19372,2.42371l-5.9397-.606-3.14123,5.45337L119.55176,90.9l3.508,4.83143a23.31508,23.31508,0,0,0-.12756,2.376,22.77409,22.77409,0,0,0,.19129,2.87805l-3.39625,4.91126,3.2688,5.38159,3.2688,5.38159,5.92371-.74145a21.97262,21.97262,0,0,0,3.77917,2.13672l2.4397,5.44543h12.58887l2.43176-5.44543a21.875,21.875,0,0,0,4.19373-2.43164l5.93969.60595,3.14112-5.45349,3.14135-5.45325Zm-21.63819,8.77808a11.158,11.158,0,1,1,11.162-11.16187A11.15715,11.15715,0,0,1,144.69775,109.26929Z"/><path class="cls-3" d="M168.3988,99.92725c.048-.61316.07239-1.22254.07239-1.82032a22.84366,22.84366,0,0,0-.124-2.36316l3.70312-5.35363-7.874-12.98133-6.46191.80957a23.45044,23.45044,0,0,0-2.76856-1.55676l-2.65234-5.93933H137.11182l-2.66114,5.94043A24.02093,24.02093,0,0,0,131.229,78.525l-6.48059-.66113L117.17236,91.027l3.8291,5.27344c-.04687.62207-.06945,1.21862-.06945,1.80651,0,.76575.03918,1.54309.12011,2.3584l-3.708,5.36145,7.88379,12.97852,6.46191-.8086a23.90667,23.90667,0,0,0,2.75989,1.56043l2.66211,5.94348h15.18164l2.65429-5.94434a23.85561,23.85561,0,0,0,3.22156-1.86633l6.47864.66028,7.57715-13.15234Zm-5.92273,14.18066-5.423-.55261-.62292.46191a19.92606,19.92606,0,0,1-3.80957,2.209l-.7052.31042-2.2157,4.964h-9.9961l-2.22461-4.96582-.7052-.30957a20.02853,20.02853,0,0,1-3.43444-1.94348l-.632-.44324-5.40528.67578-5.19226-8.54687,3.09375-4.47364-.0957-.75878a20.75211,20.75211,0,0,1-.1759-2.62806,21.15439,21.15439,0,0,1,.11731-2.17175l.078-.76086L121.932,90.77307l4.9884-8.667,5.418.55371.62109-.458a19.86392,19.86392,0,0,1,3.81153-2.20227l.70691-.30957,2.2257-4.96765h9.9961l2.21875,4.96973.71277.30957a19.41773,19.41773,0,0,1,3.43359,1.93164l.63293.44336,5.4043-.67676,5.18445,8.5459-3.10059,4.4823.10364.76867a19.35825,19.35825,0,0,1,.18164,2.61023A19.68941,19.68941,0,0,1,164.349,100.27l-.08582.76965,3.2002,4.40821Zm-17.77832-29.1543a13.15772,13.15772,0,1,0,13.16211,13.15332A13.16811,13.16811,0,0,0,144.69775,84.95361Zm0,22.31543a9.15772,9.15772,0,1,1,9.16211-9.16211A9.16846,9.16846,0,0,1,144.69775,107.269Z"/><path class="cls-3" d="M51.58545,100.45264l3.73816,1.42578a49.41257,49.41257,0,0,1,52.10168-31.47168l.47266-3.97254A53.41988,53.41988,0,0,0,51.58545,100.45264Z"/><polygon class="cls-3" points="94.015 53.412 91.589 56.591 104.877 66.727 94.994 79.687 98.173 82.113 110.483 65.973 94.015 53.412"/><circle class="cls-5" cx="178.94159" cy="159.49252" r="26.48942" transform="translate(-5.91767 6.89825) rotate(-2.17258)"/><path class="cls-3" d="M201.98779,142.74377A28.30224,28.30224,0,0,0,183.3949,131.353a28.873,28.873,0,0,0-4.48621-.35352,28.49172,28.49172,0,0,0-4.4209,56.63281,28.83243,28.83243,0,0,0,4.48523.35352,28.49276,28.49276,0,0,0,23.01477-45.24207Zm1.1416,20.57715A24.35975,24.35975,0,0,1,178.973,183.98584a24.79188,24.79188,0,0,1-3.86023-.30457,24.49165,24.49165,0,0,1,3.7959-48.68176,24.79409,24.79409,0,0,1,3.86121.30481,24.48752,24.48752,0,0,1,20.35949,28.0166Z"/><path class="cls-2" d="M179.56519,157.67017c-3.22937-1.05787-5.57154-1.9458-5.57154-4.36329,0-2.2666,1.8888-3.532,4.58936-3.532a12.01035,12.01035,0,0,1,6.51636,2.28516l1.94458-2.39868a15.82364,15.82364,0,0,0-6.59144-2.814v-5.06225h-2.587v4.89233c-4.72217.22693-7.34717,3.079-7.34717,6.83728,0,4.60877,3.85278,5.931,8.08362,7.29089,3.56995,1.11426,5.79748,2.03955,5.79748,4.81556,0,2.43664-2.1145,3.85339-4.96667,3.85339a10.98791,10.98791,0,0,1-7.46069-3.21094l-2.02063,2.41748a13.48485,13.48485,0,0,0,7.91357,3.79639v4.72229h2.58752v-4.68421c4.70276-.37744,7.47937-3.15393,7.47937-7.10131v-.00049C187.93188,160.44653,184.32446,159.1814,179.56519,157.67017Z"/></svg>