<svg id="Layer_1" data-name="Layer 1" xmlns="http://www.w3.org/2000/svg" viewBox="0 0 256 256"><defs><style>.cls-1{fill:#cae9e7;}.cls-2{fill:#fcb856;}.cls-3{fill:#616363;}.cls-4{fill:#fff;}</style></defs><title>-</title><circle class="cls-1" cx="128" cy="131.87112" r="78.07762"/><path class="cls-2" d="M185.291,146.14478c-16.84449-21.75513-42.45044-56.55884-42.45044-67.09522V75.32324A28.66936,28.66936,0,0,1,171.51,46.65381H84.49a28.66936,28.66936,0,0,1,28.66943,28.66943v3.72632c0,10.53638-25.60595,45.34009-42.45044,67.09522-19.39563,25.05-2.60669,62.10583,29.05664,63.17553q.77032.026,1.54737.02613h53.374q.77693,0,1.54737-.02613C187.89771,208.25061,204.68677,171.19482,185.291,146.14478Z"/><path class="cls-3" d="M186.87244,144.91992c-21.77539-28.124-35.80652-49.00879-40.577-60.39453-2.42187-5.7832-1.22766-12.74023-1.20227-12.88867a26.75769,26.75769,0,0,1,26.417-22.9834v-4a30.75009,30.75009,0,0,0-30.36621,26.35547c-.05957.33008-1.42578,8.167,1.46191,15.06152,4.97364,11.87207,18.80372,32.4961,41.1045,61.29883a37.31419,37.31419,0,0,1,4.21789,38.876,35.91062,35.91062,0,0,1-31.762,21.07617q-.73663.0249-1.47925.02539H101.31287c-.49512,0-.98731-.00879-1.4795-.02539a35.91105,35.91105,0,0,1-31.76171-21.07715,37.31235,37.31235,0,0,1,4.21887-38.875c15.54773-20.08008,35.30163-47.02051,41.12573-61.35449l.24145-.61231c2.77332-6.13379,1.23523-14.25781,1.18445-14.50488A30.81041,30.81041,0,0,0,84.48962,44.65332v4a26.81861,26.81861,0,0,1,26.41016,22.91309c.01367.07226,1.37415,7.24023-.90417,12.22461l-.293.73925c-4.4043,10.83887-18.81458,32.28614-40.57422,60.38965a41.29619,41.29619,0,0,0-4.67786,43.02539,39.84577,39.84577,0,0,0,35.24707,23.374q.80419.02782,1.61524.02734H154.687c.53992,0,1.08-.00879,1.61511-.02734a39.846,39.846,0,0,0,35.2472-23.374A41.29811,41.29811,0,0,0,186.87244,144.91992Z"/><path class="cls-4" d="M129.01367,149.22107c-5.24927-1.71936-9.05615-3.1626-9.05615-7.09241,0-3.68432,3.06995-5.741,7.45947-5.741a19.52389,19.52389,0,0,1,10.59229,3.71435l3.16089-3.89893a25.72181,25.72181,0,0,0-10.71412-4.574v-8.22852H126.251v7.95228c-7.67578.369-11.94275,5.00476-11.94275,11.11389,0,7.49145,6.26257,9.64062,13.13977,11.85107,5.80273,1.81128,9.42346,3.31531,9.42346,7.82752,0,3.96069-3.43713,6.26355-8.073,6.26355a17.86041,17.86041,0,0,1-12.12732-5.21924l-3.28442,3.92968a21.92173,21.92173,0,0,0,12.86328,6.1709v7.67578h4.20605v-7.614c7.644-.61352,12.15723-5.12671,12.15723-11.54285v-.00085C142.61328,153.73438,136.74963,151.67773,129.01367,149.22107Z"/><rect class="cls-3" x="105.21326" y="75.64258" width="45.57336" height="4"/></svg>