<svg id="Layer_1" data-name="Layer 1" xmlns="http://www.w3.org/2000/svg" viewBox="0 0 256 256"><defs><style>.cls-1{fill:#ceecf3;}.cls-2{fill:#fcb856;}.cls-3{fill:#616363;}.cls-4{fill:#fff;}</style></defs><title>-</title><rect class="cls-1" x="40.99609" y="107.59375" width="173.96069" height="86.98022"/><path class="cls-2" d="M40.99609,107.59375v21.15137a21.15145,21.15145,0,0,0,21.15137-21.15137Z"/><path class="cls-2" d="M193.85242,107.59375a21.15149,21.15149,0,0,0,21.15124,21.15137V107.59375Z"/><path class="cls-2" d="M193.85242,194.16992h21.15124V173.0188A21.15113,21.15113,0,0,0,193.85242,194.16992Z"/><path class="cls-2" d="M40.99609,173.01855v21.15137H62.14746A21.15145,21.15145,0,0,0,40.99609,173.01855Z"/><path class="cls-3" d="M38.99658,105.59375v25.15137h2A23.17769,23.17769,0,0,0,64.148,107.59375v-2Zm4,21.04785V109.59375H60.04443A19.18846,19.18846,0,0,1,42.99658,126.6416Z"/><path class="cls-3" d="M191.85205,105.59375v2a23.17769,23.17769,0,0,0,23.15137,23.15137h2V105.59375Zm21.15137,21.04785a19.18846,19.18846,0,0,1-17.04785-17.04785h17.04785Z"/><path class="cls-3" d="M215.00342,171.01855a23.1777,23.1777,0,0,0-23.15137,23.15137v2h25.15137V171.01855Zm-2,21.15137H195.95557a19.18846,19.18846,0,0,1,17.04785-17.04785Z"/><path class="cls-3" d="M40.99658,171.01855h-2v25.15137H64.147v-2A23.17686,23.17686,0,0,0,40.99658,171.01855Zm2,21.15137V175.12207a19.18749,19.18749,0,0,1,17.04688,17.04785Z"/><path class="cls-3" d="M38.99658,105.59375v90.98047h177.96V105.59375Zm173.96,86.98047h-169.96V109.59375h169.96Z"/><path class="cls-2" d="M127.97632,125.79248a25.29126,25.29126,0,1,0,25.2915,25.2915A25.29133,25.29133,0,0,0,127.97632,125.79248Z"/><path class="cls-3" d="M127.97607,123.792a27.29151,27.29151,0,1,0,27.292,27.292A27.32273,27.32273,0,0,0,127.97607,123.792Zm0,50.583a23.29151,23.29151,0,1,1,23.292-23.291A23.31731,23.31731,0,0,1,127.97607,174.375Z"/><path class="cls-4" d="M128.61829,149.81689c-3.324-1.08886-5.73475-2.00268-5.73475-4.49121,0-2.333,1.9441-3.63525,4.72364-3.63525a12.36232,12.36232,0,0,1,6.70727,2.35205l2.00171-2.46875a16.28463,16.28463,0,0,0-6.78454-2.89648V133.4668H126.8689v5.0354c-4.8606.23364-7.5625,3.16919-7.5625,7.03759,0,4.7439,3.96569,6.10474,8.32031,7.5044,3.67456,1.147,5.96728,2.09936,5.96728,4.95679,0,2.50781-2.17651,3.96631-5.11206,3.96631a11.30887,11.30887,0,0,1-7.67932-3.30518l-2.07983,2.48828a13.88087,13.88087,0,0,0,8.14551,3.90772v4.86059h2.66333v-4.82153c4.84045-.38819,7.69836-3.2461,7.69836-7.30908v-.00074C137.23,152.6748,133.51685,151.37256,128.61829,149.81689Z"/><rect class="cls-1" x="40.99609" y="98.36011" width="173.96069" height="86.98022"/><path class="cls-2" d="M40.99609,98.36011v21.15136A21.15128,21.15128,0,0,0,62.14746,98.36011Z"/><path class="cls-2" d="M193.85242,98.36011a21.15133,21.15133,0,0,0,21.15124,21.15136V98.36011Z"/><path class="cls-2" d="M193.85242,184.93652h21.15124V163.78516A21.15117,21.15117,0,0,0,193.85242,184.93652Z"/><path class="cls-2" d="M40.99609,163.78516v21.15136H62.14746A21.15128,21.15128,0,0,0,40.99609,163.78516Z"/><path class="cls-3" d="M38.99658,96.36035v25.15137h2A23.17769,23.17769,0,0,0,64.148,98.36035v-2Zm4,21.04785V100.36035H60.04443A19.18846,19.18846,0,0,1,42.99658,117.4082Z"/><path class="cls-3" d="M191.85205,96.36035v2a23.17769,23.17769,0,0,0,23.15137,23.15137h2V96.36035Zm21.15137,21.04785a19.18846,19.18846,0,0,1-17.04785-17.04785h17.04785Z"/><path class="cls-3" d="M215.00342,161.78516a23.17769,23.17769,0,0,0-23.15137,23.15136v2h25.15137V161.78516Zm-2,21.15136H195.95557a19.18846,19.18846,0,0,1,17.04785-17.04785Z"/><path class="cls-3" d="M40.99658,161.78516h-2v25.15136H64.147v-2A23.17685,23.17685,0,0,0,40.99658,161.78516Zm2,21.15136V165.88867a19.18749,19.18749,0,0,1,17.04688,17.04785Z"/><path class="cls-3" d="M38.99658,96.36035v90.98047h177.96V96.36035Zm173.96,86.98047h-169.96V100.36035h169.96Z"/><circle class="cls-2" cx="127.97638" cy="141.85034" r="25.29125" transform="translate(-52.05072 205.80122) rotate(-67.49997)"/><path class="cls-3" d="M127.97607,114.55859a27.29151,27.29151,0,1,0,27.292,27.292A27.32273,27.32273,0,0,0,127.97607,114.55859Zm0,50.583a23.29151,23.29151,0,1,1,23.292-23.291A23.31731,23.31731,0,0,1,127.97607,165.1416Z"/><path class="cls-4" d="M128.61829,140.5835c-3.324-1.08887-5.73475-2.00269-5.73475-4.49121,0-2.333,1.9441-3.63526,4.72364-3.63526a12.36232,12.36232,0,0,1,6.70727,2.352l2.00171-2.469a16.28431,16.28431,0,0,0-6.78454-2.89624v-5.2107H126.8689v5.03565c-4.8606.23364-7.5625,3.16919-7.5625,7.0376,0,4.74365,3.96569,6.10473,8.32031,7.50439,3.67456,1.14673,5.96728,2.09937,5.96728,4.95679,0,2.50781-2.17651,3.96606-5.11206,3.96606a11.30969,11.30969,0,0,1-7.67932-3.30493l-2.07983,2.48828a13.88222,13.88222,0,0,0,8.14551,3.90772v4.86035h2.66333v-4.82129c4.84045-.38843,7.69836-3.24634,7.69836-7.30933V148.554C137.23,143.44116,133.51685,142.13892,128.61829,140.5835Z"/><rect class="cls-1" x="40.99609" y="89.12671" width="173.96069" height="86.98022"/><path class="cls-2" d="M40.99609,89.12671v21.15137A21.15145,21.15145,0,0,0,62.14746,89.12671Z"/><path class="cls-2" d="M193.85242,89.12671a21.15149,21.15149,0,0,0,21.15124,21.15137V89.12671Z"/><path class="cls-2" d="M193.85242,175.70312h21.15124V154.55176A21.15117,21.15117,0,0,0,193.85242,175.70312Z"/><path class="cls-2" d="M40.99609,154.55176v21.15136H62.14746A21.15128,21.15128,0,0,0,40.99609,154.55176Z"/><path class="cls-3" d="M38.99658,87.12695v25.15137h2A23.17769,23.17769,0,0,0,64.148,89.12695v-2Zm4,21.04785V91.12695H60.04443A19.18846,19.18846,0,0,1,42.99658,108.1748Z"/><path class="cls-3" d="M191.85205,87.12695v2a23.17769,23.17769,0,0,0,23.15137,23.15137h2V87.12695Zm21.15137,21.04785a19.18846,19.18846,0,0,1-17.04785-17.04785h17.04785Z"/><path class="cls-3" d="M215.00342,152.55176a23.17769,23.17769,0,0,0-23.15137,23.15136v2h25.15137V152.55176Zm-2,21.15136H195.95557a19.18846,19.18846,0,0,1,17.04785-17.04785Z"/><path class="cls-3" d="M40.99658,152.55176h-2v25.15136H64.147v-2A23.17685,23.17685,0,0,0,40.99658,152.55176Zm2,21.15136V156.65527a19.18749,19.18749,0,0,1,17.04688,17.04785Z"/><path class="cls-3" d="M38.99658,87.12695v90.98047h177.96V87.12695Zm173.96,86.98047h-169.96V91.12695h169.96Z"/><circle class="cls-2" cx="127.97638" cy="132.61676" r="25.29131" transform="translate(-27.04569 32.95073) rotate(-13.28258)"/><path class="cls-3" d="M127.97607,105.3252a27.2915,27.2915,0,1,0,27.292,27.292A27.32272,27.32272,0,0,0,127.97607,105.3252Zm0,50.583a23.2915,23.2915,0,1,1,23.292-23.291A23.31731,23.31731,0,0,1,127.97607,155.9082Z"/><path class="cls-4" d="M128.61829,131.34985c-3.324-1.08886-5.73475-2.00268-5.73475-4.491,0-2.333,1.9441-3.6355,4.72364-3.6355a12.36232,12.36232,0,0,1,6.70727,2.35205l2.00171-2.46875a16.28463,16.28463,0,0,0-6.78454-2.89648v-5.21045H126.8689v5.0354c-4.8606.23388-7.5625,3.16919-7.5625,7.03759,0,4.7439,3.96569,6.105,8.32031,7.5044,3.67456,1.147,5.96728,2.09961,5.96728,4.95679,0,2.50781-2.17651,3.96606-5.11206,3.96606a11.30859,11.30859,0,0,1-7.67932-3.30493l-2.07983,2.48852a13.88185,13.88185,0,0,0,8.14551,3.90747v4.8606h2.66333v-4.82129c4.84045-.38867,7.69836-3.24658,7.69836-7.30957v-.00049C137.23,134.20776,133.51685,132.90552,128.61829,131.34985Z"/><rect class="cls-1" x="40.99609" y="79.89331" width="173.96069" height="86.98022"/><path class="cls-2" d="M40.99609,79.89331v21.15112A21.15123,21.15123,0,0,0,62.14746,79.89331Z"/><path class="cls-2" d="M193.85242,79.89331a21.15128,21.15128,0,0,0,21.15124,21.15112V79.89331Z"/><path class="cls-2" d="M193.85242,166.46948h21.15124V145.31836A21.15113,21.15113,0,0,0,193.85242,166.46948Z"/><path class="cls-2" d="M40.99609,145.31812v21.15136H62.14746A21.15144,21.15144,0,0,0,40.99609,145.31812Z"/><path class="cls-3" d="M38.99658,77.89355v25.15137h2A23.17769,23.17769,0,0,0,64.148,79.89355v-2Zm4,21.04786V81.89355H60.04443A19.18846,19.18846,0,0,1,42.99658,98.94141Z"/><path class="cls-3" d="M191.85205,77.89355v2a23.17769,23.17769,0,0,0,23.15137,23.15137h2V77.89355Zm21.15137,21.04786a19.18846,19.18846,0,0,1-17.04785-17.04786h17.04785Z"/><path class="cls-3" d="M215.00342,143.31836a23.17769,23.17769,0,0,0-23.15137,23.15137v2h25.15137V143.31836Zm-2,21.15137H195.95557a19.18846,19.18846,0,0,1,17.04785-17.04785Z"/><path class="cls-3" d="M40.99658,143.31836h-2v25.15137H64.148v-2A23.17769,23.17769,0,0,0,40.99658,143.31836Zm2,21.15137V147.42188a19.18846,19.18846,0,0,1,17.04785,17.04785Z"/><path class="cls-3" d="M38.99658,77.89355v90.9795h177.96V77.89355Zm173.96,86.9795h-169.96V81.89355h169.96Z"/><circle class="cls-2" cx="127.97638" cy="123.3833" r="25.29132" transform="translate(-18.11135 22.09279) rotate(-9.2175)"/><path class="cls-3" d="M127.97607,96.0918a27.2915,27.2915,0,1,0,27.292,27.292A27.32272,27.32272,0,0,0,127.97607,96.0918Zm0,50.583a23.2915,23.2915,0,1,1,23.292-23.291A23.31731,23.31731,0,0,1,127.97607,146.6748Z"/><path class="cls-4" d="M128.61841,122.11646c-3.3241-1.08887-5.73487-2.00269-5.73487-4.49122,0-2.333,1.9441-3.63525,4.72364-3.63525a12.36351,12.36351,0,0,1,6.70727,2.35181l2.00171-2.46875a16.28758,16.28758,0,0,0-6.78442-2.89624v-5.2107H126.8689v5.03565c-4.8606.23364-7.5625,3.16919-7.5625,7.0376,0,4.74365,3.96569,6.10473,8.32031,7.50439,3.67456,1.147,5.96728,2.09937,5.96728,4.95654,0,2.50806-2.17651,3.96631-5.11206,3.96631a11.30919,11.30919,0,0,1-7.6792-3.30493L118.72278,133.45a13.88114,13.88114,0,0,0,8.14551,3.90772v4.86059h2.66345v-4.82153c4.84033-.38843,7.69824-3.24634,7.69824-7.30933v-.00049C137.23,124.97412,133.51685,123.67188,128.61841,122.11646Z"/><rect class="cls-1" x="40.99609" y="70.65967" width="173.96069" height="86.98022"/><path class="cls-2" d="M40.99609,70.65967V91.811A21.15129,21.15129,0,0,0,62.14746,70.65967Z"/><path class="cls-2" d="M193.85242,70.65967A21.15134,21.15134,0,0,0,215.00366,91.811V70.65967Z"/><path class="cls-2" d="M193.85242,157.23608h21.15124V136.08472A21.15117,21.15117,0,0,0,193.85242,157.23608Z"/><path class="cls-2" d="M40.99609,136.08472v21.15136H62.14746A21.15128,21.15128,0,0,0,40.99609,136.08472Z"/><path class="cls-3" d="M38.99658,68.66016V93.81152h2A23.17769,23.17769,0,0,0,64.148,70.66016v-2Zm4,21.04785V72.66016H60.04443A19.18846,19.18846,0,0,1,42.99658,89.708Z"/><path class="cls-3" d="M191.85205,68.66016v2a23.17769,23.17769,0,0,0,23.15137,23.15136h2V68.66016ZM213.00342,89.708a19.18846,19.18846,0,0,1-17.04785-17.04785h17.04785Z"/><path class="cls-3" d="M215.00342,134.085a23.17769,23.17769,0,0,0-23.15137,23.15137v2h25.15137V134.085Zm-2,21.15137H195.95557a19.18846,19.18846,0,0,1,17.04785-17.04785Z"/><path class="cls-3" d="M40.99658,134.085h-2v25.15137H64.148v-2A23.17769,23.17769,0,0,0,40.99658,134.085Zm2,21.15137V138.18848a19.18846,19.18846,0,0,1,17.04785,17.04785Z"/><path class="cls-3" d="M38.99658,68.66016v90.97949h177.96V68.66016Zm173.96,86.97949h-169.96V72.66016h169.96Z"/><circle class="cls-2" cx="127.97638" cy="114.14984" r="25.29129" transform="translate(-43.23271 123.92668) rotate(-45)"/><path class="cls-3" d="M127.97607,86.8584a27.29151,27.29151,0,1,0,27.292,27.291A27.32252,27.32252,0,0,0,127.97607,86.8584Zm0,50.583a23.29151,23.29151,0,1,1,23.292-23.292A23.31815,23.31815,0,0,1,127.97607,137.44141Z"/><path class="cls-4" d="M128.61841,112.88281c-3.3241-1.08862-5.73487-2.00244-5.73487-4.491,0-2.33326,1.9441-3.6355,4.72364-3.6355a12.364,12.364,0,0,1,6.70727,2.35205l2.00171-2.46875a16.288,16.288,0,0,0-6.78442-2.89649V96.53271H126.8689v5.03565c-4.8606.23364-7.5625,3.16894-7.5625,7.0376,0,4.74365,3.96569,6.10473,8.32031,7.50439,3.67456,1.147,5.96728,2.09937,5.96728,4.95654,0,2.50806-2.17651,3.96631-5.11206,3.96631a11.30841,11.30841,0,0,1-7.6792-3.30517l-2.07995,2.48852a13.87924,13.87924,0,0,0,8.14551,3.90747v4.86084h2.66345v-4.82177c4.84033-.38819,7.69824-3.2461,7.69824-7.30909v-.00048C137.23,115.74072,133.51685,114.43848,128.61841,112.88281Z"/><rect class="cls-1" x="40.99609" y="61.42627" width="173.96069" height="86.98022"/><path class="cls-2" d="M40.99609,61.42627V82.57764A21.15145,21.15145,0,0,0,62.14746,61.42627Z"/><path class="cls-2" d="M193.85242,61.42627a21.15149,21.15149,0,0,0,21.15124,21.15137V61.42627Z"/><path class="cls-2" d="M193.85242,148.00244h21.15124V126.85132A21.15112,21.15112,0,0,0,193.85242,148.00244Z"/><path class="cls-2" d="M40.99609,126.85107v21.15137H62.14746A21.15145,21.15145,0,0,0,40.99609,126.85107Z"/><path class="cls-3" d="M38.99658,59.42578V84.57715h2A23.17769,23.17769,0,0,0,64.148,61.42578v-2Zm4,21.04785V63.42578H60.04443A19.18846,19.18846,0,0,1,42.99658,80.47363Z"/><path class="cls-3" d="M191.85205,59.42578v2a23.17769,23.17769,0,0,0,23.15137,23.15137h2V59.42578Zm21.15137,21.04785a19.18846,19.18846,0,0,1-17.04785-17.04785h17.04785Z"/><path class="cls-3" d="M215.00342,124.85156a23.17769,23.17769,0,0,0-23.15137,23.15137v2h25.15137V124.85156Zm-2,21.15137H195.95557a19.18846,19.18846,0,0,1,17.04785-17.04785Z"/><path class="cls-3" d="M40.99658,124.85156h-2v25.15137H64.148v-2A23.17769,23.17769,0,0,0,40.99658,124.85156Zm2,21.15137V128.95508a19.18846,19.18846,0,0,1,17.04785,17.04785Z"/><path class="cls-3" d="M38.99658,59.42578v90.98047h177.96V59.42578Zm173.96,86.98047h-169.96V63.42578h169.96Z"/><circle class="cls-2" cx="127.97638" cy="104.91632" r="25.29131" transform="translate(-20.6814 32.20971) rotate(-13.28258)"/><path class="cls-3" d="M127.97607,77.625a27.29151,27.29151,0,1,0,27.292,27.291A27.32252,27.32252,0,0,0,127.97607,77.625Zm0,50.583a23.29151,23.29151,0,1,1,23.292-23.292A23.31814,23.31814,0,0,1,127.97607,128.208Z"/><path class="cls-4" d="M128.61841,103.64941c-3.3241-1.08886-5.73487-2.00268-5.73487-4.49121,0-2.333,1.9441-3.63525,4.72364-3.63525a12.362,12.362,0,0,1,6.70727,2.35205l2.00171-2.46875a16.2848,16.2848,0,0,0-6.78442-2.89648V87.29932H126.8689v5.0354c-4.8606.23364-7.5625,3.16919-7.5625,7.03784,0,4.74365,3.96569,6.10449,8.32031,7.50415,3.67456,1.147,5.96728,2.09936,5.96728,4.95679,0,2.50781-2.17651,3.96606-5.11206,3.96606a11.308,11.308,0,0,1-7.6792-3.30493l-2.07995,2.48828a13.88112,13.88112,0,0,0,8.14551,3.90771v4.8606h2.66345v-4.82153c4.84033-.38843,7.69824-3.24634,7.69824-7.30908v-.00074C137.23,106.50732,133.51685,105.20508,128.61841,103.64941Z"/></svg>