<svg id="Layer_1" data-name="Layer 1" xmlns="http://www.w3.org/2000/svg" viewBox="0 0 256 256"><defs><style>.cls-1{fill:#84d1da;}.cls-2{fill:#616363;}.cls-3{fill:#fff;}.cls-4{fill:#fcb856;}</style></defs><title>-</title><path class="cls-1" d="M51.42346,58.39526H204.57629a7.82568,7.82568,0,0,1,7.82568,7.82568v87.51538a7.82593,7.82593,0,0,1-7.82593,7.82593H51.42346a7.82581,7.82581,0,0,1-7.82581-7.82581V66.22107A7.82581,7.82581,0,0,1,51.42346,58.39526Z"/><path class="cls-2" d="M204.57593,56.39551H51.42358A9.8363,9.8363,0,0,0,41.5979,66.2207v87.51563a9.83714,9.83714,0,0,0,9.82568,9.82617H204.57593a9.83755,9.83755,0,0,0,9.82617-9.82617V66.2207A9.83672,9.83672,0,0,0,204.57593,56.39551Zm5.82617,97.34082a5.83235,5.83235,0,0,1-5.82617,5.82617H51.42358a5.83224,5.83224,0,0,1-5.82568-5.82617V66.2207a5.832,5.832,0,0,1,5.82568-5.82519H204.57593a5.83214,5.83214,0,0,1,5.82617,5.82519Z"/><path class="cls-1" d="M151.28467,187.605l-7.53052-26.043H112.24573l-7.53064,26.043a7.82587,7.82587,0,0,0,7.51782,9.99976h31.53381A7.82605,7.82605,0,0,0,151.28467,187.605Z"/><path class="cls-2" d="M153.20581,187.0498l-7.94824-27.4873H110.74243l-7.94873,27.4873a9.8258,9.8258,0,0,0,9.43945,12.55469h31.53321a9.8258,9.8258,0,0,0,9.43945-12.55469Zm-4.78223,6.2295a5.778,5.778,0,0,1-4.65722,2.32519H112.23315a5.82521,5.82521,0,0,1-5.59668-7.44336l7.1128-24.59863h28.50049l7.11425,24.59863A5.7766,5.7766,0,0,1,148.42358,193.2793Z"/><rect class="cls-2" x="84.87915" y="195.60449" width="86.2417" height="4"/><rect class="cls-3" x="56.20044" y="70.75562" width="143.36572" height="74.42749"/><polygon class="cls-2" points="181.771 90.923 150.899 116.67 136.022 101.337 105.573 126.15 108.1 129.252 135.705 106.755 150.612 122.117 184.334 93.995 181.771 90.923"/><polygon class="cls-2" points="164.12 90.257 164.12 94.257 181.052 94.257 181.052 109.337 185.052 109.337 185.052 90.257 164.12 90.257"/><path class="cls-4" d="M84.37488,105.06055c-4.03894-1.32251-6.96814-2.43286-6.96814-5.45655,0-2.835,2.36206-4.41748,5.7395-4.41748a15.01791,15.01791,0,0,1,8.15015,2.85718l2.43188-3a19.78244,19.78244,0,0,0-8.24365-3.5188V85.1936l-3.2356.00025V91.3125c-5.906.28418-9.189,3.85156-9.189,8.552,0,5.76416,4.8186,7.41773,10.11011,9.11792,4.46472,1.39331,7.25061,2.55029,7.25061,6.02222,0,3.04736-2.64466,4.81958-6.21155,4.81982a13.74055,13.74055,0,0,1-9.33106-4.01538l-2.5271,3.02393a16.86588,16.86588,0,0,0,9.89734,4.74756v5.906l3.23621-.00024v-5.8584c5.88159-.47266,9.354-3.94531,9.354-8.88232v-.00049C94.83862,108.53271,90.32715,106.95044,84.37488,105.06055Z"/></svg>