<svg id="Layer_1" data-name="Layer 1" xmlns="http://www.w3.org/2000/svg" viewBox="0 0 256 256"><defs><style>.cls-1{fill:#84d1da;}.cls-2{fill:#616363;}.cls-3{fill:#fff;}.cls-4{fill:#fcb856;}</style></defs><title>-</title><circle class="cls-1" cx="128.5751" cy="137.76804" r="78.761" transform="translate(-59.75794 131.26765) rotate(-45)"/><path class="cls-1" d="M156.51636,82.339c.2478.24768.49438.49426.67273.67261-.14942-.14942-.36866-.36878-.67371-.67383-.58057-.58045-.84778-.84754-.91968-.91944.10205.10206.51026.51038.91834.91834A18.15689,18.15689,0,0,0,143.68237,77.054h-24.7063c-1.51562,0-3.06372-.04529-4.56164.02124a18.02928,18.02928,0,0,0-17.225,18.44042v23.91309c0,.5979.73706.32861,1.25513.32861H161.395c.06848,0,.39331.04541.39331-.03759V95.13049A18.14378,18.14378,0,0,0,156.51636,82.339Z"/><path class="cls-1" d="M156.51636,82.339c.2478.24768.49438.49426.67273.67261-.14942-.14942-.36866-.36878-.67371-.67383-.58057-.58045-.84778-.84754-.91968-.91944.10205.10206.51026.51038.91834.91834A18.15689,18.15689,0,0,0,143.68237,77.054h-24.7063c-1.51562,0-3.06372-.04529-4.56164.02124a18.02928,18.02928,0,0,0-17.225,18.44042v24.2417h64.59888V95.13049A18.14378,18.14378,0,0,0,156.51636,82.339Z"/><path class="cls-2" d="M158.83545,81.89478l.03223-.03223-1.60938-1.60938c-.02246-.02246-.04394-.04492-.06641-.0664l-.20117-.20117-.0039.00293a2.50222,2.50222,0,0,0-.51075-.37891A20.344,20.344,0,0,0,143.68213,75.054H118.97607c-.42968,0-.86132-.00391-1.29394-.00782-1.12305-.00683-2.23145-.01843-3.3877.03321A20.02643,20.02643,0,0,0,95.18994,95.51587V121.7572h68.59863V95.13013A20.262,20.262,0,0,0,158.83545,81.89478Zm.95312,35.86242H99.18994V95.51587a16.02906,16.02906,0,0,1,15.31348-16.44226c1.03222-.047,2.09179-.03528,3.14453-.02747.44434.00391.88769.00782,1.32812.00782h24.70606A16.24966,16.24966,0,0,1,155.062,83.71411l.07617.0763a16.1976,16.1976,0,0,1,4.65039,11.33972Z"/><path class="cls-3" d="M128.80957,41.471A14.43128,14.43128,0,1,0,143.241,55.90234,14.43132,14.43132,0,0,0,128.80957,41.471Z"/><path class="cls-2" d="M128.81006,39.471a16.43115,16.43115,0,1,0,16.43066,16.43176A16.45013,16.45013,0,0,0,128.81006,39.471Zm0,28.8623a12.43115,12.43115,0,1,1,12.43066-12.43054A12.44522,12.44522,0,0,1,128.81006,68.33325Z"/><rect class="cls-2" x="109.68799" y="101.97192" width="4" height="17.78528"/><rect class="cls-2" x="145.30029" y="101.97192" width="4" height="17.78528"/><rect class="cls-2" x="109.68799" y="103.177" width="4" height="16.5802"/><rect class="cls-2" x="145.30029" y="103.177" width="4" height="16.5802"/><polygon class="cls-4" points="120.618 77.055 126.62 84.098 130.531 84.098 137.001 77.055 120.618 77.055"/><polygon class="cls-4" points="130.531 84.098 126.62 84.098 123.69 109.593 128.575 113.537 133.46 109.593 130.531 84.098"/><path class="cls-2" d="M116.28564,75.05493l9.41114,11.043h5.71289l10.14551-11.043Zm13.36622,7.043h-2.10938l-2.59277-3.043h7.498Z"/><path class="cls-2" d="M132.314,82.0979h-7.47753l-3.25879,28.36035,6.99707,5.64856,6.998-5.64856Zm-3.73925,28.86816-2.77246-2.23815,2.60058-22.63h.34473l2.60058,22.63Z"/><path class="cls-1" d="M95.80469,164.55688c.08557.0857.27636.27637.61035.61048C96.14233,164.89453,95.90625,164.65845,95.80469,164.55688Zm.88843.88843a18.15646,18.15646,0,0,0-12.83277-5.28369H59.15405c-1.51562,0-3.06384-.04516-4.56164.02124a18.02905,18.02905,0,0,0-17.225,18.44043V202.5365c0,.5979.73706.32861,1.25488.32861h62.95081c.06824,0,.39319.04529.39319-.03772V178.23816A18.14425,18.14425,0,0,0,96.69312,165.44531Z"/><path class="cls-1" d="M96.69312,165.44531l.67382.67383Zm-.88843-.88843c.08557.0857.27636.27637.61035.61048C96.14233,164.89453,95.90625,164.65845,95.80469,164.55688Zm.88843.88843a18.15646,18.15646,0,0,0-12.83277-5.28369H59.15405c-1.51562,0-3.06384-.04516-4.56164.02124a18.02905,18.02905,0,0,0-17.225,18.44043v24.24182h64.59888V178.23816A18.14425,18.14425,0,0,0,96.69312,165.44531Z"/><path class="cls-2" d="M99.44092,165.509a4.44308,4.44308,0,0,0-.418-.52246l.01953-.01953-1.32812-1.32812c-.10743-.1084-.22071-.22071-.33985-.34082l-.7959-.7959h-.19336a20.33369,20.33369,0,0,0-12.52441-4.34082h-24.707c-.42969,0-.86133-.00391-1.294-.00782-1.124-.00781-2.23242-.01855-3.38769.03321a20.02622,20.02622,0,0,0-19.10449,20.43664V204.8656h68.59863V178.23853A20.26656,20.26656,0,0,0,99.44092,165.509Zm.52539,35.35657H39.36768V178.62341a16.02883,16.02883,0,0,1,15.31347-16.4425c1.03223-.04688,2.08985-.03613,3.14453-.02735.44434.00391.8877.00782,1.32813.00782h24.707a16.023,16.023,0,0,1,16.10547,16.07715Z"/><circle class="cls-3" cx="68.98755" cy="139.00998" r="14.43135"/><path class="cls-2" d="M68.98779,122.57837A16.43164,16.43164,0,1,0,85.41846,139.01,16.45011,16.45011,0,0,0,68.98779,122.57837Zm0,28.86328A12.43164,12.43164,0,1,1,81.41846,139.01,12.44616,12.44616,0,0,1,68.98779,151.44165Z"/><rect class="cls-2" x="49.86572" y="185.08032" width="4" height="17.78528"/><rect class="cls-2" x="85.47803" y="185.08032" width="4" height="17.78528"/><rect class="cls-2" x="49.86572" y="186.28442" width="4" height="16.58118"/><rect class="cls-2" x="85.47803" y="186.28442" width="4" height="16.58118"/><polygon class="cls-4" points="60.796 160.163 66.797 167.206 70.708 167.206 77.179 160.163 60.796 160.163"/><polygon class="cls-4" points="70.708 167.206 66.797 167.206 63.868 192.701 68.753 196.645 73.638 192.701 70.708 167.206"/><path class="cls-2" d="M56.46436,158.16333l9.40918,11.042h5.71289l10.14648-11.042Zm13.36621,7.042H67.72119l-2.59277-3.042h7.49707Z"/><path class="cls-2" d="M72.4917,165.20532H65.01416l-3.25879,28.36133,6.99805,5.64856,6.99707-5.64856Zm-3.73828,28.86914L65.98,191.8363l2.60059-22.631h.34472l2.60059,22.631Z"/><path class="cls-1" d="M213.35986,165.446l-.00073-.00073c-.51013-.51013-.78149-.78137-.88843-.88843.135.13526.51.51014.88782.88794a18.15624,18.15624,0,0,0-12.83215-5.2832h-24.7063c-1.51563,0-3.06384-.04516-4.56165.02124a18.02953,18.02953,0,0,0-17.225,18.44043V202.5365c0,.5979.73706.32861,1.25488.32861H218.239c.06836,0,.39331.04529.39331-.03772V178.23816A18.144,18.144,0,0,0,213.35986,165.446Z"/><path class="cls-1" d="M213.35986,165.446l-.00073-.00073c-.51013-.51013-.78149-.78137-.88843-.88843.135.13526.51.51014.88782.88794a18.15624,18.15624,0,0,0-12.83215-5.2832h-24.7063c-1.51563,0-3.06384-.04516-4.56165.02124a18.02953,18.02953,0,0,0-17.225,18.44043v24.24182h64.59887V178.23816A18.144,18.144,0,0,0,213.35986,165.446Z"/><path class="cls-2" d="M216.10693,165.509a4.442,4.442,0,0,0-.418-.52246l.01954-.01953-1.32813-1.32812c-.10742-.1084-.2207-.22071-.33984-.34082l-.7959-.7959h-.19336a20.33371,20.33371,0,0,0-12.52441-4.34082h-24.707c-.42968,0-.86132-.00391-1.29394-.00782-1.12305-.00781-2.23242-.01855-3.3877.03321a20.02624,20.02624,0,0,0-19.10449,20.43664V204.8656h68.59863V178.23853A20.26656,20.26656,0,0,0,216.10693,165.509Zm.52539,35.35657H156.03369V178.62341a16.02883,16.02883,0,0,1,15.31348-16.4425c1.0332-.04688,2.08984-.03613,3.14453-.02735.44434.00391.88769.00782,1.32812.00782h24.707a16.023,16.023,0,0,1,16.10546,16.07715Z"/><circle class="cls-3" cx="185.65356" cy="139.00998" r="14.43135"/><path class="cls-2" d="M185.65381,122.57837A16.43164,16.43164,0,1,0,202.08447,139.01,16.4501,16.4501,0,0,0,185.65381,122.57837Zm0,28.86328A12.43164,12.43164,0,1,1,198.08447,139.01,12.44616,12.44616,0,0,1,185.65381,151.44165Z"/><rect class="cls-2" x="166.53174" y="185.08032" width="4" height="17.78528"/><rect class="cls-2" x="202.14404" y="185.08032" width="4" height="17.78528"/><rect class="cls-2" x="166.53174" y="186.28442" width="4" height="16.58118"/><rect class="cls-2" x="202.14404" y="186.28442" width="4" height="16.58118"/><polygon class="cls-4" points="177.462 160.163 183.464 167.206 187.375 167.206 193.845 160.163 177.462 160.163"/><polygon class="cls-4" points="187.375 167.206 183.464 167.206 180.534 192.701 185.419 196.645 190.304 192.701 187.375 167.206"/><path class="cls-2" d="M173.13037,158.16333l9.40918,11.042h5.71289l10.14649-11.042Zm13.36621,7.042h-2.10937l-2.59278-3.042h7.49707Z"/><path class="cls-2" d="M189.15771,165.20532h-7.47753l-3.25879,28.36133,6.998,5.64856,6.99707-5.64856Zm-3.73828,28.86914L182.646,191.8363l2.60058-22.631h.34473l2.60058,22.631Z"/><rect class="cls-2" x="126.57471" y="128.5177" width="4" height="19.37317"/><rect class="cls-2" x="109.7837" y="153.00737" width="21.4863" height="4.00014" transform="translate(-72.44477 118.73099) rotate(-41.48627)"/><polygon class="cls-2" points="128.485 125.69 119.759 134.413 122.587 137.241 128.485 131.346 134.562 137.424 137.39 134.596 128.485 125.69"/><polygon class="cls-2" points="114.479 160.124 114.479 151.527 110.479 151.527 110.479 164.124 122.817 164.124 122.817 160.124 114.479 160.124"/><rect class="cls-2" x="134.62298" y="144.26393" width="4.00014" height="21.48704" transform="translate(-69.99986 154.63375) rotate(-48.50353)"/><polygon class="cls-2" points="142.671 151.527 142.671 160.124 134.333 160.124 134.333 164.124 146.671 164.124 146.671 151.527 142.671 151.527"/></svg>