<svg id="Layer_1" data-name="Layer 1" xmlns="http://www.w3.org/2000/svg" viewBox="0 0 256 256"><defs><style>.cls-1{fill:#85d1d8;}.cls-2{fill:#616363;}.cls-3{fill:#fcb856;}.cls-4{fill:#ceecf3;}.cls-5{fill:#fff;}</style></defs><title>-</title><rect class="cls-1" x="61.95605" y="48.38184" width="132.08716" height="132.08716"/><polygon class="cls-2" points="59.957 46.382 59.957 182.469 99.664 182.469 99.664 178.469 63.957 178.469 63.957 50.382 192.043 50.382 192.043 178.469 155.319 178.469 155.319 182.469 196.043 182.469 196.043 46.382 59.957 46.382"/><rect class="cls-3" x="76.75159" y="64.8938" width="102.49622" height="30.03455"/><path class="cls-2" d="M74.75146,62.89355V96.92871h106.4961V62.89355Zm102.4961,30.03516H78.75146V66.89355h98.4961Z"/><rect class="cls-4" x="88.75317" y="142.58911" width="78.49304" height="13.10205"/><rect class="cls-1" x="88.75317" y="142.58911" width="78.49304" height="13.10205"/><polygon class="cls-2" points="86.753 140.589 86.753 157.691 99.664 157.691 99.664 153.691 90.753 153.691 90.753 144.589 165.247 144.589 165.247 153.691 156.395 153.691 156.395 157.691 169.247 157.691 169.247 140.589 86.753 140.589"/><path class="cls-5" d="M99.6637,142.58911v57.6886a7.34074,7.34074,0,0,0,7.34069,7.34082h40.97339a7.34064,7.34064,0,0,0,7.34058-7.34082v-57.6886Z"/><path class="cls-3" d="M113.57861,182.28906a6.3642,6.3642,0,1,0,6.36426,6.36426A6.36422,6.36422,0,0,0,113.57861,182.28906Z"/><path class="cls-3" d="M113.57861,174.10486a6.3642,6.3642,0,1,0,6.36426,6.36413A6.36426,6.36426,0,0,0,113.57861,174.10486Z"/><rect class="cls-1" x="132.71252" y="142.58911" width="10.09265" height="65.02942"/><path class="cls-2" d="M97.66357,140.58887v59.68847a9.3516,9.3516,0,0,0,9.34082,9.34082H147.978a9.3516,9.3516,0,0,0,9.34082-9.34082V140.58887Zm55.65528,59.68847a5.34638,5.34638,0,0,1-5.34082,5.34082H107.00439a5.34638,5.34638,0,0,1-5.34082-5.34082V144.58887h51.65528Z"/><rect class="cls-2" x="88.75342" y="115.97168" width="78.49316" height="4"/></svg>