<svg id="Layer_1" data-name="Layer 1" xmlns="http://www.w3.org/2000/svg" viewBox="0 0 256 256"><defs><style>.cls-1{fill:#ceecf3;}.cls-2{fill:#616363;}.cls-3{fill:#fcb856;}.cls-4{fill:#fff;}</style></defs><title>-</title><rect class="cls-1" x="83.49646" y="160.6709" width="23.78638" height="45.72095"/><path class="cls-1" d="M156.56885,77.17383H96.40765a46.0862,46.0862,0,0,0-44.60638,34.51611H29.8653v28.37964H50.57745c2.357,23.23193,21.97632,41.36206,38.757,41.36206h67.23438A46.09383,46.09383,0,0,0,202.63647,135.364v-12.1228A46.06742,46.06742,0,0,0,156.56885,77.17383Z"/><path class="cls-1" d="M66.78058,74.62427a6.20462,6.20462,0,0,0-10.59192,4.38745v21.63379l27.3078-9.30542Z"/><path class="cls-2" d="M156.77856,75.17334H96.19794a47.9498,47.9498,0,0,0-22.45648,5.58594l1.87988,3.53125a43.9307,43.9307,0,0,1,20.5766-5.11719h60.58062a43.908,43.908,0,0,1,43.85791,43.8584v12.542a43.924,43.924,0,0,1-38.22955,43.501,44.597,44.597,0,0,1-5.62836.35742H107.283v4h49.4956a48.42411,48.42411,0,0,0,6.13569-.39063,47.93022,47.93022,0,0,0,41.72222-47.46777v-12.542A47.91193,47.91193,0,0,0,156.77856,75.17334Z"/><path class="cls-2" d="M219.56567,111.51416a8.5046,8.5046,0,0,0-8.49511,8.49512h4a4.53238,4.53238,0,0,1,9.06445,0,5.71159,5.71159,0,0,1-5.70508,5.70508H207.29614v4h11.13379a9.71587,9.71587,0,0,0,9.70508-9.70508A8.52073,8.52073,0,0,0,219.56567,111.51416Z"/><path class="cls-3" d="M130.02075,49.60791a21.027,21.027,0,0,0-12.5,37.92993h25a21.02209,21.02209,0,0,0-12.5-37.92993Z"/><path class="cls-2" d="M130.02075,47.60791A23.027,23.027,0,0,0,116.33032,89.145l.53021.39258h26.31794l.52929-.39063a23.02182,23.02182,0,0,0-13.687-41.53906ZM141.84442,85.5376h-23.646a18.84787,18.84787,0,0,1-7.1977-14.89942A19.02491,19.02491,0,1,1,141.84442,85.5376Z"/><path class="cls-4" d="M130.509,69.21875c-2.50695-.821-4.32519-1.51025-4.32519-3.38721,0-1.75952,1.46618-2.7417,3.56262-2.7417a9.32413,9.32413,0,0,1,5.05884,1.77393l1.50952-1.86206a12.28378,12.28378,0,0,0-5.11688-2.18457V56.88721h-2.00836v3.79785c-3.666.17627-5.7038,2.39038-5.7038,5.3081,0,3.57788,2.991,4.60425,6.27551,5.65992,2.77136.865,4.50055,1.58349,4.50055,3.73852,0,1.8916-1.64154,2.99146-3.85559,2.99146a8.5298,8.5298,0,0,1-5.792-2.49292l-1.56861,1.87695a10.46852,10.46852,0,0,0,6.1435,2.947v3.666h2.00879V80.74365c3.65069-.293,5.80621-2.44824,5.80621-5.51269v-.00049C137.00415,71.37451,134.20367,70.39209,130.509,69.21875Z"/><rect class="cls-2" x="107.96063" y="85.5376" width="42.3902" height="4"/><path class="cls-2" d="M55.11053,150.95264a46.91381,46.91381,0,0,1-2.54589-11.10645l-.19916-1.77637H31.86493V113.68994h29.299v-4H27.86493v32.37988H48.81818a47.52166,47.52166,0,0,0,33.70745,39.37989l1.14063-3.834A44.12341,44.12341,0,0,1,55.11053,150.95264Z"/><path class="cls-2" d="M68.19458,73.21045a8.204,8.204,0,0,0-14.0058,5.80078V100.0874a47.61659,47.61659,0,0,0-4.37414,11.10938l3.877.98633a43.62933,43.62933,0,0,1,4.23969-10.59766l.25494-.4541.0025-22.12012a4.20422,4.20422,0,0,1,7.17768-2.97266L82.08228,92.75439l2.82806-2.82812Z"/><polygon class="cls-2" points="105.283 172.562 105.283 204.392 85.496 204.392 85.496 162.724 81.496 162.724 81.496 208.392 109.283 208.392 109.283 172.562 105.283 172.562"/><rect class="cls-1" x="145.15753" y="160.6709" width="23.78644" height="45.72095"/><polygon class="cls-2" points="166.944 162.724 166.944 204.392 147.157 204.392 147.157 172.562 143.157 172.562 143.157 208.392 170.944 208.392 170.944 162.724 166.944 162.724"/><rect class="cls-2" x="79.40845" y="115.97314" width="8.17584" height="4"/></svg>