<svg id="Layer_1" data-name="Layer 1" xmlns="http://www.w3.org/2000/svg" viewBox="0 0 256 256"><defs><style>.cls-1{fill:#84d1da;}.cls-2{fill:#fff;}.cls-3{fill:#616363;}.cls-4{fill:#fcb856;}</style></defs><title>-</title><circle class="cls-1" cx="134.2959" cy="132.73662" r="67.91529"/><path class="cls-2" d="M135.05945,61.37152h-.75733c-26.81921,0-48.56042,19.39417-48.56042,46.21338v.00012L65.87915,145.94757H85.7417V179.0213h44.51416v36.12891h53.36426V109.93213A48.56076,48.56076,0,0,0,135.05945,61.37152Z"/><path class="cls-3" d="M135.05908,59.37158h-.75683A51.95461,51.95461,0,0,0,98.6001,72.95947a46.7727,46.7727,0,0,0-14.85645,34.13471L62.59131,147.94769H83.7417V181.021h44.51465v36.1289h57.36328V109.93213A50.61816,50.61816,0,0,0,135.05908,59.37158ZM181.61963,213.1499H132.25635V177.021H87.7417V143.94769H69.16748L87.7417,108.07178v-.48731c0-25.20508,20.0166-44.21289,46.56055-44.21289h.75683a46.613,46.613,0,0,1,46.56055,46.56055Z"/><path class="cls-3" d="M201.63525,66.87939a24.35611,24.35611,0,0,0-29.04-16.34863l.95313,3.88477A20.35151,20.35151,0,0,1,196.44189,83.604l3.54493,1.85163A24.19959,24.19959,0,0,0,201.63525,66.87939Z"/><polygon class="cls-3" points="185.633 41.748 182.875 38.85 168.717 52.321 181.919 66.201 184.818 63.443 174.372 52.461 185.633 41.748"/><path class="cls-3" d="M82.45166,196.7016a20.351,20.351,0,0,1-22.89355-29.1875l-3.54493-1.8515a24.35255,24.35255,0,0,0,27.39161,34.92383Z"/><polygon class="cls-3" points="74.081 184.917 71.182 187.675 81.628 198.656 70.367 209.369 73.125 212.267 87.283 198.796 74.081 184.917"/><path class="cls-4" d="M147.05762,79.69952H121.53418A17.67705,17.67705,0,0,0,103.85693,97.3764v.00031a17.67708,17.67708,0,0,0,17.67725,17.67706h3.79053L143.98877,127.882l-2.34717-12.82825h5.416a17.67707,17.67707,0,0,0,17.67724-17.67706V97.3764A17.677,17.677,0,0,0,147.05762,79.69952Z"/><path class="cls-3" d="M147.05811,77.69971H121.53369a19.67725,19.67725,0,0,0,0,39.35449h3.16992l22.11817,15.20209L144.0415,117.0542h3.01661a19.67725,19.67725,0,0,0,0-39.35449Zm0,35.35449h-7.81543l1.91308,10.4541-15.21-10.4541h-4.41211a15.67725,15.67725,0,0,1,0-31.35449h25.52442a15.67725,15.67725,0,0,1,0,31.35449Z"/><path class="cls-3" d="M122.18481,93.75317a2.93238,2.93238,0,1,0,2.93213,2.93232A2.93235,2.93235,0,0,0,122.18481,93.75317Z"/><path class="cls-3" d="M134.2959,93.75317a2.93238,2.93238,0,1,0,2.93237,2.93232A2.9324,2.9324,0,0,0,134.2959,93.75317Z"/><path class="cls-3" d="M146.407,93.75317a2.93238,2.93238,0,1,0,2.93238,2.93232A2.9323,2.9323,0,0,0,146.407,93.75317Z"/></svg>