<svg id="Layer_1" data-name="Layer 1" xmlns="http://www.w3.org/2000/svg" viewBox="0 0 256 256"><defs><style>.cls-1{fill:#fcb856;}.cls-2{fill:#616363;}.cls-3{fill:#ceecf3;}.cls-4{fill:#84d1da;}</style></defs><title>-</title><path class="cls-1" d="M185.16138,178.29419H132.39172l-.02258-.01416a9.93638,9.93638,0,0,0,5.521-18.04883l-36.20679-25.70776a48.60528,48.60528,0,0,0-28.13867-8.97351H42.59375v45.65979H57.3501c10.21594,0,11.70984,3.1394,20.08252,8.99292l9.95581,6.9602a131.66337,131.66337,0,0,0,15.25073,7.34155c.05981.02369.11963.04786.17944.07154q.93109.36675,1.874.71362c.06274.02307.12512.04541.18774.06812,1.24243.45337,2.491.8728,3.7273,1.24426.074.02222.14746.04382.22119.06555,1.18457.35059,2.35351.65308,3.49145.89453q.139.02967.2771.05786a28.77418,28.77418,0,0,0,3.13135.47388q.17579.01611.34888.0293c.48266.03637.958.06176,1.41491.06176h58.02161c.1355,0,.26733-.01489.40137-.02026h9.24585a9.93524,9.93524,0,0,0,9.93518-9.93518v-.00012A9.93522,9.93522,0,0,0,185.16138,178.29419Z"/><path class="cls-2" d="M163.66309,176.29443H141.06445a12.04431,12.04431,0,0,0,.82813-1.04492,11.94412,11.94412,0,0,0-2.84473-16.64941l-36.20654-25.707a50.32926,50.32926,0,0,0-29.29639-9.34278H40.59375v49.65918H57.3501c7.44824,0,9.64453,1.6709,14.457,5.332,1.28027.97364,2.731,2.07813,4.47949,3.30079l9.95557,6.96.16943.10546c6.06055,3.39063,21.22168,11.27735,31.08106,11.27735h46.17041a11.94532,11.94532,0,0,0,0-23.89063Zm0,19.89063H117.49268c-9.11036,0-24.41748-8.1377-29.041-10.71973L78.57861,178.564c-1.68261-1.17675-3.09961-2.25488-4.34961-3.20605-5.04-3.834-8.082-6.14844-16.8789-6.14844H44.59375V127.55029H73.54492a46.35166,46.35166,0,0,1,26.98047,8.6045l36.209,25.709a7.945,7.945,0,1,1-9.18165,12.96875l-23.80957-16.85645-2.31152,3.26563,23.81055,16.85547a11.74694,11.74694,0,0,0,7.14941,2.19629l31.27149.001a7.94532,7.94532,0,0,1,0,15.89063Z"/><path class="cls-2" d="M175.51367,176.29443H163.66309v4h11.85058a7.94532,7.94532,0,0,1,0,15.89063h-58.021c-10.35645,0-28.918-10.64649-29.1045-10.75488L86.3877,188.894c.79834.46094,19.67773,11.291,31.105,11.291h58.021a11.94532,11.94532,0,0,0,0-23.89063Z"/><path class="cls-2" d="M185.16113,176.29443H145.79492v4h39.36621a7.93506,7.93506,0,1,1,0,15.87012H166.89062v4h18.27051a11.93506,11.93506,0,1,0,0-23.87012Z"/><rect class="cls-3" x="141.38147" y="119.19177" width="18.36072" height="14.16272"/><rect class="cls-4" x="168.21375" y="105.02905" width="18.36072" height="28.32544"/><rect class="cls-1" x="195.0459" y="82.80554" width="18.36084" height="50.54895"/><rect class="cls-2" x="139.33984" y="140.93018" width="75.94238" height="4"/><path class="cls-1" d="M111.02222,95.91443c-3.84912-1.26087-6.64063-2.319-6.64063-5.20056,0-2.70154,2.251-4.2096,5.46973-4.2096a14.31621,14.31621,0,0,1,7.76684,2.72351l2.31788-2.85864a18.8573,18.8573,0,0,0-7.85621-3.354V76.98145h-3.08349V82.8125c-5.62842.27051-8.7572,3.66968-8.7572,8.14941,0,5.493,4.59216,7.0691,9.63488,8.6897,4.25489,1.32813,6.90992,2.431,6.90992,5.73975,0,2.90417-2.52039,4.59277-5.91968,4.59277a13.09565,13.09565,0,0,1-8.89234-3.82715l-2.40844,2.88159a16.0735,16.0735,0,0,0,9.43213,4.52478v5.62842h3.08422v-5.583c5.605-.44982,8.91431-3.75915,8.91431-8.464v-.00061C120.99414,99.22388,116.69458,97.71582,111.02222,95.91443Z"/><rect class="cls-2" x="108.26367" y="55.81494" width="4" height="11.47461"/><rect class="cls-2" x="75.29639" y="96.08643" width="11.47461" height="4"/><rect class="cls-2" x="132.75684" y="96.08643" width="11.47461" height="4"/><rect class="cls-2" x="127.35822" y="72.05864" width="11.47497" height="3.99991" transform="translate(-16.49098 102.74598) rotate(-39.94916)"/><rect class="cls-2" x="85.43217" y="68.32111" width="3.99991" height="11.47497" transform="translate(-25.483 93.53235) rotate(-50.05114)"/><path class="cls-2" d="M193.0459,80.80518V135.354h22.36035V80.80518ZM211.40625,131.354H197.0459V84.80518h14.36035Z"/><path class="cls-2" d="M166.21387,103.02881V135.355h22.36035V103.02881ZM184.57422,131.355H170.21387V107.02881h14.36035Z"/><path class="cls-2" d="M139.38184,117.19189V135.355h22.36035V117.19189ZM157.74219,131.355H143.38184V121.19189h14.36035Z"/></svg>