<svg id="Layer_1" data-name="Layer 1" xmlns="http://www.w3.org/2000/svg" viewBox="0 0 256 256"><defs><style>.cls-1{fill:#84d1da;}.cls-2{fill:#616363;}.cls-3{fill:#fff;}.cls-4{fill:#fcb856;}</style></defs><title>-</title><rect class="cls-1" x="61.34753" y="46.0675" width="109.52002" height="140.37012"/><polygon class="cls-2" points="59.348 44.067 59.348 188.438 85.132 188.438 85.132 184.438 63.348 184.438 63.348 48.067 168.867 48.067 168.867 69.522 172.867 69.522 172.867 44.067 59.348 44.067"/><rect class="cls-3" x="85.13196" y="69.56226" width="109.52014" height="140.37012"/><path class="cls-2" d="M83.13184,67.5625V211.93262h113.5205V67.5625Zm109.5205,140.37012H87.13184V71.5625h105.5205Z"/><rect class="cls-2" x="140.42969" y="88.56641" width="32.77148" height="4"/><rect class="cls-2" x="140.42969" y="108.23926" width="32.77148" height="4"/><rect class="cls-2" x="140.42969" y="127.91113" width="32.77148" height="4"/><rect class="cls-2" x="107.65869" y="147.58301" width="65.54248" height="4"/><rect class="cls-2" x="107.65869" y="167.25586" width="65.54248" height="4"/><rect class="cls-2" x="107.65869" y="186.92773" width="65.54248" height="4"/><path class="cls-4" d="M120.84546,107.83936c-3.81311-1.249-6.57849-2.29725-6.57849-5.15174,0-2.67639,2.23-4.17029,5.41858-4.17029a14.18212,14.18212,0,0,1,7.69409,2.698l2.29614-2.832a18.68176,18.68176,0,0,0-7.78271-3.32251V89.08362h-3.05445V94.86c-5.57568.26818-8.67529,3.63549-8.67529,8.07312,0,5.44165,4.54919,7.00293,9.54468,8.60852,4.21509,1.31567,6.84521,2.40832,6.84521,5.68591,0,2.87707-2.49682,4.5498-5.86426,4.5498a12.97318,12.97318,0,0,1-8.8092-3.79126l-2.38586,2.8545a15.92348,15.92348,0,0,0,9.344,4.48254v5.57568h3.05518v-5.53088c5.55261-.44556,8.83105-3.72388,8.83105-8.38464v-.00061C130.72412,111.1178,126.46472,109.6239,120.84546,107.83936Z"/></svg>