<svg id="Layer_1" data-name="Layer 1" xmlns="http://www.w3.org/2000/svg" viewBox="0 0 256 256"><defs><style>.cls-1{fill:#fff;}.cls-2{fill:#616363;}.cls-3{fill:#fcb856;}.cls-4{fill:#84d1da;}</style></defs><title>-</title><rect class="cls-1" x="106.62531" y="45.13153" width="47.51892" height="47.51892" rx="23.7594" ry="23.7594"/><path class="cls-2" d="M130.38483,43.13184A25.75925,25.75925,0,1,0,156.144,68.89062,25.78848,25.78848,0,0,0,130.38483,43.13184Zm0,47.51849A21.75925,21.75925,0,1,1,152.144,68.89062,21.78442,21.78442,0,0,1,130.38483,90.65033Z"/><path class="cls-3" d="M201.46167,157.79236,182.092,120.63745a31.46727,31.46727,0,0,0-27.903-16.92053H107.98248a29.66941,29.66941,0,0,0-29.66937,29.66943v62.447l23.8764-51.09668v66.12049h58.64008V144.73663a2.623,2.623,0,0,1,4.91266-1.2796l14.37018,25.71307a12.0964,12.0964,0,0,0,16.15124,4.97345v-.00012A12.09627,12.09627,0,0,0,201.46167,157.79236Z"/><path class="cls-3" d="M200.24609,175.671l-19.87988.04089v7.418h19.81665a2.64082,2.64082,0,0,1,2.64075,2.64081v25.08637l7.50708-.04077V185.75562A10.08459,10.08459,0,0,0,200.24609,175.671Z"/><path class="cls-2" d="M200.24219,173.671l-21.876.04486v11.414h21.81641a.64143.64143,0,0,1,.64111.64069v27.09765l11.50684-.0625v-27.0498A12.09886,12.09886,0,0,0,200.24219,173.671Zm8.08838,35.15619-3.50684.01947V185.77051a4.64636,4.64636,0,0,0-4.64111-4.64069H182.36621V177.708l17.87988-.037a8.09372,8.09372,0,0,1,8.08448,8.0849Z"/><path class="cls-3" d="M78.35388,146.71625v52.22308a11.91782,11.91782,0,0,0,23.83563,0V146.71625Z"/><path class="cls-4" d="M201.46167,157.79236,182.092,120.63745a31.46727,31.46727,0,0,0-27.903-16.92053H107.98248a29.66941,29.66941,0,0,0-29.66937,29.66943v62.447l23.8764-51.09668v66.12049h58.64008V144.73663a2.623,2.623,0,0,1,4.91266-1.2796l14.37018,25.71307a12.0964,12.0964,0,0,0,16.15124,4.97345v-.00012A12.09627,12.09627,0,0,0,201.46167,157.79236Z"/><path class="cls-4" d="M78.35388,146.71625v52.22308a11.91782,11.91782,0,0,0,23.83563,0V146.71625Z"/><path class="cls-2" d="M203.23535,156.86713l-19.37012-37.1543a33.36119,33.36119,0,0,0-29.6762-17.996H107.98242A31.70559,31.70559,0,0,0,76.313,133.38672V195.833h4V133.38672a27.70128,27.70128,0,0,1,27.66943-27.66986H154.189a29.37318,29.37318,0,0,1,26.12933,15.8457l19.37012,37.1543a10.09654,10.09654,0,0,1-17.83008,9.47748l-14.37061-25.71289a4.62265,4.62265,0,0,0-8.6582,2.25488v64.12109h-54.6402V144.73633h-4v68.12109h62.6402V144.73633a.6231.6231,0,0,1,1.167-.30371L178.356,170.127a14.09675,14.09675,0,0,0,24.87939-13.25982Z"/><path class="cls-2" d="M100.18939,146.71582v52.22363a9.9177,9.9177,0,1,1-19.83539,0V146.71582h-4v52.22363a13.9177,13.9177,0,1,0,27.83539,0V146.71582Z"/><path class="cls-1" d="M115.23212,103.71692a15.15259,15.15259,0,1,0,30.30517,0Z"/><path class="cls-2" d="M113.23187,101.71686v2a17.15262,17.15262,0,0,0,34.30524,0v-2Zm17.153,15.15228a13.17333,13.17333,0,0,1-13.001-11.15228h26.0014A13.17316,13.17316,0,0,1,130.38483,116.86914Z"/><path class="cls-2" d="M130.3847,133.83423a3.21951,3.21951,0,1,0,3.21955,3.21948A3.21951,3.21951,0,0,0,130.3847,133.83423Z"/><path class="cls-2" d="M130.3847,155.202a3.21951,3.21951,0,1,0,3.21955,3.21948A3.21951,3.21951,0,0,0,130.3847,155.202Z"/><path class="cls-2" d="M130.3847,176.56982a3.21952,3.21952,0,1,0,3.21955,3.21949A3.2196,3.2196,0,0,0,130.3847,176.56982Z"/><circle class="cls-3" cx="73.92938" cy="104.62384" r="28.26001"/><path class="cls-2" d="M73.92969,74.36426a30.25974,30.25974,0,1,0,30.2597,30.25976A30.2941,30.2941,0,0,0,73.92969,74.36426Zm0,56.51947a26.25974,26.25974,0,1,1,26.2597-26.25971A26.28986,26.28986,0,0,1,73.92969,130.88373Z"/><path class="cls-1" d="M74.57141,102.74805c-3.324-1.08893-5.73468-2.00269-5.73468-4.49109,0-2.33313,1.944-3.63544,4.72357-3.63544a12.36357,12.36357,0,0,1,6.70728,2.352l2.00152-2.46875a16.285,16.285,0,0,0-6.78442-2.89642V86.39783H72.8219v5.03552c-4.8606.2337-7.5625,3.16919-7.5625,7.0376,0,4.74377,3.9657,6.10479,8.32037,7.50439,3.6745,1.147,5.96735,2.09937,5.96735,4.95667,0,2.508-2.17651,3.96624-5.11212,3.96624a11.3096,11.3096,0,0,1-7.67932-3.305l-2.07978,2.48841a13.88049,13.88049,0,0,0,8.14539,3.90759v4.86059h2.66339v-4.82153c4.84039-.38837,7.6983-3.24628,7.6983-7.30926v-.00055C83.183,105.60583,79.47,104.30353,74.57141,102.74805Z"/></svg>