<svg id="Layer_1" data-name="Layer 1" xmlns="http://www.w3.org/2000/svg" viewBox="0 0 256 256"><defs><style>.cls-1{fill:#ceecf3;}.cls-2{fill:#84d1da;}.cls-3{fill:#616363;}</style></defs><title>-</title><path class="cls-1" d="M122.73932,130.95947V67.01953a63.94507,63.94507,0,1,0,52.81,99.99024Z"/><path class="cls-2" d="M133.256,61.09009v63.94507l52.81287,36.04834A63.94241,63.94241,0,0,0,133.256,61.09009Z"/><path class="cls-3" d="M133.25592,59.08984h-2v67.002l55.33588,37.7705,1.12793-1.64941a65.94292,65.94292,0,0,0-54.46381-103.123Zm52.26361,99.19825-50.26361-34.30957V63.12207a61.94632,61.94632,0,0,1,50.26361,95.166Z"/><path class="cls-3" d="M124.73932,129.90234V65.01953h-2a65.94532,65.94532,0,1,0,54.46136,103.11914l1.12891-1.65234Zm-2,63.00782a61.94544,61.94544,0,0,1-2-123.8584v62.96386l52.00336,35.5A61.93769,61.93769,0,0,1,122.73932,192.91016Z"/><rect class="cls-3" x="145.4647" y="103.6115" width="32.69078" height="4.00063" transform="translate(-20.39534 169.93554) rotate(-52.57657)"/><path class="cls-3" d="M169.0166,108.27637a6.1582,6.1582,0,1,0,6.1582,6.1582A6.16535,6.16535,0,0,0,169.0166,108.27637Zm0,8.3164a2.1582,2.1582,0,1,1,2.1582-2.1582A2.16049,2.16049,0,0,1,169.0166,116.59277Z"/><path class="cls-3" d="M155.08209,89.99414a6.15821,6.15821,0,1,0,6.15821,6.1582A6.16535,6.16535,0,0,0,155.08209,89.99414Zm0,8.31641a2.15821,2.15821,0,1,1,2.15821-2.15821A2.16042,2.16042,0,0,1,155.08209,98.31055Z"/></svg>