<svg id="Layer_1" data-name="Layer 1" xmlns="http://www.w3.org/2000/svg" viewBox="0 0 256 256"><defs><style>.cls-1{fill:#fff;}.cls-2{fill:#616363;}.cls-3{fill:#84d1da;}.cls-4{fill:#fcb856;}</style></defs><title>-</title><path class="cls-1" d="M184.99634,106.13477l-.01929.001c.00366-.25512.01929-.50683.01929-.76269A51.52981,51.52981,0,0,0,86.34271,84.52393a39.4022,39.4022,0,1,0-7.29779,78.45068v.11719H184.99634a28.47852,28.47852,0,0,0,0-56.957Z"/><path class="cls-2" d="M186.9834,104.19873A53.52917,53.52917,0,0,0,85.11823,82.39893c-1.08063-.08448-2.14655-.127-3.18262-.127a41.40486,41.40486,0,0,0-4.89069,82.52051v.29932H184.99609a30.479,30.479,0,0,0,1.98731-60.89307Zm-1.98731,56.89307H80.73242L79.18951,160.98a37.40426,37.40426,0,0,1,2.7461-74.708,37.98777,37.98777,0,0,1,4.186.23975l1.45612.16211.59369-1.33985a49.52961,49.52961,0,0,1,94.8247,20.03907c0,.124-.00439.24658-.00879.36914l-.041,2.39355h2.03076l.09131-.001a26.47856,26.47856,0,0,1-.07227,52.957Z"/><polygon class="cls-3" points="154.982 179.356 154.982 139.236 132.61 139.236 132.61 179.356 120.118 179.356 143.796 201.423 167.474 179.356 154.982 179.356"/><path class="cls-2" d="M156.98242,177.356V137.23584h-26.3725V177.356H115.03857l28.75733,26.80127L172.55328,177.356Zm-31.78461,4h9.41211V141.23584h18.3725V181.356h9.41168l-18.5982,17.33349Z"/><polygon class="cls-4" points="118.467 94.064 88.527 121.968 104.322 121.968 104.322 178.905 132.611 178.905 132.611 121.968 148.406 121.968 118.467 94.064"/><path class="cls-2" d="M118.46631,91.33057l-35.019,32.6372h18.87445v56.9375H134.6109v-56.9375h18.875Zm12.14459,28.6372v56.9375H106.32178v-56.9375H93.60651l24.8598-23.16943,24.86041,23.16943Z"/></svg>