<svg id="Layer_1" data-name="Layer 1" xmlns="http://www.w3.org/2000/svg" viewBox="0 0 256 256"><defs><style>.cls-1{fill:#ceecf3;}.cls-2{fill:#fcb856;}.cls-3{fill:#fffcfd;}.cls-4{fill:#616363;}</style></defs><title>-</title><rect class="cls-1" x="52.56128" y="54.44092" width="150.87769" height="147.11841" rx="21.47803" ry="21.47803"/><rect class="cls-2" x="77.49225" y="79.04443" width="99.45392" height="99.05298"/><rect class="cls-3" x="171.02979" y="134.85889" width="11.83276" height="24.00024"/><rect class="cls-3" x="171.02985" y="97.64453" width="11.8327" height="24.00049"/><path class="cls-4" d="M181.96118,52.44092H74.03931a23.50455,23.50455,0,0,0-23.478,23.47754V180.08154a23.50455,23.50455,0,0,0,23.478,23.47754H181.96118a23.50444,23.50444,0,0,0,23.47754-23.47754V75.91846A23.50444,23.50444,0,0,0,181.96118,52.44092Zm19.47754,127.64062a19.49923,19.49923,0,0,1-19.47754,19.47754H74.03931a19.49965,19.49965,0,0,1-19.478-19.47754V75.91846a19.49965,19.49965,0,0,1,19.478-19.47754H181.96118a19.49923,19.49923,0,0,1,19.47754,19.47754Z"/><polygon class="cls-4" points="178.947 97.645 178.947 77.044 75.492 77.044 75.492 180.097 178.947 180.097 178.947 158.859 174.947 158.859 174.947 176.097 79.492 176.097 79.492 81.044 174.947 81.044 174.947 97.645 178.947 97.645"/><path class="cls-4" d="M169.02954,132.85889v28h15.833v-28Zm11.833,24h-7.833v-20h7.833Z"/><path class="cls-4" d="M169.02954,95.645v28h15.833v-28Zm11.833,24h-7.833v-20h7.833Z"/><path class="cls-3" d="M126.35474,107.22241a21.91956,21.91956,0,1,0,21.91955,21.91944A21.91951,21.91951,0,0,0,126.35474,107.22241Z"/><path class="cls-4" d="M126.35474,105.22217a23.91944,23.91944,0,1,0,23.91992,23.91992A23.94664,23.94664,0,0,0,126.35474,105.22217Zm0,43.83887a19.91944,19.91944,0,1,1,19.91992-19.91895A19.94186,19.94186,0,0,1,126.35474,149.061Z"/><path class="cls-4" d="M126.35474,116.15381A12.98828,12.98828,0,1,0,139.343,129.14209,13.00254,13.00254,0,0,0,126.35474,116.15381Zm0,21.97656a8.98828,8.98828,0,1,1,8.98828-8.98828A8.99859,8.99859,0,0,1,126.35474,138.13037Z"/><rect class="cls-4" x="124.35474" y="140.13037" width="4" height="10.93066"/><rect class="cls-4" x="124.35474" y="107.22217" width="4" height="10.93164"/><rect class="cls-4" x="137.34302" y="127.14209" width="10.93164" height="4"/><rect class="cls-4" x="104.4353" y="127.14209" width="10.93115" height="4"/><rect class="cls-4" x="174.94653" y="121.64502" width="4" height="13.21387"/></svg>