<svg id="Layer_1" data-name="Layer 1" xmlns="http://www.w3.org/2000/svg" viewBox="0 0 256 256"><defs><style>.cls-1{fill:#84d1da;}.cls-2{fill:#fff;}.cls-3{fill:#fcb856;}.cls-4{fill:#616363;}</style></defs><title>-</title><circle class="cls-1" cx="115.45163" cy="127.99997" r="86.54807" transform="translate(-10.16411 9.95863) rotate(-4.73115)"/><path class="cls-2" d="M197.90637,104.52136a42.781,42.781,0,0,1-26.08032-8.86877,46.62335,46.62335,0,0,0-30.10437-11.02185H85.17554a9.94531,9.94531,0,1,0,0,19.89062h50.12231a24.24134,24.24134,0,0,1,0,48.48267H116.70447a18.36526,18.36526,0,0,0-18.36524,18.36523v.00012h56.40589a43.04055,43.04055,0,0,0,23.60717-7.052h.00025a43.04012,43.04012,0,0,1,23.60693-7.05176h23.13636V104.52136Z"/><circle class="cls-3" cx="113.93411" cy="129.31262" r="23.65628" transform="translate(-19.24243 19.92) rotate(-9.21748)"/><path class="cls-2" d="M114.47876,127.72119c-2.82019-.924-4.8656-1.69934-4.8656-3.81067,0-1.97949,1.64941-3.08447,4.00781-3.08447a10.48937,10.48937,0,0,1,5.6908,1.99561l1.69824-2.09473a13.81922,13.81922,0,0,0-5.75635-2.45752v-4.4209h-2.25928v4.27258c-4.124.19812-6.4165,2.68885-6.4165,5.97107,0,4.02478,3.36487,5.17969,7.05969,6.36719,3.11768.97327,5.063,1.78137,5.063,4.20557,0,2.12793-1.8468,3.36523-4.3374,3.36523a9.59576,9.59576,0,0,1-6.51575-2.8042l-1.76465,2.11145a11.77713,11.77713,0,0,0,6.91114,3.31531v4.124h2.25976v-4.09082c4.10694-.32959,6.53174-2.75439,6.53174-6.20166v-.00049C121.7854,130.146,118.635,129.041,114.47876,127.72119Z"/><polygon class="cls-4" points="60.521 123.676 57.692 126.504 68.456 137.269 57.961 147.765 60.789 150.593 74.113 137.269 60.521 123.676"/><path class="cls-4" d="M197.90576,102.521a40.94934,40.94934,0,0,1-24.78894-8.39551,48.6784,48.6784,0,0,0-31.39538-11.49524H97.027a11.94538,11.94538,0,0,0,0,23.89075h38.27038a22.2417,22.2417,0,0,1,0,44.48339H116.70459a20.36388,20.36388,0,0,0-20.36511,20.36512v2h58.40527a44.91929,44.91929,0,0,0,24.7041-7.37989,40.93371,40.93371,0,0,1,22.51062-6.72351h25.137V102.521Zm25.19068,52.74511h-21.137a44.91088,44.91088,0,0,0-24.7041,7.37989,40.93816,40.93816,0,0,1-22.51062,6.72351H100.46252a16.362,16.362,0,0,1,16.24207-14.36512h18.59277a26.2417,26.2417,0,0,0,0-52.48339H97.027a7.94538,7.94538,0,0,1,0-15.89075h44.69446a44.75689,44.75689,0,0,1,28.88562,10.60754,45.0142,45.0142,0,0,0,27.2987,9.28321h25.19068Z"/><path class="cls-4" d="M141.72144,82.63025H85.17554a11.94538,11.94538,0,1,0,0,23.89075H97.027v-4H85.17554a7.94538,7.94538,0,1,1,0-15.89075h56.5459a44.67306,44.67306,0,0,1,28.81323,10.5498l2.58215-3.05456A48.6784,48.6784,0,0,0,141.72144,82.63025Z"/><path class="cls-4" d="M59.23877,190.33826a25.60205,25.60205,0,0,1,0-51.2041H70.08948v-4H59.23877a29.60205,29.60205,0,0,0,0,59.2041H182.96545v-4Z"/></svg>