<svg id="Layer_1" data-name="Layer 1" xmlns="http://www.w3.org/2000/svg" viewBox="0 0 256 256"><defs><style>.cls-1{fill:#fffcfd;}.cls-2{fill:#84d1da;}.cls-3{fill:#616363;}</style></defs><title>-</title><path class="cls-1" d="M128,38.76233,59.87433,64.22339V124.3689A89.25369,89.25369,0,0,0,100.672,199.32373L128,216.99023l27.328-17.6665a89.25346,89.25346,0,0,0,40.79773-74.95483V64.22339Z"/><path class="cls-2" d="M128,60.11328,79.87451,78.09985v46.26929a68.9928,68.9928,0,0,0,31.65528,58.15869L128,193.1748l16.47021-10.647a68.9928,68.9928,0,0,0,31.65528-58.15869V78.09985Z"/><path class="cls-3" d="M128,57.97852,77.87451,76.71191v47.65723a70.98244,70.98244,0,0,0,32.5694,59.83789L128,195.55664,145.55621,184.207a70.98261,70.98261,0,0,0,32.56928-59.83789V76.71191Zm46.12549,66.39062a66.99774,66.99774,0,0,1-30.74121,56.47852L128,190.793l-15.38422-9.94531a66.99766,66.99766,0,0,1-30.74127-56.47852V79.4873L128,62.24805,174.12549,79.4873Z"/><path class="cls-3" d="M128,36.62793l-70.12549,26.208v61.5332A90.90851,90.90851,0,0,0,99.586,201.00293L128,219.37207l28.41412-18.36914a90.90869,90.90869,0,0,0,41.71137-76.63379V62.83594Zm66.12549,87.74121a86.92138,86.92138,0,0,1-39.8833,73.27441L128,214.6084l-26.24219-16.96485a86.92138,86.92138,0,0,1-39.8833-73.27441V65.61133L128,40.89746l66.12549,24.71387Z"/><polygon class="cls-3" points="151.195 106.912 123.35 133.943 111.324 121.197 108.415 123.941 123.225 139.64 153.982 109.781 151.195 106.912"/></svg>