<svg id="Layer_1" data-name="Layer 1" xmlns="http://www.w3.org/2000/svg" viewBox="0 0 256 256"><defs><style>.cls-1{fill:#84d1da;}.cls-2{fill:#616363;}.cls-3{fill:#fff;}.cls-4{fill:#fcb856;}</style></defs><title>-</title><path class="cls-1" d="M148.61987,68.32935l.374.374C148.82825,68.5376,148.69543,68.40479,148.61987,68.32935Zm.60816.60815a13.95085,13.95085,0,0,0-9.8606-4.06006H120.3833c-1.16455,0-2.35413-.03467-3.50513.01636a13.85316,13.85316,0,0,0-13.23535,14.16943V97.4375c0,.45947.56641.25269.96424.25269h48.37048c.05249,0,.30225.03491.30225-.02906V78.76733A13.94171,13.94171,0,0,0,149.228,68.9375Z"/><path class="cls-1" d="M148.61987,68.32935l.374.374C148.82825,68.5376,148.69543,68.40479,148.61987,68.32935Zm.60816.60815a13.95085,13.95085,0,0,0-9.8606-4.06006H120.3833c-1.16455,0-2.35413-.03467-3.50513.01636a13.85316,13.85316,0,0,0-13.23535,14.16943v18.627h49.637V78.76733A13.94171,13.94171,0,0,0,149.228,68.9375Z"/><path class="cls-2" d="M151.3855,68.32178c-.0166-.02-.03223-.03955-.04883-.05908l.02246-.02247-.55566-.55566-.16114-.16113-.21679-.2168c-.05567-.05615-.10938-.10937-.16114-.16113l-.34179-.34131-.00684.00635a2.96686,2.96686,0,0,0-.45508-.353,16.10725,16.10725,0,0,0-10.09375-3.58008h-18.9834l-2.02978-.01172c-.52539,0-1.04834.00684-1.59619.03125a15.85382,15.85382,0,0,0-15.11475,16.166v20.627H155.28V78.76709A16.05018,16.05018,0,0,0,151.3855,68.32178ZM151.28,95.68994H105.64282V79.063A11.85464,11.85464,0,0,1,116.96655,66.8916c.45752-.02.92139-.02588,1.38721-.02588l21.01318.01172a12.06475,12.06475,0,0,1,8.43457,3.46289l.07325.07324A11.98294,11.98294,0,0,1,151.28,78.76709Z"/><circle class="cls-3" cx="127.93924" cy="48.62476" r="11.08877" transform="translate(-6.13681 21.12152) rotate(-9.2175)"/><path class="cls-2" d="M127.93921,35.53564a13.08887,13.08887,0,1,0,13.08887,13.08887A13.10362,13.10362,0,0,0,127.93921,35.53564Zm0,22.17774a9.08887,9.08887,0,1,1,9.08887-9.08887A9.099,9.099,0,0,1,127.93921,57.71338Z"/><rect class="cls-2" x="112.78345" y="84.02441" width="4" height="13.66602"/><rect class="cls-2" x="140.14722" y="84.02441" width="4" height="13.66602"/><rect class="cls-2" x="112.78345" y="84.9502" width="4" height="12.74023"/><rect class="cls-2" x="140.14722" y="84.9502" width="4" height="12.74023"/><polygon class="cls-4" points="121.645 64.878 126.256 70.29 129.262 70.29 134.234 64.878 121.645 64.878"/><polygon class="cls-4" points="129.262 70.29 126.257 70.29 124.005 89.88 127.759 92.91 131.513 89.88 129.262 70.29"/><path class="cls-2" d="M117.31274,62.87842,125.33325,72.29h4.80664l8.647-9.41162ZM128.38306,68.29h-1.20313l-1.20312-1.41162h3.70312Z"/><path class="cls-2" d="M131.04468,68.29h-6.57129l-2.58106,22.45557,5.8667,4.73486,5.8667-4.73486ZM127.759,90.33984l-1.64111-1.3247L127.759,74.73389l1.64112,14.28125Z"/><path class="cls-1" d="M91.30969,168.11768l.0011.00122C92.55615,169.364,91.93445,168.74219,91.30969,168.11768Zm.0011.00122-.00171-.00171-.00049-.00049a13.95048,13.95048,0,0,0-9.8601-4.05957H62.4646c-1.16455,0-2.35425-.03467-3.50513.01636a13.85316,13.85316,0,0,0-13.23535,14.16943v18.37451c0,.45947.56616.25244.96423.25244H95.05884c.05249,0,.30212.03492.30212-.02881V177.947A13.942,13.942,0,0,0,91.31079,168.1189Z"/><path class="cls-1" d="M91.30969,168.11768l.0011.00122C92.55615,169.364,91.93445,168.74219,91.30969,168.11768Zm.0011.00122-.00171-.00171-.00049-.00049a13.95048,13.95048,0,0,0-9.8601-4.05957H62.4646c-1.16455,0-2.35425-.03467-3.50513.01636a13.85316,13.85316,0,0,0-13.23535,14.16943v18.62695H95.361V177.947A13.942,13.942,0,0,0,91.31079,168.1189Z"/><path class="cls-2" d="M93.41821,167.44531l.02393-.02392-.69922-.69873-.01758-.01807-.00146-.00147h-.00049l-.38037-.38085c-.03223-.03174-.06348-.06348-.09473-.09424l-.24512-.24512-.00488.00488a2.79135,2.79135,0,0,0-.44531-.34131,16.10336,16.10336,0,0,0-10.10449-3.58935H62.4646l-2.02979-.01172c-.5249,0-1.04785.00684-1.59619.03125a15.85283,15.85283,0,0,0-15.11474,16.166v20.62744h53.6372V177.94678A16.04281,16.04281,0,0,0,93.41821,167.44531Zm-.05713,27.42481H47.72388V178.24268a11.85464,11.85464,0,0,1,11.32324-12.17139c.458-.02.92187-.02588,1.38769-.02588l21.01368.01172a12.02579,12.02579,0,0,1,8.396,3.42383l.09912.09912a11.98557,11.98557,0,0,1,3.41748,8.3667Z"/><path class="cls-3" d="M70.02051,136.71558a11.08887,11.08887,0,1,0,11.08887,11.08911A11.089,11.089,0,0,0,70.02051,136.71558Z"/><path class="cls-2" d="M70.02075,134.71582a13.08887,13.08887,0,1,0,13.08887,13.08887A13.10362,13.10362,0,0,0,70.02075,134.71582Zm0,22.17773a9.08887,9.08887,0,1,1,9.08887-9.08886A9.099,9.099,0,0,1,70.02075,156.89355Z"/><rect class="cls-2" x="54.8645" y="183.2041" width="4" height="13.66602"/><rect class="cls-2" x="82.22876" y="183.2041" width="4" height="13.66602"/><rect class="cls-2" x="54.8645" y="184.12988" width="4" height="12.74023"/><rect class="cls-2" x="82.22876" y="184.12988" width="4" height="12.74023"/><polygon class="cls-4" points="63.726 164.058 68.338 169.47 71.343 169.47 76.315 164.058 63.726 164.058"/><polygon class="cls-4" points="71.343 169.47 68.338 169.47 66.087 189.06 69.84 192.09 73.594 189.06 71.343 169.47"/><path class="cls-2" d="M59.39429,162.05811l8.02,9.41162h4.80713l8.64648-9.41162Zm11.07031,5.41162H69.261l-1.20264-1.41162h3.70312Z"/><path class="cls-2" d="M73.12622,167.46973H66.55444L63.97437,189.9248l5.86572,4.73584,5.8667-4.73584ZM69.84009,189.52,68.199,188.19531l1.64112-14.28271,1.64111,14.28222Z"/><path class="cls-1" d="M205.56152,167.45459c.06824.06836.20972.21.45679.457C205.81958,167.71289,205.64673,167.54,205.56152,167.45459Zm.66407.66431-.00171-.00171-.00049-.00049a13.95094,13.95094,0,0,0-9.86011-4.05957h-18.984c-1.16455,0-2.35425-.03467-3.50512.01636a13.85363,13.85363,0,0,0-13.23548,14.16943v18.37451c0,.45947.56641.25244.96436.25244h48.3706c.05249,0,.30213.03492.30213-.02881V177.947A13.942,13.942,0,0,0,206.22559,168.1189Zm-.0011-.00122.0011.00122c.30322.303.49243.49243.60131.60107C206.69141,168.58472,206.45813,168.35132,206.22449,168.11768Z"/><path class="cls-1" d="M205.56152,167.45459c.06824.06836.20972.21.45679.457C205.81958,167.71289,205.64673,167.54,205.56152,167.45459Zm.66407.66431-.00171-.00171-.00049-.00049a13.95094,13.95094,0,0,0-9.86011-4.05957h-18.984c-1.16455,0-2.35425-.03467-3.50512.01636a13.85363,13.85363,0,0,0-13.23548,14.16943v18.62695h49.63709V177.947A13.942,13.942,0,0,0,206.22559,168.1189Zm-.0011-.00122.0011.00122c.30322.303.49243.49243.60131.60107C206.69141,168.58472,206.45813,168.35132,206.22449,168.11768Z"/><path class="cls-2" d="M208.3855,167.50635c-.01758-.021-.03418-.04248-.05274-.064l.02246-.02246-.55566-.55566q-.0791-.07911-.15527-.15576l-.00586-.00538-.2168-.21679c-.05566-.05615-.10937-.10938-.16113-.16113l-.3418-.34131-.00683.00634a2.96724,2.96724,0,0,0-.45508-.353,16.10727,16.10727,0,0,0-10.09375-3.58008h-18.9834l-2.03027-.01172c-.5254,0-1.04786.00684-1.59571.03125a15.8528,15.8528,0,0,0-15.11523,16.166v20.62744h53.63769V177.94678A16.05167,16.05167,0,0,0,208.3855,167.50635Zm-.10938,27.36377H162.63843V178.24268a11.85561,11.85561,0,0,1,11.32324-12.17139c.458-.02.92187-.02588,1.3877-.02588l21.01367.01172a12.06807,12.06807,0,0,1,8.43457,3.46191l.07129.07129a11.99094,11.99094,0,0,1,3.40722,8.35645Z"/><path class="cls-3" d="M184.9353,136.71558a11.08879,11.08879,0,0,0-11.08886,11.08886v.00025a11.08887,11.08887,0,0,0,22.17773,0v-.00025A11.08887,11.08887,0,0,0,184.9353,136.71558Z"/><path class="cls-2" d="M184.9353,134.71582a13.08887,13.08887,0,1,0,13.08887,13.08887A13.10393,13.10393,0,0,0,184.9353,134.71582Zm0,22.17773a9.08887,9.08887,0,1,1,9.08887-9.08886A9.099,9.099,0,0,1,184.9353,156.89355Z"/><rect class="cls-2" x="169.77905" y="183.2041" width="4" height="13.66602"/><rect class="cls-2" x="197.14331" y="183.2041" width="4" height="13.66602"/><rect class="cls-2" x="169.77905" y="184.12988" width="4" height="12.74023"/><rect class="cls-2" x="197.14331" y="184.12988" width="4" height="12.74023"/><polygon class="cls-4" points="178.641 164.058 183.252 169.47 186.258 169.47 191.229 164.058 178.641 164.058"/><polygon class="cls-4" points="186.258 169.47 183.252 169.47 181.001 189.06 184.755 192.09 188.509 189.06 186.258 169.47"/><path class="cls-2" d="M174.30933,162.05811l8.01953,9.41162h4.80761l8.64649-9.41162Zm11.06933,5.41162h-1.20215l-1.20312-1.41162h3.70215Z"/><path class="cls-2" d="M188.04077,167.46973h-6.57129L178.8894,189.9248l5.86524,4.73584,5.86621-4.73584ZM184.75464,189.52l-1.64063-1.32471,1.64063-14.28076,1.6416,14.28027Z"/><circle class="cls-4" cx="127.53729" cy="142.45972" r="26.36101" transform="translate(-44.80873 59.65041) rotate(-22.49997)"/><path class="cls-2" d="M127.53735,114.09863A28.36109,28.36109,0,1,0,155.89819,142.46,28.39321,28.39321,0,0,0,127.53735,114.09863Zm0,52.72217A24.36109,24.36109,0,1,1,151.89819,142.46,24.38852,24.38852,0,0,1,127.53735,166.8208Z"/><path class="cls-2" d="M189.45288,113.53418a73.1159,73.1159,0,0,0-19.66309-29.58447l-2.6914,2.96A68.75734,68.75734,0,0,1,187.947,122.731l3.90235-.876A72.64711,72.64711,0,0,0,189.45288,113.53418Z"/><path class="cls-2" d="M85.95142,86.73877a73.302,73.302,0,0,0-25.7378,36.86182l3.82715,1.16308A69.27229,69.27229,0,0,1,88.3645,89.9292Z"/><path class="cls-3" d="M128.10327,140.584c-3.3241-1.08886-5.73486-2.00268-5.73486-4.49121,0-2.333,1.94409-3.63525,4.72363-3.63525a12.36206,12.36206,0,0,1,6.70728,2.35205l2.00171-2.469a16.28762,16.28762,0,0,0-6.78443-2.89624v-5.21045h-2.66284v5.0354c-4.8606.23364-7.5625,3.16919-7.5625,7.03759,0,4.7439,3.9657,6.10474,8.32031,7.5044,3.67456,1.147,5.96729,2.09936,5.96729,4.95679,0,2.50781-2.17652,3.96631-5.11206,3.96631a11.3095,11.3095,0,0,1-7.6792-3.30518l-2.08,2.48828a13.8812,13.8812,0,0,0,8.14551,3.90772v4.86059h2.66345v-4.82153c4.84033-.38843,7.69824-3.24634,7.69824-7.30908v-.00074C136.71484,143.44189,133.00171,142.1394,128.10327,140.584Z"/><polygon class="cls-2" points="74.424 84.12 73.727 88.059 84.848 90.027 82.825 101.439 86.763 102.138 89.485 86.786 74.424 84.12"/><polygon class="cls-2" points="195.699 112.423 189.364 121.537 179.757 114.938 177.491 118.234 190.378 127.087 198.984 114.706 195.699 112.423"/><path class="cls-2" d="M148.35034,206.9502a68.79655,68.79655,0,0,1-41.44678-.06348l-1.21289,3.81152a72.974,72.974,0,0,0,43.85889.06836Z"/><polygon class="cls-2" points="117.764 203.744 116.059 200.126 101.916 206.79 108.267 220.464 111.895 218.78 107.219 208.712 117.764 203.744"/></svg>