<svg id="Layer_1" data-name="Layer 1" xmlns="http://www.w3.org/2000/svg" viewBox="0 0 256 256"><defs><style>.cls-1{fill:#fff;}.cls-2{fill:#fcb856;}.cls-3{fill:#84d1da;}.cls-4{fill:#ceecf3;}.cls-5{fill:#616363;}.cls-6{fill:#7fcfd7;}</style></defs><title>-</title><rect class="cls-1" x="54.55005" y="82.48242" width="162.90845" height="110.35034"/><rect class="cls-2" x="71.34668" y="141.14856" width="20.21558" height="62.41931"/><rect class="cls-2" x="182.69849" y="141.14856" width="20.21558" height="62.41931"/><rect class="cls-3" x="108.46393" y="99.47217" width="20.21564" height="104.0957"/><rect class="cls-4" x="145.5813" y="145.47705" width="20.21545" height="57.67151"/><path class="cls-5" d="M69.34644,139.14844v66.41894H93.56226V139.14844Zm20.21582,62.41894H73.34644V143.14844H89.56226Z"/><path class="cls-5" d="M180.69849,139.14844v66.41894h24.21582V139.14844Zm20.21582,62.41894H184.69849V143.14844h16.21582Z"/><path class="cls-5" d="M106.46417,97.47266V205.56738h24.21527V97.47266Zm20.21527,104.09472H110.46417V101.47266h16.21527Z"/><path class="cls-5" d="M143.58136,143.47754v61.6709h24.21527v-61.6709Zm20.21527,57.6709H147.58136v-53.6709h16.21527Z"/><polygon class="cls-5" points="52.55 80.482 52.55 149.97 56.55 149.97 56.55 84.482 140.119 84.482 140.119 80.482 52.55 80.482"/><polygon class="cls-5" points="195.779 80.482 195.779 84.482 215.458 84.482 215.458 201.567 56.55 201.567 56.55 146.887 52.55 146.887 52.55 205.567 219.458 205.567 219.458 80.482 195.779 80.482"/><rect class="cls-5" x="140.11945" y="80.48242" width="55.65961" height="4"/><polygon class="cls-5" points="218.695 39.874 155.852 105.236 115.372 60.725 33.863 150.174 36.82 152.867 115.369 66.666 155.771 111.092 221.579 42.646 218.695 39.874"/><polygon class="cls-5" points="202.914 39.26 202.914 43.26 218.137 43.26 218.137 58.104 222.137 58.104 222.137 39.26 202.914 39.26"/><rect class="cls-6" x="54.55005" y="192.83276" width="162.90845" height="21.90771"/><path class="cls-5" d="M52.55005,190.833v25.90722h166.9082V190.833Zm162.9082,21.90722H56.55005V194.833h158.9082Z"/><path class="cls-6" d="M155.861,104.57471a7.5304,7.5304,0,1,0,7.53046,7.53027A7.53023,7.53023,0,0,0,155.861,104.57471Z"/><path class="cls-5" d="M155.86115,102.57422a9.53076,9.53076,0,1,0,9.53021,9.53125A9.54144,9.54144,0,0,0,155.86115,102.57422Zm0,15.06152a5.53076,5.53076,0,1,1,5.53021-5.53027A5.5363,5.5363,0,0,1,155.86115,117.63574Z"/><circle class="cls-2" cx="115.37085" cy="63.69556" r="7.5304"/><path class="cls-5" d="M115.37085,54.165a9.53028,9.53028,0,1,0,9.53027,9.53027A9.54123,9.54123,0,0,0,115.37085,54.165Zm0,15.06055a5.53028,5.53028,0,1,1,5.53027-5.53028A5.53633,5.53633,0,0,1,115.37085,69.22559Z"/></svg>