<svg id="Layer_1" data-name="Layer 1" xmlns="http://www.w3.org/2000/svg" viewBox="0 0 256 256"><defs><style>.cls-1{fill:#fff;}.cls-2{fill:#616363;}.cls-3{fill:#84d1da;}</style></defs><title>-</title><circle class="cls-1" cx="129.46683" cy="128" r="70.79545" transform="translate(-36.24888 203.39208) rotate(-69.13666)"/><polygon class="cls-2" points="201.819 89.839 170.369 119.063 141.373 88.921 105.622 121.58 90.31 107.71 65.296 129.471 51.366 116.962 48.693 119.938 65.254 134.809 90.257 113.058 105.634 126.988 141.194 94.504 170.213 124.671 204.541 92.769 201.819 89.839"/><polygon class="cls-2" points="182.575 87.073 182.575 91.073 203.307 91.073 203.307 109.837 207.307 109.837 207.307 87.073 182.575 87.073"/><circle class="cls-3" cx="141.28378" cy="91.7124" r="9.4834" transform="translate(2.48569 187.14489) rotate(-67.50005)"/><path class="cls-2" d="M141.28345,80.229a11.4834,11.4834,0,1,0,11.4834,11.4834A11.49633,11.49633,0,0,0,141.28345,80.229Zm0,18.9668a7.4834,7.4834,0,1,1,7.4834-7.4834A7.49236,7.49236,0,0,1,141.28345,99.1958Z"/><rect class="cls-2" x="80.2063" y="131.97827" width="4" height="51.32129"/><rect class="cls-2" x="103.83667" y="135.27588" width="4" height="48.02368"/><rect class="cls-2" x="151.09692" y="118.72314" width="4" height="64.57642"/><rect class="cls-2" x="127.46704" y="118.72314" width="4" height="64.57642"/><rect class="cls-2" x="174.72778" y="130.50244" width="4" height="52.79712"/><rect class="cls-2" x="71.22827" y="181.29956" width="116.47705" height="4"/></svg>