<svg id="Layer_1" data-name="Layer 1" xmlns="http://www.w3.org/2000/svg" viewBox="0 0 256 256"><defs><style>.cls-1{fill:#84d1da;}.cls-2{fill:#616363;}.cls-3{fill:#fff;}.cls-4{fill:#fcb856;}</style></defs><title>-</title><circle class="cls-1" cx="128.01904" cy="128" r="77.02881"/><rect class="cls-1" x="50.95215" y="66.34473" width="154.0957" height="8.18262"/><rect class="cls-1" x="50.95215" y="147.41602" width="154.0957" height="8.18237"/><path class="cls-2" d="M48.95215,64.34448V76.5271h158.0957V64.34448Zm154.0957,8.18262H52.95215V68.34448h150.0957Z"/><path class="cls-2" d="M48.95215,145.41577v12.18262h158.0957V145.41577Zm154.0957,8.18262H52.95215v-4.18262h150.0957Z"/><rect class="cls-3" x="63.51953" y="74.52734" width="128.96094" height="72.88867"/><path class="cls-2" d="M61.51953,72.5271v76.88867H194.48047V72.5271Zm128.96094,72.88867H65.51953V76.5271H190.48047Z"/><rect class="cls-4" x="116.53955" y="155.59839" width="22.9209" height="42.7959"/><path class="cls-2" d="M114.53955,153.59839v46.7959h26.92139v-46.7959Zm22.92139,42.7959H118.53955v-38.7959h18.92139Z"/><rect class="cls-2" x="80.57178" y="196.39429" width="94.85693" height="4"/><path class="cls-2" d="M84.16211,115.64722a9.33106,9.33106,0,1,0,9.33105,9.331A9.34149,9.34149,0,0,0,84.16211,115.64722Zm0,14.66211a5.33106,5.33106,0,1,1,5.33105-5.33106A5.33723,5.33723,0,0,1,84.16211,130.30933Z"/><rect class="cls-2" x="118.26009" y="91.59225" width="19.48031" height="3.99957" transform="translate(-28.68959 117.91954) rotate(-44.99898)"/><rect class="cls-2" x="126.00046" y="83.85189" width="3.99957" height="19.48031" transform="translate(-28.68916 117.92231) rotate(-45)"/><path class="cls-2" d="M93.36475,91.59155a11.21531,11.21531,0,0,0-11.20264,11.20313v6.542h4v-6.542a7.211,7.211,0,0,1,7.20264-7.20313h15.15234v-4Z"/><polygon class="cls-2" points="103.205 85.291 100.376 88.119 106.413 94.156 100.452 100.116 103.28 102.944 112.07 94.156 103.205 85.291"/><path class="cls-2" d="M165.9209,91.59155H146v4h19.9209a7.21146,7.21146,0,0,1,7.20312,7.20313v15.13476a8.07918,8.07918,0,0,1-8.07031,8.07032H144.51465v4h20.53906A12.0844,12.0844,0,0,0,177.124,117.92944V102.79468A11.21541,11.21541,0,0,0,165.9209,91.59155Z"/><polygon class="cls-2" points="147.343 127.962 153.304 122.001 150.476 119.173 141.687 127.962 150.552 136.827 153.38 133.999 147.343 127.962"/><path class="cls-4" d="M128.56787,123.374c-2.84216-.93066-4.90332-1.71215-4.90332-3.83984,0-1.99487,1.66211-3.1084,4.03882-3.10864a10.56831,10.56831,0,0,1,5.73511,2.01074l1.71118-2.11108a13.923,13.923,0,0,0-5.80078-2.47632V109.3938l-2.27686.00024v4.30542c-4.156.2-6.46631,2.71021-6.46631,6.01783,0,4.05639,3.39087,5.21972,7.11438,6.41625,3.14173.98047,5.10218,1.79468,5.10218,4.238,0,2.14429-1.861,3.39136-4.371,3.3916a9.67025,9.67025,0,0,1-6.566-2.82568l-1.77832,2.12793a11.8665,11.8665,0,0,0,6.9646,3.34058v4.156h2.27735v-4.12256c4.13867-.33252,6.58227-2.77636,6.58227-6.25024v-.00049C135.93115,125.81714,132.75635,124.70361,128.56787,123.374Z"/></svg>