<svg id="Layer_1" data-name="Layer 1" xmlns="http://www.w3.org/2000/svg" viewBox="0 0 256 256"><defs><style>.cls-1{fill:#84d1da;}.cls-2{fill:#616363;}.cls-3{fill:#fff;}.cls-4{fill:#fcb856;}</style></defs><title>-</title><rect class="cls-1" x="85.92603" y="177.0011" width="85.10315" height="38.64807"/><path class="cls-2" d="M83.926,175.00116v42.6485h89.103v-42.6485Zm85.103,38.6485H87.926v-34.6485h81.103Z"/><rect class="cls-3" x="97.69928" y="188.16296" width="61.64539" height="13.40729"/><path class="cls-2" d="M95.69946,186.16327v17.40729h65.645V186.16327Zm61.645,13.40729h-57.645v-9.40729h57.645Z"/><path class="cls-4" d="M128.47766,134.44958A42.5516,42.5516,0,0,1,85.92615,177.0011h85.103A42.55152,42.55152,0,0,1,128.47766,134.44958Z"/><path class="cls-4" d="M149.84735,56.68781a83.97166,83.97166,0,0,0-42.73938,0l-21.18182,5.574V92.51617c0,42.31342,42.55151,41.45234,42.55151,41.45234s42.55151.86108,42.55151-41.45234V62.26178Z"/><path class="cls-4" d="M105.41443,43.56427h-.00006v13.569l1.69427-.44578a83.97,83.97,0,0,1,42.738,0l1.69415.44578v-13.569A83.97307,83.97307,0,0,0,105.41443,43.56427Z"/><path class="cls-2" d="M130.47772,134.44946v-.4815h-4v.4815A40.59757,40.59757,0,0,1,85.926,175.00116v4h85.103v-4A40.59754,40.59754,0,0,1,130.47772,134.44946Zm-26.10589,40.5517a44.77172,44.77172,0,0,0,24.10589-27.33789,44.77335,44.77335,0,0,0,24.10553,27.33789Z"/><path class="cls-2" d="M150.35626,54.75317a86.39373,86.39373,0,0,0-43.75689,0L83.926,60.72v31.7959c0,22.17377,11.48,32.76849,21.11035,37.75091a54.15415,54.15415,0,0,0,23.251,5.70221l.14991-.001.231.001a54.152,54.152,0,0,0,23.25238-5.70312c9.6294-4.9834,21.1084-15.57721,21.1084-37.75V60.72Zm18.67279,37.7627c0,38.34662-36.23,39.45312-40.36078,39.45312l-.229-.001-.15192.001c-4.13092,0-40.36132-1.1065-40.36132-39.45312V63.804l19.69091-5.18165a82.33544,82.33544,0,0,1,41.72168,0L169.02905,63.804Z"/><path class="cls-2" d="M152.09,41.64178a86.34263,86.34263,0,0,0-47.2251,0l-1.45056.41413v17.6709l4.20306-1.1045a82.33164,82.33164,0,0,1,41.7207,0l4.20264,1.1045V42.05591Zm-2.54926,12.90143a85.97413,85.97413,0,0,0-42.1264,0V45.08807a82.30873,82.30873,0,0,1,42.1264,0Z"/><path class="cls-2" d="M171.02905,69.75018v4H194.24V83.802c0,.415-.00879.82721-.02686,1.23926-.59521,13.7099-12.07666,24.44922-26.13818,24.44922h-.67871v4h.67871c16.20947,0,29.4458-12.41992,30.13428-28.2735.021-.46869.03076-.94141.03076-1.415V69.75018Z"/><path class="cls-2" d="M87.84644,110.1604A25.71606,25.71606,0,0,1,64.03192,94.8811,27.88237,27.88237,0,0,1,61.76007,83.802V73.75018H85.926v-4h-28.166V83.802a31.84643,31.84643,0,0,0,2.59808,12.66016A29.70975,29.70975,0,0,0,87.84644,114.1604h2.00628v-4Z"/></svg>