<svg id="Layer_1" data-name="Layer 1" xmlns="http://www.w3.org/2000/svg" viewBox="0 0 256 256"><defs><style>.cls-1{fill:#fff;}.cls-2{fill:#616363;}.cls-3{fill:#fcb856;}</style></defs><title>-</title><path class="cls-1" d="M174.79736,48.15015H65.68549a11.10044,11.10044,0,0,1,11.1,11.10009v129.27h109.52V59.6582A11.50807,11.50807,0,0,0,174.79736,48.15015Z"/><path class="cls-1" d="M65.68549,48.15015a11.0962,11.0962,0,0,0-11.09,11.10009v98.32a10.34072,10.34072,0,0,1-10.34,10.34h32.53V59.25024A11.10044,11.10044,0,0,0,65.68549,48.15015Z"/><path class="cls-1" d="M33.91547,130.7002v26.87a10.34,10.34,0,0,0,20.68,0v-26.87Z"/><path class="cls-2" d="M174.79486,46.15283H88.40125v4h86.39361a9.51884,9.51884,0,0,1,9.50787,9.50781V186.52H78.78168V59.24561a13.09327,13.09327,0,0,0-26.18653,0v69.45312H31.915v28.87012a12.34009,12.34009,0,0,0,24.68017,0V59.24561a9.09327,9.09327,0,0,1,18.18653,0V190.52H188.30273V59.66064A13.52319,13.52319,0,0,0,174.79486,46.15283ZM52.59515,157.56885a8.34009,8.34009,0,0,1-16.68017,0V132.69873H52.59515Z"/><path class="cls-2" d="M174.79724,46.1499l-108.9682.001v.001c-.043-.001-.085-.001-.1275-.001a13.09412,13.09412,0,0,0-13.1059,13.09961v98.31933a8.34954,8.34954,0,0,1-8.34039,8.34082v4H74.78552V190.52h113.52V59.65869A13.52333,13.52333,0,0,0,174.79724,46.1499ZM74.78552,165.91064H53.34277a12.29422,12.29422,0,0,0,3.25287-8.34082V59.25049a9.0948,9.0948,0,0,1,9.6684-9.082,9.20507,9.20507,0,0,1,8.08941,6.54687,9.73629,9.73629,0,0,1,.43207,2.877Zm109.52,20.60938h-105.52V59.57959a13.63036,13.63036,0,0,0-3.7807-9.42871l99.79242-.001a9.51945,9.51945,0,0,1,9.5083,9.50879Z"/><rect class="cls-2" x="62.99554" y="165.91064" width="13.78998" height="4"/><rect class="cls-2" x="99.29486" y="67.54932" width="65.54248" height="4"/><rect class="cls-2" x="99.29486" y="87.22119" width="65.54248" height="4"/><rect class="cls-2" x="99.29486" y="106.89307" width="65.54248" height="4"/><rect class="cls-2" x="99.29486" y="126.56592" width="65.54248" height="4"/><rect class="cls-2" x="99.29486" y="146.23779" width="44.65771" height="4"/><rect class="cls-2" x="99.29486" y="165.91064" width="33.31488" height="4"/><circle class="cls-3" cx="191.19167" cy="176.95883" r="30.88712" transform="translate(-12.24229 339.69575) rotate(-81.44407)"/><path class="cls-2" d="M217.43884,157.14307a32.66835,32.66835,0,0,0-21.69922-12.75489,32.88909,32.88909,0,1,0,28.02356,37.11817A32.67264,32.67264,0,0,0,217.43884,157.14307Zm2.36231,23.81054a28.88712,28.88712,0,1,1-28.64893-32.88574,29.31072,29.31072,0,0,1,4.0343.28125,28.88645,28.88645,0,0,1,24.61463,32.60449Z"/><path class="cls-1" d="M191.90137,174.87573c-3.68238-1.20605-6.35291-2.2185-6.35291-4.97522,0-2.58459,2.15344-4.02722,5.23279-4.02722a13.69576,13.69576,0,0,1,7.43042,2.60547l2.21729-2.735a18.04254,18.04254,0,0,0-7.51587-3.20861v-5.77222h-2.94971v5.57837c-5.38464.25879-8.37781,3.51086-8.37781,7.79639,0,5.25512,4.39319,6.76293,9.21741,8.31347,4.07056,1.27051,6.61047,2.32569,6.61047,5.491,0,2.77832-2.41113,4.3938-5.66321,4.3938a12.52886,12.52886,0,0,1-8.5072-3.66138l-2.30408,2.75671a15.37632,15.37632,0,0,0,9.02369,4.32874v5.38477h2.95044v-5.34131c5.3623-.43018,8.52832-3.59619,8.52832-8.09729v-.00061C201.44141,178.04175,197.32812,176.599,191.90137,174.87573Z"/></svg>