<svg id="Layer_1" data-name="Layer 1" xmlns="http://www.w3.org/2000/svg" viewBox="0 0 256 256"><defs><style>.cls-1{fill:#fcb856;}.cls-2{fill:#616363;}.cls-3{fill:#ceecf3;}.cls-4{fill:#84d1da;}</style></defs><title>-</title><path class="cls-1" d="M76.50952,49.36719h66.48535a12.72,12.72,0,0,1,12.72,12.72v131.8252a12.72,12.72,0,0,1-12.72,12.72H76.50928a12.72,12.72,0,0,1-12.72-12.72V62.0874A12.72021,12.72021,0,0,1,76.50952,49.36719Z"/><path class="cls-2" d="M142.99463,47.36768H76.5094A14.73675,14.73675,0,0,0,61.78967,62.0874V193.9126A14.73675,14.73675,0,0,0,76.5094,208.63232h66.48523a14.7367,14.7367,0,0,0,14.71985-14.71972V62.0874A14.7367,14.7367,0,0,0,142.99463,47.36768ZM153.71448,193.9126a10.73157,10.73157,0,0,1-10.71985,10.71972H76.5094A10.73162,10.73162,0,0,1,65.78967,193.9126V62.0874A10.73162,10.73162,0,0,1,76.5094,51.36768h66.48523A10.73157,10.73157,0,0,1,153.71448,62.0874Z"/><rect class="cls-3" x="76.20947" y="66.96802" width="67.08521" height="112.53442"/><rect class="cls-2" x="102.89502" y="57.27197" width="13.71399" height="4"/><path class="cls-2" d="M115.36389,185.46436H104.14038a7.05371,7.05371,0,0,0,0,14.10742h11.22351a7.05371,7.05371,0,0,0,0-14.10742Zm0,10.10742H104.14038a3.05371,3.05371,0,0,1,0-6.10742h11.22351a3.05371,3.05371,0,0,1,0,6.10742Z"/><path class="cls-2" d="M61.42639,97.83643h72.08594v-4H61.42639a20.23633,20.23633,0,0,0,0,40.47265H90.437v-4H61.42639a16.23633,16.23633,0,0,1,0-32.47265Z"/><path class="cls-4" d="M110.55188,124.36719c-4.14172-1.35669-7.14539-2.49536-7.14539-5.59595,0-2.907,2.42212-4.52954,5.88562-4.52954a15.40484,15.40484,0,0,1,8.35718,2.93066l2.4939-3.07617a20.289,20.289,0,0,0-8.45325-3.60889v-6.49218h-3.31787V110.269c-6.05627.29126-9.42285,3.949-9.42285,8.769,0,5.91064,4.94128,7.60644,10.36719,9.35034,4.57837,1.429,7.43518,2.61572,7.43518,6.176,0,3.12476-2.71192,4.9419-6.36951,4.9419a14.09154,14.09154,0,0,1-9.56848-4.11817l-2.59143,3.10059a17.296,17.296,0,0,0,10.14917,4.8689v6.05615h3.3186v-6.00757c6.031-.48389,9.592-4.04468,9.592-9.10718v-.00073C121.282,127.92822,116.65552,126.30542,110.55188,124.36719Z"/><polygon class="cls-4" points="145.737 109.129 164.992 119.865 213.045 79.305 145.737 109.129"/><polygon class="cls-4" points="164.992 119.865 187.052 131.768 213.045 79.305 164.992 119.865"/><polygon class="cls-4" points="164.992 119.865 164.992 139.845 174.322 124.899 164.992 119.865"/><path class="cls-2" d="M211.20972,78.15625l-.35974-.21973L141.2699,108.92627l20.23,11.28027,2.80993,1.56983.92017.51025.01-.01025,3.27991-2.77979h.01l38.62-32.66015,7.62-6.4502Zm-46.44983,39.29-14.56006-8.11963L201.23,86.59619Z"/><path class="cls-2" d="M214.7699,80.38623l-3.56018-2.23L201.23,86.59619l-36.47009,30.8501-3.26,2.76025-.04016.02979,2.85009,1.54.93018.5,22.67993,12.23L214.80981,80.4165Zm-28.59,48.64014-17.65-9.52979,38.62-32.66015Z"/><path class="cls-2" d="M175.27112,123.13916l-9.3302-5.03418-2.9491,1.75977v19.98046l3.69629,1.0586,9.33008-14.94629Zm-8.2793,9.72559v-9.64844l4.50488,2.43066Z"/><polygon class="cls-2" points="127.01 84.444 124.182 87.272 133.503 96.593 123.964 106.131 126.793 108.959 139.159 96.593 127.01 84.444"/></svg>