<svg id="Layer_1" data-name="Layer 1" xmlns="http://www.w3.org/2000/svg" viewBox="0 0 256 256"><defs><style>.cls-1{fill:#84d1da;}.cls-2{fill:#616363;}.cls-3{fill:#fcb856;}.cls-4{fill:#fff;}</style></defs><title>-</title><path class="cls-1" d="M142.75134,89.08032a36.206,36.206,0,0,1,18.287,9.99707l.60376.61206,10.78894-47.187Z"/><path class="cls-2" d="M170.87817,51.24316,141.19849,87.82031l1.13867,3.2168a34.0992,34.0992,0,0,1,17.27637,9.44434l.60351.6123,3.374-.959,10.78907-47.18653ZM160.47974,95.7998a38.04949,38.04949,0,0,0-14.209-7.88378l22.293-27.47364Z"/><path class="cls-3" d="M77.16211,110.19434A208.32385,208.32385,0,0,0,51.45972,178.3916H71.02747l62.413-90.33618,5.68982-17.4353S102.11365,68.72656,77.16211,110.19434Z"/><path class="cls-2" d="M139.23267,68.62305s-.29493-.0166-.85157-.0166c-6.43359,0-39.70605,1.95605-62.9331,40.55664A212.4727,212.4727,0,0,0,49.48218,178.0918l-.34864,2.2998H72.0769l63.00928-91.19922.165-.23926,6.583-20.19042ZM131.63013,87.1582,69.97827,176.3916H53.84741a210.57985,210.57985,0,0,1,25.02832-65.166C99.14868,77.5332,127.16431,73.16016,136.35864,72.665Z"/><path class="cls-4" d="M159.90869,101.09717a33.37691,33.37691,0,0,0-48.70288-4.55664l-.001-.001c-32.88256,24.91162-45.1333,106.21729-45.1333,106.21729h76.67981c-7.46032-38.38453,5.35022-60.22828,5.35022-60.22828l.00037-.00024,49.451,14.40527,6.9574-18.08911Z"/><path class="cls-2" d="M163.04126,98.26074a41.04921,41.04921,0,0,0-29.60059-12.20508,35.33032,35.33032,0,0,0-23.48584,8.9209C76.83716,120.127,64.59888,199.10742,64.094,202.459l-.34619,2.29786h81.41944l-.45118-2.374c-6.1748-32.47754,1.88477-52.33593,4.39356-57.47754L198.759,159.36816l8.10743-21.0791ZM196.34692,154.499l-49.15527-14.31933-.79687,1.30664c-.52832.86621-12.62207,21.25586-6.04,59.27051H68.429c2.24707-13.04493,14.62109-77.84571,42.09423-101.1084l.064.127,1.95117-1.74316a31.338,31.338,0,0,1,20.90234-7.97657c10.43164,0,19.19825,3.61914,26.85254,11.11036l41.86035,38.23437Z"/><path class="cls-2" d="M147.03247,140.46191A27.51007,27.51007,0,0,1,107.29321,129.082L103.677,130.793a31.5015,31.5015,0,0,0,45.52344,13.03027Z"/><rect class="cls-2" x="157.7243" y="66.75169" width="11.58216" height="3.99956" transform="translate(-12.62702 47.82548) rotate(-16.02967)"/><rect class="cls-2" x="147.72913" y="77.61004" width="19.48656" height="4.00063" transform="translate(-15.78417 46.18096) rotate(-15.89807)"/><rect class="cls-2" x="149.24256" y="87.19744" width="15.58372" height="4.00063" transform="translate(-18.4209 46.40197) rotate(-15.88967)"/><path class="cls-4" d="M121.01514,76.096s-13.25586,19.85815,1.1593,32.259l13.11658-9.8103Z"/><path class="cls-2" d="M133.60376,99.61816l3.375-2.14648L121.05542,72.43262l-1.7041,2.55273c-.14209.21289-14.05811,21.48535,1.519,34.88574l2.6084-3.0332C113.44653,98.208,118.24585,85.5127,121.10034,79.957Z"/><polygon class="cls-2" points="198.392 166.082 179.115 185.112 168.504 172.737 150.67 190.054 153.457 192.923 168.237 178.571 178.87 190.974 201.202 168.928 198.392 166.082"/><polygon class="cls-2" points="187.069 165.505 187.069 169.505 198.843 169.505 198.843 180.821 202.843 180.821 202.843 165.505 187.069 165.505"/></svg>