<svg id="Layer_1" data-name="Layer 1" xmlns="http://www.w3.org/2000/svg" viewBox="0 0 256 256"><defs><style>.cls-1{fill:#ceecf3;}.cls-2{fill:#fff;}.cls-3{fill:#616363;}</style></defs><title>-</title><polygon class="cls-1" points="190.222 83.842 65.778 83.842 50.046 114.19 128 206.849 205.954 114.19 190.222 83.842"/><polygon class="cls-2" points="164.115 85.067 128 114.19 199.73 114.19 164.115 85.067"/><polygon class="cls-2" points="89.273 85.067 51.451 114.19 128 114.19 89.273 85.067"/><polygon class="cls-3" points="153.6 116.189 205.336 116.189 164.171 82.528 127.979 109.582 90.567 82.602 48.878 112.565 51.213 115.813 90.563 87.531 128.021 114.545 164.06 87.604 194.125 112.189 153.6 112.189 153.6 116.189"/><rect class="cls-3" x="51.45044" y="112.18945" width="104.5415" height="4"/><rect class="cls-3" x="94.2034" y="158.51935" width="97.30707" height="3.99938" transform="translate(-53.61871 247.53507) rotate(-72.21973)"/><path class="cls-3" d="M191.43774,81.8418H64.56226L47.65558,114.45508l80.34418,95.5,80.34472-95.5Zm-139.002,32.082,14.55811-28.082H189.0061l14.55811,28.082-75.56445,89.81836Z"/><rect class="cls-3" x="111.14307" y="111.86558" width="3.99947" height="97.30693" transform="translate(-43.59394 42.19217) rotate(-17.77105)"/><rect class="cls-3" x="125.99976" y="46.04492" width="4" height="22.71484"/><rect class="cls-3" x="48.04589" y="49.86574" width="3.99953" height="22.13571" transform="translate(-28.42861 53.2355) rotate(-45.00062)"/><rect class="cls-3" x="194.88605" y="58.93381" width="22.1361" height="3.99957" transform="translate(17.2344 163.47563) rotate(-44.99911)"/></svg>