<svg id="Layer_1" data-name="Layer 1" xmlns="http://www.w3.org/2000/svg" viewBox="0 0 256 256"><defs><style>.cls-1{fill:#ceecf3;}.cls-2{fill:#616363;}.cls-3{fill:#fcb856;}.cls-4{fill:#cae9e7;}.cls-5{fill:#fff;}</style></defs><title>-</title><rect class="cls-1" x="43.85593" y="75.12873" width="106.59113" height="53.29545" transform="translate(-43.51181 98.506) rotate(-44.99995)"/><path class="cls-2" d="M115.99463,42.42041l-78.2002,78.19922L78.30859,161.1333,156.5083,82.93408Zm-72.543,78.19922,72.543-72.543,34.85742,34.85742-72.54346,72.543Z"/><path class="cls-3" d="M108.10938,90.8186a15.4968,15.4968,0,1,0,0,21.91578A15.49657,15.49657,0,0,0,108.10938,90.8186Z"/><path class="cls-3" d="M49.78723,111.45508l-9.16418,9.16418,9.16418,9.16419A12.96026,12.96026,0,0,0,49.78723,111.45508Z"/><path class="cls-3" d="M116.01477,45.22766l-9.16418,9.16419a12.96006,12.96006,0,0,0,18.32837,0Z"/><path class="cls-3" d="M144.36108,73.57422a12.96013,12.96013,0,0,0,0,18.32825l9.16431-9.16419Z"/><path class="cls-3" d="M68.96948,148.9657l9.16419,9.16418,9.16406-9.16418A12.96011,12.96011,0,0,0,68.96948,148.9657Z"/><path class="cls-2" d="M51.20117,110.0415l-1.41406-1.41406L37.79443,120.61963l11.99268,11.99219,1.41406-1.41407a14.95916,14.95916,0,0,0,0-21.15625Zm-1.542,16.78614-6.20752-6.208,6.20752-6.208a10.97823,10.97823,0,0,1,0,12.416Z"/><path class="cls-2" d="M116.01514,42.3999,104.023,54.39209l1.41406,1.41406a14.95916,14.95916,0,0,0,21.15625,0l1.41406-1.41406Zm0,13.78809a10.88655,10.88655,0,0,1-6.208-1.92383l6.208-6.208,6.208,6.208A10.89107,10.89107,0,0,1,116.01514,56.188Z"/><path class="cls-2" d="M144.36084,70.74463l-1.41406,1.415a14.97924,14.97924,0,0,0,0,21.15722l1.41406,1.41407L156.353,82.73877Zm.12988,5.78711,6.20606,6.207-6.20606,6.20605A10.99307,10.99307,0,0,1,144.49072,76.53174Z"/><path class="cls-2" d="M88.71191,147.55127a14.9621,14.9621,0,0,0-21.15673,0l-1.41456,1.41406L78.13379,160.9585l11.99267-11.99317Zm-10.57812,7.751-6.208-6.209a10.98206,10.98206,0,0,1,12.41553,0Z"/><path class="cls-2" d="M109.52393,89.40479a17.49707,17.49707,0,1,0,0,24.74414A17.3829,17.3829,0,0,0,109.52393,89.40479Zm-2.82813,21.916a13.49707,13.49707,0,1,1,0-19.08789A13.41189,13.41189,0,0,1,106.6958,111.3208Z"/><polygon class="cls-2" points="165.764 65.453 176.259 54.958 173.431 52.13 160.108 65.453 173.7 79.045 176.528 76.217 165.764 65.453"/><path class="cls-4" d="M158.88818,101.76636H40.62305v109.8341H158.88818a21.31291,21.31291,0,0,0,21.313-21.31286V123.0791A21.31281,21.31281,0,0,0,158.88818,101.76636Z"/><path class="cls-2" d="M182.20068,140.34814V123.07959a23.33919,23.33919,0,0,0-23.3125-23.31348H38.62305v113.834H158.88818a23.339,23.339,0,0,0,23.3125-23.3125v-19.666h-4v19.666a19.33377,19.33377,0,0,1-19.3125,19.3125H42.62305v-105.834H158.88818a19.33461,19.33461,0,0,1,19.3125,19.31348v17.26855Z"/><path class="cls-5" d="M156.20166,140.34851a15.13654,15.13654,0,0,0,0,30.27307H189.571V140.34851Z"/><path class="cls-2" d="M156.20166,138.34814a17.13672,17.13672,0,0,0,0,34.27344H191.5708V138.34814Zm31.36914,30.27344H156.20166a13.13672,13.13672,0,0,1,0-26.27344H187.5708Z"/><circle class="cls-3" cx="157.5769" cy="155.48499" r="5.03186"/><rect class="cls-2" x="58.32031" y="113.86182" width="94.2251" height="4"/><rect class="cls-2" x="58.32031" y="194.46631" width="94.2251" height="4"/><path class="cls-2" d="M191.17725,63.58618H162.936v4h28.24121a23.02881,23.02881,0,0,1,0,46.05762h-2.29493v4h2.29493a27.02881,27.02881,0,0,0,0-54.05762Z"/></svg>